%FSLAX44Y44*%
%MOMM*%
G71*
G01*
G75*
G04 Layer_Color=32768*
%ADD10R,0.9000X0.8500*%
%ADD11R,0.9000X0.9000*%
%ADD12O,1.8000X0.4000*%
%ADD13R,2.0000X2.4000*%
%ADD14R,1.4500X1.1500*%
%ADD15R,0.7000X2.0000*%
%ADD16R,1.1000X0.5500*%
%ADD17R,0.8000X1.2000*%
%ADD18R,1.4000X1.2000*%
%ADD19R,1.9000X1.3000*%
%ADD20R,3.6000X5.0000*%
%ADD21C,15.0000*%
%ADD22R,2.8000X2.4000*%
%ADD23O,2.2000X0.6000*%
%ADD24R,2.0500X3.6000*%
%ADD25R,8.1000X2.8000*%
%ADD26R,1.4000X2.0000*%
%ADD27R,1.4000X2.2000*%
%ADD28R,1.4000X1.0000*%
%ADD29R,1.8000X1.4000*%
%ADD30R,2.4000X1.8000*%
%ADD31O,0.2500X1.3500*%
%ADD32O,1.3500X0.2500*%
%ADD33O,0.2500X1.4000*%
%ADD34O,1.4000X0.2500*%
%ADD35R,4.0000X1.8000*%
%ADD36R,5.0000X0.6000*%
%ADD37R,5.0000X0.8000*%
%ADD38R,1.0000X0.6000*%
%ADD39R,2.6500X1.3500*%
%ADD40R,3.2000X1.2000*%
%ADD41R,5.6000X2.2000*%
%ADD42R,2.7000X1.4000*%
%ADD43R,1.0500X0.6000*%
%ADD44R,1.2000X1.0000*%
%ADD45C,0.2000*%
%ADD46C,0.1500*%
%ADD47C,0.2500*%
%ADD48C,0.3000*%
%ADD49C,0.9000*%
%ADD50C,0.8000*%
%ADD51C,0.6000*%
%ADD52C,0.7000*%
%ADD53C,0.7500*%
%ADD54C,1.0000*%
%ADD55C,1.4000*%
%ADD56C,1.2000*%
%ADD57C,0.5000*%
%ADD58C,0.4000*%
%ADD59C,1.4000*%
%ADD60C,2.7000*%
%ADD61R,1.8000X1.8000*%
%ADD62C,1.8000*%
%ADD63C,1.6000*%
%ADD64R,1.8000X1.8000*%
%ADD65C,0.7000*%
%ADD66C,2.0000*%
%ADD67C,0.1600*%
%ADD68R,1.1032X1.0532*%
%ADD69R,1.1032X1.1032*%
%ADD70O,2.0032X0.6032*%
%ADD71R,2.2032X2.6032*%
%ADD72R,1.6532X1.3532*%
%ADD73R,0.9032X2.2032*%
%ADD74R,1.3032X0.7532*%
%ADD75R,1.0032X1.4032*%
%ADD76R,1.6032X1.4032*%
%ADD77R,2.1032X1.5032*%
%ADD78R,3.8032X5.2032*%
%ADD79C,14.4000*%
%ADD80R,3.0032X2.6032*%
%ADD81O,2.4032X0.8032*%
%ADD82R,2.2532X3.8032*%
%ADD83R,8.3032X3.0032*%
%ADD84R,1.6032X2.2032*%
%ADD85R,1.6032X2.4032*%
%ADD86R,1.6032X1.2032*%
%ADD87R,2.0032X1.6032*%
%ADD88R,2.6032X2.0032*%
%ADD89O,0.4532X1.5532*%
%ADD90O,1.5532X0.4532*%
%ADD91O,0.4532X1.6032*%
%ADD92O,1.6032X0.4532*%
%ADD93R,4.2032X2.0032*%
%ADD94R,5.2032X0.8032*%
%ADD95R,5.2032X1.0032*%
%ADD96R,1.2032X0.8032*%
%ADD97R,2.8532X1.5532*%
%ADD98R,3.4032X1.4032*%
%ADD99R,5.8032X2.4032*%
%ADD100R,2.9032X1.6032*%
%ADD101R,1.2532X0.8032*%
%ADD102R,1.4032X1.2032*%
%ADD103C,1.6032*%
%ADD104C,2.9032*%
%ADD105R,2.0032X2.0032*%
%ADD106C,2.0032*%
%ADD107C,1.8032*%
%ADD108C,0.2032*%
%ADD109R,2.0032X2.0032*%
%ADD110C,0.9032*%
%ADD111C,0.1000*%
D111*
X-481150Y-346372D02*
X64750D01*
X-481150Y346372D02*
X64750D01*
X54750Y-346372D02*
Y-23996D01*
Y17996D02*
Y346372D01*
Y-346372D02*
X58083Y-336372D01*
X51417D02*
X54750Y-346372D01*
X51417Y336372D02*
X54750Y346372D01*
X58083Y336372D01*
X-1091381Y-418250D02*
Y-270634D01*
X0Y-418250D02*
Y-314286D01*
X-1091381Y-408250D02*
X-573067D01*
X-524314D02*
X0D01*
X-1091381D02*
X-1081381Y-411583D01*
X-1091381Y-408250D02*
X-1081381Y-404917D01*
X-10000D02*
X0Y-408250D01*
X-10000Y-411583D02*
X0Y-408250D01*
X52179Y-15283D02*
X51227Y-15759D01*
X50751Y-17187D01*
Y-18140D01*
X51227Y-19568D01*
X52655Y-20520D01*
X55036Y-20996D01*
X57416D01*
X59321Y-20520D01*
X60273Y-19568D01*
X60749Y-18140D01*
Y-17664D01*
X60273Y-16235D01*
X59321Y-15283D01*
X57892Y-14807D01*
X57416D01*
X55988Y-15283D01*
X55036Y-16235D01*
X54560Y-17664D01*
Y-18140D01*
X55036Y-19568D01*
X55988Y-20520D01*
X57416Y-20996D01*
X54084Y-6428D02*
X55512Y-6904D01*
X56464Y-7856D01*
X56940Y-9284D01*
Y-9761D01*
X56464Y-11189D01*
X55512Y-12141D01*
X54084Y-12617D01*
X53608D01*
X52179Y-12141D01*
X51227Y-11189D01*
X50751Y-9761D01*
Y-9284D01*
X51227Y-7856D01*
X52179Y-6904D01*
X54084Y-6428D01*
X56464D01*
X58845Y-6904D01*
X60273Y-7856D01*
X60749Y-9284D01*
Y-10237D01*
X60273Y-11665D01*
X59321Y-12141D01*
X59797Y-3238D02*
X60273Y-3714D01*
X60749Y-3238D01*
X60273Y-2762D01*
X59797Y-3238D01*
X53131Y-96D02*
X52655D01*
X51703Y380D01*
X51227Y856D01*
X50751Y1808D01*
Y3713D01*
X51227Y4665D01*
X51703Y5141D01*
X52655Y5617D01*
X53608D01*
X54560Y5141D01*
X55988Y4189D01*
X60749Y-572D01*
Y6093D01*
X50751Y14996D02*
X60749Y10235D01*
X50751Y8331D02*
Y14996D01*
X-570067Y-406155D02*
X-569115Y-405679D01*
X-567686Y-404251D01*
Y-414249D01*
X-559878Y-404251D02*
X-561307Y-404727D01*
X-562259Y-406155D01*
X-562735Y-408536D01*
Y-409964D01*
X-562259Y-412345D01*
X-561307Y-413773D01*
X-559878Y-414249D01*
X-558926D01*
X-557498Y-413773D01*
X-556546Y-412345D01*
X-556070Y-409964D01*
Y-408536D01*
X-556546Y-406155D01*
X-557498Y-404727D01*
X-558926Y-404251D01*
X-559878D01*
X-547643Y-407584D02*
X-548119Y-409012D01*
X-549071Y-409964D01*
X-550499Y-410440D01*
X-550976D01*
X-552404Y-409964D01*
X-553356Y-409012D01*
X-553832Y-407584D01*
Y-407108D01*
X-553356Y-405679D01*
X-552404Y-404727D01*
X-550976Y-404251D01*
X-550499D01*
X-549071Y-404727D01*
X-548119Y-405679D01*
X-547643Y-407584D01*
Y-409964D01*
X-548119Y-412345D01*
X-549071Y-413773D01*
X-550499Y-414249D01*
X-551452D01*
X-552880Y-413773D01*
X-553356Y-412821D01*
X-544453Y-413297D02*
X-544929Y-413773D01*
X-544453Y-414249D01*
X-543977Y-413773D01*
X-544453Y-413297D01*
X-541787Y-406155D02*
X-540835Y-405679D01*
X-539407Y-404251D01*
Y-414249D01*
X-529694Y-404251D02*
X-534455Y-410916D01*
X-527314D01*
X-529694Y-404251D02*
Y-414249D01*
M02*
