%FSLAX44Y44*%
%MOMM*%
G71*
G01*
G75*
G04 Layer_Color=32768*
%ADD10R,0.9000X0.8500*%
%ADD11R,0.9000X0.9000*%
%ADD12O,1.8000X0.4000*%
%ADD13R,2.0000X2.4000*%
%ADD14R,1.4500X1.1500*%
%ADD15R,0.7000X2.0000*%
%ADD16R,1.1000X0.5500*%
%ADD17R,0.8000X1.2000*%
%ADD18R,1.4000X1.2000*%
%ADD19R,1.9000X1.3000*%
%ADD20R,3.6000X5.0000*%
%ADD21C,15.0000*%
%ADD22R,2.8000X2.4000*%
%ADD23O,2.2000X0.6000*%
%ADD24R,2.0500X3.6000*%
%ADD25R,8.1000X2.8000*%
%ADD26R,1.4000X2.0000*%
%ADD27R,1.4000X2.2000*%
%ADD28R,1.4000X1.0000*%
%ADD29R,1.8000X1.4000*%
%ADD30R,2.4000X1.8000*%
%ADD31O,0.2500X1.3500*%
%ADD32O,1.3500X0.2500*%
%ADD33O,0.2500X1.4000*%
%ADD34O,1.4000X0.2500*%
%ADD35R,4.0000X1.8000*%
%ADD36R,5.0000X0.6000*%
%ADD37R,5.0000X0.8000*%
%ADD38R,1.0000X0.6000*%
%ADD39R,2.6500X1.3500*%
%ADD40R,3.2000X1.2000*%
%ADD41R,5.6000X2.2000*%
%ADD42R,2.7000X1.4000*%
%ADD43R,1.0500X0.6000*%
%ADD44R,1.2000X1.0000*%
%ADD45C,0.2000*%
%ADD46C,0.1500*%
%ADD47C,0.2500*%
%ADD48C,0.3000*%
%ADD49C,0.9000*%
%ADD50C,0.8000*%
%ADD51C,0.6000*%
%ADD52C,0.7000*%
%ADD53C,0.7500*%
%ADD54C,1.0000*%
%ADD55C,1.4000*%
%ADD56C,1.2000*%
%ADD57C,0.5000*%
%ADD58C,0.4000*%
%ADD59C,1.4000*%
%ADD60C,2.7000*%
%ADD61R,1.8000X1.8000*%
%ADD62C,1.8000*%
%ADD63C,1.6000*%
%ADD64R,1.8000X1.8000*%
%ADD65C,0.7000*%
%ADD66C,2.0000*%
%ADD67C,0.1600*%
%ADD68R,1.1032X1.0532*%
%ADD69R,1.1032X1.1032*%
%ADD70O,2.0032X0.6032*%
%ADD71R,2.2032X2.6032*%
%ADD72R,1.6532X1.3532*%
%ADD73R,0.9032X2.2032*%
%ADD74R,1.3032X0.7532*%
%ADD75R,1.0032X1.4032*%
%ADD76R,1.6032X1.4032*%
%ADD77R,2.1032X1.5032*%
%ADD78R,3.8032X5.2032*%
%ADD79C,14.4000*%
%ADD80R,3.0032X2.6032*%
%ADD81O,2.4032X0.8032*%
%ADD82R,2.2532X3.8032*%
%ADD83R,8.3032X3.0032*%
%ADD84R,1.6032X2.2032*%
%ADD85R,1.6032X2.4032*%
%ADD86R,1.6032X1.2032*%
%ADD87R,2.0032X1.6032*%
%ADD88R,2.6032X2.0032*%
%ADD89O,0.4532X1.5532*%
%ADD90O,1.5532X0.4532*%
%ADD91O,0.4532X1.6032*%
%ADD92O,1.6032X0.4532*%
%ADD93R,4.2032X2.0032*%
%ADD94R,5.2032X0.8032*%
%ADD95R,5.2032X1.0032*%
%ADD96R,1.2032X0.8032*%
%ADD97R,2.8532X1.5532*%
%ADD98R,3.4032X1.4032*%
%ADD99R,5.8032X2.4032*%
%ADD100R,2.9032X1.6032*%
%ADD101R,1.2532X0.8032*%
%ADD102R,1.4032X1.2032*%
%ADD103C,1.6032*%
%ADD104C,2.9032*%
%ADD105R,2.0032X2.0032*%
%ADD106C,2.0032*%
%ADD107C,1.8032*%
%ADD108C,0.2032*%
%ADD109R,2.0032X2.0032*%
%ADD110C,0.9032*%
%ADD111C,0.1000*%
%ADD112C,0.1250*%
G36*
X534867Y-550298D02*
X537977D01*
Y-554408D01*
X534867D01*
Y-559630D01*
Y-559667D01*
Y-559778D01*
Y-559963D01*
X534904Y-560149D01*
X534941Y-560556D01*
X534978Y-560741D01*
X535015Y-560889D01*
X535089Y-560963D01*
X535237Y-561111D01*
X535533Y-561260D01*
X535756Y-561297D01*
X535978Y-561334D01*
X536089D01*
X536237Y-561297D01*
X536422D01*
X536681Y-561260D01*
X536978Y-561186D01*
X537311Y-561111D01*
X537718Y-561000D01*
X538163Y-564889D01*
X538052D01*
X537940Y-564926D01*
X537792Y-564963D01*
X537385Y-565037D01*
X536866Y-565111D01*
X536274Y-565185D01*
X535607Y-565259D01*
X534941Y-565296D01*
X534237Y-565333D01*
X533904D01*
X533534Y-565296D01*
X533052Y-565259D01*
X532534Y-565222D01*
X532052Y-565111D01*
X531534Y-565000D01*
X531126Y-564815D01*
X531089Y-564778D01*
X530978Y-564704D01*
X530793Y-564593D01*
X530571Y-564408D01*
X530312Y-564185D01*
X530089Y-563889D01*
X529830Y-563556D01*
X529645Y-563185D01*
Y-563148D01*
X529571Y-562963D01*
X529497Y-562704D01*
X529423Y-562334D01*
X529349Y-561815D01*
X529275Y-561186D01*
X529238Y-560445D01*
X529201Y-559593D01*
Y-554408D01*
X527127D01*
Y-550298D01*
X529201D01*
Y-547631D01*
X534867Y-544706D01*
Y-550298D01*
D02*
G37*
G36*
X522275D02*
X525386D01*
Y-554408D01*
X522275D01*
Y-559630D01*
Y-559667D01*
Y-559778D01*
Y-559963D01*
X522312Y-560149D01*
X522350Y-560556D01*
X522387Y-560741D01*
X522424Y-560889D01*
X522498Y-560963D01*
X522646Y-561111D01*
X522942Y-561260D01*
X523164Y-561297D01*
X523386Y-561334D01*
X523498D01*
X523646Y-561297D01*
X523831D01*
X524090Y-561260D01*
X524386Y-561186D01*
X524720Y-561111D01*
X525127Y-561000D01*
X525571Y-564889D01*
X525460D01*
X525349Y-564926D01*
X525201Y-564963D01*
X524794Y-565037D01*
X524275Y-565111D01*
X523683Y-565185D01*
X523016Y-565259D01*
X522350Y-565296D01*
X521646Y-565333D01*
X521312D01*
X520942Y-565296D01*
X520461Y-565259D01*
X519942Y-565222D01*
X519461Y-565111D01*
X518942Y-565000D01*
X518535Y-564815D01*
X518498Y-564778D01*
X518387Y-564704D01*
X518202Y-564593D01*
X517980Y-564408D01*
X517720Y-564185D01*
X517498Y-563889D01*
X517239Y-563556D01*
X517054Y-563185D01*
Y-563148D01*
X516980Y-562963D01*
X516906Y-562704D01*
X516832Y-562334D01*
X516758Y-561815D01*
X516683Y-561186D01*
X516646Y-560445D01*
X516609Y-559593D01*
Y-554408D01*
X514535D01*
Y-550298D01*
X516609D01*
Y-547631D01*
X522275Y-544706D01*
Y-550298D01*
D02*
G37*
G36*
X456615Y-551742D02*
X456653Y-551705D01*
X456764Y-551594D01*
X456949Y-551446D01*
X457171Y-551224D01*
X457430Y-551039D01*
X457764Y-550816D01*
X458134Y-550594D01*
X458504Y-550409D01*
X458541Y-550372D01*
X458689Y-550335D01*
X458912Y-550261D01*
X459208Y-550187D01*
X459541Y-550113D01*
X459949Y-550039D01*
X460393Y-549964D01*
X461134D01*
X461319Y-550002D01*
X461541Y-550039D01*
X461837Y-550076D01*
X462430Y-550224D01*
X463133Y-550446D01*
X463874Y-550779D01*
X464281Y-551002D01*
X464615Y-551261D01*
X464985Y-551594D01*
X465318Y-551927D01*
X465355Y-551964D01*
X465392Y-552001D01*
X465466Y-552113D01*
X465615Y-552298D01*
X465726Y-552483D01*
X465874Y-552742D01*
X466059Y-553001D01*
X466207Y-553335D01*
X466392Y-553705D01*
X466540Y-554112D01*
X466689Y-554557D01*
X466837Y-555075D01*
X466948Y-555594D01*
X467022Y-556186D01*
X467059Y-556779D01*
X467096Y-557445D01*
Y-557482D01*
Y-557556D01*
Y-557667D01*
Y-557853D01*
X467059Y-558075D01*
Y-558297D01*
X466985Y-558890D01*
X466911Y-559556D01*
X466763Y-560260D01*
X466540Y-561000D01*
X466281Y-561704D01*
Y-561741D01*
X466244Y-561778D01*
X466133Y-562000D01*
X465948Y-562334D01*
X465689Y-562741D01*
X465392Y-563185D01*
X464985Y-563630D01*
X464578Y-564074D01*
X464059Y-564445D01*
X463985Y-564482D01*
X463800Y-564593D01*
X463541Y-564741D01*
X463133Y-564889D01*
X462689Y-565037D01*
X462133Y-565185D01*
X461541Y-565296D01*
X460911Y-565333D01*
X460652D01*
X460393Y-565296D01*
X460023Y-565259D01*
X459615Y-565185D01*
X459134Y-565074D01*
X458689Y-564926D01*
X458208Y-564704D01*
X458171Y-564667D01*
X458060Y-564593D01*
X457875Y-564482D01*
X457615Y-564296D01*
X457319Y-564037D01*
X456949Y-563704D01*
X456578Y-563334D01*
X456171Y-562852D01*
Y-565000D01*
X450912D01*
Y-544706D01*
X456615D01*
Y-551742D01*
D02*
G37*
G36*
X511869Y-565000D02*
X506240D01*
Y-550298D01*
X511869D01*
Y-565000D01*
D02*
G37*
G36*
X577825Y-550002D02*
X578455Y-550039D01*
X579158Y-550076D01*
X579825Y-550150D01*
X580418Y-550261D01*
X580492D01*
X580677Y-550335D01*
X580973Y-550409D01*
X581343Y-550520D01*
X581751Y-550668D01*
X582158Y-550890D01*
X582603Y-551150D01*
X583010Y-551446D01*
X583047Y-551483D01*
X583121Y-551557D01*
X583269Y-551705D01*
X583417Y-551890D01*
X583602Y-552150D01*
X583788Y-552446D01*
X583973Y-552816D01*
X584121Y-553223D01*
X584158Y-553260D01*
X584195Y-553409D01*
X584269Y-553631D01*
X584343Y-553927D01*
X584417Y-554260D01*
X584491Y-554631D01*
X584565Y-555001D01*
Y-555408D01*
Y-561889D01*
Y-561926D01*
Y-562074D01*
Y-562260D01*
Y-562482D01*
X584602Y-563000D01*
X584639Y-563260D01*
X584676Y-563519D01*
Y-563556D01*
X584713Y-563630D01*
X584750Y-563741D01*
X584824Y-563926D01*
X584899Y-564148D01*
X584973Y-564408D01*
X585269Y-565000D01*
X579973D01*
Y-564963D01*
X579936Y-564889D01*
X579788Y-564667D01*
X579640Y-564408D01*
X579529Y-564148D01*
Y-564074D01*
X579492Y-563926D01*
X579418Y-563630D01*
X579344Y-563222D01*
X579306Y-563260D01*
X579158Y-563408D01*
X578936Y-563593D01*
X578640Y-563815D01*
X578307Y-564074D01*
X577936Y-564296D01*
X577566Y-564556D01*
X577159Y-564741D01*
X577085Y-564778D01*
X576899Y-564815D01*
X576566Y-564926D01*
X576159Y-565037D01*
X575640Y-565148D01*
X575048Y-565222D01*
X574381Y-565296D01*
X573677Y-565333D01*
X573418D01*
X573233Y-565296D01*
X573011D01*
X572752Y-565259D01*
X572159Y-565185D01*
X571530Y-565037D01*
X570863Y-564815D01*
X570196Y-564556D01*
X569641Y-564148D01*
X569567Y-564074D01*
X569419Y-563926D01*
X569234Y-563667D01*
X568974Y-563297D01*
X568715Y-562852D01*
X568530Y-562334D01*
X568382Y-561778D01*
X568308Y-561111D01*
Y-561074D01*
Y-561037D01*
Y-560815D01*
X568345Y-560519D01*
X568419Y-560149D01*
X568530Y-559704D01*
X568715Y-559260D01*
X568937Y-558778D01*
X569271Y-558371D01*
X569308Y-558334D01*
X569456Y-558186D01*
X569715Y-558001D01*
X570085Y-557779D01*
X570604Y-557519D01*
X571233Y-557260D01*
X571974Y-557001D01*
X572418Y-556890D01*
X572900Y-556779D01*
X572937D01*
X573048Y-556742D01*
X573196Y-556705D01*
X573418Y-556668D01*
X573677Y-556631D01*
X573974Y-556556D01*
X574603Y-556445D01*
X575307Y-556297D01*
X575974Y-556149D01*
X576566Y-556001D01*
X576825Y-555927D01*
X577010Y-555890D01*
X577048D01*
X577196Y-555853D01*
X577381Y-555779D01*
X577640Y-555705D01*
X577936Y-555594D01*
X578270Y-555482D01*
X579047Y-555186D01*
Y-555149D01*
Y-555038D01*
X579010Y-554853D01*
Y-554631D01*
X578862Y-554186D01*
X578751Y-553964D01*
X578603Y-553779D01*
X578566Y-553742D01*
X578529Y-553705D01*
X578418Y-553631D01*
X578233Y-553557D01*
X578047Y-553483D01*
X577788Y-553409D01*
X577455Y-553335D01*
X576862D01*
X576603Y-553372D01*
X576307D01*
X575640Y-553520D01*
X575307Y-553631D01*
X575011Y-553779D01*
X574974D01*
X574937Y-553853D01*
X574826Y-553927D01*
X574714Y-554075D01*
X574566Y-554260D01*
X574418Y-554483D01*
X574270Y-554742D01*
X574159Y-555075D01*
X568752Y-554520D01*
Y-554446D01*
X568826Y-554297D01*
X568863Y-554038D01*
X568974Y-553705D01*
X569085Y-553372D01*
X569234Y-553001D01*
X569419Y-552631D01*
X569604Y-552298D01*
X569641Y-552261D01*
X569715Y-552150D01*
X569863Y-552001D01*
X570048Y-551816D01*
X570270Y-551594D01*
X570567Y-551372D01*
X570900Y-551113D01*
X571270Y-550890D01*
X571307Y-550853D01*
X571418Y-550816D01*
X571604Y-550742D01*
X571826Y-550631D01*
X572122Y-550520D01*
X572492Y-550409D01*
X572900Y-550298D01*
X573381Y-550224D01*
X573455D01*
X573603Y-550187D01*
X573900Y-550150D01*
X574270Y-550076D01*
X574714Y-550039D01*
X575196Y-550002D01*
X575751Y-549964D01*
X577233D01*
X577825Y-550002D01*
D02*
G37*
G36*
X422471Y-544743D02*
X422730D01*
X422989Y-544780D01*
X423656Y-544891D01*
X424397Y-545076D01*
X425137Y-545335D01*
X425841Y-545706D01*
X426508Y-546187D01*
X426545D01*
X426582Y-546261D01*
X426767Y-546446D01*
X427026Y-546743D01*
X427322Y-547187D01*
X427581Y-547705D01*
X427841Y-548298D01*
X428026Y-549002D01*
X428100Y-549372D01*
Y-549779D01*
Y-549816D01*
Y-549853D01*
Y-550076D01*
X428026Y-550409D01*
X427952Y-550816D01*
X427804Y-551298D01*
X427619Y-551816D01*
X427322Y-552335D01*
X426952Y-552853D01*
X426915Y-552890D01*
X426804Y-553001D01*
X426656Y-553149D01*
X426396Y-553335D01*
X426100Y-553557D01*
X425730Y-553779D01*
X425285Y-554001D01*
X424767Y-554223D01*
X424804D01*
X424878Y-554260D01*
X424989D01*
X425137Y-554334D01*
X425508Y-554446D01*
X425989Y-554631D01*
X426508Y-554890D01*
X427063Y-555223D01*
X427545Y-555594D01*
X427989Y-556038D01*
X428026Y-556112D01*
X428137Y-556260D01*
X428322Y-556556D01*
X428507Y-556927D01*
X428693Y-557371D01*
X428878Y-557927D01*
X428989Y-558556D01*
X429026Y-559260D01*
Y-559334D01*
Y-559519D01*
X428989Y-559815D01*
X428952Y-560186D01*
X428841Y-560630D01*
X428730Y-561111D01*
X428544Y-561593D01*
X428285Y-562074D01*
X428248Y-562111D01*
X428137Y-562297D01*
X427989Y-562519D01*
X427767Y-562778D01*
X427470Y-563111D01*
X427100Y-563445D01*
X426693Y-563778D01*
X426248Y-564074D01*
X426211D01*
X426100Y-564148D01*
X425915Y-564222D01*
X425656Y-564333D01*
X425322Y-564445D01*
X424915Y-564556D01*
X424434Y-564630D01*
X423878Y-564741D01*
X423804D01*
X423693Y-564778D01*
X423545D01*
X423175Y-564815D01*
X422730Y-564852D01*
X422249Y-564926D01*
X421804Y-564963D01*
X421397Y-565000D01*
X410250D01*
Y-544706D01*
X422286D01*
X422471Y-544743D01*
D02*
G37*
G36*
X440395Y-550002D02*
X440728Y-550039D01*
X441173Y-550113D01*
X441654Y-550187D01*
X442136Y-550298D01*
X442654Y-550409D01*
X443209Y-550594D01*
X443765Y-550816D01*
X444320Y-551039D01*
X444876Y-551372D01*
X445395Y-551705D01*
X445876Y-552113D01*
X446320Y-552557D01*
X446357Y-552594D01*
X446394Y-552631D01*
X446506Y-552779D01*
X446617Y-552927D01*
X446765Y-553112D01*
X446913Y-553372D01*
X447061Y-553631D01*
X447246Y-553964D01*
X447579Y-554705D01*
X447876Y-555556D01*
X448098Y-556556D01*
X448135Y-557075D01*
X448172Y-557630D01*
Y-557667D01*
Y-557779D01*
Y-557964D01*
X448135Y-558186D01*
X448098Y-558482D01*
X448061Y-558815D01*
X447987Y-559186D01*
X447876Y-559593D01*
X447617Y-560482D01*
X447431Y-560926D01*
X447209Y-561408D01*
X446950Y-561852D01*
X446654Y-562334D01*
X446320Y-562778D01*
X445913Y-563185D01*
X445876Y-563222D01*
X445802Y-563260D01*
X445691Y-563371D01*
X445506Y-563519D01*
X445283Y-563667D01*
X444987Y-563852D01*
X444654Y-564074D01*
X444283Y-564259D01*
X443876Y-564445D01*
X443395Y-564667D01*
X442876Y-564852D01*
X442321Y-565000D01*
X441728Y-565148D01*
X441062Y-565222D01*
X440395Y-565296D01*
X439654Y-565333D01*
X439321D01*
X439062Y-565296D01*
X438765D01*
X438432Y-565222D01*
X438025Y-565185D01*
X437617Y-565111D01*
X436692Y-564889D01*
X435729Y-564593D01*
X434803Y-564148D01*
X434322Y-563852D01*
X433914Y-563556D01*
X433877Y-563519D01*
X433803Y-563445D01*
X433655Y-563334D01*
X433507Y-563148D01*
X433285Y-562926D01*
X433062Y-562667D01*
X432840Y-562334D01*
X432581Y-562000D01*
X432322Y-561593D01*
X432100Y-561149D01*
X431877Y-560667D01*
X431655Y-560149D01*
X431507Y-559593D01*
X431359Y-559001D01*
X431285Y-558371D01*
X431248Y-557705D01*
Y-557667D01*
Y-557556D01*
Y-557371D01*
X431285Y-557149D01*
X431322Y-556853D01*
X431359Y-556519D01*
X431433Y-556149D01*
X431544Y-555742D01*
X431803Y-554853D01*
X431988Y-554408D01*
X432211Y-553927D01*
X432470Y-553483D01*
X432766Y-553001D01*
X433100Y-552557D01*
X433507Y-552150D01*
X433544Y-552113D01*
X433618Y-552038D01*
X433729Y-551964D01*
X433914Y-551816D01*
X434136Y-551631D01*
X434433Y-551446D01*
X434766Y-551261D01*
X435136Y-551039D01*
X435544Y-550853D01*
X435988Y-550668D01*
X436507Y-550483D01*
X437062Y-550298D01*
X437654Y-550150D01*
X438284Y-550076D01*
X438951Y-550002D01*
X439654Y-549964D01*
X440062D01*
X440395Y-550002D01*
D02*
G37*
G36*
X561049D02*
X561456Y-550039D01*
X562012Y-550150D01*
X562605Y-550298D01*
X563197Y-550557D01*
X563790Y-550890D01*
X564345Y-551372D01*
X564419Y-551446D01*
X564567Y-551631D01*
X564753Y-551964D01*
X565012Y-552446D01*
X565271Y-553075D01*
X565456Y-553816D01*
X565604Y-554742D01*
X565678Y-555223D01*
Y-555779D01*
Y-565000D01*
X560012D01*
Y-556631D01*
Y-556594D01*
Y-556482D01*
X559975Y-556297D01*
Y-556075D01*
X559827Y-555594D01*
X559753Y-555334D01*
X559605Y-555149D01*
X559568Y-555112D01*
X559494Y-555038D01*
X559383Y-554890D01*
X559235Y-554742D01*
X559012Y-554631D01*
X558790Y-554483D01*
X558494Y-554408D01*
X558198Y-554371D01*
X558050D01*
X557864Y-554408D01*
X557642Y-554446D01*
X557383Y-554557D01*
X557124Y-554668D01*
X556827Y-554853D01*
X556605Y-555112D01*
X556568Y-555149D01*
X556531Y-555260D01*
X556420Y-555408D01*
X556309Y-555668D01*
X556198Y-555964D01*
X556124Y-556371D01*
X556050Y-556853D01*
X556013Y-557408D01*
Y-565000D01*
X550347D01*
Y-556927D01*
Y-556890D01*
Y-556779D01*
Y-556594D01*
Y-556408D01*
X550309Y-555964D01*
X550272Y-555779D01*
X550235Y-555631D01*
Y-555594D01*
X550198Y-555519D01*
X550087Y-555297D01*
X549902Y-555038D01*
X549606Y-554742D01*
X549569D01*
X549532Y-554668D01*
X549310Y-554557D01*
X548976Y-554446D01*
X548569Y-554371D01*
X548421D01*
X548236Y-554408D01*
X547976Y-554446D01*
X547717Y-554557D01*
X547458Y-554668D01*
X547199Y-554853D01*
X546940Y-555112D01*
X546903Y-555149D01*
X546866Y-555260D01*
X546754Y-555445D01*
X546643Y-555705D01*
X546532Y-556038D01*
X546458Y-556445D01*
X546384Y-556927D01*
X546347Y-557519D01*
Y-565000D01*
X540681D01*
Y-550298D01*
X545940D01*
Y-552483D01*
X545977Y-552409D01*
X546125Y-552261D01*
X546347Y-552001D01*
X546643Y-551742D01*
X547014Y-551409D01*
X547384Y-551076D01*
X547791Y-550816D01*
X548236Y-550557D01*
X548273Y-550520D01*
X548458Y-550446D01*
X548680Y-550372D01*
X549013Y-550261D01*
X549421Y-550150D01*
X549902Y-550039D01*
X550458Y-550002D01*
X551050Y-549964D01*
X551347D01*
X551643Y-550002D01*
X552050Y-550039D01*
X552495Y-550113D01*
X552976Y-550224D01*
X553420Y-550372D01*
X553828Y-550594D01*
X553865Y-550631D01*
X554013Y-550705D01*
X554198Y-550853D01*
X554420Y-551076D01*
X554679Y-551335D01*
X554976Y-551668D01*
X555235Y-552038D01*
X555494Y-552483D01*
X555568Y-552409D01*
X555716Y-552261D01*
X555976Y-552001D01*
X556309Y-551705D01*
X556679Y-551372D01*
X557087Y-551039D01*
X557494Y-550742D01*
X557901Y-550520D01*
X557938Y-550483D01*
X558087Y-550446D01*
X558346Y-550335D01*
X558679Y-550224D01*
X559049Y-550150D01*
X559531Y-550039D01*
X560049Y-550002D01*
X560642Y-549964D01*
X560864D01*
X561049Y-550002D01*
D02*
G37*
G36*
X511869Y-548557D02*
X506240D01*
Y-544706D01*
X511869D01*
Y-548557D01*
D02*
G37*
G36*
X502389Y-565000D02*
X497241D01*
Y-549520D01*
X493278Y-565000D01*
X488612D01*
X484687Y-549520D01*
Y-565000D01*
X479539D01*
Y-544706D01*
X487798D01*
X490945Y-557075D01*
X494130Y-544706D01*
X502389D01*
Y-565000D01*
D02*
G37*
G36*
X598860Y-550002D02*
X599305Y-550039D01*
X599823Y-550150D01*
X600415Y-550298D01*
X601008Y-550557D01*
X601600Y-550890D01*
X602156Y-551372D01*
X602230Y-551446D01*
X602378Y-551631D01*
X602563Y-551964D01*
X602823Y-552446D01*
X603082Y-553038D01*
X603267Y-553779D01*
X603415Y-554668D01*
X603489Y-555668D01*
Y-565000D01*
X597823D01*
Y-556927D01*
Y-556853D01*
Y-556705D01*
X597786Y-556445D01*
X597749Y-556149D01*
X597601Y-555519D01*
X597490Y-555223D01*
X597305Y-554964D01*
X597268Y-554927D01*
X597194Y-554853D01*
X597082Y-554779D01*
X596934Y-554668D01*
X596712Y-554557D01*
X596490Y-554446D01*
X596194Y-554408D01*
X595860Y-554371D01*
X595675D01*
X595490Y-554408D01*
X595268Y-554483D01*
X595009Y-554557D01*
X594712Y-554705D01*
X594453Y-554890D01*
X594194Y-555149D01*
X594157Y-555186D01*
X594083Y-555297D01*
X594009Y-555519D01*
X593898Y-555779D01*
X593750Y-556186D01*
X593675Y-556668D01*
X593601Y-557260D01*
X593564Y-557964D01*
Y-565000D01*
X587935D01*
Y-550298D01*
X593157D01*
Y-552705D01*
X593194Y-552631D01*
X593379Y-552446D01*
X593601Y-552187D01*
X593898Y-551890D01*
X594268Y-551520D01*
X594675Y-551187D01*
X595083Y-550853D01*
X595527Y-550594D01*
X595601Y-550557D01*
X595749Y-550483D01*
X596008Y-550409D01*
X596342Y-550261D01*
X596786Y-550150D01*
X597305Y-550076D01*
X597860Y-550002D01*
X598490Y-549964D01*
X598712D01*
X598860Y-550002D01*
D02*
G37*
G36*
X617784D02*
X618228Y-550039D01*
X618747Y-550150D01*
X619339Y-550298D01*
X619932Y-550557D01*
X620524Y-550890D01*
X621080Y-551372D01*
X621154Y-551446D01*
X621302Y-551631D01*
X621487Y-551964D01*
X621747Y-552446D01*
X622006Y-553038D01*
X622191Y-553779D01*
X622339Y-554668D01*
X622413Y-555668D01*
Y-565000D01*
X616747D01*
Y-556927D01*
Y-556853D01*
Y-556705D01*
X616710Y-556445D01*
X616673Y-556149D01*
X616525Y-555519D01*
X616414Y-555223D01*
X616229Y-554964D01*
X616192Y-554927D01*
X616118Y-554853D01*
X616006Y-554779D01*
X615858Y-554668D01*
X615636Y-554557D01*
X615414Y-554446D01*
X615118Y-554408D01*
X614784Y-554371D01*
X614599D01*
X614414Y-554408D01*
X614192Y-554483D01*
X613933Y-554557D01*
X613636Y-554705D01*
X613377Y-554890D01*
X613118Y-555149D01*
X613081Y-555186D01*
X613007Y-555297D01*
X612933Y-555519D01*
X612822Y-555779D01*
X612673Y-556186D01*
X612599Y-556668D01*
X612525Y-557260D01*
X612488Y-557964D01*
Y-565000D01*
X606859D01*
Y-550298D01*
X612081D01*
Y-552705D01*
X612118Y-552631D01*
X612303Y-552446D01*
X612525Y-552187D01*
X612822Y-551890D01*
X613192Y-551520D01*
X613599Y-551187D01*
X614007Y-550853D01*
X614451Y-550594D01*
X614525Y-550557D01*
X614673Y-550483D01*
X614933Y-550409D01*
X615266Y-550261D01*
X615710Y-550150D01*
X616229Y-550076D01*
X616784Y-550002D01*
X617414Y-549964D01*
X617636D01*
X617784Y-550002D01*
D02*
G37*
%LPC*%
G36*
X419730Y-556519D02*
X416583D01*
Y-560630D01*
X420027D01*
X420323Y-560593D01*
X420656Y-560556D01*
X421064Y-560482D01*
X421434Y-560408D01*
X421767Y-560260D01*
X422064Y-560075D01*
X422101Y-560038D01*
X422175Y-559963D01*
X422286Y-559852D01*
X422397Y-559667D01*
X422508Y-559445D01*
X422619Y-559149D01*
X422693Y-558853D01*
X422730Y-558519D01*
Y-558482D01*
Y-558371D01*
X422693Y-558223D01*
X422656Y-558001D01*
X422582Y-557779D01*
X422434Y-557519D01*
X422286Y-557297D01*
X422064Y-557075D01*
X422026Y-557038D01*
X421953Y-557001D01*
X421767Y-556890D01*
X421508Y-556779D01*
X421212Y-556705D01*
X420804Y-556594D01*
X420323Y-556556D01*
X419730Y-556519D01*
D02*
G37*
G36*
X419360Y-548816D02*
X416583D01*
Y-552668D01*
X419545D01*
X419804Y-552631D01*
X420138Y-552594D01*
X420804Y-552446D01*
X421101Y-552335D01*
X421360Y-552187D01*
X421397Y-552150D01*
X421471Y-552075D01*
X421545Y-551964D01*
X421656Y-551816D01*
X421767Y-551594D01*
X421878Y-551335D01*
X421915Y-551039D01*
X421953Y-550705D01*
Y-550668D01*
Y-550557D01*
X421915Y-550409D01*
X421878Y-550187D01*
X421804Y-549964D01*
X421693Y-549742D01*
X421545Y-549520D01*
X421360Y-549335D01*
X421323Y-549298D01*
X421249Y-549261D01*
X421101Y-549187D01*
X420878Y-549076D01*
X420619Y-548965D01*
X420286Y-548891D01*
X419842Y-548853D01*
X419360Y-548816D01*
D02*
G37*
G36*
X459171Y-554186D02*
X458986D01*
X458764Y-554223D01*
X458504Y-554297D01*
X458208Y-554408D01*
X457875Y-554557D01*
X457578Y-554742D01*
X457282Y-555038D01*
X457245Y-555075D01*
X457171Y-555186D01*
X457060Y-555408D01*
X456912Y-555668D01*
X456764Y-556038D01*
X456653Y-556482D01*
X456578Y-557001D01*
X456541Y-557630D01*
Y-557667D01*
Y-557705D01*
Y-557927D01*
X456578Y-558260D01*
X456615Y-558667D01*
X456727Y-559112D01*
X456838Y-559593D01*
X457023Y-560000D01*
X457245Y-560371D01*
X457282Y-560408D01*
X457393Y-560519D01*
X457541Y-560630D01*
X457764Y-560778D01*
X458023Y-560963D01*
X458319Y-561074D01*
X458689Y-561186D01*
X459060Y-561223D01*
X459245D01*
X459430Y-561186D01*
X459652Y-561111D01*
X459949Y-561037D01*
X460208Y-560889D01*
X460504Y-560667D01*
X460763Y-560408D01*
X460800Y-560371D01*
X460874Y-560260D01*
X460985Y-560038D01*
X461134Y-559741D01*
X461245Y-559334D01*
X461356Y-558853D01*
X461430Y-558260D01*
X461467Y-557593D01*
Y-557556D01*
Y-557519D01*
Y-557297D01*
X461430Y-557001D01*
X461393Y-556631D01*
X461282Y-556186D01*
X461171Y-555779D01*
X460985Y-555371D01*
X460763Y-555038D01*
X460726Y-555001D01*
X460652Y-554890D01*
X460504Y-554779D01*
X460319Y-554594D01*
X460097Y-554446D01*
X459800Y-554334D01*
X459504Y-554223D01*
X459171Y-554186D01*
D02*
G37*
G36*
X579047Y-558038D02*
X579010D01*
X578862Y-558112D01*
X578603Y-558186D01*
X578307Y-558297D01*
X577936Y-558408D01*
X577529Y-558519D01*
X576603Y-558778D01*
X576529Y-558815D01*
X576344Y-558853D01*
X576048Y-558927D01*
X575677Y-559038D01*
X575307Y-559186D01*
X574974Y-559334D01*
X574640Y-559482D01*
X574418Y-559667D01*
Y-559704D01*
X574344Y-559741D01*
X574196Y-559963D01*
X574048Y-560297D01*
X574011Y-560482D01*
X573974Y-560704D01*
Y-560741D01*
Y-560815D01*
X574011Y-560926D01*
X574048Y-561074D01*
X574159Y-561445D01*
X574270Y-561630D01*
X574418Y-561778D01*
X574455D01*
X574492Y-561852D01*
X574603Y-561889D01*
X574789Y-561963D01*
X574974Y-562037D01*
X575196Y-562111D01*
X575492Y-562149D01*
X575788Y-562186D01*
X575937D01*
X576122Y-562149D01*
X576344Y-562111D01*
X576603Y-562074D01*
X576899Y-562000D01*
X577233Y-561889D01*
X577529Y-561741D01*
X577566Y-561704D01*
X577677Y-561667D01*
X577788Y-561556D01*
X577973Y-561445D01*
X578344Y-561111D01*
X578529Y-560889D01*
X578677Y-560667D01*
Y-560630D01*
X578751Y-560556D01*
X578788Y-560408D01*
X578862Y-560186D01*
X578936Y-559963D01*
X578973Y-559667D01*
X579047Y-559334D01*
Y-558964D01*
Y-558038D01*
D02*
G37*
G36*
X439728Y-553853D02*
X439543D01*
X439284Y-553890D01*
X439025Y-553964D01*
X438691Y-554075D01*
X438358Y-554260D01*
X438025Y-554483D01*
X437692Y-554816D01*
X437654Y-554853D01*
X437580Y-555001D01*
X437432Y-555223D01*
X437321Y-555519D01*
X437173Y-555927D01*
X437025Y-556445D01*
X436951Y-557038D01*
X436914Y-557705D01*
Y-557742D01*
Y-557779D01*
Y-557890D01*
Y-558038D01*
X436951Y-558371D01*
X437025Y-558815D01*
X437099Y-559260D01*
X437247Y-559741D01*
X437432Y-560186D01*
X437692Y-560593D01*
X437729Y-560630D01*
X437840Y-560741D01*
X438025Y-560889D01*
X438247Y-561037D01*
X438543Y-561223D01*
X438877Y-561371D01*
X439284Y-561482D01*
X439691Y-561519D01*
X439914D01*
X440136Y-561482D01*
X440395Y-561408D01*
X440728Y-561297D01*
X441062Y-561149D01*
X441395Y-560926D01*
X441691Y-560630D01*
X441728Y-560593D01*
X441802Y-560445D01*
X441950Y-560223D01*
X442099Y-559889D01*
X442247Y-559482D01*
X442395Y-558964D01*
X442469Y-558371D01*
X442506Y-557630D01*
Y-557593D01*
Y-557556D01*
Y-557334D01*
X442469Y-557001D01*
X442395Y-556556D01*
X442321Y-556112D01*
X442173Y-555631D01*
X441950Y-555186D01*
X441691Y-554816D01*
X441654Y-554779D01*
X441543Y-554668D01*
X441395Y-554520D01*
X441173Y-554334D01*
X440876Y-554149D01*
X440543Y-554001D01*
X440136Y-553890D01*
X439728Y-553853D01*
D02*
G37*
%LPD*%
D45*
X563821Y-192503D02*
X562035Y-193098D01*
X560845Y-194883D01*
X560250Y-197859D01*
Y-199644D01*
X560845Y-202620D01*
X562035Y-204405D01*
X563821Y-205000D01*
X565011D01*
X566796Y-204405D01*
X567986Y-202620D01*
X568582Y-199644D01*
Y-197859D01*
X567986Y-194883D01*
X566796Y-193098D01*
X565011Y-192503D01*
X563821D01*
X571974Y-203810D02*
X571379Y-204405D01*
X571974Y-205000D01*
X572569Y-204405D01*
X571974Y-203810D01*
X575901Y-195478D02*
Y-194883D01*
X576497Y-193693D01*
X577092Y-193098D01*
X578282Y-192503D01*
X580662D01*
X581852Y-193098D01*
X582448Y-193693D01*
X583043Y-194883D01*
Y-196073D01*
X582448Y-197264D01*
X581257Y-199049D01*
X575306Y-205000D01*
X583638D01*
X586435Y-196668D02*
Y-205000D01*
Y-199049D02*
X588220Y-197264D01*
X589411Y-196668D01*
X591196D01*
X592386Y-197264D01*
X592981Y-199049D01*
Y-205000D01*
Y-199049D02*
X594767Y-197264D01*
X595957Y-196668D01*
X597742D01*
X598932Y-197264D01*
X599527Y-199049D01*
Y-205000D01*
X603455Y-196668D02*
Y-205000D01*
Y-199049D02*
X605240Y-197264D01*
X606431Y-196668D01*
X608216D01*
X609406Y-197264D01*
X610001Y-199049D01*
Y-205000D01*
Y-199049D02*
X611787Y-197264D01*
X612977Y-196668D01*
X614762D01*
X615952Y-197264D01*
X616548Y-199049D01*
Y-205000D01*
X634460Y-190122D02*
X633270Y-191313D01*
X632080Y-193098D01*
X630890Y-195478D01*
X630294Y-198454D01*
Y-200834D01*
X630890Y-203810D01*
X632080Y-206190D01*
X633270Y-207976D01*
X634460Y-209166D01*
X633270Y-191313D02*
X632080Y-193693D01*
X631485Y-195478D01*
X630890Y-198454D01*
Y-200834D01*
X631485Y-203810D01*
X632080Y-205595D01*
X633270Y-207976D01*
X639816Y-192503D02*
X638031Y-193098D01*
X637436Y-194288D01*
Y-195478D01*
X638031Y-196668D01*
X639221Y-197264D01*
X641602Y-197859D01*
X643387Y-198454D01*
X644577Y-199644D01*
X645172Y-200834D01*
Y-202620D01*
X644577Y-203810D01*
X643982Y-204405D01*
X642197Y-205000D01*
X639816D01*
X638031Y-204405D01*
X637436Y-203810D01*
X636841Y-202620D01*
Y-200834D01*
X637436Y-199644D01*
X638626Y-198454D01*
X640411Y-197859D01*
X642792Y-197264D01*
X643982Y-196668D01*
X644577Y-195478D01*
Y-194288D01*
X643982Y-193098D01*
X642197Y-192503D01*
X639816D01*
X657789Y-196668D02*
Y-205000D01*
Y-199049D02*
X659574Y-197264D01*
X660764Y-196668D01*
X662550D01*
X663740Y-197264D01*
X664335Y-199049D01*
Y-205000D01*
Y-199049D02*
X666120Y-197264D01*
X667310Y-196668D01*
X669096D01*
X670286Y-197264D01*
X670881Y-199049D01*
Y-205000D01*
X675999Y-192503D02*
X676594Y-193098D01*
X677189Y-192503D01*
X676594Y-191908D01*
X675999Y-192503D01*
X676594Y-196668D02*
Y-205000D01*
X679391Y-192503D02*
Y-205000D01*
X688556Y-198454D02*
X687961Y-197264D01*
X686176Y-196668D01*
X684390D01*
X682605Y-197264D01*
X682010Y-198454D01*
X682605Y-199644D01*
X683795Y-200239D01*
X686771Y-200834D01*
X687961Y-201429D01*
X688556Y-202620D01*
Y-203215D01*
X687961Y-204405D01*
X686176Y-205000D01*
X684390D01*
X682605Y-204405D01*
X682010Y-203215D01*
X691174Y-190122D02*
X692365Y-191313D01*
X693555Y-193098D01*
X694745Y-195478D01*
X695340Y-198454D01*
Y-200834D01*
X694745Y-203810D01*
X693555Y-206190D01*
X692365Y-207976D01*
X691174Y-209166D01*
X692365Y-191313D02*
X693555Y-193693D01*
X694150Y-195478D01*
X694745Y-198454D01*
Y-200834D01*
X694150Y-203810D01*
X693555Y-205595D01*
X692365Y-207976D01*
X560250Y-372503D02*
X563226Y-385000D01*
X566201Y-372503D02*
X563226Y-385000D01*
X566201Y-372503D02*
X569177Y-385000D01*
X572152Y-372503D02*
X569177Y-385000D01*
X574652Y-372503D02*
Y-385000D01*
X582983Y-372503D02*
Y-385000D01*
X574652Y-378454D02*
X582983D01*
X586435Y-372503D02*
Y-385000D01*
X593219Y-372503D02*
Y-385000D01*
X589053Y-372503D02*
X597385D01*
X606609D02*
X598873D01*
Y-385000D01*
X606609D01*
X598873Y-378454D02*
X603634D01*
X560845Y-315478D02*
Y-314883D01*
X561440Y-313693D01*
X562035Y-313098D01*
X563226Y-312503D01*
X565606D01*
X566796Y-313098D01*
X567391Y-313693D01*
X567986Y-314883D01*
Y-316073D01*
X567391Y-317264D01*
X566201Y-319049D01*
X560250Y-325000D01*
X568582D01*
X560250Y-164883D02*
X561440Y-164288D01*
X563226Y-162503D01*
Y-175000D01*
X572985Y-162503D02*
X571200Y-163098D01*
X570010Y-164883D01*
X569415Y-167859D01*
Y-169644D01*
X570010Y-172620D01*
X571200Y-174405D01*
X572985Y-175000D01*
X574176D01*
X575961Y-174405D01*
X577151Y-172620D01*
X577746Y-169644D01*
Y-167859D01*
X577151Y-164883D01*
X575961Y-163098D01*
X574176Y-162503D01*
X572985D01*
X588280Y-166668D02*
X587685Y-168454D01*
X586494Y-169644D01*
X584709Y-170239D01*
X584114D01*
X582329Y-169644D01*
X581138Y-168454D01*
X580543Y-166668D01*
Y-166073D01*
X581138Y-164288D01*
X582329Y-163098D01*
X584114Y-162503D01*
X584709D01*
X586494Y-163098D01*
X587685Y-164288D01*
X588280Y-166668D01*
Y-169644D01*
X587685Y-172620D01*
X586494Y-174405D01*
X584709Y-175000D01*
X583519D01*
X581734Y-174405D01*
X581138Y-173215D01*
X592267Y-173810D02*
X591672Y-174405D01*
X592267Y-175000D01*
X592862Y-174405D01*
X592267Y-173810D01*
X595600Y-164883D02*
X596790Y-164288D01*
X598575Y-162503D01*
Y-175000D01*
X610715Y-162503D02*
X604764Y-170834D01*
X613691D01*
X610715Y-162503D02*
Y-175000D01*
X615893Y-166668D02*
Y-175000D01*
Y-169049D02*
X617678Y-167264D01*
X618868Y-166668D01*
X620654D01*
X621844Y-167264D01*
X622439Y-169049D01*
Y-175000D01*
Y-169049D02*
X624224Y-167264D01*
X625415Y-166668D01*
X627200D01*
X628390Y-167264D01*
X628985Y-169049D01*
Y-175000D01*
X632913Y-166668D02*
Y-175000D01*
Y-169049D02*
X634698Y-167264D01*
X635889Y-166668D01*
X637674D01*
X638864Y-167264D01*
X639459Y-169049D01*
Y-175000D01*
Y-169049D02*
X641245Y-167264D01*
X642435Y-166668D01*
X644220D01*
X645410Y-167264D01*
X646005Y-169049D01*
Y-175000D01*
X659753Y-162503D02*
X668084Y-175000D01*
Y-162503D02*
X659753Y-175000D01*
X687842Y-164288D02*
X687247Y-163098D01*
X685461Y-162503D01*
X684271D01*
X682486Y-163098D01*
X681296Y-164883D01*
X680700Y-167859D01*
Y-170834D01*
X681296Y-173215D01*
X682486Y-174405D01*
X684271Y-175000D01*
X684866D01*
X686652Y-174405D01*
X687842Y-173215D01*
X688437Y-171429D01*
Y-170834D01*
X687842Y-169049D01*
X686652Y-167859D01*
X684866Y-167264D01*
X684271D01*
X682486Y-167859D01*
X681296Y-169049D01*
X680700Y-170834D01*
X698911Y-166668D02*
X698316Y-168454D01*
X697125Y-169644D01*
X695340Y-170239D01*
X694745D01*
X692960Y-169644D01*
X691769Y-168454D01*
X691174Y-166668D01*
Y-166073D01*
X691769Y-164288D01*
X692960Y-163098D01*
X694745Y-162503D01*
X695340D01*
X697125Y-163098D01*
X698316Y-164288D01*
X698911Y-166668D01*
Y-169644D01*
X698316Y-172620D01*
X697125Y-174405D01*
X695340Y-175000D01*
X694150D01*
X692365Y-174405D01*
X691769Y-173215D01*
X702898Y-173810D02*
X702303Y-174405D01*
X702898Y-175000D01*
X703493Y-174405D01*
X702898Y-173810D01*
X714562Y-162503D02*
X708611Y-175000D01*
X706231Y-162503D02*
X714562D01*
X717954Y-165478D02*
Y-164883D01*
X718549Y-163693D01*
X719145Y-163098D01*
X720335Y-162503D01*
X722715D01*
X723905Y-163098D01*
X724501Y-163693D01*
X725096Y-164883D01*
Y-166073D01*
X724501Y-167264D01*
X723310Y-169049D01*
X717359Y-175000D01*
X725691D01*
X728488Y-166668D02*
Y-175000D01*
Y-169049D02*
X730273Y-167264D01*
X731463Y-166668D01*
X733249D01*
X734439Y-167264D01*
X735034Y-169049D01*
Y-175000D01*
Y-169049D02*
X736819Y-167264D01*
X738010Y-166668D01*
X739795D01*
X740985Y-167264D01*
X741580Y-169049D01*
Y-175000D01*
X745508Y-166668D02*
Y-175000D01*
Y-169049D02*
X747293Y-167264D01*
X748484Y-166668D01*
X750269D01*
X751459Y-167264D01*
X752054Y-169049D01*
Y-175000D01*
Y-169049D02*
X753840Y-167264D01*
X755030Y-166668D01*
X756815D01*
X758005Y-167264D01*
X758600Y-169049D01*
Y-175000D01*
X564416Y-492503D02*
Y-505000D01*
X560250Y-492503D02*
X568582D01*
X573640D02*
X572450Y-493098D01*
X571260Y-494288D01*
X570664Y-495478D01*
X570069Y-497264D01*
Y-500239D01*
X570664Y-502024D01*
X571260Y-503215D01*
X572450Y-504405D01*
X573640Y-505000D01*
X576021D01*
X577211Y-504405D01*
X578401Y-503215D01*
X578996Y-502024D01*
X579591Y-500239D01*
Y-497264D01*
X578996Y-495478D01*
X578401Y-494288D01*
X577211Y-493098D01*
X576021Y-492503D01*
X573640D01*
X582507Y-499049D02*
X587863D01*
X589649Y-498454D01*
X590244Y-497859D01*
X590839Y-496669D01*
Y-494883D01*
X590244Y-493693D01*
X589649Y-493098D01*
X587863Y-492503D01*
X582507D01*
Y-505000D01*
X560250Y-462503D02*
Y-475000D01*
Y-462503D02*
X565606D01*
X567391Y-463098D01*
X567986Y-463693D01*
X568582Y-464883D01*
Y-466073D01*
X567986Y-467264D01*
X567391Y-467859D01*
X565606Y-468454D01*
X560250D01*
X564416D02*
X568582Y-475000D01*
X579115Y-462503D02*
X571379D01*
Y-475000D01*
X579115D01*
X571379Y-468454D02*
X576139D01*
X584769Y-462503D02*
X583578Y-463098D01*
X582388Y-464288D01*
X581793Y-465478D01*
X581198Y-467264D01*
Y-470239D01*
X581793Y-472024D01*
X582388Y-473215D01*
X583578Y-474405D01*
X584769Y-475000D01*
X587149D01*
X588339Y-474405D01*
X589529Y-473215D01*
X590125Y-472024D01*
X590720Y-470239D01*
Y-467264D01*
X590125Y-465478D01*
X589529Y-464288D01*
X588339Y-463098D01*
X587149Y-462503D01*
X584769D01*
X586554Y-472620D02*
X590125Y-476190D01*
X593636Y-462503D02*
Y-471429D01*
X594231Y-473215D01*
X595421Y-474405D01*
X597206Y-475000D01*
X598397D01*
X600182Y-474405D01*
X601372Y-473215D01*
X601967Y-471429D01*
Y-462503D01*
X605419D02*
Y-475000D01*
X608037Y-462503D02*
Y-475000D01*
Y-462503D02*
X613393D01*
X615179Y-463098D01*
X615774Y-463693D01*
X616369Y-464883D01*
Y-466073D01*
X615774Y-467264D01*
X615179Y-467859D01*
X613393Y-468454D01*
X608037D01*
X612203D02*
X616369Y-475000D01*
X626902Y-462503D02*
X619166D01*
Y-475000D01*
X626902D01*
X619166Y-468454D02*
X623927D01*
X628985Y-462503D02*
Y-475000D01*
Y-462503D02*
X633151D01*
X634936Y-463098D01*
X636127Y-464288D01*
X636722Y-465478D01*
X637317Y-467264D01*
Y-470239D01*
X636722Y-472024D01*
X636127Y-473215D01*
X634936Y-474405D01*
X633151Y-475000D01*
X628985D01*
X560250Y-432503D02*
Y-445000D01*
X568582Y-432503D02*
Y-445000D01*
X560250Y-438454D02*
X568582D01*
X575604Y-432503D02*
X574414Y-433098D01*
X573223Y-434288D01*
X572628Y-435478D01*
X572033Y-437264D01*
Y-440239D01*
X572628Y-442024D01*
X573223Y-443215D01*
X574414Y-444405D01*
X575604Y-445000D01*
X577984D01*
X579174Y-444405D01*
X580365Y-443215D01*
X580960Y-442024D01*
X581555Y-440239D01*
Y-437264D01*
X580960Y-435478D01*
X580365Y-434288D01*
X579174Y-433098D01*
X577984Y-432503D01*
X575604D01*
X588637D02*
Y-445000D01*
X584471Y-432503D02*
X592803D01*
X613632Y-445000D02*
X608871Y-432503D01*
X604110Y-445000D01*
X605895Y-440834D02*
X611846D01*
X616548Y-432503D02*
Y-445000D01*
X619166Y-432503D02*
Y-445000D01*
Y-432503D02*
X624522D01*
X626307Y-433098D01*
X626902Y-433693D01*
X627498Y-434883D01*
Y-436073D01*
X626902Y-437264D01*
X626307Y-437859D01*
X624522Y-438454D01*
X619166D01*
X623332D02*
X627498Y-445000D01*
X648446Y-434288D02*
X647255Y-433098D01*
X645470Y-432503D01*
X643090D01*
X641304Y-433098D01*
X640114Y-434288D01*
Y-435478D01*
X640709Y-436669D01*
X641304Y-437264D01*
X642494Y-437859D01*
X646065Y-439049D01*
X647255Y-439644D01*
X647850Y-440239D01*
X648446Y-441429D01*
Y-443215D01*
X647255Y-444405D01*
X645470Y-445000D01*
X643090D01*
X641304Y-444405D01*
X640114Y-443215D01*
X654813Y-432503D02*
X653623Y-433098D01*
X652433Y-434288D01*
X651838Y-435478D01*
X651243Y-437264D01*
Y-440239D01*
X651838Y-442024D01*
X652433Y-443215D01*
X653623Y-444405D01*
X654813Y-445000D01*
X657194D01*
X658384Y-444405D01*
X659574Y-443215D01*
X660169Y-442024D01*
X660764Y-440239D01*
Y-437264D01*
X660169Y-435478D01*
X659574Y-434288D01*
X658384Y-433098D01*
X657194Y-432503D01*
X654813D01*
X663680D02*
Y-445000D01*
X670822D01*
X672190Y-432503D02*
Y-445000D01*
Y-432503D02*
X676356D01*
X678141Y-433098D01*
X679332Y-434288D01*
X679927Y-435478D01*
X680522Y-437264D01*
Y-440239D01*
X679927Y-442024D01*
X679332Y-443215D01*
X678141Y-444405D01*
X676356Y-445000D01*
X672190D01*
X691055Y-432503D02*
X683319D01*
Y-445000D01*
X691055D01*
X683319Y-438454D02*
X688080D01*
X693138Y-432503D02*
Y-445000D01*
Y-432503D02*
X698494D01*
X700280Y-433098D01*
X700875Y-433693D01*
X701470Y-434883D01*
Y-436073D01*
X700875Y-437264D01*
X700280Y-437859D01*
X698494Y-438454D01*
X693138D01*
X697304D02*
X701470Y-445000D01*
X714086Y-432503D02*
Y-445000D01*
X721228D01*
X730333Y-432503D02*
X722596D01*
Y-445000D01*
X730333D01*
X722596Y-438454D02*
X727357D01*
X732416Y-432503D02*
X737177Y-445000D01*
X741937Y-432503D02*
X737177Y-445000D01*
X751281Y-432503D02*
X743544D01*
Y-445000D01*
X751281D01*
X743544Y-438454D02*
X748305D01*
X753364Y-432503D02*
Y-445000D01*
X760505D01*
X561440Y-342503D02*
X567986D01*
X564416Y-347264D01*
X566201D01*
X567391Y-347859D01*
X567986Y-348454D01*
X568582Y-350239D01*
Y-351429D01*
X567986Y-353215D01*
X566796Y-354405D01*
X565011Y-355000D01*
X563226D01*
X561440Y-354405D01*
X560845Y-353810D01*
X560250Y-352620D01*
X578520Y-342503D02*
X572569D01*
X571974Y-347859D01*
X572569Y-347264D01*
X574354Y-346669D01*
X576139D01*
X577925Y-347264D01*
X579115Y-348454D01*
X579710Y-350239D01*
Y-351429D01*
X579115Y-353215D01*
X577925Y-354405D01*
X576139Y-355000D01*
X574354D01*
X572569Y-354405D01*
X571974Y-353810D01*
X571379Y-352620D01*
X582507Y-346669D02*
Y-352620D01*
X583102Y-354405D01*
X584292Y-355000D01*
X586078D01*
X587268Y-354405D01*
X589053Y-352620D01*
Y-346669D02*
Y-355000D01*
X592327Y-346669D02*
Y-355000D01*
Y-349049D02*
X594112Y-347264D01*
X595302Y-346669D01*
X597087D01*
X598278Y-347264D01*
X598873Y-349049D01*
Y-355000D01*
Y-349049D02*
X600658Y-347264D01*
X601848Y-346669D01*
X603634D01*
X604824Y-347264D01*
X605419Y-349049D01*
Y-355000D01*
X560250Y-284883D02*
X561440Y-284288D01*
X563226Y-282503D01*
Y-295000D01*
X570010Y-293810D02*
X569415Y-294405D01*
X570010Y-295000D01*
X570605Y-294405D01*
X570010Y-293810D01*
X580484Y-284288D02*
X579889Y-283098D01*
X578103Y-282503D01*
X576913D01*
X575128Y-283098D01*
X573938Y-284883D01*
X573342Y-287859D01*
Y-290834D01*
X573938Y-293215D01*
X575128Y-294405D01*
X576913Y-295000D01*
X577508D01*
X579294Y-294405D01*
X580484Y-293215D01*
X581079Y-291429D01*
Y-290834D01*
X580484Y-289049D01*
X579294Y-287859D01*
X577508Y-287264D01*
X576913D01*
X575128Y-287859D01*
X573938Y-289049D01*
X573342Y-290834D01*
X583816Y-286668D02*
Y-295000D01*
Y-289049D02*
X585602Y-287264D01*
X586792Y-286668D01*
X588577D01*
X589767Y-287264D01*
X590363Y-289049D01*
Y-295000D01*
Y-289049D02*
X592148Y-287264D01*
X593338Y-286668D01*
X595123D01*
X596314Y-287264D01*
X596909Y-289049D01*
Y-295000D01*
X600836Y-286668D02*
Y-295000D01*
Y-289049D02*
X602622Y-287264D01*
X603812Y-286668D01*
X605597D01*
X606788Y-287264D01*
X607383Y-289049D01*
Y-295000D01*
Y-289049D02*
X609168Y-287264D01*
X610358Y-286668D01*
X612144D01*
X613334Y-287264D01*
X613929Y-289049D01*
Y-295000D01*
X560250Y-252503D02*
Y-265000D01*
Y-252503D02*
X567986D01*
X560250Y-258454D02*
X565011D01*
X569415Y-252503D02*
Y-265000D01*
Y-252503D02*
X574771D01*
X576556Y-253098D01*
X577151Y-253693D01*
X577746Y-254883D01*
Y-256073D01*
X577151Y-257264D01*
X576556Y-257859D01*
X574771Y-258454D01*
X569415D01*
X573581D02*
X577746Y-265000D01*
X586494Y-252503D02*
X580543Y-260834D01*
X589470D01*
X586494Y-252503D02*
Y-265000D01*
X569177Y-405478D02*
X568582Y-404288D01*
X567391Y-403098D01*
X566201Y-402503D01*
X563821D01*
X562630Y-403098D01*
X561440Y-404288D01*
X560845Y-405478D01*
X560250Y-407264D01*
Y-410239D01*
X560845Y-412024D01*
X561440Y-413215D01*
X562630Y-414405D01*
X563821Y-415000D01*
X566201D01*
X567391Y-414405D01*
X568582Y-413215D01*
X569177Y-412024D01*
Y-410239D01*
X566201D02*
X569177D01*
X572033Y-402503D02*
Y-415000D01*
Y-402503D02*
X577389D01*
X579174Y-403098D01*
X579770Y-403693D01*
X580365Y-404883D01*
Y-406073D01*
X579770Y-407264D01*
X579174Y-407859D01*
X577389Y-408454D01*
X572033D01*
X576199D02*
X580365Y-415000D01*
X590898Y-402503D02*
X583162D01*
Y-415000D01*
X590898D01*
X583162Y-408454D02*
X587923D01*
X600718Y-402503D02*
X592981D01*
Y-415000D01*
X600718D01*
X592981Y-408454D02*
X597742D01*
X602800Y-402503D02*
Y-415000D01*
Y-402503D02*
X611132Y-415000D01*
Y-402503D02*
Y-415000D01*
X563821Y-222503D02*
X562035Y-223098D01*
X560845Y-224883D01*
X560250Y-227859D01*
Y-229644D01*
X560845Y-232620D01*
X562035Y-234405D01*
X563821Y-235000D01*
X565011D01*
X566796Y-234405D01*
X567986Y-232620D01*
X568582Y-229644D01*
Y-227859D01*
X567986Y-224883D01*
X566796Y-223098D01*
X565011Y-222503D01*
X563821D01*
X571974Y-233810D02*
X571379Y-234405D01*
X571974Y-235000D01*
X572569Y-234405D01*
X571974Y-233810D01*
X575306Y-224883D02*
X576497Y-224288D01*
X578282Y-222503D01*
Y-235000D01*
X591612Y-222503D02*
X585661D01*
X585066Y-227859D01*
X585661Y-227264D01*
X587447Y-226668D01*
X589232D01*
X591017Y-227264D01*
X592207Y-228454D01*
X592803Y-230239D01*
Y-231429D01*
X592207Y-233215D01*
X591017Y-234405D01*
X589232Y-235000D01*
X587447D01*
X585661Y-234405D01*
X585066Y-233810D01*
X584471Y-232620D01*
X595600Y-226668D02*
Y-235000D01*
Y-229049D02*
X597385Y-227264D01*
X598575Y-226668D01*
X600360D01*
X601551Y-227264D01*
X602146Y-229049D01*
Y-235000D01*
Y-229049D02*
X603931Y-227264D01*
X605121Y-226668D01*
X606907D01*
X608097Y-227264D01*
X608692Y-229049D01*
Y-235000D01*
X612620Y-226668D02*
Y-235000D01*
Y-229049D02*
X614405Y-227264D01*
X615595Y-226668D01*
X617381D01*
X618571Y-227264D01*
X619166Y-229049D01*
Y-235000D01*
Y-229049D02*
X620951Y-227264D01*
X622141Y-226668D01*
X623927D01*
X625117Y-227264D01*
X625712Y-229049D01*
Y-235000D01*
X643625Y-220122D02*
X642435Y-221313D01*
X641245Y-223098D01*
X640054Y-225478D01*
X639459Y-228454D01*
Y-230834D01*
X640054Y-233810D01*
X641245Y-236190D01*
X642435Y-237976D01*
X643625Y-239166D01*
X642435Y-221313D02*
X641245Y-223693D01*
X640649Y-225478D01*
X640054Y-228454D01*
Y-230834D01*
X640649Y-233810D01*
X641245Y-235595D01*
X642435Y-237976D01*
X653147Y-224288D02*
X652552Y-223098D01*
X650766Y-222503D01*
X649576D01*
X647791Y-223098D01*
X646601Y-224883D01*
X646005Y-227859D01*
Y-230834D01*
X646601Y-233215D01*
X647791Y-234405D01*
X649576Y-235000D01*
X650171D01*
X651957Y-234405D01*
X653147Y-233215D01*
X653742Y-231429D01*
Y-230834D01*
X653147Y-229049D01*
X651957Y-227859D01*
X650171Y-227264D01*
X649576D01*
X647791Y-227859D01*
X646601Y-229049D01*
X646005Y-230834D01*
X666299Y-226668D02*
Y-235000D01*
Y-229049D02*
X668084Y-227264D01*
X669274Y-226668D01*
X671060D01*
X672250Y-227264D01*
X672845Y-229049D01*
Y-235000D01*
Y-229049D02*
X674630Y-227264D01*
X675820Y-226668D01*
X677606D01*
X678796Y-227264D01*
X679391Y-229049D01*
Y-235000D01*
X684509Y-222503D02*
X685104Y-223098D01*
X685699Y-222503D01*
X685104Y-221908D01*
X684509Y-222503D01*
X685104Y-226668D02*
Y-235000D01*
X687901Y-222503D02*
Y-235000D01*
X697066Y-228454D02*
X696471Y-227264D01*
X694686Y-226668D01*
X692900D01*
X691115Y-227264D01*
X690520Y-228454D01*
X691115Y-229644D01*
X692305Y-230239D01*
X695281Y-230834D01*
X696471Y-231429D01*
X697066Y-232620D01*
Y-233215D01*
X696471Y-234405D01*
X694686Y-235000D01*
X692900D01*
X691115Y-234405D01*
X690520Y-233215D01*
X699685Y-220122D02*
X700875Y-221313D01*
X702065Y-223098D01*
X703255Y-225478D01*
X703850Y-228454D01*
Y-230834D01*
X703255Y-233810D01*
X702065Y-236190D01*
X700875Y-237976D01*
X699685Y-239166D01*
X700875Y-221313D02*
X702065Y-223693D01*
X702660Y-225478D01*
X703255Y-228454D01*
Y-230834D01*
X702660Y-233810D01*
X702065Y-235595D01*
X700875Y-237976D01*
D46*
X660250Y-805000D02*
Y-775000D01*
X140250Y-575000D02*
X390250D01*
X140250Y-625000D02*
X390250D01*
X140250Y-575000D02*
X390250D01*
X140250Y-625000D02*
X390250D01*
X140250Y-675000D02*
X390250D01*
X740250Y-775000D02*
Y-725000D01*
X750250D02*
Y-675000D01*
X310250Y-534002D02*
Y-545000D01*
Y-534002D02*
X314440Y-545000D01*
X318629Y-534002D02*
X314440Y-545000D01*
X318629Y-534002D02*
Y-545000D01*
X321771Y-534002D02*
Y-545000D01*
X327742Y-534002D02*
Y-545000D01*
X324076Y-534002D02*
X331407D01*
X336382D02*
Y-545000D01*
X332717Y-534002D02*
X340048D01*
X341358D02*
Y-545000D01*
Y-534002D02*
X345547Y-545000D01*
X349737Y-534002D02*
X345547Y-545000D01*
X349737Y-534002D02*
Y-545000D01*
X361258D02*
X357068Y-534002D01*
X352879Y-545000D01*
X354450Y-541334D02*
X359687D01*
X363824Y-534002D02*
Y-545000D01*
Y-534002D02*
X371156Y-545000D01*
Y-534002D02*
Y-545000D01*
X374193Y-534002D02*
Y-545000D01*
Y-534002D02*
X381525Y-545000D01*
Y-534002D02*
Y-545000D01*
X290250Y-556097D02*
X291297Y-555574D01*
X292868Y-554002D01*
Y-565000D01*
X301457Y-554002D02*
X299886Y-554526D01*
X298839Y-556097D01*
X298315Y-558716D01*
Y-560287D01*
X298839Y-562905D01*
X299886Y-564476D01*
X301457Y-565000D01*
X302505D01*
X304076Y-564476D01*
X305123Y-562905D01*
X305647Y-560287D01*
Y-558716D01*
X305123Y-556097D01*
X304076Y-554526D01*
X302505Y-554002D01*
X301457D01*
X308108Y-566571D02*
X315440Y-554002D01*
X316173Y-556097D02*
X317220Y-555574D01*
X318792Y-554002D01*
Y-565000D01*
X324238Y-556097D02*
X325285Y-555574D01*
X326856Y-554002D01*
Y-565000D01*
X332303Y-566571D02*
X339635Y-554002D01*
X340891Y-556621D02*
Y-556097D01*
X341415Y-555050D01*
X341939Y-554526D01*
X342986Y-554002D01*
X345081D01*
X346129Y-554526D01*
X346652Y-555050D01*
X347176Y-556097D01*
Y-557145D01*
X346652Y-558192D01*
X345605Y-559763D01*
X340368Y-565000D01*
X347700D01*
X353303Y-554002D02*
X351732Y-554526D01*
X350685Y-556097D01*
X350161Y-558716D01*
Y-560287D01*
X350685Y-562905D01*
X351732Y-564476D01*
X353303Y-565000D01*
X354351D01*
X355922Y-564476D01*
X356969Y-562905D01*
X357493Y-560287D01*
Y-558716D01*
X356969Y-556097D01*
X355922Y-554526D01*
X354351Y-554002D01*
X353303D01*
X359954Y-556097D02*
X361002Y-555574D01*
X362573Y-554002D01*
Y-565000D01*
X368543Y-556621D02*
Y-556097D01*
X369066Y-555050D01*
X369590Y-554526D01*
X370638Y-554002D01*
X372732D01*
X373780Y-554526D01*
X374303Y-555050D01*
X374827Y-556097D01*
Y-557145D01*
X374303Y-558192D01*
X373256Y-559763D01*
X368019Y-565000D01*
X375351D01*
X310250Y-590287D02*
X319676D01*
X322924D02*
X332350D01*
X290250Y-610287D02*
X299676D01*
X302924D02*
X312350D01*
X290250Y-660287D02*
X299676D01*
X302924D02*
X312350D01*
X159177Y-315478D02*
X158581Y-314288D01*
X157391Y-313098D01*
X156201Y-312503D01*
X153821D01*
X152630Y-313098D01*
X151440Y-314288D01*
X150845Y-315478D01*
X150250Y-317264D01*
Y-320239D01*
X150845Y-322024D01*
X151440Y-323215D01*
X152630Y-324405D01*
X153821Y-325000D01*
X156201D01*
X157391Y-324405D01*
X158581Y-323215D01*
X159177Y-322024D01*
X166259Y-312503D02*
X165068Y-313098D01*
X163878Y-314288D01*
X163283Y-315478D01*
X162688Y-317264D01*
Y-320239D01*
X163283Y-322024D01*
X163878Y-323215D01*
X165068Y-324405D01*
X166259Y-325000D01*
X168639D01*
X169829Y-324405D01*
X171019Y-323215D01*
X171614Y-322024D01*
X172210Y-320239D01*
Y-317264D01*
X171614Y-315478D01*
X171019Y-314288D01*
X169829Y-313098D01*
X168639Y-312503D01*
X166259D01*
X178696D02*
X177506Y-313098D01*
X176316Y-314288D01*
X175721Y-315478D01*
X175126Y-317264D01*
Y-320239D01*
X175721Y-322024D01*
X176316Y-323215D01*
X177506Y-324405D01*
X178696Y-325000D01*
X181077D01*
X182267Y-324405D01*
X183457Y-323215D01*
X184052Y-322024D01*
X184647Y-320239D01*
Y-317264D01*
X184052Y-315478D01*
X183457Y-314288D01*
X182267Y-313098D01*
X181077Y-312503D01*
X178696D01*
X187563Y-319049D02*
X192920D01*
X194705Y-318454D01*
X195300Y-317859D01*
X195895Y-316668D01*
Y-314883D01*
X195300Y-313693D01*
X194705Y-313098D01*
X192920Y-312503D01*
X187563D01*
Y-325000D01*
X206429Y-312503D02*
X198692D01*
Y-325000D01*
X206429D01*
X198692Y-318454D02*
X203453D01*
X208511Y-312503D02*
Y-325000D01*
Y-312503D02*
X213867D01*
X215653Y-313098D01*
X216248Y-313693D01*
X216843Y-314883D01*
Y-316073D01*
X216248Y-317264D01*
X215653Y-317859D01*
X213867Y-318454D01*
X208511D01*
X212677D02*
X216843Y-325000D01*
X229459Y-312503D02*
Y-325000D01*
X236601D01*
X247491D02*
X242730Y-312503D01*
X237969Y-325000D01*
X239755Y-320834D02*
X245706D01*
X250407Y-312503D02*
X255168Y-318454D01*
Y-325000D01*
X259929Y-312503D02*
X255168Y-318454D01*
X269272Y-312503D02*
X261536D01*
Y-325000D01*
X269272D01*
X261536Y-318454D02*
X266297D01*
X271355Y-312503D02*
Y-325000D01*
Y-312503D02*
X276711D01*
X278496Y-313098D01*
X279091Y-313693D01*
X279687Y-314883D01*
Y-316073D01*
X279091Y-317264D01*
X278496Y-317859D01*
X276711Y-318454D01*
X271355D01*
X275521D02*
X279687Y-325000D01*
X290815Y-314288D02*
X289625Y-313098D01*
X287840Y-312503D01*
X285459D01*
X283674Y-313098D01*
X282484Y-314288D01*
Y-315478D01*
X283079Y-316668D01*
X283674Y-317264D01*
X284864Y-317859D01*
X288435Y-319049D01*
X289625Y-319644D01*
X290220Y-320239D01*
X290815Y-321429D01*
Y-323215D01*
X289625Y-324405D01*
X287840Y-325000D01*
X285459D01*
X283674Y-324405D01*
X282484Y-323215D01*
X294207Y-316668D02*
X293612Y-317264D01*
X294207Y-317859D01*
X294802Y-317264D01*
X294207Y-316668D01*
Y-323810D02*
X293612Y-324405D01*
X294207Y-325000D01*
X294802Y-324405D01*
X294207Y-323810D01*
X158581Y-494288D02*
X157391Y-493098D01*
X155606Y-492503D01*
X153226D01*
X151440Y-493098D01*
X150250Y-494288D01*
Y-495478D01*
X150845Y-496669D01*
X151440Y-497264D01*
X152630Y-497859D01*
X156201Y-499049D01*
X157391Y-499644D01*
X157986Y-500239D01*
X158581Y-501429D01*
Y-503215D01*
X157391Y-504405D01*
X155606Y-505000D01*
X153226D01*
X151440Y-504405D01*
X150250Y-503215D01*
X161379Y-492503D02*
Y-501429D01*
X161974Y-503215D01*
X163164Y-504405D01*
X164949Y-505000D01*
X166139D01*
X167925Y-504405D01*
X169115Y-503215D01*
X169710Y-501429D01*
Y-492503D01*
X173162D02*
Y-505000D01*
Y-492503D02*
X178518D01*
X180303Y-493098D01*
X180898Y-493693D01*
X181493Y-494883D01*
Y-496073D01*
X180898Y-497264D01*
X180303Y-497859D01*
X178518Y-498454D01*
X173162D01*
X177327D02*
X181493Y-505000D01*
X184290Y-492503D02*
Y-505000D01*
Y-492503D02*
X192027D01*
X184290Y-498454D02*
X189051D01*
X202977Y-505000D02*
X198216Y-492503D01*
X193455Y-505000D01*
X195240Y-500834D02*
X201192D01*
X214820Y-495478D02*
X214224Y-494288D01*
X213034Y-493098D01*
X211844Y-492503D01*
X209464D01*
X208273Y-493098D01*
X207083Y-494288D01*
X206488Y-495478D01*
X205893Y-497264D01*
Y-500239D01*
X206488Y-502024D01*
X207083Y-503215D01*
X208273Y-504405D01*
X209464Y-505000D01*
X211844D01*
X213034Y-504405D01*
X214224Y-503215D01*
X214820Y-502024D01*
X226067Y-492503D02*
X218331D01*
Y-505000D01*
X226067D01*
X218331Y-498454D02*
X223092D01*
X237969Y-492503D02*
Y-505000D01*
Y-492503D02*
X242730Y-505000D01*
X247491Y-492503D02*
X242730Y-505000D01*
X247491Y-492503D02*
Y-505000D01*
X254632Y-492503D02*
X253442Y-493098D01*
X252252Y-494288D01*
X251657Y-495478D01*
X251062Y-497264D01*
Y-500239D01*
X251657Y-502024D01*
X252252Y-503215D01*
X253442Y-504405D01*
X254632Y-505000D01*
X257013D01*
X258203Y-504405D01*
X259393Y-503215D01*
X259988Y-502024D01*
X260584Y-500239D01*
Y-497264D01*
X259988Y-495478D01*
X259393Y-494288D01*
X258203Y-493098D01*
X257013Y-492503D01*
X254632D01*
X263500D02*
Y-501429D01*
X264095Y-503215D01*
X265285Y-504405D01*
X267070Y-505000D01*
X268260D01*
X270046Y-504405D01*
X271236Y-503215D01*
X271831Y-501429D01*
Y-492503D01*
X275283D02*
Y-505000D01*
Y-492503D02*
X283614Y-505000D01*
Y-492503D02*
Y-505000D01*
X291232Y-492503D02*
Y-505000D01*
X287066Y-492503D02*
X295397D01*
X297480Y-496669D02*
X296885Y-497264D01*
X297480Y-497859D01*
X298076Y-497264D01*
X297480Y-496669D01*
Y-503810D02*
X296885Y-504405D01*
X297480Y-505000D01*
X298076Y-504405D01*
X297480Y-503810D01*
X157986Y-462503D02*
X150250D01*
Y-475000D01*
X157986D01*
X150250Y-468454D02*
X155011D01*
X160069Y-462503D02*
Y-475000D01*
X167211D01*
X176316Y-462503D02*
X168579D01*
Y-475000D01*
X176316D01*
X168579Y-468454D02*
X173340D01*
X187325Y-465478D02*
X186730Y-464288D01*
X185540Y-463098D01*
X184350Y-462503D01*
X181969D01*
X180779Y-463098D01*
X179589Y-464288D01*
X178994Y-465478D01*
X178399Y-467264D01*
Y-470239D01*
X178994Y-472024D01*
X179589Y-473215D01*
X180779Y-474405D01*
X181969Y-475000D01*
X184350D01*
X185540Y-474405D01*
X186730Y-473215D01*
X187325Y-472024D01*
X195002Y-462503D02*
Y-475000D01*
X190837Y-462503D02*
X199168D01*
X200656D02*
Y-475000D01*
Y-462503D02*
X206012D01*
X207797Y-463098D01*
X208392Y-463693D01*
X208988Y-464883D01*
Y-466073D01*
X208392Y-467264D01*
X207797Y-467859D01*
X206012Y-468454D01*
X200656D01*
X204822D02*
X208988Y-475000D01*
X211784Y-462503D02*
Y-475000D01*
X223330Y-465478D02*
X222735Y-464288D01*
X221544Y-463098D01*
X220354Y-462503D01*
X217974D01*
X216783Y-463098D01*
X215593Y-464288D01*
X214998Y-465478D01*
X214403Y-467264D01*
Y-470239D01*
X214998Y-472024D01*
X215593Y-473215D01*
X216783Y-474405D01*
X217974Y-475000D01*
X220354D01*
X221544Y-474405D01*
X222735Y-473215D01*
X223330Y-472024D01*
X236363Y-475000D02*
X231602Y-462503D01*
X226841Y-475000D01*
X228626Y-470834D02*
X234577D01*
X239279Y-462503D02*
Y-475000D01*
X246420D01*
X261774Y-462503D02*
Y-475000D01*
X257608Y-462503D02*
X265940D01*
X275164D02*
X267427D01*
Y-475000D01*
X275164D01*
X267427Y-468454D02*
X272188D01*
X285578Y-464288D02*
X284388Y-463098D01*
X282603Y-462503D01*
X280222D01*
X278437Y-463098D01*
X277247Y-464288D01*
Y-465478D01*
X277842Y-466669D01*
X278437Y-467264D01*
X279627Y-467859D01*
X283198Y-469049D01*
X284388Y-469644D01*
X284983Y-470239D01*
X285578Y-471429D01*
Y-473215D01*
X284388Y-474405D01*
X282603Y-475000D01*
X280222D01*
X278437Y-474405D01*
X277247Y-473215D01*
X292541Y-462503D02*
Y-475000D01*
X288375Y-462503D02*
X296707D01*
X298790Y-466669D02*
X298195Y-467264D01*
X298790Y-467859D01*
X299385Y-467264D01*
X298790Y-466669D01*
Y-473810D02*
X298195Y-474405D01*
X298790Y-475000D01*
X299385Y-474405D01*
X298790Y-473810D01*
X158581Y-434288D02*
X157391Y-433098D01*
X155606Y-432503D01*
X153226D01*
X151440Y-433098D01*
X150250Y-434288D01*
Y-435478D01*
X150845Y-436669D01*
X151440Y-437264D01*
X152630Y-437859D01*
X156201Y-439049D01*
X157391Y-439644D01*
X157986Y-440239D01*
X158581Y-441429D01*
Y-443215D01*
X157391Y-444405D01*
X155606Y-445000D01*
X153226D01*
X151440Y-444405D01*
X150250Y-443215D01*
X161379Y-432503D02*
Y-441429D01*
X161974Y-443215D01*
X163164Y-444405D01*
X164949Y-445000D01*
X166139D01*
X167925Y-444405D01*
X169115Y-443215D01*
X169710Y-441429D01*
Y-432503D01*
X173162D02*
Y-445000D01*
Y-432503D02*
X178518D01*
X180303Y-433098D01*
X180898Y-433693D01*
X181493Y-434883D01*
Y-436073D01*
X180898Y-437264D01*
X180303Y-437859D01*
X178518Y-438454D01*
X173162D01*
X177327D02*
X181493Y-445000D01*
X184290Y-432503D02*
Y-445000D01*
Y-432503D02*
X192027D01*
X184290Y-438454D02*
X189051D01*
X202977Y-445000D02*
X198216Y-432503D01*
X193455Y-445000D01*
X195240Y-440834D02*
X201192D01*
X214820Y-435478D02*
X214224Y-434288D01*
X213034Y-433098D01*
X211844Y-432503D01*
X209464D01*
X208273Y-433098D01*
X207083Y-434288D01*
X206488Y-435478D01*
X205893Y-437264D01*
Y-440239D01*
X206488Y-442024D01*
X207083Y-443215D01*
X208273Y-444405D01*
X209464Y-445000D01*
X211844D01*
X213034Y-444405D01*
X214224Y-443215D01*
X214820Y-442024D01*
X226067Y-432503D02*
X218331D01*
Y-445000D01*
X226067D01*
X218331Y-438454D02*
X223092D01*
X237969Y-432503D02*
Y-445000D01*
Y-432503D02*
X245706D01*
X237969Y-438454D02*
X242730D01*
X247134Y-432503D02*
Y-445000D01*
X249753Y-432503D02*
Y-445000D01*
Y-432503D02*
X258084Y-445000D01*
Y-432503D02*
Y-445000D01*
X261536Y-432503D02*
Y-445000D01*
X272486Y-434288D02*
X271296Y-433098D01*
X269510Y-432503D01*
X267130D01*
X265344Y-433098D01*
X264154Y-434288D01*
Y-435478D01*
X264749Y-436669D01*
X265344Y-437264D01*
X266535Y-437859D01*
X270105Y-439049D01*
X271296Y-439644D01*
X271891Y-440239D01*
X272486Y-441429D01*
Y-443215D01*
X271296Y-444405D01*
X269510Y-445000D01*
X267130D01*
X265344Y-444405D01*
X264154Y-443215D01*
X275283Y-432503D02*
Y-445000D01*
X283614Y-432503D02*
Y-445000D01*
X275283Y-438454D02*
X283614D01*
X287661Y-436669D02*
X287066Y-437264D01*
X287661Y-437859D01*
X288256Y-437264D01*
X287661Y-436669D01*
Y-443810D02*
X287066Y-444405D01*
X287661Y-445000D01*
X288256Y-444405D01*
X287661Y-443810D01*
X150250Y-372503D02*
Y-385000D01*
X157391D01*
X166497Y-372503D02*
X158760D01*
Y-385000D01*
X166497D01*
X158760Y-378454D02*
X163521D01*
X177506Y-375478D02*
X176911Y-374288D01*
X175721Y-373098D01*
X174531Y-372503D01*
X172150D01*
X170960Y-373098D01*
X169770Y-374288D01*
X169174Y-375478D01*
X168579Y-377264D01*
Y-380239D01*
X169174Y-382024D01*
X169770Y-383215D01*
X170960Y-384405D01*
X172150Y-385000D01*
X174531D01*
X175721Y-384405D01*
X176911Y-383215D01*
X177506Y-382024D01*
Y-380239D01*
X174531D02*
X177506D01*
X188099Y-372503D02*
X180363D01*
Y-385000D01*
X188099D01*
X180363Y-378454D02*
X185124D01*
X190182Y-372503D02*
Y-385000D01*
Y-372503D02*
X198514Y-385000D01*
Y-372503D02*
Y-385000D01*
X201965Y-372503D02*
Y-385000D01*
Y-372503D02*
X206131D01*
X207916Y-373098D01*
X209107Y-374288D01*
X209702Y-375478D01*
X210297Y-377264D01*
Y-380239D01*
X209702Y-382024D01*
X209107Y-383215D01*
X207916Y-384405D01*
X206131Y-385000D01*
X201965D01*
X222913Y-372503D02*
Y-385000D01*
Y-372503D02*
X227674Y-385000D01*
X232435Y-372503D02*
X227674Y-385000D01*
X232435Y-372503D02*
Y-385000D01*
X245527D02*
X240766Y-372503D01*
X236005Y-385000D01*
X237791Y-380834D02*
X243742D01*
X248443Y-372503D02*
Y-385000D01*
Y-372503D02*
X253799D01*
X255585Y-373098D01*
X256180Y-373693D01*
X256775Y-374883D01*
Y-376073D01*
X256180Y-377264D01*
X255585Y-377859D01*
X253799Y-378454D01*
X248443D01*
X252609D02*
X256775Y-385000D01*
X259572Y-372503D02*
Y-385000D01*
X267903Y-372503D02*
X259572Y-380834D01*
X262547Y-377859D02*
X267903Y-385000D01*
X270700Y-372503D02*
Y-385000D01*
X273319Y-372503D02*
Y-385000D01*
Y-372503D02*
X281651Y-385000D01*
Y-372503D02*
Y-385000D01*
X294029Y-375478D02*
X293434Y-374288D01*
X292243Y-373098D01*
X291053Y-372503D01*
X288673D01*
X287483Y-373098D01*
X286292Y-374288D01*
X285697Y-375478D01*
X285102Y-377264D01*
Y-380239D01*
X285697Y-382024D01*
X286292Y-383215D01*
X287483Y-384405D01*
X288673Y-385000D01*
X291053D01*
X292243Y-384405D01*
X293434Y-383215D01*
X294029Y-382024D01*
Y-380239D01*
X291053D02*
X294029D01*
X315631Y-375478D02*
X315036Y-374288D01*
X313846Y-373098D01*
X312656Y-372503D01*
X310275D01*
X309085Y-373098D01*
X307895Y-374288D01*
X307300Y-375478D01*
X306705Y-377264D01*
Y-380239D01*
X307300Y-382024D01*
X307895Y-383215D01*
X309085Y-384405D01*
X310275Y-385000D01*
X312656D01*
X313846Y-384405D01*
X315036Y-383215D01*
X315631Y-382024D01*
X322713Y-372503D02*
X321523Y-373098D01*
X320333Y-374288D01*
X319738Y-375478D01*
X319142Y-377264D01*
Y-380239D01*
X319738Y-382024D01*
X320333Y-383215D01*
X321523Y-384405D01*
X322713Y-385000D01*
X325094D01*
X326284Y-384405D01*
X327474Y-383215D01*
X328069Y-382024D01*
X328664Y-380239D01*
Y-377264D01*
X328069Y-375478D01*
X327474Y-374288D01*
X326284Y-373098D01*
X325094Y-372503D01*
X322713D01*
X331580D02*
Y-385000D01*
X338722D01*
X343661Y-372503D02*
X342471Y-373098D01*
X341281Y-374288D01*
X340686Y-375478D01*
X340090Y-377264D01*
Y-380239D01*
X340686Y-382024D01*
X341281Y-383215D01*
X342471Y-384405D01*
X343661Y-385000D01*
X346041D01*
X347232Y-384405D01*
X348422Y-383215D01*
X349017Y-382024D01*
X349612Y-380239D01*
Y-377264D01*
X349017Y-375478D01*
X348422Y-374288D01*
X347232Y-373098D01*
X346041Y-372503D01*
X343661D01*
X352528D02*
Y-381429D01*
X353123Y-383215D01*
X354314Y-384405D01*
X356099Y-385000D01*
X357289D01*
X359074Y-384405D01*
X360265Y-383215D01*
X360860Y-381429D01*
Y-372503D01*
X364311D02*
Y-385000D01*
Y-372503D02*
X369667D01*
X371453Y-373098D01*
X372048Y-373693D01*
X372643Y-374883D01*
Y-376073D01*
X372048Y-377264D01*
X371453Y-377859D01*
X369667Y-378454D01*
X364311D01*
X368477D02*
X372643Y-385000D01*
X376035Y-376669D02*
X375440Y-377264D01*
X376035Y-377859D01*
X376630Y-377264D01*
X376035Y-376669D01*
Y-383810D02*
X375440Y-384405D01*
X376035Y-385000D01*
X376630Y-384405D01*
X376035Y-383810D01*
X159177Y-345478D02*
X158581Y-344288D01*
X157391Y-343098D01*
X156201Y-342503D01*
X153821D01*
X152630Y-343098D01*
X151440Y-344288D01*
X150845Y-345478D01*
X150250Y-347264D01*
Y-350239D01*
X150845Y-352024D01*
X151440Y-353215D01*
X152630Y-354405D01*
X153821Y-355000D01*
X156201D01*
X157391Y-354405D01*
X158581Y-353215D01*
X159177Y-352024D01*
X166259Y-342503D02*
X165068Y-343098D01*
X163878Y-344288D01*
X163283Y-345478D01*
X162688Y-347264D01*
Y-350239D01*
X163283Y-352024D01*
X163878Y-353215D01*
X165068Y-354405D01*
X166259Y-355000D01*
X168639D01*
X169829Y-354405D01*
X171019Y-353215D01*
X171614Y-352024D01*
X172210Y-350239D01*
Y-347264D01*
X171614Y-345478D01*
X171019Y-344288D01*
X169829Y-343098D01*
X168639Y-342503D01*
X166259D01*
X175126Y-349049D02*
X180482D01*
X182267Y-348454D01*
X182862Y-347859D01*
X183457Y-346669D01*
Y-344883D01*
X182862Y-343693D01*
X182267Y-343098D01*
X180482Y-342503D01*
X175126D01*
Y-355000D01*
X186254Y-349049D02*
X191610D01*
X193396Y-348454D01*
X193991Y-347859D01*
X194586Y-346669D01*
Y-344883D01*
X193991Y-343693D01*
X193396Y-343098D01*
X191610Y-342503D01*
X186254D01*
Y-355000D01*
X205119Y-342503D02*
X197383D01*
Y-355000D01*
X205119D01*
X197383Y-348454D02*
X202144D01*
X207202Y-342503D02*
Y-355000D01*
Y-342503D02*
X212558D01*
X214343Y-343098D01*
X214939Y-343693D01*
X215534Y-344883D01*
Y-346073D01*
X214939Y-347264D01*
X214343Y-347859D01*
X212558Y-348454D01*
X207202D01*
X211368D02*
X215534Y-355000D01*
X232316Y-342503D02*
Y-355000D01*
X228150Y-342503D02*
X236482D01*
X237969D02*
Y-355000D01*
X246301Y-342503D02*
Y-355000D01*
X237969Y-348454D02*
X246301D01*
X249753Y-342503D02*
Y-355000D01*
X261298Y-345478D02*
X260703Y-344288D01*
X259512Y-343098D01*
X258322Y-342503D01*
X255942D01*
X254751Y-343098D01*
X253561Y-344288D01*
X252966Y-345478D01*
X252371Y-347264D01*
Y-350239D01*
X252966Y-352024D01*
X253561Y-353215D01*
X254751Y-354405D01*
X255942Y-355000D01*
X258322D01*
X259512Y-354405D01*
X260703Y-353215D01*
X261298Y-352024D01*
X264809Y-342503D02*
Y-355000D01*
X273140Y-342503D02*
X264809Y-350834D01*
X267784Y-347859D02*
X273140Y-355000D01*
X275937Y-342503D02*
Y-355000D01*
Y-342503D02*
X284269Y-355000D01*
Y-342503D02*
Y-355000D01*
X295457Y-342503D02*
X287721D01*
Y-355000D01*
X295457D01*
X287721Y-348454D02*
X292481D01*
X305872Y-344288D02*
X304681Y-343098D01*
X302896Y-342503D01*
X300515D01*
X298730Y-343098D01*
X297540Y-344288D01*
Y-345478D01*
X298135Y-346669D01*
X298730Y-347264D01*
X299920Y-347859D01*
X303491Y-349049D01*
X304681Y-349644D01*
X305276Y-350239D01*
X305872Y-351429D01*
Y-353215D01*
X304681Y-354405D01*
X302896Y-355000D01*
X300515D01*
X298730Y-354405D01*
X297540Y-353215D01*
X317000Y-344288D02*
X315810Y-343098D01*
X314025Y-342503D01*
X311644D01*
X309859Y-343098D01*
X308668Y-344288D01*
Y-345478D01*
X309264Y-346669D01*
X309859Y-347264D01*
X311049Y-347859D01*
X314620Y-349049D01*
X315810Y-349644D01*
X316405Y-350239D01*
X317000Y-351429D01*
Y-353215D01*
X315810Y-354405D01*
X314025Y-355000D01*
X311644D01*
X309859Y-354405D01*
X308668Y-353215D01*
X333782Y-340122D02*
X332592Y-341312D01*
X331402Y-343098D01*
X330212Y-345478D01*
X329617Y-348454D01*
Y-350834D01*
X330212Y-353810D01*
X331402Y-356190D01*
X332592Y-357976D01*
X333782Y-359166D01*
X332592Y-341312D02*
X331402Y-343693D01*
X330807Y-345478D01*
X330212Y-348454D01*
Y-350834D01*
X330807Y-353810D01*
X331402Y-355595D01*
X332592Y-357976D01*
X336163Y-342503D02*
Y-355000D01*
Y-342503D02*
X343899D01*
X336163Y-348454D02*
X340924D01*
X345327Y-342503D02*
Y-355000D01*
X347946Y-342503D02*
Y-355000D01*
Y-342503D02*
X356277Y-355000D01*
Y-342503D02*
Y-355000D01*
X359729Y-342503D02*
Y-355000D01*
X370679Y-344288D02*
X369489Y-343098D01*
X367704Y-342503D01*
X365323D01*
X363538Y-343098D01*
X362347Y-344288D01*
Y-345478D01*
X362943Y-346669D01*
X363538Y-347264D01*
X364728Y-347859D01*
X368299Y-349049D01*
X369489Y-349644D01*
X370084Y-350239D01*
X370679Y-351429D01*
Y-353215D01*
X369489Y-354405D01*
X367704Y-355000D01*
X365323D01*
X363538Y-354405D01*
X362347Y-353215D01*
X373476Y-342503D02*
Y-355000D01*
X381808Y-342503D02*
Y-355000D01*
X373476Y-348454D02*
X381808D01*
X392996Y-342503D02*
X385259D01*
Y-355000D01*
X392996D01*
X385259Y-348454D02*
X390020D01*
X395079Y-342503D02*
Y-355000D01*
Y-342503D02*
X399244D01*
X401030Y-343098D01*
X402220Y-344288D01*
X402815Y-345478D01*
X403410Y-347264D01*
Y-350239D01*
X402815Y-352024D01*
X402220Y-353215D01*
X401030Y-354405D01*
X399244Y-355000D01*
X395079D01*
X406207Y-340122D02*
X407397Y-341312D01*
X408588Y-343098D01*
X409778Y-345478D01*
X410373Y-348454D01*
Y-350834D01*
X409778Y-353810D01*
X408588Y-356190D01*
X407397Y-357976D01*
X406207Y-359166D01*
X407397Y-341312D02*
X408588Y-343693D01*
X409183Y-345478D01*
X409778Y-348454D01*
Y-350834D01*
X409183Y-353810D01*
X408588Y-355595D01*
X407397Y-357976D01*
X414003Y-346669D02*
X413408Y-347264D01*
X414003Y-347859D01*
X414598Y-347264D01*
X414003Y-346669D01*
Y-353810D02*
X413408Y-354405D01*
X414003Y-355000D01*
X414598Y-354405D01*
X414003Y-353810D01*
X150250Y-282503D02*
Y-295000D01*
Y-282503D02*
X155606D01*
X157391Y-283098D01*
X157986Y-283693D01*
X158581Y-284883D01*
Y-286073D01*
X157986Y-287264D01*
X157391Y-287859D01*
X155606Y-288454D01*
X150250D02*
X155606D01*
X157391Y-289049D01*
X157986Y-289644D01*
X158581Y-290834D01*
Y-292620D01*
X157986Y-293810D01*
X157391Y-294405D01*
X155606Y-295000D01*
X150250D01*
X164949Y-282503D02*
X163759Y-283098D01*
X162569Y-284288D01*
X161974Y-285478D01*
X161379Y-287264D01*
Y-290239D01*
X161974Y-292024D01*
X162569Y-293215D01*
X163759Y-294405D01*
X164949Y-295000D01*
X167330D01*
X168520Y-294405D01*
X169710Y-293215D01*
X170305Y-292024D01*
X170900Y-290239D01*
Y-287264D01*
X170305Y-285478D01*
X169710Y-284288D01*
X168520Y-283098D01*
X167330Y-282503D01*
X164949D01*
X183338Y-295000D02*
X178577Y-282503D01*
X173816Y-295000D01*
X175602Y-290834D02*
X181553D01*
X186254Y-282503D02*
Y-295000D01*
Y-282503D02*
X191610D01*
X193396Y-283098D01*
X193991Y-283693D01*
X194586Y-284883D01*
Y-286073D01*
X193991Y-287264D01*
X193396Y-287859D01*
X191610Y-288454D01*
X186254D01*
X190420D02*
X194586Y-295000D01*
X197383Y-282503D02*
Y-295000D01*
Y-282503D02*
X201549D01*
X203334Y-283098D01*
X204524Y-284288D01*
X205119Y-285478D01*
X205714Y-287264D01*
Y-290239D01*
X205119Y-292024D01*
X204524Y-293215D01*
X203334Y-294405D01*
X201549Y-295000D01*
X197383D01*
X222496Y-282503D02*
Y-295000D01*
X218331Y-282503D02*
X226662D01*
X228150D02*
Y-295000D01*
X236482Y-282503D02*
Y-295000D01*
X228150Y-288454D02*
X236482D01*
X239933Y-282503D02*
Y-295000D01*
X251478Y-285478D02*
X250883Y-284288D01*
X249693Y-283098D01*
X248503Y-282503D01*
X246122D01*
X244932Y-283098D01*
X243742Y-284288D01*
X243147Y-285478D01*
X242552Y-287264D01*
Y-290239D01*
X243147Y-292024D01*
X243742Y-293215D01*
X244932Y-294405D01*
X246122Y-295000D01*
X248503D01*
X249693Y-294405D01*
X250883Y-293215D01*
X251478Y-292024D01*
X254989Y-282503D02*
Y-295000D01*
X263321Y-282503D02*
X254989Y-290834D01*
X257965Y-287859D02*
X263321Y-295000D01*
X266118Y-282503D02*
Y-295000D01*
Y-282503D02*
X274450Y-295000D01*
Y-282503D02*
Y-295000D01*
X285638Y-282503D02*
X277901D01*
Y-295000D01*
X285638D01*
X277901Y-288454D02*
X282662D01*
X296052Y-284288D02*
X294862Y-283098D01*
X293077Y-282503D01*
X290696D01*
X288911Y-283098D01*
X287721Y-284288D01*
Y-285478D01*
X288316Y-286668D01*
X288911Y-287264D01*
X290101Y-287859D01*
X293672Y-289049D01*
X294862Y-289644D01*
X295457Y-290239D01*
X296052Y-291429D01*
Y-293215D01*
X294862Y-294405D01*
X293077Y-295000D01*
X290696D01*
X288911Y-294405D01*
X287721Y-293215D01*
X307181Y-284288D02*
X305991Y-283098D01*
X304205Y-282503D01*
X301825D01*
X300039Y-283098D01*
X298849Y-284288D01*
Y-285478D01*
X299444Y-286668D01*
X300039Y-287264D01*
X301230Y-287859D01*
X304800Y-289049D01*
X305991Y-289644D01*
X306586Y-290239D01*
X307181Y-291429D01*
Y-293215D01*
X305991Y-294405D01*
X304205Y-295000D01*
X301825D01*
X300039Y-294405D01*
X298849Y-293215D01*
X310573Y-286668D02*
X309978Y-287264D01*
X310573Y-287859D01*
X311168Y-287264D01*
X310573Y-286668D01*
Y-293810D02*
X309978Y-294405D01*
X310573Y-295000D01*
X311168Y-294405D01*
X310573Y-293810D01*
X150250Y-252503D02*
Y-265000D01*
Y-252503D02*
X155606D01*
X157391Y-253098D01*
X157986Y-253693D01*
X158581Y-254883D01*
Y-256073D01*
X157986Y-257264D01*
X157391Y-257859D01*
X155606Y-258454D01*
X150250D02*
X155606D01*
X157391Y-259049D01*
X157986Y-259644D01*
X158581Y-260834D01*
Y-262620D01*
X157986Y-263810D01*
X157391Y-264405D01*
X155606Y-265000D01*
X150250D01*
X170900D02*
X166139Y-252503D01*
X161379Y-265000D01*
X163164Y-260834D02*
X169115D01*
X182148Y-254288D02*
X180958Y-253098D01*
X179172Y-252503D01*
X176792D01*
X175007Y-253098D01*
X173816Y-254288D01*
Y-255478D01*
X174412Y-256668D01*
X175007Y-257264D01*
X176197Y-257859D01*
X179767Y-259049D01*
X180958Y-259644D01*
X181553Y-260239D01*
X182148Y-261429D01*
Y-263215D01*
X180958Y-264405D01*
X179172Y-265000D01*
X176792D01*
X175007Y-264405D01*
X173816Y-263215D01*
X192681Y-252503D02*
X184945D01*
Y-265000D01*
X192681D01*
X184945Y-258454D02*
X189706D01*
X204584Y-252503D02*
Y-265000D01*
Y-252503D02*
X209345Y-265000D01*
X214105Y-252503D02*
X209345Y-265000D01*
X214105Y-252503D02*
Y-265000D01*
X227198D02*
X222437Y-252503D01*
X217676Y-265000D01*
X219461Y-260834D02*
X225413D01*
X234280Y-252503D02*
Y-265000D01*
X230114Y-252503D02*
X238445D01*
X247670D02*
X239933D01*
Y-265000D01*
X247670D01*
X239933Y-258454D02*
X244694D01*
X249753Y-252503D02*
Y-265000D01*
Y-252503D02*
X255109D01*
X256894Y-253098D01*
X257489Y-253693D01*
X258084Y-254883D01*
Y-256073D01*
X257489Y-257264D01*
X256894Y-257859D01*
X255109Y-258454D01*
X249753D01*
X253918D02*
X258084Y-265000D01*
X260881Y-252503D02*
Y-265000D01*
X273021D02*
X268260Y-252503D01*
X263500Y-265000D01*
X265285Y-260834D02*
X271236D01*
X275937Y-252503D02*
Y-265000D01*
X283079D01*
X285043Y-256668D02*
X284447Y-257264D01*
X285043Y-257859D01*
X285638Y-257264D01*
X285043Y-256668D01*
Y-263810D02*
X284447Y-264405D01*
X285043Y-265000D01*
X285638Y-264405D01*
X285043Y-263810D01*
X150250Y-162503D02*
Y-175000D01*
Y-162503D02*
X155606D01*
X157391Y-163098D01*
X157986Y-163693D01*
X158581Y-164883D01*
Y-166073D01*
X157986Y-167264D01*
X157391Y-167859D01*
X155606Y-168454D01*
X150250D02*
X155606D01*
X157391Y-169049D01*
X157986Y-169644D01*
X158581Y-170834D01*
Y-172620D01*
X157986Y-173810D01*
X157391Y-174405D01*
X155606Y-175000D01*
X150250D01*
X164949Y-162503D02*
X163759Y-163098D01*
X162569Y-164288D01*
X161974Y-165478D01*
X161379Y-167264D01*
Y-170239D01*
X161974Y-172024D01*
X162569Y-173215D01*
X163759Y-174405D01*
X164949Y-175000D01*
X167330D01*
X168520Y-174405D01*
X169710Y-173215D01*
X170305Y-172024D01*
X170900Y-170239D01*
Y-167264D01*
X170305Y-165478D01*
X169710Y-164288D01*
X168520Y-163098D01*
X167330Y-162503D01*
X164949D01*
X183338Y-175000D02*
X178577Y-162503D01*
X173816Y-175000D01*
X175602Y-170834D02*
X181553D01*
X186254Y-162503D02*
Y-175000D01*
Y-162503D02*
X191610D01*
X193396Y-163098D01*
X193991Y-163693D01*
X194586Y-164883D01*
Y-166073D01*
X193991Y-167264D01*
X193396Y-167859D01*
X191610Y-168454D01*
X186254D01*
X190420D02*
X194586Y-175000D01*
X197383Y-162503D02*
Y-175000D01*
Y-162503D02*
X201549D01*
X203334Y-163098D01*
X204524Y-164288D01*
X205119Y-165478D01*
X205714Y-167264D01*
Y-170239D01*
X205119Y-172024D01*
X204524Y-173215D01*
X203334Y-174405D01*
X201549Y-175000D01*
X197383D01*
X226662Y-164288D02*
X225472Y-163098D01*
X223687Y-162503D01*
X221306D01*
X219521Y-163098D01*
X218331Y-164288D01*
Y-165478D01*
X218926Y-166668D01*
X219521Y-167264D01*
X220711Y-167859D01*
X224282Y-169049D01*
X225472Y-169644D01*
X226067Y-170239D01*
X226662Y-171429D01*
Y-173215D01*
X225472Y-174405D01*
X223687Y-175000D01*
X221306D01*
X219521Y-174405D01*
X218331Y-173215D01*
X229459Y-162503D02*
Y-175000D01*
X240409Y-162503D02*
X232078Y-175000D01*
Y-162503D02*
X240409D01*
X232078Y-175000D02*
X240409D01*
X250943Y-162503D02*
X243206D01*
Y-175000D01*
X250943D01*
X243206Y-168454D02*
X247967D01*
X253621Y-166668D02*
X253026Y-167264D01*
X253621Y-167859D01*
X254216Y-167264D01*
X253621Y-166668D01*
Y-173810D02*
X253026Y-174405D01*
X253621Y-175000D01*
X254216Y-174405D01*
X253621Y-173810D01*
X159177Y-195478D02*
X158581Y-194288D01*
X157391Y-193098D01*
X156201Y-192503D01*
X153821D01*
X152630Y-193098D01*
X151440Y-194288D01*
X150845Y-195478D01*
X150250Y-197264D01*
Y-200239D01*
X150845Y-202024D01*
X151440Y-203215D01*
X152630Y-204405D01*
X153821Y-205000D01*
X156201D01*
X157391Y-204405D01*
X158581Y-203215D01*
X159177Y-202024D01*
X166259Y-192503D02*
X165068Y-193098D01*
X163878Y-194288D01*
X163283Y-195478D01*
X162688Y-197264D01*
Y-200239D01*
X163283Y-202024D01*
X163878Y-203215D01*
X165068Y-204405D01*
X166259Y-205000D01*
X168639D01*
X169829Y-204405D01*
X171019Y-203215D01*
X171614Y-202024D01*
X172210Y-200239D01*
Y-197264D01*
X171614Y-195478D01*
X171019Y-194288D01*
X169829Y-193098D01*
X168639Y-192503D01*
X166259D01*
X175126D02*
Y-205000D01*
Y-192503D02*
X183457Y-205000D01*
Y-192503D02*
Y-205000D01*
X186909Y-192503D02*
Y-205000D01*
Y-192503D02*
X191075D01*
X192860Y-193098D01*
X194050Y-194288D01*
X194645Y-195478D01*
X195240Y-197264D01*
Y-200239D01*
X194645Y-202024D01*
X194050Y-203215D01*
X192860Y-204405D01*
X191075Y-205000D01*
X186909D01*
X198037Y-192503D02*
Y-201429D01*
X198633Y-203215D01*
X199823Y-204405D01*
X201608Y-205000D01*
X202798D01*
X204584Y-204405D01*
X205774Y-203215D01*
X206369Y-201429D01*
Y-192503D01*
X218747Y-195478D02*
X218152Y-194288D01*
X216962Y-193098D01*
X215772Y-192503D01*
X213391D01*
X212201Y-193098D01*
X211011Y-194288D01*
X210416Y-195478D01*
X209821Y-197264D01*
Y-200239D01*
X210416Y-202024D01*
X211011Y-203215D01*
X212201Y-204405D01*
X213391Y-205000D01*
X215772D01*
X216962Y-204405D01*
X218152Y-203215D01*
X218747Y-202024D01*
X226424Y-192503D02*
Y-205000D01*
X222258Y-192503D02*
X230590D01*
X235648D02*
X234458Y-193098D01*
X233268Y-194288D01*
X232673Y-195478D01*
X232078Y-197264D01*
Y-200239D01*
X232673Y-202024D01*
X233268Y-203215D01*
X234458Y-204405D01*
X235648Y-205000D01*
X238029D01*
X239219Y-204405D01*
X240409Y-203215D01*
X241004Y-202024D01*
X241600Y-200239D01*
Y-197264D01*
X241004Y-195478D01*
X240409Y-194288D01*
X239219Y-193098D01*
X238029Y-192503D01*
X235648D01*
X244516D02*
Y-205000D01*
Y-192503D02*
X249872D01*
X251657Y-193098D01*
X252252Y-193693D01*
X252847Y-194883D01*
Y-196073D01*
X252252Y-197264D01*
X251657Y-197859D01*
X249872Y-198454D01*
X244516D01*
X248681D02*
X252847Y-205000D01*
X273795Y-194288D02*
X272605Y-193098D01*
X270819Y-192503D01*
X268439D01*
X266654Y-193098D01*
X265464Y-194288D01*
Y-195478D01*
X266059Y-196668D01*
X266654Y-197264D01*
X267844Y-197859D01*
X271415Y-199049D01*
X272605Y-199644D01*
X273200Y-200239D01*
X273795Y-201429D01*
Y-203215D01*
X272605Y-204405D01*
X270819Y-205000D01*
X268439D01*
X266654Y-204405D01*
X265464Y-203215D01*
X276592Y-199049D02*
X281948D01*
X283733Y-198454D01*
X284328Y-197859D01*
X284924Y-196668D01*
Y-194883D01*
X284328Y-193693D01*
X283733Y-193098D01*
X281948Y-192503D01*
X276592D01*
Y-205000D01*
X297242D02*
X292481Y-192503D01*
X287721Y-205000D01*
X289506Y-200834D02*
X295457D01*
X309085Y-195478D02*
X308490Y-194288D01*
X307300Y-193098D01*
X306110Y-192503D01*
X303729D01*
X302539Y-193098D01*
X301349Y-194288D01*
X300754Y-195478D01*
X300159Y-197264D01*
Y-200239D01*
X300754Y-202024D01*
X301349Y-203215D01*
X302539Y-204405D01*
X303729Y-205000D01*
X306110D01*
X307300Y-204405D01*
X308490Y-203215D01*
X309085Y-202024D01*
X312596Y-192503D02*
Y-205000D01*
X315215Y-192503D02*
Y-205000D01*
Y-192503D02*
X323546Y-205000D01*
Y-192503D02*
Y-205000D01*
X335925Y-195478D02*
X335330Y-194288D01*
X334139Y-193098D01*
X332949Y-192503D01*
X330569D01*
X329378Y-193098D01*
X328188Y-194288D01*
X327593Y-195478D01*
X326998Y-197264D01*
Y-200239D01*
X327593Y-202024D01*
X328188Y-203215D01*
X329378Y-204405D01*
X330569Y-205000D01*
X332949D01*
X334139Y-204405D01*
X335330Y-203215D01*
X335925Y-202024D01*
Y-200239D01*
X332949D02*
X335925D01*
X352766Y-190122D02*
X351576Y-191313D01*
X350386Y-193098D01*
X349196Y-195478D01*
X348601Y-198454D01*
Y-200834D01*
X349196Y-203810D01*
X350386Y-206190D01*
X351576Y-207976D01*
X352766Y-209166D01*
X351576Y-191313D02*
X350386Y-193693D01*
X349791Y-195478D01*
X349196Y-198454D01*
Y-200834D01*
X349791Y-203810D01*
X350386Y-205595D01*
X351576Y-207976D01*
X355147Y-192503D02*
Y-205000D01*
Y-192503D02*
X359908Y-205000D01*
X364669Y-192503D02*
X359908Y-205000D01*
X364669Y-192503D02*
Y-205000D01*
X368239Y-192503D02*
Y-205000D01*
X370858Y-192503D02*
Y-205000D01*
Y-192503D02*
X379189Y-205000D01*
Y-192503D02*
Y-205000D01*
X382641Y-190122D02*
X383831Y-191313D01*
X385021Y-193098D01*
X386211Y-195478D01*
X386807Y-198454D01*
Y-200834D01*
X386211Y-203810D01*
X385021Y-206190D01*
X383831Y-207976D01*
X382641Y-209166D01*
X383831Y-191313D02*
X385021Y-193693D01*
X385616Y-195478D01*
X386211Y-198454D01*
Y-200834D01*
X385616Y-203810D01*
X385021Y-205595D01*
X383831Y-207976D01*
X390437Y-196668D02*
X389842Y-197264D01*
X390437Y-197859D01*
X391032Y-197264D01*
X390437Y-196668D01*
Y-203810D02*
X389842Y-204405D01*
X390437Y-205000D01*
X391032Y-204405D01*
X390437Y-203810D01*
X158581Y-404288D02*
X157391Y-403098D01*
X155606Y-402503D01*
X153226D01*
X151440Y-403098D01*
X150250Y-404288D01*
Y-405478D01*
X150845Y-406669D01*
X151440Y-407264D01*
X152630Y-407859D01*
X156201Y-409049D01*
X157391Y-409644D01*
X157986Y-410239D01*
X158581Y-411429D01*
Y-413215D01*
X157391Y-414405D01*
X155606Y-415000D01*
X153226D01*
X151440Y-414405D01*
X150250Y-413215D01*
X164949Y-402503D02*
X163759Y-403098D01*
X162569Y-404288D01*
X161974Y-405478D01*
X161379Y-407264D01*
Y-410239D01*
X161974Y-412024D01*
X162569Y-413215D01*
X163759Y-414405D01*
X164949Y-415000D01*
X167330D01*
X168520Y-414405D01*
X169710Y-413215D01*
X170305Y-412024D01*
X170900Y-410239D01*
Y-407264D01*
X170305Y-405478D01*
X169710Y-404288D01*
X168520Y-403098D01*
X167330Y-402503D01*
X164949D01*
X173816D02*
Y-415000D01*
X180958D01*
X182327Y-402503D02*
Y-415000D01*
Y-402503D02*
X186492D01*
X188278Y-403098D01*
X189468Y-404288D01*
X190063Y-405478D01*
X190658Y-407264D01*
Y-410239D01*
X190063Y-412024D01*
X189468Y-413215D01*
X188278Y-414405D01*
X186492Y-415000D01*
X182327D01*
X201192Y-402503D02*
X193455D01*
Y-415000D01*
X201192D01*
X193455Y-408454D02*
X198216D01*
X203274Y-402503D02*
Y-415000D01*
Y-402503D02*
X208630D01*
X210416Y-403098D01*
X211011Y-403693D01*
X211606Y-404883D01*
Y-406073D01*
X211011Y-407264D01*
X210416Y-407859D01*
X208630Y-408454D01*
X203274D01*
X207440D02*
X211606Y-415000D01*
X224222Y-402503D02*
Y-415000D01*
Y-402503D02*
X228983Y-415000D01*
X233744Y-402503D02*
X228983Y-415000D01*
X233744Y-402503D02*
Y-415000D01*
X246836D02*
X242076Y-402503D01*
X237315Y-415000D01*
X239100Y-410834D02*
X245051D01*
X258084Y-404288D02*
X256894Y-403098D01*
X255109Y-402503D01*
X252728D01*
X250943Y-403098D01*
X249753Y-404288D01*
Y-405478D01*
X250348Y-406669D01*
X250943Y-407264D01*
X252133Y-407859D01*
X255704Y-409049D01*
X256894Y-409644D01*
X257489Y-410239D01*
X258084Y-411429D01*
Y-413215D01*
X256894Y-414405D01*
X255109Y-415000D01*
X252728D01*
X250943Y-414405D01*
X249753Y-413215D01*
X260881Y-402503D02*
Y-415000D01*
X269213Y-402503D02*
X260881Y-410834D01*
X263857Y-407859D02*
X269213Y-415000D01*
X290756Y-405478D02*
X290161Y-404288D01*
X288970Y-403098D01*
X287780Y-402503D01*
X285400D01*
X284209Y-403098D01*
X283019Y-404288D01*
X282424Y-405478D01*
X281829Y-407264D01*
Y-410239D01*
X282424Y-412024D01*
X283019Y-413215D01*
X284209Y-414405D01*
X285400Y-415000D01*
X287780D01*
X288970Y-414405D01*
X290161Y-413215D01*
X290756Y-412024D01*
X297838Y-402503D02*
X296647Y-403098D01*
X295457Y-404288D01*
X294862Y-405478D01*
X294267Y-407264D01*
Y-410239D01*
X294862Y-412024D01*
X295457Y-413215D01*
X296647Y-414405D01*
X297838Y-415000D01*
X300218D01*
X301408Y-414405D01*
X302598Y-413215D01*
X303193Y-412024D01*
X303789Y-410239D01*
Y-407264D01*
X303193Y-405478D01*
X302598Y-404288D01*
X301408Y-403098D01*
X300218Y-402503D01*
X297838D01*
X306705D02*
Y-415000D01*
X313846D01*
X318785Y-402503D02*
X317595Y-403098D01*
X316405Y-404288D01*
X315810Y-405478D01*
X315215Y-407264D01*
Y-410239D01*
X315810Y-412024D01*
X316405Y-413215D01*
X317595Y-414405D01*
X318785Y-415000D01*
X321166D01*
X322356Y-414405D01*
X323546Y-413215D01*
X324141Y-412024D01*
X324737Y-410239D01*
Y-407264D01*
X324141Y-405478D01*
X323546Y-404288D01*
X322356Y-403098D01*
X321166Y-402503D01*
X318785D01*
X327653D02*
Y-411429D01*
X328248Y-413215D01*
X329438Y-414405D01*
X331223Y-415000D01*
X332413D01*
X334199Y-414405D01*
X335389Y-413215D01*
X335984Y-411429D01*
Y-402503D01*
X339436D02*
Y-415000D01*
Y-402503D02*
X344792D01*
X346577Y-403098D01*
X347172Y-403693D01*
X347767Y-404883D01*
Y-406073D01*
X347172Y-407264D01*
X346577Y-407859D01*
X344792Y-408454D01*
X339436D01*
X343602D02*
X347767Y-415000D01*
X351160Y-406669D02*
X350564Y-407264D01*
X351160Y-407859D01*
X351755Y-407264D01*
X351160Y-406669D01*
Y-413810D02*
X350564Y-414405D01*
X351160Y-415000D01*
X351755Y-414405D01*
X351160Y-413810D01*
X310250Y-640287D02*
X319676D01*
X322924D02*
X332350D01*
X159177Y-225478D02*
X158581Y-224288D01*
X157391Y-223098D01*
X156201Y-222503D01*
X153821D01*
X152630Y-223098D01*
X151440Y-224288D01*
X150845Y-225478D01*
X150250Y-227264D01*
Y-230239D01*
X150845Y-232024D01*
X151440Y-233215D01*
X152630Y-234405D01*
X153821Y-235000D01*
X156201D01*
X157391Y-234405D01*
X158581Y-233215D01*
X159177Y-232024D01*
X166259Y-222503D02*
X165068Y-223098D01*
X163878Y-224288D01*
X163283Y-225478D01*
X162688Y-227264D01*
Y-230239D01*
X163283Y-232024D01*
X163878Y-233215D01*
X165068Y-234405D01*
X166259Y-235000D01*
X168639D01*
X169829Y-234405D01*
X171019Y-233215D01*
X171614Y-232024D01*
X172210Y-230239D01*
Y-227264D01*
X171614Y-225478D01*
X171019Y-224288D01*
X169829Y-223098D01*
X168639Y-222503D01*
X166259D01*
X175126D02*
Y-235000D01*
Y-222503D02*
X183457Y-235000D01*
Y-222503D02*
Y-235000D01*
X186909Y-222503D02*
Y-235000D01*
Y-222503D02*
X191075D01*
X192860Y-223098D01*
X194050Y-224288D01*
X194645Y-225478D01*
X195240Y-227264D01*
Y-230239D01*
X194645Y-232024D01*
X194050Y-233215D01*
X192860Y-234405D01*
X191075Y-235000D01*
X186909D01*
X198037Y-222503D02*
Y-231429D01*
X198633Y-233215D01*
X199823Y-234405D01*
X201608Y-235000D01*
X202798D01*
X204584Y-234405D01*
X205774Y-233215D01*
X206369Y-231429D01*
Y-222503D01*
X218747Y-225478D02*
X218152Y-224288D01*
X216962Y-223098D01*
X215772Y-222503D01*
X213391D01*
X212201Y-223098D01*
X211011Y-224288D01*
X210416Y-225478D01*
X209821Y-227264D01*
Y-230239D01*
X210416Y-232024D01*
X211011Y-233215D01*
X212201Y-234405D01*
X213391Y-235000D01*
X215772D01*
X216962Y-234405D01*
X218152Y-233215D01*
X218747Y-232024D01*
X226424Y-222503D02*
Y-235000D01*
X222258Y-222503D02*
X230590D01*
X235648D02*
X234458Y-223098D01*
X233268Y-224288D01*
X232673Y-225478D01*
X232078Y-227264D01*
Y-230239D01*
X232673Y-232024D01*
X233268Y-233215D01*
X234458Y-234405D01*
X235648Y-235000D01*
X238029D01*
X239219Y-234405D01*
X240409Y-233215D01*
X241004Y-232024D01*
X241600Y-230239D01*
Y-227264D01*
X241004Y-225478D01*
X240409Y-224288D01*
X239219Y-223098D01*
X238029Y-222503D01*
X235648D01*
X244516D02*
Y-235000D01*
Y-222503D02*
X249872D01*
X251657Y-223098D01*
X252252Y-223693D01*
X252847Y-224883D01*
Y-226073D01*
X252252Y-227264D01*
X251657Y-227859D01*
X249872Y-228454D01*
X244516D01*
X248681D02*
X252847Y-235000D01*
X265464Y-222503D02*
X268439Y-235000D01*
X271415Y-222503D02*
X268439Y-235000D01*
X271415Y-222503D02*
X274390Y-235000D01*
X277366Y-222503D02*
X274390Y-235000D01*
X279865Y-222503D02*
Y-235000D01*
X282484Y-222503D02*
Y-235000D01*
Y-222503D02*
X286649D01*
X288435Y-223098D01*
X289625Y-224288D01*
X290220Y-225478D01*
X290815Y-227264D01*
Y-230239D01*
X290220Y-232024D01*
X289625Y-233215D01*
X288435Y-234405D01*
X286649Y-235000D01*
X282484D01*
X297778Y-222503D02*
Y-235000D01*
X293612Y-222503D02*
X301944D01*
X303431D02*
Y-235000D01*
X311763Y-222503D02*
Y-235000D01*
X303431Y-228454D02*
X311763D01*
X329200Y-220122D02*
X328010Y-221313D01*
X326819Y-223098D01*
X325629Y-225478D01*
X325034Y-228454D01*
Y-230834D01*
X325629Y-233810D01*
X326819Y-236190D01*
X328010Y-237976D01*
X329200Y-239166D01*
X328010Y-221313D02*
X326819Y-223693D01*
X326224Y-225478D01*
X325629Y-228454D01*
Y-230834D01*
X326224Y-233810D01*
X326819Y-235595D01*
X328010Y-237976D01*
X331580Y-222503D02*
Y-235000D01*
Y-222503D02*
X336341Y-235000D01*
X341102Y-222503D02*
X336341Y-235000D01*
X341102Y-222503D02*
Y-235000D01*
X344673Y-222503D02*
Y-235000D01*
X347291Y-222503D02*
Y-235000D01*
Y-222503D02*
X355623Y-235000D01*
Y-222503D02*
Y-235000D01*
X359074Y-220122D02*
X360265Y-221313D01*
X361455Y-223098D01*
X362645Y-225478D01*
X363240Y-228454D01*
Y-230834D01*
X362645Y-233810D01*
X361455Y-236190D01*
X360265Y-237976D01*
X359074Y-239166D01*
X360265Y-221313D02*
X361455Y-223693D01*
X362050Y-225478D01*
X362645Y-228454D01*
Y-230834D01*
X362050Y-233810D01*
X361455Y-235595D01*
X360265Y-237976D01*
X366870Y-226668D02*
X366275Y-227264D01*
X366870Y-227859D01*
X367466Y-227264D01*
X366870Y-226668D01*
Y-233810D02*
X366275Y-234405D01*
X366870Y-235000D01*
X367466Y-234405D01*
X366870Y-233810D01*
D47*
X390250Y-775000D02*
Y-525000D01*
X140250D02*
X820250D01*
X140250Y-805000D02*
Y-525000D01*
Y-805000D02*
X820250D01*
X140250Y-775000D02*
X820250D01*
X390250Y-725000D02*
X820250D01*
Y-805000D02*
Y-525000D01*
X390250Y-675000D02*
X820250D01*
X390250Y-585000D02*
X820250D01*
X140250Y-515000D02*
X820250D01*
X140250Y-115000D02*
X820250D01*
X140250Y-515000D02*
Y-115000D01*
X820250Y-515000D02*
Y-115000D01*
X130250Y-805000D02*
Y-545000D01*
X-1079750Y-805000D02*
Y-545000D01*
Y-805000D02*
X130250D01*
X-1079750Y-545000D02*
X130250D01*
X775250Y-752860D02*
X776678Y-752146D01*
X778821Y-750003D01*
Y-765000D01*
X786962Y-755002D02*
X786248Y-755716D01*
X786962Y-756430D01*
X787676Y-755716D01*
X786962Y-755002D01*
Y-763572D02*
X786248Y-764286D01*
X786962Y-765000D01*
X787676Y-764286D01*
X786962Y-763572D01*
X790961Y-752860D02*
X792389Y-752146D01*
X794532Y-750003D01*
Y-765000D01*
X414535Y-750003D02*
X412392Y-750717D01*
X410964Y-752860D01*
X410250Y-756430D01*
Y-758573D01*
X410964Y-762143D01*
X412392Y-764286D01*
X414535Y-765000D01*
X415963D01*
X418105Y-764286D01*
X419534Y-762143D01*
X420248Y-758573D01*
Y-756430D01*
X419534Y-752860D01*
X418105Y-750717D01*
X415963Y-750003D01*
X414535D01*
X427889D02*
X425747Y-750717D01*
X424318Y-752860D01*
X423604Y-756430D01*
Y-758573D01*
X424318Y-762143D01*
X425747Y-764286D01*
X427889Y-765000D01*
X429317D01*
X431460Y-764286D01*
X432888Y-762143D01*
X433602Y-758573D01*
Y-756430D01*
X432888Y-752860D01*
X431460Y-750717D01*
X429317Y-750003D01*
X427889D01*
X441243D02*
X439101Y-750717D01*
X437673Y-752860D01*
X436959Y-756430D01*
Y-758573D01*
X437673Y-762143D01*
X439101Y-764286D01*
X441243Y-765000D01*
X442672D01*
X444814Y-764286D01*
X446242Y-762143D01*
X446956Y-758573D01*
Y-756430D01*
X446242Y-752860D01*
X444814Y-750717D01*
X442672Y-750003D01*
X441243D01*
X454598D02*
X452455Y-750717D01*
X451027Y-752860D01*
X450313Y-756430D01*
Y-758573D01*
X451027Y-762143D01*
X452455Y-764286D01*
X454598Y-765000D01*
X456026D01*
X458168Y-764286D01*
X459596Y-762143D01*
X460311Y-758573D01*
Y-756430D01*
X459596Y-752860D01*
X458168Y-750717D01*
X456026Y-750003D01*
X454598D01*
X467952D02*
X465810Y-750717D01*
X464381Y-752860D01*
X463667Y-756430D01*
Y-758573D01*
X464381Y-762143D01*
X465810Y-764286D01*
X467952Y-765000D01*
X469380D01*
X471523Y-764286D01*
X472951Y-762143D01*
X473665Y-758573D01*
Y-756430D01*
X472951Y-752860D01*
X471523Y-750717D01*
X469380Y-750003D01*
X467952D01*
X774535Y-700003D02*
X772392Y-700717D01*
X770964Y-702860D01*
X770250Y-706430D01*
Y-708573D01*
X770964Y-712143D01*
X772392Y-714286D01*
X774535Y-715000D01*
X775963D01*
X778105Y-714286D01*
X779534Y-712143D01*
X780248Y-708573D01*
Y-706430D01*
X779534Y-702860D01*
X778105Y-700717D01*
X775963Y-700003D01*
X774535D01*
X784318Y-713572D02*
X783604Y-714286D01*
X784318Y-715000D01*
X785033Y-714286D01*
X784318Y-713572D01*
X789032Y-703574D02*
Y-702860D01*
X789746Y-701432D01*
X790460Y-700717D01*
X791888Y-700003D01*
X794745D01*
X796173Y-700717D01*
X796887Y-701432D01*
X797601Y-702860D01*
Y-704288D01*
X796887Y-705716D01*
X795459Y-707859D01*
X788317Y-715000D01*
X798315D01*
X410964Y-705002D02*
X415249Y-715000D01*
X419534Y-705002D02*
X415249Y-715000D01*
X413821Y-717857D01*
X412392Y-719285D01*
X410964Y-719999D01*
X410250D01*
X430603Y-705002D02*
Y-715000D01*
Y-707144D02*
X429174Y-705716D01*
X427746Y-705002D01*
X425604D01*
X424176Y-705716D01*
X422747Y-707144D01*
X422033Y-709287D01*
Y-710715D01*
X422747Y-712858D01*
X424176Y-714286D01*
X425604Y-715000D01*
X427746D01*
X429174Y-714286D01*
X430603Y-712858D01*
X434602Y-705002D02*
Y-715000D01*
Y-709287D02*
X435316Y-707144D01*
X436744Y-705716D01*
X438173Y-705002D01*
X440315D01*
X450241Y-700003D02*
Y-715000D01*
Y-707144D02*
X448813Y-705716D01*
X447385Y-705002D01*
X445243D01*
X443814Y-705716D01*
X442386Y-707144D01*
X441672Y-709287D01*
Y-710715D01*
X442386Y-712858D01*
X443814Y-714286D01*
X445243Y-715000D01*
X447385D01*
X448813Y-714286D01*
X450241Y-712858D01*
X454240Y-708573D02*
X467095D01*
X472951Y-700003D02*
X473665Y-700717D01*
X474379Y-700003D01*
X473665Y-699289D01*
X472951Y-700003D01*
X473665Y-705002D02*
Y-715000D01*
X485591Y-707144D02*
X484163Y-705716D01*
X482734Y-705002D01*
X480592D01*
X479164Y-705716D01*
X477735Y-707144D01*
X477021Y-709287D01*
Y-710715D01*
X477735Y-712858D01*
X479164Y-714286D01*
X480592Y-715000D01*
X482734D01*
X484163Y-714286D01*
X485591Y-712858D01*
X488805Y-709287D02*
X497374D01*
Y-707859D01*
X496660Y-706430D01*
X495946Y-705716D01*
X494518Y-705002D01*
X492375D01*
X490947Y-705716D01*
X489519Y-707144D01*
X488805Y-709287D01*
Y-710715D01*
X489519Y-712858D01*
X490947Y-714286D01*
X492375Y-715000D01*
X494518D01*
X495946Y-714286D01*
X497374Y-712858D01*
X150250Y-127504D02*
Y-145000D01*
Y-127504D02*
X161081D01*
X150250Y-135835D02*
X156915D01*
X176411Y-145000D02*
X169746Y-127504D01*
X163081Y-145000D01*
X165580Y-139168D02*
X173912D01*
X180494Y-127504D02*
Y-145000D01*
Y-127504D02*
X187992D01*
X190491Y-128337D01*
X191325Y-129170D01*
X192158Y-130836D01*
Y-132503D01*
X191325Y-134169D01*
X190491Y-135002D01*
X187992Y-135835D01*
X180494D02*
X187992D01*
X190491Y-136669D01*
X191325Y-137502D01*
X192158Y-139168D01*
Y-141667D01*
X191325Y-143334D01*
X190491Y-144167D01*
X187992Y-145000D01*
X180494D01*
X196073Y-127504D02*
Y-145000D01*
Y-127504D02*
X203572D01*
X206071Y-128337D01*
X206905Y-129170D01*
X207738Y-130836D01*
Y-132503D01*
X206905Y-134169D01*
X206071Y-135002D01*
X203572Y-135835D01*
X196073D01*
X201905D02*
X207738Y-145000D01*
X211653Y-127504D02*
Y-145000D01*
X227817Y-131670D02*
X226984Y-130003D01*
X225317Y-128337D01*
X223651Y-127504D01*
X220318D01*
X218652Y-128337D01*
X216986Y-130003D01*
X216152Y-131670D01*
X215319Y-134169D01*
Y-138335D01*
X216152Y-140834D01*
X216986Y-142501D01*
X218652Y-144167D01*
X220318Y-145000D01*
X223651D01*
X225317Y-144167D01*
X226984Y-142501D01*
X227817Y-140834D01*
X246063Y-145000D02*
X239398Y-127504D01*
X232732Y-145000D01*
X235232Y-139168D02*
X243563D01*
X255977Y-127504D02*
Y-145000D01*
X250145Y-127504D02*
X261809D01*
X263892D02*
Y-145000D01*
X272557Y-127504D02*
X270891Y-128337D01*
X269224Y-130003D01*
X268391Y-131670D01*
X267558Y-134169D01*
Y-138335D01*
X268391Y-140834D01*
X269224Y-142501D01*
X270891Y-144167D01*
X272557Y-145000D01*
X275890D01*
X277556Y-144167D01*
X279222Y-142501D01*
X280055Y-140834D01*
X280889Y-138335D01*
Y-134169D01*
X280055Y-131670D01*
X279222Y-130003D01*
X277556Y-128337D01*
X275890Y-127504D01*
X272557D01*
X284971D02*
Y-145000D01*
Y-127504D02*
X296635Y-145000D01*
Y-127504D02*
Y-145000D01*
X315215Y-127504D02*
Y-145000D01*
X318880Y-127504D02*
Y-145000D01*
Y-127504D02*
X330545Y-145000D01*
Y-127504D02*
Y-145000D01*
X335377Y-127504D02*
Y-145000D01*
Y-127504D02*
X346208D01*
X335377Y-135835D02*
X342042D01*
X353206Y-127504D02*
X351540Y-128337D01*
X349874Y-130003D01*
X349041Y-131670D01*
X348207Y-134169D01*
Y-138335D01*
X349041Y-140834D01*
X349874Y-142501D01*
X351540Y-144167D01*
X353206Y-145000D01*
X356539D01*
X358205Y-144167D01*
X359872Y-142501D01*
X360705Y-140834D01*
X361538Y-138335D01*
Y-134169D01*
X360705Y-131670D01*
X359872Y-130003D01*
X358205Y-128337D01*
X356539Y-127504D01*
X353206D01*
X365620D02*
Y-145000D01*
Y-127504D02*
X373119D01*
X375618Y-128337D01*
X376451Y-129170D01*
X377285Y-130836D01*
Y-132503D01*
X376451Y-134169D01*
X375618Y-135002D01*
X373119Y-135835D01*
X365620D01*
X371452D02*
X377285Y-145000D01*
X381200Y-127504D02*
Y-145000D01*
Y-127504D02*
X387866Y-145000D01*
X394531Y-127504D02*
X387866Y-145000D01*
X394531Y-127504D02*
Y-145000D01*
X412860D02*
X406195Y-127504D01*
X399530Y-145000D01*
X402029Y-139168D02*
X410361D01*
X422775Y-127504D02*
Y-145000D01*
X416943Y-127504D02*
X428607D01*
X430690D02*
Y-145000D01*
X439355Y-127504D02*
X437688Y-128337D01*
X436022Y-130003D01*
X435189Y-131670D01*
X434356Y-134169D01*
Y-138335D01*
X435189Y-140834D01*
X436022Y-142501D01*
X437688Y-144167D01*
X439355Y-145000D01*
X442687D01*
X444353Y-144167D01*
X446020Y-142501D01*
X446853Y-140834D01*
X447686Y-138335D01*
Y-134169D01*
X446853Y-131670D01*
X446020Y-130003D01*
X444353Y-128337D01*
X442687Y-127504D01*
X439355D01*
X451768D02*
Y-145000D01*
Y-127504D02*
X463433Y-145000D01*
Y-127504D02*
Y-145000D01*
X410250Y-610003D02*
X415963Y-617145D01*
Y-625000D01*
X421676Y-610003D02*
X415963Y-617145D01*
X435030Y-625000D02*
X429317Y-610003D01*
X423604Y-625000D01*
X425747Y-620001D02*
X432888D01*
X438530Y-610003D02*
Y-625000D01*
Y-610003D02*
X444957D01*
X447099Y-610717D01*
X447813Y-611432D01*
X448527Y-612860D01*
Y-614288D01*
X447813Y-615716D01*
X447099Y-616430D01*
X444957Y-617145D01*
X438530D01*
X443529D02*
X448527Y-625000D01*
X451884Y-610003D02*
Y-625000D01*
Y-610003D02*
X456883D01*
X459025Y-610717D01*
X460453Y-612146D01*
X461168Y-613574D01*
X461882Y-615716D01*
Y-619287D01*
X461168Y-621429D01*
X460453Y-622858D01*
X459025Y-624286D01*
X456883Y-625000D01*
X451884D01*
X465238Y-618573D02*
X478093D01*
X482520Y-610003D02*
Y-625000D01*
X496374Y-613574D02*
X495660Y-612146D01*
X494232Y-610717D01*
X492804Y-610003D01*
X489947D01*
X488519Y-610717D01*
X487091Y-612146D01*
X486376Y-613574D01*
X485662Y-615716D01*
Y-619287D01*
X486376Y-621429D01*
X487091Y-622858D01*
X488519Y-624286D01*
X489947Y-625000D01*
X492804D01*
X494232Y-624286D01*
X495660Y-622858D01*
X496374Y-621429D01*
X509871Y-610003D02*
X500588D01*
Y-625000D01*
X509871D01*
X500588Y-617145D02*
X506301D01*
X-1066474Y-559608D02*
Y-577104D01*
X-1056476D01*
X-1041229D02*
X-1047895Y-559608D01*
X-1054560Y-577104D01*
X-1052060Y-571272D02*
X-1043729D01*
X-1037147Y-559608D02*
X-1030482Y-567939D01*
Y-577104D01*
X-1023817Y-559608D02*
X-1030482Y-567939D01*
X-1010736Y-559608D02*
X-1021567D01*
Y-577104D01*
X-1010736D01*
X-1021567Y-567939D02*
X-1014902D01*
X-1007820Y-559608D02*
Y-577104D01*
Y-559608D02*
X-1000322D01*
X-997822Y-560441D01*
X-996989Y-561274D01*
X-996156Y-562940D01*
Y-564607D01*
X-996989Y-566273D01*
X-997822Y-567106D01*
X-1000322Y-567939D01*
X-1007820D01*
X-1001988D02*
X-996156Y-577104D01*
X-966829Y-562107D02*
X-968495Y-560441D01*
X-970995Y-559608D01*
X-974327D01*
X-976827Y-560441D01*
X-978493Y-562107D01*
Y-563773D01*
X-977660Y-565440D01*
X-976827Y-566273D01*
X-975160Y-567106D01*
X-970161Y-568773D01*
X-968495Y-569606D01*
X-967662Y-570439D01*
X-966829Y-572105D01*
Y-574605D01*
X-968495Y-576271D01*
X-970995Y-577104D01*
X-974327D01*
X-976827Y-576271D01*
X-978493Y-574605D01*
X-957081Y-559608D02*
Y-577104D01*
X-962913Y-559608D02*
X-951249D01*
X-935835Y-577104D02*
X-942501Y-559608D01*
X-949166Y-577104D01*
X-946666Y-571272D02*
X-938335D01*
X-919256Y-563773D02*
X-920089Y-562107D01*
X-921755Y-560441D01*
X-923421Y-559608D01*
X-926754D01*
X-928420Y-560441D01*
X-930087Y-562107D01*
X-930920Y-563773D01*
X-931753Y-566273D01*
Y-570439D01*
X-930920Y-572938D01*
X-930087Y-574605D01*
X-928420Y-576271D01*
X-926754Y-577104D01*
X-923421D01*
X-921755Y-576271D01*
X-920089Y-574605D01*
X-919256Y-572938D01*
X-914340Y-559608D02*
Y-577104D01*
X-902676Y-559608D02*
X-914340Y-571272D01*
X-910174Y-567106D02*
X-902676Y-577104D01*
X-898760Y-569606D02*
X-883763D01*
X-878598Y-559608D02*
Y-572105D01*
X-877765Y-574605D01*
X-876098Y-576271D01*
X-873599Y-577104D01*
X-871933D01*
X-869433Y-576271D01*
X-867767Y-574605D01*
X-866934Y-572105D01*
Y-559608D01*
X-862101Y-568773D02*
X-854603D01*
X-852104Y-567939D01*
X-851270Y-567106D01*
X-850437Y-565440D01*
Y-562940D01*
X-851270Y-561274D01*
X-852104Y-560441D01*
X-854603Y-559608D01*
X-862101D01*
Y-577104D01*
X-832774Y-559608D02*
Y-577104D01*
Y-559608D02*
X-826942D01*
X-824443Y-560441D01*
X-822776Y-562107D01*
X-821943Y-563773D01*
X-821110Y-566273D01*
Y-570439D01*
X-821943Y-572938D01*
X-822776Y-574605D01*
X-824443Y-576271D01*
X-826942Y-577104D01*
X-832774D01*
X-806363Y-559608D02*
X-817194D01*
Y-577104D01*
X-806363D01*
X-817194Y-567939D02*
X-810529D01*
X-797615Y-559608D02*
Y-577104D01*
X-803447Y-559608D02*
X-791783D01*
X-776370Y-577104D02*
X-783035Y-559608D01*
X-789700Y-577104D01*
X-787201Y-571272D02*
X-778869D01*
X-772287Y-559608D02*
Y-577104D01*
X-768621Y-559608D02*
Y-577104D01*
X-758624D01*
D111*
X140250Y-155000D02*
X820250D01*
X140250Y-185000D02*
X820250D01*
X140250Y-215000D02*
X820250D01*
X140250Y-245000D02*
X820250D01*
X140250Y-275000D02*
X820250D01*
X140250Y-305000D02*
X820250D01*
X140250Y-335000D02*
X820250D01*
X140250Y-365000D02*
X820250D01*
X140250Y-395000D02*
X820250D01*
X140250Y-425000D02*
X820250D01*
X140250Y-455000D02*
X820250D01*
X140250Y-485000D02*
X820250D01*
X-899750Y-675000D02*
X-629750D01*
X-632250Y-700000D02*
X-629750Y-695000D01*
X-634750Y-720000D02*
X-629750Y-725000D01*
X-632250Y-700000D02*
X-627250Y-705000D01*
X-634750Y-720000D02*
X-627250Y-715000D01*
X-634750Y-690000D02*
X-632250Y-685000D01*
X-634750Y-680000D02*
X-632250Y-685000D01*
X-629750Y-710000D02*
X-627250Y-705000D01*
X-629750Y-710000D02*
X-627250Y-715000D01*
X-634750Y-680000D02*
X-629750Y-675000D01*
X-634750Y-690000D02*
X-629750Y-695000D01*
X-899750Y-725000D02*
Y-675000D01*
Y-725000D02*
X-629750D01*
X-824750Y-675000D02*
X-814750Y-665000D01*
X-754750Y-675000D02*
X-744750Y-665000D01*
X-834750Y-675000D02*
X-824750Y-665000D01*
X-764750Y-675000D02*
X-754750Y-665000D01*
X-874750Y-675000D02*
X-864750Y-665000D01*
X-879750Y-670000D02*
X-874750Y-665000D01*
X-879750Y-675000D02*
Y-665000D01*
X-879750Y-665000D02*
X-629750D01*
X-864750Y-675000D02*
X-854750Y-665000D01*
Y-675000D02*
X-844750Y-665000D01*
X-814750Y-675000D02*
X-804750Y-665000D01*
X-744750Y-675000D02*
X-734750Y-665000D01*
X-844750Y-675000D02*
X-834750Y-665000D01*
X-724750Y-675000D02*
X-714750Y-665000D01*
X-804750Y-675000D02*
X-794750Y-665000D01*
X-734750Y-675000D02*
X-724750Y-665000D01*
X-784750Y-675000D02*
X-774750Y-665000D01*
X-714750Y-675000D02*
X-704750Y-665000D01*
X-794750Y-675000D02*
X-784750Y-665000D01*
X-694750Y-675000D02*
X-684750Y-665000D01*
X-774750Y-675000D02*
X-764750Y-665000D01*
X-704750Y-675000D02*
X-694750Y-665000D01*
X-632250Y-670000D02*
X-629750Y-675000D01*
X-632250Y-670000D02*
X-629750Y-665000D01*
X-634750Y-675000D02*
X-631500Y-671750D01*
X-644750Y-675000D02*
X-634750Y-665000D01*
X-664750Y-675000D02*
X-654750Y-665000D01*
Y-675000D02*
X-644750Y-665000D01*
X-674750Y-675000D02*
X-664750Y-665000D01*
X-684750Y-675000D02*
X-674750Y-665000D01*
X-839750Y-665000D02*
X-834750Y-655000D01*
X-854750Y-665000D02*
X-849750Y-655000D01*
X-869750Y-665000D02*
X-864750Y-655000D01*
X-879750Y-665000D02*
Y-655000D01*
X-794750Y-665000D02*
X-789750Y-655000D01*
X-779750Y-665000D02*
X-774750Y-655000D01*
X-809750Y-665000D02*
X-804750Y-655000D01*
X-824750Y-665000D02*
X-819750Y-655000D01*
X-764750Y-665000D02*
X-759750Y-655000D01*
X-734750Y-665000D02*
X-729750Y-655000D01*
X-749750Y-665000D02*
X-744750Y-655000D01*
X-659750Y-665000D02*
X-654750Y-655000D01*
X-644750Y-665000D02*
X-639750Y-655000D01*
X-674750Y-665000D02*
X-669750Y-655000D01*
X-719750Y-665000D02*
X-714750Y-655000D01*
X-689750Y-665000D02*
X-684750Y-655000D01*
X-704750Y-665000D02*
X-699750Y-655000D01*
X-632250Y-660000D02*
X-629750Y-655000D01*
X-632250Y-660000D02*
X-629750Y-665000D01*
X-879750Y-655000D02*
X-629750D01*
X-684750Y-735000D02*
X-674750Y-725000D01*
Y-735000D02*
X-664750Y-725000D01*
X-654750Y-735000D02*
X-644750Y-725000D01*
X-664750Y-735000D02*
X-654750Y-725000D01*
X-644750Y-735000D02*
X-634750Y-725000D01*
X-632250Y-730000D02*
X-629750Y-725000D01*
X-632250Y-730000D02*
X-629750Y-735000D01*
X-704750Y-735000D02*
X-694750Y-725000D01*
X-774750Y-735000D02*
X-764750Y-725000D01*
X-694750Y-735000D02*
X-684750Y-725000D01*
X-794750Y-735000D02*
X-784750Y-725000D01*
X-714750Y-735000D02*
X-704750Y-725000D01*
X-784750Y-735000D02*
X-774750Y-725000D01*
X-734750Y-735000D02*
X-724750Y-725000D01*
X-804750Y-735000D02*
X-794750Y-725000D01*
X-724750Y-735000D02*
X-714750Y-725000D01*
X-844750Y-735000D02*
X-834750Y-725000D01*
X-744750Y-735000D02*
X-734750Y-725000D01*
X-814750Y-735000D02*
X-804750Y-725000D01*
X-854750Y-735000D02*
X-844750Y-725000D01*
X-864750Y-735000D02*
X-854750Y-725000D01*
X-879750Y-735000D02*
Y-725000D01*
X-879750Y-730000D02*
X-874750Y-725000D01*
X-874750Y-735000D02*
X-864750Y-725000D01*
X-764750Y-735000D02*
X-754750Y-725000D01*
X-834750Y-735000D02*
X-824750Y-725000D01*
X-754750Y-735000D02*
X-744750Y-725000D01*
X-824750Y-735000D02*
X-814750Y-725000D01*
X-879750Y-735000D02*
X-629750D01*
X-632250Y-740000D02*
X-629750Y-745000D01*
X-632250Y-740000D02*
X-629750Y-735000D01*
X-704750Y-745000D02*
X-699750Y-735000D01*
X-689750Y-745000D02*
X-684750Y-735000D01*
X-719750Y-745000D02*
X-714750Y-735000D01*
X-674750Y-745000D02*
X-669750Y-735000D01*
X-644750Y-745000D02*
X-639750Y-735000D01*
X-659750Y-745000D02*
X-654750Y-735000D01*
X-749750Y-745000D02*
X-744750Y-735000D01*
X-734750Y-745000D02*
X-729750Y-735000D01*
X-764750Y-745000D02*
X-759750Y-735000D01*
X-824750Y-745000D02*
X-819750Y-735000D01*
X-809750Y-745000D02*
X-804750Y-735000D01*
X-779750Y-745000D02*
X-774750Y-735000D01*
X-794750Y-745000D02*
X-789750Y-735000D01*
X-879750Y-745000D02*
Y-735000D01*
X-869750Y-745000D02*
X-864750Y-735000D01*
X-854750Y-745000D02*
X-849750Y-735000D01*
X-839750Y-745000D02*
X-834750Y-735000D01*
X-879750Y-745000D02*
X-629750D01*
X-624750Y-670000D02*
X-604750D01*
X-594750Y-680000D01*
Y-720000D02*
X-574750D01*
X-604750Y-730000D02*
X-594750Y-720000D01*
X-624750Y-740000D02*
X-574750D01*
X-594750Y-680000D02*
X-574750D01*
X-624750Y-700000D02*
X-574750D01*
X-1009750Y-655000D02*
X-889750D01*
X-1009750Y-745000D02*
X-889750D01*
X-989750D02*
Y-715000D01*
Y-685000D02*
Y-655000D01*
Y-745000D02*
X-987250Y-737500D01*
X-992250D02*
X-989750Y-745000D01*
X-992250Y-662500D02*
X-989750Y-655000D01*
X-987250Y-662500D01*
X-624750Y-730000D02*
X-604750D01*
X-634750Y-735000D02*
X-631500Y-731750D01*
X-624750Y-650000D02*
X-604750D01*
X-624750Y-660000D02*
X-574750D01*
X-604750Y-650000D02*
X-594750Y-640000D01*
X-574750D01*
X-632250Y-650000D02*
X-629750Y-655000D01*
X-632250Y-650000D02*
X-629750Y-645000D01*
X-639750Y-645000D02*
X-629750Y-655000D01*
X-649750Y-645000D02*
X-639750Y-655000D01*
X-629750Y-645000D01*
X-649750Y-655000D02*
X-639750Y-645000D01*
X-659750D02*
X-649750Y-655000D01*
X-669750Y-645000D02*
X-659750Y-655000D01*
X-649750Y-645000D01*
X-669750Y-655000D02*
X-659750Y-645000D01*
X-679750D02*
X-669750Y-655000D01*
X-689750Y-645000D02*
X-679750Y-655000D01*
X-669750Y-645000D01*
X-689750Y-655000D02*
X-679750Y-645000D01*
X-699750D02*
X-689750Y-655000D01*
X-709750Y-645000D02*
X-699750Y-655000D01*
X-689750Y-645000D01*
X-709750Y-655000D02*
X-699750Y-645000D01*
X-719750D02*
X-709750Y-655000D01*
X-729750Y-645000D02*
X-719750Y-655000D01*
X-709750Y-645000D01*
X-729750Y-655000D02*
X-719750Y-645000D01*
X-739750D02*
X-729750Y-655000D01*
X-749750Y-645000D02*
X-739750Y-655000D01*
X-729750Y-645000D01*
X-749750Y-655000D02*
X-739750Y-645000D01*
X-759750D02*
X-749750Y-655000D01*
X-769750Y-645000D02*
X-759750Y-655000D01*
X-749750Y-645000D01*
X-769750Y-655000D02*
X-759750Y-645000D01*
X-779750D02*
X-769750Y-655000D01*
X-789750Y-645000D02*
X-779750Y-655000D01*
X-769750Y-645000D01*
X-789750Y-655000D02*
X-779750Y-645000D01*
X-809750Y-645000D02*
X-629750D01*
X-809750Y-655000D02*
Y-645000D01*
Y-655000D02*
X-799750Y-645000D01*
X-799750Y-655000D02*
X-789750Y-645000D01*
X-809750D02*
X-799750Y-655000D01*
Y-645000D02*
X-789750Y-655000D01*
X-563822Y-673003D02*
X-565536Y-673574D01*
X-566679Y-675288D01*
X-567250Y-678144D01*
Y-679858D01*
X-566679Y-682715D01*
X-565536Y-684429D01*
X-563822Y-685000D01*
X-562679D01*
X-560966Y-684429D01*
X-559823Y-682715D01*
X-559252Y-679858D01*
Y-678144D01*
X-559823Y-675288D01*
X-560966Y-673574D01*
X-562679Y-673003D01*
X-563822D01*
X-555995Y-683857D02*
X-556567Y-684429D01*
X-555995Y-685000D01*
X-555424Y-684429D01*
X-555995Y-683857D01*
X-549368Y-673003D02*
X-551082Y-673574D01*
X-552225Y-675288D01*
X-552796Y-678144D01*
Y-679858D01*
X-552225Y-682715D01*
X-551082Y-684429D01*
X-549368Y-685000D01*
X-548226D01*
X-546512Y-684429D01*
X-545369Y-682715D01*
X-544798Y-679858D01*
Y-678144D01*
X-545369Y-675288D01*
X-546512Y-673574D01*
X-548226Y-673003D01*
X-549368D01*
X-540970D02*
X-534686D01*
X-538113Y-677573D01*
X-536399D01*
X-535257Y-678144D01*
X-534686Y-678716D01*
X-534114Y-680430D01*
Y-681572D01*
X-534686Y-683286D01*
X-535828Y-684429D01*
X-537542Y-685000D01*
X-539256D01*
X-540970Y-684429D01*
X-541541Y-683857D01*
X-542113Y-682715D01*
X-524573Y-673003D02*
X-530286D01*
X-530858Y-678144D01*
X-530286Y-677573D01*
X-528573Y-677002D01*
X-526859D01*
X-525145Y-677573D01*
X-524002Y-678716D01*
X-523431Y-680430D01*
Y-681572D01*
X-524002Y-683286D01*
X-525145Y-684429D01*
X-526859Y-685000D01*
X-528573D01*
X-530286Y-684429D01*
X-530858Y-683857D01*
X-531429Y-682715D01*
X-520746Y-677002D02*
Y-685000D01*
Y-679287D02*
X-519032Y-677573D01*
X-517889Y-677002D01*
X-516175D01*
X-515033Y-677573D01*
X-514461Y-679287D01*
Y-685000D01*
Y-679287D02*
X-512747Y-677573D01*
X-511605Y-677002D01*
X-509891D01*
X-508748Y-677573D01*
X-508177Y-679287D01*
Y-685000D01*
X-504406Y-677002D02*
Y-685000D01*
Y-679287D02*
X-502692Y-677573D01*
X-501550Y-677002D01*
X-499836D01*
X-498693Y-677573D01*
X-498122Y-679287D01*
Y-685000D01*
Y-679287D02*
X-496408Y-677573D01*
X-495265Y-677002D01*
X-493551D01*
X-492409Y-677573D01*
X-491838Y-679287D01*
Y-685000D01*
X-482925Y-674716D02*
Y-685000D01*
X-488067Y-679858D02*
X-477783D01*
X-474241Y-686714D02*
X-466243Y-673003D01*
X-465443Y-679858D02*
X-455160D01*
X-448190Y-673003D02*
X-449904Y-673574D01*
X-451046Y-675288D01*
X-451618Y-678144D01*
Y-679858D01*
X-451046Y-682715D01*
X-449904Y-684429D01*
X-448190Y-685000D01*
X-447047D01*
X-445333Y-684429D01*
X-444191Y-682715D01*
X-443619Y-679858D01*
Y-678144D01*
X-444191Y-675288D01*
X-445333Y-673574D01*
X-447047Y-673003D01*
X-448190D01*
X-440363Y-683857D02*
X-440934Y-684429D01*
X-440363Y-685000D01*
X-439792Y-684429D01*
X-440363Y-683857D01*
X-433736Y-673003D02*
X-435450Y-673574D01*
X-436592Y-675288D01*
X-437164Y-678144D01*
Y-679858D01*
X-436592Y-682715D01*
X-435450Y-684429D01*
X-433736Y-685000D01*
X-432593D01*
X-430879Y-684429D01*
X-429737Y-682715D01*
X-429165Y-679858D01*
Y-678144D01*
X-429737Y-675288D01*
X-430879Y-673574D01*
X-432593Y-673003D01*
X-433736D01*
X-426480Y-675288D02*
X-425338Y-674716D01*
X-423624Y-673003D01*
Y-685000D01*
X-417682Y-677002D02*
Y-685000D01*
Y-679287D02*
X-415968Y-677573D01*
X-414826Y-677002D01*
X-413112D01*
X-411969Y-677573D01*
X-411398Y-679287D01*
Y-685000D01*
Y-679287D02*
X-409684Y-677573D01*
X-408541Y-677002D01*
X-406827D01*
X-405685Y-677573D01*
X-405113Y-679287D01*
Y-685000D01*
X-401343Y-677002D02*
Y-685000D01*
Y-679287D02*
X-399629Y-677573D01*
X-398486Y-677002D01*
X-396772D01*
X-395630Y-677573D01*
X-395058Y-679287D01*
Y-685000D01*
Y-679287D02*
X-393344Y-677573D01*
X-392202Y-677002D01*
X-390488D01*
X-389345Y-677573D01*
X-388774Y-679287D01*
Y-685000D01*
X-375577Y-673003D02*
Y-685000D01*
X-368721D01*
X-358266D02*
X-362837Y-673003D01*
X-367407Y-685000D01*
X-365693Y-681001D02*
X-359980D01*
X-355467Y-673003D02*
X-350896Y-678716D01*
Y-685000D01*
X-346326Y-673003D02*
X-350896Y-678716D01*
X-337356Y-673003D02*
X-344783D01*
Y-685000D01*
X-337356D01*
X-344783Y-678716D02*
X-340213D01*
X-335357Y-673003D02*
Y-685000D01*
Y-673003D02*
X-330215D01*
X-328501Y-673574D01*
X-327930Y-674145D01*
X-327359Y-675288D01*
Y-676430D01*
X-327930Y-677573D01*
X-328501Y-678144D01*
X-330215Y-678716D01*
X-335357D01*
X-331358D02*
X-327359Y-685000D01*
X-310676Y-673003D02*
X-314676Y-688999D01*
X-307249Y-673003D02*
X-311248Y-688999D01*
X-314676Y-679287D02*
X-306677D01*
X-315247Y-682715D02*
X-307249D01*
X-303935Y-675288D02*
X-302792Y-674716D01*
X-301078Y-673003D01*
Y-685000D01*
X-294566Y-677002D02*
X-295137Y-677573D01*
X-294566Y-678144D01*
X-293994Y-677573D01*
X-294566Y-677002D01*
Y-683857D02*
X-295137Y-684429D01*
X-294566Y-685000D01*
X-293994Y-684429D01*
X-294566Y-683857D01*
X-277941Y-673003D02*
Y-685000D01*
X-281940Y-673003D02*
X-273941D01*
X-269085D02*
X-270228Y-673574D01*
X-271371Y-674716D01*
X-271942Y-675859D01*
X-272513Y-677573D01*
Y-680430D01*
X-271942Y-682143D01*
X-271371Y-683286D01*
X-270228Y-684429D01*
X-269085Y-685000D01*
X-266800D01*
X-265658Y-684429D01*
X-264515Y-683286D01*
X-263944Y-682143D01*
X-263372Y-680430D01*
Y-677573D01*
X-263944Y-675859D01*
X-264515Y-674716D01*
X-265658Y-673574D01*
X-266800Y-673003D01*
X-269085D01*
X-260573Y-679287D02*
X-255431D01*
X-253717Y-678716D01*
X-253146Y-678144D01*
X-252575Y-677002D01*
Y-675288D01*
X-253146Y-674145D01*
X-253717Y-673574D01*
X-255431Y-673003D01*
X-260573D01*
Y-685000D01*
X-236464Y-670717D02*
X-237606Y-671860D01*
X-238749Y-673574D01*
X-239891Y-675859D01*
X-240463Y-678716D01*
Y-681001D01*
X-239891Y-683857D01*
X-238749Y-686143D01*
X-237606Y-687857D01*
X-236464Y-688999D01*
X-237606Y-671860D02*
X-238749Y-674145D01*
X-239320Y-675859D01*
X-239891Y-678716D01*
Y-681001D01*
X-239320Y-683857D01*
X-238749Y-685571D01*
X-237606Y-687857D01*
X-225609Y-675859D02*
X-226180Y-674716D01*
X-227323Y-673574D01*
X-228465Y-673003D01*
X-230751D01*
X-231893Y-673574D01*
X-233036Y-674716D01*
X-233607Y-675859D01*
X-234179Y-677573D01*
Y-680430D01*
X-233607Y-682143D01*
X-233036Y-683286D01*
X-231893Y-684429D01*
X-230751Y-685000D01*
X-228465D01*
X-227323Y-684429D01*
X-226180Y-683286D01*
X-225609Y-682143D01*
X-218810Y-673003D02*
X-219953Y-673574D01*
X-221096Y-674716D01*
X-221667Y-675859D01*
X-222238Y-677573D01*
Y-680430D01*
X-221667Y-682143D01*
X-221096Y-683286D01*
X-219953Y-684429D01*
X-218810Y-685000D01*
X-216525D01*
X-215382Y-684429D01*
X-214240Y-683286D01*
X-213669Y-682143D01*
X-213097Y-680430D01*
Y-677573D01*
X-213669Y-675859D01*
X-214240Y-674716D01*
X-215382Y-673574D01*
X-216525Y-673003D01*
X-218810D01*
X-210298D02*
Y-685000D01*
Y-673003D02*
X-205727Y-685000D01*
X-201157Y-673003D02*
X-205727Y-685000D01*
X-201157Y-673003D02*
Y-685000D01*
X-197729Y-679287D02*
X-192587D01*
X-190874Y-678716D01*
X-190302Y-678144D01*
X-189731Y-677002D01*
Y-675288D01*
X-190302Y-674145D01*
X-190874Y-673574D01*
X-192587Y-673003D01*
X-197729D01*
Y-685000D01*
X-183618Y-673003D02*
X-184760Y-673574D01*
X-185903Y-674716D01*
X-186474Y-675859D01*
X-187046Y-677573D01*
Y-680430D01*
X-186474Y-682143D01*
X-185903Y-683286D01*
X-184760Y-684429D01*
X-183618Y-685000D01*
X-181333D01*
X-180190Y-684429D01*
X-179047Y-683286D01*
X-178476Y-682143D01*
X-177905Y-680430D01*
Y-677573D01*
X-178476Y-675859D01*
X-179047Y-674716D01*
X-180190Y-673574D01*
X-181333Y-673003D01*
X-183618D01*
X-175105D02*
Y-685000D01*
Y-673003D02*
X-167107Y-685000D01*
Y-673003D02*
Y-685000D01*
X-156367Y-673003D02*
X-163794D01*
Y-685000D01*
X-156367D01*
X-163794Y-678716D02*
X-159223D01*
X-154367Y-673003D02*
Y-685000D01*
Y-673003D02*
X-146369Y-685000D01*
Y-673003D02*
Y-685000D01*
X-139056Y-673003D02*
Y-685000D01*
X-143055Y-673003D02*
X-135057D01*
X-116204Y-674716D02*
X-117346Y-673574D01*
X-119060Y-673003D01*
X-121346D01*
X-123059Y-673574D01*
X-124202Y-674716D01*
Y-675859D01*
X-123631Y-677002D01*
X-123059Y-677573D01*
X-121917Y-678144D01*
X-118489Y-679287D01*
X-117346Y-679858D01*
X-116775Y-680430D01*
X-116204Y-681572D01*
Y-683286D01*
X-117346Y-684429D01*
X-119060Y-685000D01*
X-121346D01*
X-123059Y-684429D01*
X-124202Y-683286D01*
X-113519Y-673003D02*
Y-685000D01*
X-111005Y-673003D02*
Y-685000D01*
Y-673003D02*
X-107006D01*
X-105292Y-673574D01*
X-104149Y-674716D01*
X-103578Y-675859D01*
X-103007Y-677573D01*
Y-680430D01*
X-103578Y-682143D01*
X-104149Y-683286D01*
X-105292Y-684429D01*
X-107006Y-685000D01*
X-111005D01*
X-92894Y-673003D02*
X-100321D01*
Y-685000D01*
X-92894D01*
X-100321Y-678716D02*
X-95751D01*
X-90895Y-670717D02*
X-89752Y-671860D01*
X-88610Y-673574D01*
X-87467Y-675859D01*
X-86896Y-678716D01*
Y-681001D01*
X-87467Y-683857D01*
X-88610Y-686143D01*
X-89752Y-687857D01*
X-90895Y-688999D01*
X-89752Y-671860D02*
X-88610Y-674145D01*
X-88038Y-675859D01*
X-87467Y-678716D01*
Y-681001D01*
X-88038Y-683857D01*
X-88610Y-685571D01*
X-89752Y-687857D01*
X-563822Y-713003D02*
X-565536Y-713574D01*
X-566679Y-715288D01*
X-567250Y-718144D01*
Y-719858D01*
X-566679Y-722715D01*
X-565536Y-724429D01*
X-563822Y-725000D01*
X-562679D01*
X-560966Y-724429D01*
X-559823Y-722715D01*
X-559252Y-719858D01*
Y-718144D01*
X-559823Y-715288D01*
X-560966Y-713574D01*
X-562679Y-713003D01*
X-563822D01*
X-555995Y-723857D02*
X-556567Y-724429D01*
X-555995Y-725000D01*
X-555424Y-724429D01*
X-555995Y-723857D01*
X-549368Y-713003D02*
X-551082Y-713574D01*
X-552225Y-715288D01*
X-552796Y-718144D01*
Y-719858D01*
X-552225Y-722715D01*
X-551082Y-724429D01*
X-549368Y-725000D01*
X-548226D01*
X-546512Y-724429D01*
X-545369Y-722715D01*
X-544798Y-719858D01*
Y-718144D01*
X-545369Y-715288D01*
X-546512Y-713574D01*
X-548226Y-713003D01*
X-549368D01*
X-540970D02*
X-534686D01*
X-538113Y-717573D01*
X-536399D01*
X-535257Y-718144D01*
X-534686Y-718716D01*
X-534114Y-720430D01*
Y-721572D01*
X-534686Y-723286D01*
X-535828Y-724429D01*
X-537542Y-725000D01*
X-539256D01*
X-540970Y-724429D01*
X-541541Y-723857D01*
X-542113Y-722715D01*
X-524573Y-713003D02*
X-530286D01*
X-530858Y-718144D01*
X-530286Y-717573D01*
X-528573Y-717002D01*
X-526859D01*
X-525145Y-717573D01*
X-524002Y-718716D01*
X-523431Y-720430D01*
Y-721572D01*
X-524002Y-723286D01*
X-525145Y-724429D01*
X-526859Y-725000D01*
X-528573D01*
X-530286Y-724429D01*
X-530858Y-723857D01*
X-531429Y-722715D01*
X-520746Y-717002D02*
Y-725000D01*
Y-719287D02*
X-519032Y-717573D01*
X-517889Y-717002D01*
X-516175D01*
X-515033Y-717573D01*
X-514461Y-719287D01*
Y-725000D01*
Y-719287D02*
X-512747Y-717573D01*
X-511605Y-717002D01*
X-509891D01*
X-508748Y-717573D01*
X-508177Y-719287D01*
Y-725000D01*
X-504406Y-717002D02*
Y-725000D01*
Y-719287D02*
X-502692Y-717573D01*
X-501550Y-717002D01*
X-499836D01*
X-498693Y-717573D01*
X-498122Y-719287D01*
Y-725000D01*
Y-719287D02*
X-496408Y-717573D01*
X-495265Y-717002D01*
X-493551D01*
X-492409Y-717573D01*
X-491838Y-719287D01*
Y-725000D01*
X-482925Y-714716D02*
Y-725000D01*
X-488067Y-719858D02*
X-477783D01*
X-474241Y-726714D02*
X-466243Y-713003D01*
X-465443Y-719858D02*
X-455160D01*
X-448190Y-713003D02*
X-449904Y-713574D01*
X-451046Y-715288D01*
X-451618Y-718144D01*
Y-719858D01*
X-451046Y-722715D01*
X-449904Y-724429D01*
X-448190Y-725000D01*
X-447047D01*
X-445333Y-724429D01*
X-444191Y-722715D01*
X-443619Y-719858D01*
Y-718144D01*
X-444191Y-715288D01*
X-445333Y-713574D01*
X-447047Y-713003D01*
X-448190D01*
X-440363Y-723857D02*
X-440934Y-724429D01*
X-440363Y-725000D01*
X-439792Y-724429D01*
X-440363Y-723857D01*
X-433736Y-713003D02*
X-435450Y-713574D01*
X-436592Y-715288D01*
X-437164Y-718144D01*
Y-719858D01*
X-436592Y-722715D01*
X-435450Y-724429D01*
X-433736Y-725000D01*
X-432593D01*
X-430879Y-724429D01*
X-429737Y-722715D01*
X-429165Y-719858D01*
Y-718144D01*
X-429737Y-715288D01*
X-430879Y-713574D01*
X-432593Y-713003D01*
X-433736D01*
X-426480Y-715288D02*
X-425338Y-714716D01*
X-423624Y-713003D01*
Y-725000D01*
X-417682Y-717002D02*
Y-725000D01*
Y-719287D02*
X-415968Y-717573D01*
X-414826Y-717002D01*
X-413112D01*
X-411969Y-717573D01*
X-411398Y-719287D01*
Y-725000D01*
Y-719287D02*
X-409684Y-717573D01*
X-408541Y-717002D01*
X-406827D01*
X-405685Y-717573D01*
X-405113Y-719287D01*
Y-725000D01*
X-401343Y-717002D02*
Y-725000D01*
Y-719287D02*
X-399629Y-717573D01*
X-398486Y-717002D01*
X-396772D01*
X-395630Y-717573D01*
X-395058Y-719287D01*
Y-725000D01*
Y-719287D02*
X-393344Y-717573D01*
X-392202Y-717002D01*
X-390488D01*
X-389345Y-717573D01*
X-388774Y-719287D01*
Y-725000D01*
X-375577Y-713003D02*
Y-725000D01*
X-368721D01*
X-358266D02*
X-362837Y-713003D01*
X-367407Y-725000D01*
X-365693Y-721001D02*
X-359980D01*
X-355467Y-713003D02*
X-350896Y-718716D01*
Y-725000D01*
X-346326Y-713003D02*
X-350896Y-718716D01*
X-337356Y-713003D02*
X-344783D01*
Y-725000D01*
X-337356D01*
X-344783Y-718716D02*
X-340213D01*
X-335357Y-713003D02*
Y-725000D01*
Y-713003D02*
X-330215D01*
X-328501Y-713574D01*
X-327930Y-714145D01*
X-327359Y-715288D01*
Y-716430D01*
X-327930Y-717573D01*
X-328501Y-718144D01*
X-330215Y-718716D01*
X-335357D01*
X-331358D02*
X-327359Y-725000D01*
X-310676Y-713003D02*
X-314676Y-728999D01*
X-307249Y-713003D02*
X-311248Y-728999D01*
X-314676Y-719287D02*
X-306677D01*
X-315247Y-722715D02*
X-307249D01*
X-303364Y-715859D02*
Y-715288D01*
X-302792Y-714145D01*
X-302221Y-713574D01*
X-301078Y-713003D01*
X-298793D01*
X-297651Y-713574D01*
X-297079Y-714145D01*
X-296508Y-715288D01*
Y-716430D01*
X-297079Y-717573D01*
X-298222Y-719287D01*
X-303935Y-725000D01*
X-295937D01*
X-292680Y-717002D02*
X-293252Y-717573D01*
X-292680Y-718144D01*
X-292109Y-717573D01*
X-292680Y-717002D01*
Y-723857D02*
X-293252Y-724429D01*
X-292680Y-725000D01*
X-292109Y-724429D01*
X-292680Y-723857D01*
X-280054Y-713003D02*
Y-725000D01*
Y-713003D02*
X-274913D01*
X-273199Y-713574D01*
X-272627Y-714145D01*
X-272056Y-715288D01*
Y-716430D01*
X-272627Y-717573D01*
X-273199Y-718144D01*
X-274913Y-718716D01*
X-280054D02*
X-274913D01*
X-273199Y-719287D01*
X-272627Y-719858D01*
X-272056Y-721001D01*
Y-722715D01*
X-272627Y-723857D01*
X-273199Y-724429D01*
X-274913Y-725000D01*
X-280054D01*
X-265943Y-713003D02*
X-267086Y-713574D01*
X-268228Y-714716D01*
X-268800Y-715859D01*
X-269371Y-717573D01*
Y-720430D01*
X-268800Y-722143D01*
X-268228Y-723286D01*
X-267086Y-724429D01*
X-265943Y-725000D01*
X-263658D01*
X-262515Y-724429D01*
X-261373Y-723286D01*
X-260801Y-722143D01*
X-260230Y-720430D01*
Y-717573D01*
X-260801Y-715859D01*
X-261373Y-714716D01*
X-262515Y-713574D01*
X-263658Y-713003D01*
X-265943D01*
X-253431D02*
Y-725000D01*
X-257431Y-713003D02*
X-249432D01*
X-244005D02*
Y-725000D01*
X-248004Y-713003D02*
X-240006D01*
X-235150D02*
X-236292Y-713574D01*
X-237435Y-714716D01*
X-238006Y-715859D01*
X-238578Y-717573D01*
Y-720430D01*
X-238006Y-722143D01*
X-237435Y-723286D01*
X-236292Y-724429D01*
X-235150Y-725000D01*
X-232864D01*
X-231722Y-724429D01*
X-230579Y-723286D01*
X-230008Y-722143D01*
X-229437Y-720430D01*
Y-717573D01*
X-230008Y-715859D01*
X-230579Y-714716D01*
X-231722Y-713574D01*
X-232864Y-713003D01*
X-235150D01*
X-226637D02*
Y-725000D01*
Y-713003D02*
X-222067Y-725000D01*
X-217496Y-713003D02*
X-222067Y-725000D01*
X-217496Y-713003D02*
Y-725000D01*
X-567250Y-695288D02*
X-566107Y-694716D01*
X-564394Y-693003D01*
Y-705000D01*
X-557881Y-703857D02*
X-558452Y-704429D01*
X-557881Y-705000D01*
X-557309Y-704429D01*
X-557881Y-703857D01*
X-547826Y-693003D02*
X-553539D01*
X-554110Y-698144D01*
X-553539Y-697573D01*
X-551825Y-697002D01*
X-550111D01*
X-548397Y-697573D01*
X-547254Y-698716D01*
X-546683Y-700430D01*
Y-701572D01*
X-547254Y-703286D01*
X-548397Y-704429D01*
X-550111Y-705000D01*
X-551825D01*
X-553539Y-704429D01*
X-554110Y-703857D01*
X-554681Y-702715D01*
X-542855Y-693003D02*
X-536571D01*
X-539999Y-697573D01*
X-538285D01*
X-537142Y-698144D01*
X-536571Y-698716D01*
X-535999Y-700430D01*
Y-701572D01*
X-536571Y-703286D01*
X-537714Y-704429D01*
X-539427Y-705000D01*
X-541141D01*
X-542855Y-704429D01*
X-543427Y-703857D01*
X-543998Y-702715D01*
X-533314Y-697002D02*
Y-705000D01*
Y-699287D02*
X-531600Y-697573D01*
X-530458Y-697002D01*
X-528744D01*
X-527601Y-697573D01*
X-527030Y-699287D01*
Y-705000D01*
Y-699287D02*
X-525316Y-697573D01*
X-524174Y-697002D01*
X-522460D01*
X-521317Y-697573D01*
X-520746Y-699287D01*
Y-705000D01*
X-516975Y-697002D02*
Y-705000D01*
Y-699287D02*
X-515261Y-697573D01*
X-514118Y-697002D01*
X-512405D01*
X-511262Y-697573D01*
X-510691Y-699287D01*
Y-705000D01*
Y-699287D02*
X-508977Y-697573D01*
X-507834Y-697002D01*
X-506120D01*
X-504978Y-697573D01*
X-504406Y-699287D01*
Y-705000D01*
X-495494Y-694716D02*
Y-705000D01*
X-500636Y-699858D02*
X-490352D01*
X-486810Y-706714D02*
X-478812Y-693003D01*
X-478012Y-699858D02*
X-467728D01*
X-460759Y-693003D02*
X-462472Y-693574D01*
X-463615Y-695288D01*
X-464186Y-698144D01*
Y-699858D01*
X-463615Y-702715D01*
X-462472Y-704429D01*
X-460759Y-705000D01*
X-459616D01*
X-457902Y-704429D01*
X-456759Y-702715D01*
X-456188Y-699858D01*
Y-698144D01*
X-456759Y-695288D01*
X-457902Y-693574D01*
X-459616Y-693003D01*
X-460759D01*
X-452932Y-703857D02*
X-453503Y-704429D01*
X-452932Y-705000D01*
X-452360Y-704429D01*
X-452932Y-703857D01*
X-449732Y-695288D02*
X-448590Y-694716D01*
X-446876Y-693003D01*
Y-705000D01*
X-434078Y-693003D02*
X-439792D01*
X-440363Y-698144D01*
X-439792Y-697573D01*
X-438078Y-697002D01*
X-436364D01*
X-434650Y-697573D01*
X-433507Y-698716D01*
X-432936Y-700430D01*
Y-701572D01*
X-433507Y-703286D01*
X-434650Y-704429D01*
X-436364Y-705000D01*
X-438078D01*
X-439792Y-704429D01*
X-440363Y-703857D01*
X-440934Y-702715D01*
X-430251Y-697002D02*
Y-705000D01*
Y-699287D02*
X-428537Y-697573D01*
X-427394Y-697002D01*
X-425680D01*
X-424538Y-697573D01*
X-423966Y-699287D01*
Y-705000D01*
Y-699287D02*
X-422253Y-697573D01*
X-421110Y-697002D01*
X-419396D01*
X-418253Y-697573D01*
X-417682Y-699287D01*
Y-705000D01*
X-413911Y-697002D02*
Y-705000D01*
Y-699287D02*
X-412197Y-697573D01*
X-411055Y-697002D01*
X-409341D01*
X-408198Y-697573D01*
X-407627Y-699287D01*
Y-705000D01*
Y-699287D02*
X-405913Y-697573D01*
X-404771Y-697002D01*
X-403057D01*
X-401914Y-697573D01*
X-401343Y-699287D01*
Y-705000D01*
X-388145Y-693003D02*
Y-705000D01*
X-381290D01*
X-370835D02*
X-375405Y-693003D01*
X-379976Y-705000D01*
X-378262Y-701001D02*
X-372549D01*
X-368036Y-693003D02*
Y-705000D01*
Y-693003D02*
X-363465Y-705000D01*
X-358895Y-693003D02*
X-363465Y-705000D01*
X-358895Y-693003D02*
Y-705000D01*
X-355467Y-693003D02*
Y-705000D01*
X-352953Y-693003D02*
Y-705000D01*
Y-693003D02*
X-344955Y-705000D01*
Y-693003D02*
Y-705000D01*
X-332500D02*
X-337071Y-693003D01*
X-341641Y-705000D01*
X-339927Y-701001D02*
X-334214D01*
X-325702Y-693003D02*
Y-705000D01*
X-329701Y-693003D02*
X-321703D01*
X-312847D02*
X-320274D01*
Y-705000D01*
X-312847D01*
X-320274Y-698716D02*
X-315704D01*
X-292852Y-695859D02*
X-293423Y-694716D01*
X-294566Y-693574D01*
X-295708Y-693003D01*
X-297993D01*
X-299136Y-693574D01*
X-300279Y-694716D01*
X-300850Y-695859D01*
X-301421Y-697573D01*
Y-700430D01*
X-300850Y-702143D01*
X-300279Y-703286D01*
X-299136Y-704429D01*
X-297993Y-705000D01*
X-295708D01*
X-294566Y-704429D01*
X-293423Y-703286D01*
X-292852Y-702143D01*
X-286053Y-693003D02*
X-287196Y-693574D01*
X-288338Y-694716D01*
X-288910Y-695859D01*
X-289481Y-697573D01*
Y-700430D01*
X-288910Y-702143D01*
X-288338Y-703286D01*
X-287196Y-704429D01*
X-286053Y-705000D01*
X-283768D01*
X-282625Y-704429D01*
X-281483Y-703286D01*
X-280911Y-702143D01*
X-280340Y-700430D01*
Y-697573D01*
X-280911Y-695859D01*
X-281483Y-694716D01*
X-282625Y-693574D01*
X-283768Y-693003D01*
X-286053D01*
X-277541D02*
Y-705000D01*
Y-693003D02*
X-272399D01*
X-270685Y-693574D01*
X-270114Y-694145D01*
X-269542Y-695288D01*
Y-696430D01*
X-270114Y-697573D01*
X-270685Y-698144D01*
X-272399Y-698716D01*
X-277541D01*
X-273541D02*
X-269542Y-705000D01*
X-259430Y-693003D02*
X-266857D01*
Y-705000D01*
X-259430D01*
X-266857Y-698716D02*
X-262287D01*
X-558680Y-735859D02*
X-559252Y-734716D01*
X-560394Y-733574D01*
X-561537Y-733003D01*
X-563822D01*
X-564965Y-733574D01*
X-566107Y-734716D01*
X-566679Y-735859D01*
X-567250Y-737573D01*
Y-740430D01*
X-566679Y-742143D01*
X-566107Y-743286D01*
X-564965Y-744429D01*
X-563822Y-745000D01*
X-561537D01*
X-560394Y-744429D01*
X-559252Y-743286D01*
X-558680Y-742143D01*
Y-740430D01*
X-561537D02*
X-558680D01*
X-555938Y-733003D02*
Y-745000D01*
Y-733003D02*
X-550796D01*
X-549082Y-733574D01*
X-548511Y-734145D01*
X-547940Y-735288D01*
Y-736430D01*
X-548511Y-737573D01*
X-549082Y-738144D01*
X-550796Y-738716D01*
X-555938D01*
X-551939D02*
X-547940Y-745000D01*
X-537828Y-733003D02*
X-545255D01*
Y-745000D01*
X-537828D01*
X-545255Y-738716D02*
X-540684D01*
X-528401Y-733003D02*
X-535828D01*
Y-745000D01*
X-528401D01*
X-535828Y-738716D02*
X-531258D01*
X-526402Y-733003D02*
Y-745000D01*
Y-733003D02*
X-518403Y-745000D01*
Y-733003D02*
Y-745000D01*
X-497094Y-735859D02*
X-497665Y-734716D01*
X-498807Y-733574D01*
X-499950Y-733003D01*
X-502235D01*
X-503378Y-733574D01*
X-504521Y-734716D01*
X-505092Y-735859D01*
X-505663Y-737573D01*
Y-740430D01*
X-505092Y-742143D01*
X-504521Y-743286D01*
X-503378Y-744429D01*
X-502235Y-745000D01*
X-499950D01*
X-498807Y-744429D01*
X-497665Y-743286D01*
X-497094Y-742143D01*
X-490295Y-733003D02*
X-491438Y-733574D01*
X-492580Y-734716D01*
X-493152Y-735859D01*
X-493723Y-737573D01*
Y-740430D01*
X-493152Y-742143D01*
X-492580Y-743286D01*
X-491438Y-744429D01*
X-490295Y-745000D01*
X-488010D01*
X-486867Y-744429D01*
X-485725Y-743286D01*
X-485153Y-742143D01*
X-484582Y-740430D01*
Y-737573D01*
X-485153Y-735859D01*
X-485725Y-734716D01*
X-486867Y-733574D01*
X-488010Y-733003D01*
X-490295D01*
X-481783D02*
Y-745000D01*
X-474927D01*
X-470185Y-733003D02*
X-471328Y-733574D01*
X-472470Y-734716D01*
X-473042Y-735859D01*
X-473613Y-737573D01*
Y-740430D01*
X-473042Y-742143D01*
X-472470Y-743286D01*
X-471328Y-744429D01*
X-470185Y-745000D01*
X-467900D01*
X-466757Y-744429D01*
X-465615Y-743286D01*
X-465043Y-742143D01*
X-464472Y-740430D01*
Y-737573D01*
X-465043Y-735859D01*
X-465615Y-734716D01*
X-466757Y-733574D01*
X-467900Y-733003D01*
X-470185D01*
X-461673D02*
Y-745000D01*
Y-733003D02*
X-456531D01*
X-454817Y-733574D01*
X-454246Y-734145D01*
X-453674Y-735288D01*
Y-736430D01*
X-454246Y-737573D01*
X-454817Y-738144D01*
X-456531Y-738716D01*
X-461673D01*
X-457673D02*
X-453674Y-745000D01*
X-433564Y-734716D02*
X-434707Y-733574D01*
X-436421Y-733003D01*
X-438706D01*
X-440420Y-733574D01*
X-441563Y-734716D01*
Y-735859D01*
X-440991Y-737002D01*
X-440420Y-737573D01*
X-439277Y-738144D01*
X-435849Y-739287D01*
X-434707Y-739858D01*
X-434136Y-740430D01*
X-433564Y-741572D01*
Y-743286D01*
X-434707Y-744429D01*
X-436421Y-745000D01*
X-438706D01*
X-440420Y-744429D01*
X-441563Y-743286D01*
X-427451Y-733003D02*
X-428594Y-733574D01*
X-429737Y-734716D01*
X-430308Y-735859D01*
X-430879Y-737573D01*
Y-740430D01*
X-430308Y-742143D01*
X-429737Y-743286D01*
X-428594Y-744429D01*
X-427451Y-745000D01*
X-425166D01*
X-424024Y-744429D01*
X-422881Y-743286D01*
X-422310Y-742143D01*
X-421738Y-740430D01*
Y-737573D01*
X-422310Y-735859D01*
X-422881Y-734716D01*
X-424024Y-733574D01*
X-425166Y-733003D01*
X-427451D01*
X-418939D02*
Y-745000D01*
X-412083D01*
X-410769Y-733003D02*
Y-745000D01*
Y-733003D02*
X-406770D01*
X-405056Y-733574D01*
X-403913Y-734716D01*
X-403342Y-735859D01*
X-402771Y-737573D01*
Y-740430D01*
X-403342Y-742143D01*
X-403913Y-743286D01*
X-405056Y-744429D01*
X-406770Y-745000D01*
X-410769D01*
X-392659Y-733003D02*
X-400086D01*
Y-745000D01*
X-392659D01*
X-400086Y-738716D02*
X-395515D01*
X-390659Y-733003D02*
Y-745000D01*
Y-733003D02*
X-385518D01*
X-383804Y-733574D01*
X-383232Y-734145D01*
X-382661Y-735288D01*
Y-736430D01*
X-383232Y-737573D01*
X-383804Y-738144D01*
X-385518Y-738716D01*
X-390659D01*
X-386660D02*
X-382661Y-745000D01*
X-379976Y-733003D02*
Y-745000D01*
Y-733003D02*
X-375405Y-745000D01*
X-370835Y-733003D02*
X-375405Y-745000D01*
X-370835Y-733003D02*
Y-745000D01*
X-358266D02*
X-362837Y-733003D01*
X-367407Y-745000D01*
X-365693Y-741001D02*
X-359980D01*
X-347468Y-734716D02*
X-348611Y-733574D01*
X-350325Y-733003D01*
X-352610D01*
X-354324Y-733574D01*
X-355467Y-734716D01*
Y-735859D01*
X-354896Y-737002D01*
X-354324Y-737573D01*
X-353182Y-738144D01*
X-349754Y-739287D01*
X-348611Y-739858D01*
X-348040Y-740430D01*
X-347468Y-741572D01*
Y-743286D01*
X-348611Y-744429D01*
X-350325Y-745000D01*
X-352610D01*
X-354324Y-744429D01*
X-355467Y-743286D01*
X-344783Y-733003D02*
Y-745000D01*
X-336785Y-733003D02*
X-344783Y-741001D01*
X-341927Y-738144D02*
X-336785Y-745000D01*
X-1056750Y-695288D02*
X-1055607Y-694716D01*
X-1053893Y-693003D01*
Y-705000D01*
X-1047381Y-703857D02*
X-1047952Y-704429D01*
X-1047381Y-705000D01*
X-1046809Y-704429D01*
X-1047381Y-703857D01*
X-1037326Y-694716D02*
X-1037897Y-693574D01*
X-1039611Y-693003D01*
X-1040753D01*
X-1042467Y-693574D01*
X-1043610Y-695288D01*
X-1044181Y-698144D01*
Y-701001D01*
X-1043610Y-703286D01*
X-1042467Y-704429D01*
X-1040753Y-705000D01*
X-1040182D01*
X-1038468Y-704429D01*
X-1037326Y-703286D01*
X-1036754Y-701572D01*
Y-701001D01*
X-1037326Y-699287D01*
X-1038468Y-698144D01*
X-1040182Y-697573D01*
X-1040753D01*
X-1042467Y-698144D01*
X-1043610Y-699287D01*
X-1044181Y-701001D01*
X-1034126Y-697002D02*
Y-705000D01*
Y-699287D02*
X-1032412Y-697573D01*
X-1031270Y-697002D01*
X-1029556D01*
X-1028413Y-697573D01*
X-1027842Y-699287D01*
Y-705000D01*
Y-699287D02*
X-1026128Y-697573D01*
X-1024985Y-697002D01*
X-1023271D01*
X-1022129Y-697573D01*
X-1021557Y-699287D01*
Y-705000D01*
X-1017787Y-697002D02*
Y-705000D01*
Y-699287D02*
X-1016073Y-697573D01*
X-1014930Y-697002D01*
X-1013216D01*
X-1012074Y-697573D01*
X-1011503Y-699287D01*
Y-705000D01*
Y-699287D02*
X-1009789Y-697573D01*
X-1008646Y-697002D01*
X-1006932D01*
X-1005789Y-697573D01*
X-1005218Y-699287D01*
Y-705000D01*
X-996306Y-694716D02*
Y-705000D01*
X-1001448Y-699858D02*
X-991164D01*
X-987622Y-706714D02*
X-979624Y-693003D01*
X-978824Y-699858D02*
X-968540D01*
X-964998Y-695288D02*
X-963856Y-694716D01*
X-962142Y-693003D01*
Y-705000D01*
X-952772Y-693003D02*
X-954486Y-693574D01*
X-955629Y-695288D01*
X-956200Y-698144D01*
Y-699858D01*
X-955629Y-702715D01*
X-954486Y-704429D01*
X-952772Y-705000D01*
X-951630D01*
X-949916Y-704429D01*
X-948773Y-702715D01*
X-948202Y-699858D01*
Y-698144D01*
X-948773Y-695288D01*
X-949916Y-693574D01*
X-951630Y-693003D01*
X-952772D01*
X-935233D02*
X-945517Y-705000D01*
X-942660Y-693003D02*
X-941517Y-694145D01*
Y-695288D01*
X-942089Y-696430D01*
X-943231Y-697002D01*
X-944374D01*
X-945517Y-695859D01*
Y-694716D01*
X-944945Y-693574D01*
X-943803Y-693003D01*
X-942660D01*
X-941517Y-693574D01*
X-939804Y-694145D01*
X-938090D01*
X-936376Y-693574D01*
X-935233Y-693003D01*
X-937518Y-701001D02*
X-938661Y-701572D01*
X-939232Y-702715D01*
Y-703857D01*
X-938090Y-705000D01*
X-936947D01*
X-935804Y-704429D01*
X-935233Y-703286D01*
Y-702143D01*
X-936376Y-701001D01*
X-937518D01*
X-558680Y-655859D02*
X-559252Y-654716D01*
X-560394Y-653574D01*
X-561537Y-653003D01*
X-563822D01*
X-564965Y-653574D01*
X-566107Y-654716D01*
X-566679Y-655859D01*
X-567250Y-657573D01*
Y-660430D01*
X-566679Y-662143D01*
X-566107Y-663286D01*
X-564965Y-664429D01*
X-563822Y-665000D01*
X-561537D01*
X-560394Y-664429D01*
X-559252Y-663286D01*
X-558680Y-662143D01*
Y-660430D01*
X-561537D02*
X-558680D01*
X-555938Y-653003D02*
Y-665000D01*
Y-653003D02*
X-550796D01*
X-549082Y-653574D01*
X-548511Y-654145D01*
X-547940Y-655288D01*
Y-656430D01*
X-548511Y-657573D01*
X-549082Y-658144D01*
X-550796Y-658716D01*
X-555938D01*
X-551939D02*
X-547940Y-665000D01*
X-537828Y-653003D02*
X-545255D01*
Y-665000D01*
X-537828D01*
X-545255Y-658716D02*
X-540684D01*
X-528401Y-653003D02*
X-535828D01*
Y-665000D01*
X-528401D01*
X-535828Y-658716D02*
X-531258D01*
X-526402Y-653003D02*
Y-665000D01*
Y-653003D02*
X-518403Y-665000D01*
Y-653003D02*
Y-665000D01*
X-497094Y-655859D02*
X-497665Y-654716D01*
X-498807Y-653574D01*
X-499950Y-653003D01*
X-502235D01*
X-503378Y-653574D01*
X-504521Y-654716D01*
X-505092Y-655859D01*
X-505663Y-657573D01*
Y-660430D01*
X-505092Y-662143D01*
X-504521Y-663286D01*
X-503378Y-664429D01*
X-502235Y-665000D01*
X-499950D01*
X-498807Y-664429D01*
X-497665Y-663286D01*
X-497094Y-662143D01*
X-490295Y-653003D02*
X-491438Y-653574D01*
X-492580Y-654716D01*
X-493152Y-655859D01*
X-493723Y-657573D01*
Y-660430D01*
X-493152Y-662143D01*
X-492580Y-663286D01*
X-491438Y-664429D01*
X-490295Y-665000D01*
X-488010D01*
X-486867Y-664429D01*
X-485725Y-663286D01*
X-485153Y-662143D01*
X-484582Y-660430D01*
Y-657573D01*
X-485153Y-655859D01*
X-485725Y-654716D01*
X-486867Y-653574D01*
X-488010Y-653003D01*
X-490295D01*
X-481783D02*
Y-665000D01*
X-474927D01*
X-470185Y-653003D02*
X-471328Y-653574D01*
X-472470Y-654716D01*
X-473042Y-655859D01*
X-473613Y-657573D01*
Y-660430D01*
X-473042Y-662143D01*
X-472470Y-663286D01*
X-471328Y-664429D01*
X-470185Y-665000D01*
X-467900D01*
X-466757Y-664429D01*
X-465615Y-663286D01*
X-465043Y-662143D01*
X-464472Y-660430D01*
Y-657573D01*
X-465043Y-655859D01*
X-465615Y-654716D01*
X-466757Y-653574D01*
X-467900Y-653003D01*
X-470185D01*
X-461673D02*
Y-665000D01*
Y-653003D02*
X-456531D01*
X-454817Y-653574D01*
X-454246Y-654145D01*
X-453674Y-655288D01*
Y-656430D01*
X-454246Y-657573D01*
X-454817Y-658144D01*
X-456531Y-658716D01*
X-461673D01*
X-457673D02*
X-453674Y-665000D01*
X-433564Y-654716D02*
X-434707Y-653574D01*
X-436421Y-653003D01*
X-438706D01*
X-440420Y-653574D01*
X-441563Y-654716D01*
Y-655859D01*
X-440991Y-657002D01*
X-440420Y-657573D01*
X-439277Y-658144D01*
X-435849Y-659287D01*
X-434707Y-659858D01*
X-434136Y-660430D01*
X-433564Y-661572D01*
Y-663286D01*
X-434707Y-664429D01*
X-436421Y-665000D01*
X-438706D01*
X-440420Y-664429D01*
X-441563Y-663286D01*
X-427451Y-653003D02*
X-428594Y-653574D01*
X-429737Y-654716D01*
X-430308Y-655859D01*
X-430879Y-657573D01*
Y-660430D01*
X-430308Y-662143D01*
X-429737Y-663286D01*
X-428594Y-664429D01*
X-427451Y-665000D01*
X-425166D01*
X-424024Y-664429D01*
X-422881Y-663286D01*
X-422310Y-662143D01*
X-421738Y-660430D01*
Y-657573D01*
X-422310Y-655859D01*
X-422881Y-654716D01*
X-424024Y-653574D01*
X-425166Y-653003D01*
X-427451D01*
X-418939D02*
Y-665000D01*
X-412083D01*
X-410769Y-653003D02*
Y-665000D01*
Y-653003D02*
X-406770D01*
X-405056Y-653574D01*
X-403913Y-654716D01*
X-403342Y-655859D01*
X-402771Y-657573D01*
Y-660430D01*
X-403342Y-662143D01*
X-403913Y-663286D01*
X-405056Y-664429D01*
X-406770Y-665000D01*
X-410769D01*
X-392659Y-653003D02*
X-400086D01*
Y-665000D01*
X-392659D01*
X-400086Y-658716D02*
X-395515D01*
X-390659Y-653003D02*
Y-665000D01*
Y-653003D02*
X-385518D01*
X-383804Y-653574D01*
X-383232Y-654145D01*
X-382661Y-655288D01*
Y-656430D01*
X-383232Y-657573D01*
X-383804Y-658144D01*
X-385518Y-658716D01*
X-390659D01*
X-386660D02*
X-382661Y-665000D01*
X-379976Y-653003D02*
Y-665000D01*
Y-653003D02*
X-375405Y-665000D01*
X-370835Y-653003D02*
X-375405Y-665000D01*
X-370835Y-653003D02*
Y-665000D01*
X-358266D02*
X-362837Y-653003D01*
X-367407Y-665000D01*
X-365693Y-661001D02*
X-359980D01*
X-347468Y-654716D02*
X-348611Y-653574D01*
X-350325Y-653003D01*
X-352610D01*
X-354324Y-653574D01*
X-355467Y-654716D01*
Y-655859D01*
X-354896Y-657002D01*
X-354324Y-657573D01*
X-353182Y-658144D01*
X-349754Y-659287D01*
X-348611Y-659858D01*
X-348040Y-660430D01*
X-347468Y-661572D01*
Y-663286D01*
X-348611Y-664429D01*
X-350325Y-665000D01*
X-352610D01*
X-354324Y-664429D01*
X-355467Y-663286D01*
X-344783Y-653003D02*
Y-665000D01*
X-336785Y-653003D02*
X-344783Y-661001D01*
X-341927Y-658144D02*
X-336785Y-665000D01*
X-567250Y-633003D02*
X-564394Y-645000D01*
X-561537Y-633003D02*
X-564394Y-645000D01*
X-561537Y-633003D02*
X-558680Y-645000D01*
X-555824Y-633003D02*
X-558680Y-645000D01*
X-553424Y-633003D02*
Y-645000D01*
X-545426Y-633003D02*
Y-645000D01*
X-553424Y-638716D02*
X-545426D01*
X-542113Y-633003D02*
Y-645000D01*
X-535600Y-633003D02*
Y-645000D01*
X-539599Y-633003D02*
X-531600D01*
X-522745D02*
X-530172D01*
Y-645000D01*
X-522745D01*
X-530172Y-638716D02*
X-525602D01*
X-502749Y-635859D02*
X-503321Y-634716D01*
X-504464Y-633574D01*
X-505606Y-633003D01*
X-507891D01*
X-509034Y-633574D01*
X-510177Y-634716D01*
X-510748Y-635859D01*
X-511319Y-637573D01*
Y-640430D01*
X-510748Y-642143D01*
X-510177Y-643286D01*
X-509034Y-644429D01*
X-507891Y-645000D01*
X-505606D01*
X-504464Y-644429D01*
X-503321Y-643286D01*
X-502749Y-642143D01*
X-495951Y-633003D02*
X-497094Y-633574D01*
X-498236Y-634716D01*
X-498807Y-635859D01*
X-499379Y-637573D01*
Y-640430D01*
X-498807Y-642143D01*
X-498236Y-643286D01*
X-497094Y-644429D01*
X-495951Y-645000D01*
X-493666D01*
X-492523Y-644429D01*
X-491381Y-643286D01*
X-490809Y-642143D01*
X-490238Y-640430D01*
Y-637573D01*
X-490809Y-635859D01*
X-491381Y-634716D01*
X-492523Y-633574D01*
X-493666Y-633003D01*
X-495951D01*
X-487439D02*
Y-645000D01*
X-480583D01*
X-475841Y-633003D02*
X-476984Y-633574D01*
X-478126Y-634716D01*
X-478698Y-635859D01*
X-479269Y-637573D01*
Y-640430D01*
X-478698Y-642143D01*
X-478126Y-643286D01*
X-476984Y-644429D01*
X-475841Y-645000D01*
X-473556D01*
X-472413Y-644429D01*
X-471271Y-643286D01*
X-470699Y-642143D01*
X-470128Y-640430D01*
Y-637573D01*
X-470699Y-635859D01*
X-471271Y-634716D01*
X-472413Y-633574D01*
X-473556Y-633003D01*
X-475841D01*
X-467328D02*
Y-645000D01*
Y-633003D02*
X-462187D01*
X-460473Y-633574D01*
X-459902Y-634145D01*
X-459330Y-635288D01*
Y-636430D01*
X-459902Y-637573D01*
X-460473Y-638144D01*
X-462187Y-638716D01*
X-467328D01*
X-463329D02*
X-459330Y-645000D01*
X-439220Y-634716D02*
X-440363Y-633574D01*
X-442077Y-633003D01*
X-444362D01*
X-446076Y-633574D01*
X-447219Y-634716D01*
Y-635859D01*
X-446647Y-637002D01*
X-446076Y-637573D01*
X-444933Y-638144D01*
X-441506Y-639287D01*
X-440363Y-639858D01*
X-439792Y-640430D01*
X-439220Y-641572D01*
Y-643286D01*
X-440363Y-644429D01*
X-442077Y-645000D01*
X-444362D01*
X-446076Y-644429D01*
X-447219Y-643286D01*
X-436535Y-633003D02*
Y-645000D01*
X-434021Y-633003D02*
Y-645000D01*
X-427166D01*
X-425852Y-633003D02*
Y-645000D01*
X-417853Y-633003D02*
X-425852Y-641001D01*
X-422995Y-638144D02*
X-417853Y-645000D01*
X-407170Y-634716D02*
X-408313Y-633574D01*
X-410027Y-633003D01*
X-412312D01*
X-414026Y-633574D01*
X-415168Y-634716D01*
Y-635859D01*
X-414597Y-637002D01*
X-414026Y-637573D01*
X-412883Y-638144D01*
X-409455Y-639287D01*
X-408313Y-639858D01*
X-407741Y-640430D01*
X-407170Y-641572D01*
Y-643286D01*
X-408313Y-644429D01*
X-410027Y-645000D01*
X-412312D01*
X-414026Y-644429D01*
X-415168Y-643286D01*
X-395915Y-635859D02*
X-396487Y-634716D01*
X-397629Y-633574D01*
X-398772Y-633003D01*
X-401057D01*
X-402200Y-633574D01*
X-403342Y-634716D01*
X-403914Y-635859D01*
X-404485Y-637573D01*
Y-640430D01*
X-403914Y-642143D01*
X-403342Y-643286D01*
X-402200Y-644429D01*
X-401057Y-645000D01*
X-398772D01*
X-397629Y-644429D01*
X-396487Y-643286D01*
X-395915Y-642143D01*
X-392545Y-633003D02*
Y-645000D01*
Y-633003D02*
X-387403D01*
X-385689Y-633574D01*
X-385118Y-634145D01*
X-384546Y-635288D01*
Y-636430D01*
X-385118Y-637573D01*
X-385689Y-638144D01*
X-387403Y-638716D01*
X-392545D01*
X-388545D02*
X-384546Y-645000D01*
X-374434Y-633003D02*
X-381861D01*
Y-645000D01*
X-374434D01*
X-381861Y-638716D02*
X-377291D01*
X-365008Y-633003D02*
X-372435D01*
Y-645000D01*
X-365008D01*
X-372435Y-638716D02*
X-367864D01*
X-363008Y-633003D02*
Y-645000D01*
Y-633003D02*
X-355010Y-645000D01*
Y-633003D02*
Y-645000D01*
D112*
X750250Y-782503D02*
Y-795000D01*
Y-782503D02*
X758581Y-795000D01*
Y-782503D02*
Y-795000D01*
X765009Y-786668D02*
X763819Y-787264D01*
X762628Y-788454D01*
X762033Y-790239D01*
Y-791429D01*
X762628Y-793215D01*
X763819Y-794405D01*
X765009Y-795000D01*
X766794D01*
X767984Y-794405D01*
X769174Y-793215D01*
X769770Y-791429D01*
Y-790239D01*
X769174Y-788454D01*
X767984Y-787264D01*
X766794Y-786668D01*
X765009D01*
X774293Y-782503D02*
Y-792620D01*
X774888Y-794405D01*
X776078Y-795000D01*
X777268D01*
X772507Y-786668D02*
X776673D01*
X788873Y-782503D02*
Y-795000D01*
X791491Y-786668D02*
Y-795000D01*
Y-789049D02*
X793277Y-787264D01*
X794467Y-786668D01*
X796252D01*
X797442Y-787264D01*
X798037Y-789049D01*
Y-795000D01*
X811130Y-782503D02*
X815891Y-795000D01*
X820652Y-782503D02*
X815891Y-795000D01*
X822258Y-790239D02*
X829400D01*
Y-789049D01*
X828805Y-787859D01*
X828210Y-787264D01*
X827019Y-786668D01*
X825234D01*
X824044Y-787264D01*
X822853Y-788454D01*
X822258Y-790239D01*
Y-791429D01*
X822853Y-793215D01*
X824044Y-794405D01*
X825234Y-795000D01*
X827019D01*
X828210Y-794405D01*
X829400Y-793215D01*
X832078Y-786668D02*
Y-795000D01*
Y-790239D02*
X832673Y-788454D01*
X833863Y-787264D01*
X835053Y-786668D01*
X836839D01*
X844516Y-788454D02*
X843921Y-787264D01*
X842135Y-786668D01*
X840350D01*
X838565Y-787264D01*
X837969Y-788454D01*
X838565Y-789644D01*
X839755Y-790239D01*
X842730Y-790834D01*
X843921Y-791429D01*
X844516Y-792620D01*
Y-793215D01*
X843921Y-794405D01*
X842135Y-795000D01*
X840350D01*
X838565Y-794405D01*
X837969Y-793215D01*
X848324Y-782503D02*
X848919Y-783098D01*
X849514Y-782503D01*
X848919Y-781908D01*
X848324Y-782503D01*
X848919Y-786668D02*
Y-795000D01*
X854692Y-786668D02*
X853502Y-787264D01*
X852311Y-788454D01*
X851716Y-790239D01*
Y-791429D01*
X852311Y-793215D01*
X853502Y-794405D01*
X854692Y-795000D01*
X856477D01*
X857667Y-794405D01*
X858858Y-793215D01*
X859453Y-791429D01*
Y-790239D01*
X858858Y-788454D01*
X857667Y-787264D01*
X856477Y-786668D01*
X854692D01*
X862190D02*
Y-795000D01*
Y-789049D02*
X863976Y-787264D01*
X865166Y-786668D01*
X866951D01*
X868141Y-787264D01*
X868737Y-789049D01*
Y-795000D01*
X880936Y-785478D02*
X880341Y-784288D01*
X879151Y-783098D01*
X877961Y-782503D01*
X875580D01*
X874390Y-783098D01*
X873200Y-784288D01*
X872605Y-785478D01*
X872010Y-787264D01*
Y-790239D01*
X872605Y-792025D01*
X873200Y-793215D01*
X874390Y-794405D01*
X875580Y-795000D01*
X877961D01*
X879151Y-794405D01*
X880341Y-793215D01*
X880936Y-792025D01*
X887423Y-786668D02*
X886233Y-787264D01*
X885043Y-788454D01*
X884447Y-790239D01*
Y-791429D01*
X885043Y-793215D01*
X886233Y-794405D01*
X887423Y-795000D01*
X889208D01*
X890399Y-794405D01*
X891589Y-793215D01*
X892184Y-791429D01*
Y-790239D01*
X891589Y-788454D01*
X890399Y-787264D01*
X889208Y-786668D01*
X887423D01*
X894921D02*
Y-795000D01*
Y-789049D02*
X896707Y-787264D01*
X897897Y-786668D01*
X899682D01*
X900873Y-787264D01*
X901468Y-789049D01*
Y-795000D01*
X906526Y-782503D02*
Y-792620D01*
X907121Y-794405D01*
X908311Y-795000D01*
X909502D01*
X904741Y-786668D02*
X908907D01*
X911287D02*
Y-795000D01*
Y-790239D02*
X911882Y-788454D01*
X913072Y-787264D01*
X914263Y-786668D01*
X916048D01*
X920154D02*
X918964Y-787264D01*
X917774Y-788454D01*
X917179Y-790239D01*
Y-791429D01*
X917774Y-793215D01*
X918964Y-794405D01*
X920154Y-795000D01*
X921939D01*
X923130Y-794405D01*
X924320Y-793215D01*
X924915Y-791429D01*
Y-790239D01*
X924320Y-788454D01*
X923130Y-787264D01*
X921939Y-786668D01*
X920154D01*
X927653Y-782503D02*
Y-795000D01*
X665250Y-785002D02*
Y-795000D01*
Y-785002D02*
X669535D01*
X670963Y-785478D01*
X671439Y-785954D01*
X671915Y-786907D01*
Y-787859D01*
X671439Y-788811D01*
X670963Y-789287D01*
X669535Y-789763D01*
X665250D01*
X668583D02*
X671915Y-795000D01*
X681294Y-787383D02*
X680818Y-786430D01*
X679866Y-785478D01*
X678914Y-785002D01*
X677009D01*
X676057Y-785478D01*
X675105Y-786430D01*
X674629Y-787383D01*
X674153Y-788811D01*
Y-791191D01*
X674629Y-792620D01*
X675105Y-793572D01*
X676057Y-794524D01*
X677009Y-795000D01*
X678914D01*
X679866Y-794524D01*
X680818Y-793572D01*
X681294Y-792620D01*
X690768Y-786430D02*
X689816Y-785478D01*
X688388Y-785002D01*
X686484D01*
X685055Y-785478D01*
X684103Y-786430D01*
Y-787383D01*
X684579Y-788335D01*
X685055Y-788811D01*
X686007Y-789287D01*
X688864Y-790239D01*
X689816Y-790715D01*
X690292Y-791191D01*
X690768Y-792143D01*
Y-793572D01*
X689816Y-794524D01*
X688388Y-795000D01*
X686484D01*
X685055Y-794524D01*
X684103Y-793572D01*
X700861Y-785002D02*
Y-795000D01*
Y-785002D02*
X705146D01*
X706574Y-785478D01*
X707050Y-785954D01*
X707527Y-786907D01*
Y-787859D01*
X707050Y-788811D01*
X706574Y-789287D01*
X705146Y-789763D01*
X700861D01*
X704194D02*
X707527Y-795000D01*
X715953Y-785002D02*
X709764D01*
Y-795000D01*
X715953D01*
X709764Y-789763D02*
X713573D01*
X717620Y-785002D02*
X721428Y-795000D01*
X725237Y-785002D02*
X721428Y-795000D01*
X726999Y-788335D02*
X726523Y-788811D01*
X726999Y-789287D01*
X727475Y-788811D01*
X726999Y-788335D01*
Y-794048D02*
X726523Y-794524D01*
X726999Y-795000D01*
X727475Y-794524D01*
X726999Y-794048D01*
X145250Y-785002D02*
Y-795000D01*
Y-785002D02*
X151439D01*
X145250Y-789763D02*
X149059D01*
X152582Y-785002D02*
Y-795000D01*
X154677Y-785002D02*
Y-795000D01*
X160390D01*
X167674Y-785002D02*
X161485D01*
Y-795000D01*
X167674D01*
X161485Y-789763D02*
X165293D01*
X169816Y-788335D02*
X169340Y-788811D01*
X169816Y-789287D01*
X170292Y-788811D01*
X169816Y-788335D01*
Y-794048D02*
X169340Y-794524D01*
X169816Y-795000D01*
X170292Y-794524D01*
X169816Y-794048D01*
X751915Y-731430D02*
X750963Y-730478D01*
X749535Y-730002D01*
X747630D01*
X746202Y-730478D01*
X745250Y-731430D01*
Y-732383D01*
X745726Y-733335D01*
X746202Y-733811D01*
X747154Y-734287D01*
X750011Y-735239D01*
X750963Y-735715D01*
X751439Y-736191D01*
X751915Y-737143D01*
Y-738572D01*
X750963Y-739524D01*
X749535Y-740000D01*
X747630D01*
X746202Y-739524D01*
X745250Y-738572D01*
X761294Y-732383D02*
X760818Y-731430D01*
X759866Y-730478D01*
X758914Y-730002D01*
X757009D01*
X756057Y-730478D01*
X755105Y-731430D01*
X754629Y-732383D01*
X754153Y-733811D01*
Y-736191D01*
X754629Y-737620D01*
X755105Y-738572D01*
X756057Y-739524D01*
X757009Y-740000D01*
X758914D01*
X759866Y-739524D01*
X760818Y-738572D01*
X761294Y-737620D01*
X771721Y-740000D02*
X767912Y-730002D01*
X764103Y-740000D01*
X765531Y-736667D02*
X770292D01*
X774053Y-730002D02*
Y-740000D01*
X779766D01*
X787050Y-730002D02*
X780861D01*
Y-740000D01*
X787050D01*
X780861Y-734763D02*
X784670D01*
X789193Y-733335D02*
X788717Y-733811D01*
X789193Y-734287D01*
X789669Y-733811D01*
X789193Y-733335D01*
Y-739048D02*
X788717Y-739524D01*
X789193Y-740000D01*
X789669Y-739524D01*
X789193Y-739048D01*
X145250Y-530002D02*
Y-540000D01*
Y-530002D02*
X148583D01*
X150011Y-530478D01*
X150963Y-531430D01*
X151439Y-532383D01*
X151915Y-533811D01*
Y-536191D01*
X151439Y-537620D01*
X150963Y-538572D01*
X150011Y-539524D01*
X148583Y-540000D01*
X145250D01*
X154153Y-530002D02*
X156533Y-540000D01*
X158914Y-530002D02*
X156533Y-540000D01*
X158914Y-530002D02*
X161294Y-540000D01*
X163675Y-530002D02*
X161294Y-540000D01*
X165674Y-530002D02*
Y-540000D01*
Y-530002D02*
X172339Y-540000D01*
Y-530002D02*
Y-540000D01*
X175577Y-533335D02*
X175101Y-533811D01*
X175577Y-534287D01*
X176053Y-533811D01*
X175577Y-533335D01*
Y-539048D02*
X175101Y-539524D01*
X175577Y-540000D01*
X176053Y-539524D01*
X175577Y-539048D01*
X152391Y-582383D02*
X151915Y-581430D01*
X150963Y-580478D01*
X150011Y-580002D01*
X148106D01*
X147154Y-580478D01*
X146202Y-581430D01*
X145726Y-582383D01*
X145250Y-583811D01*
Y-586191D01*
X145726Y-587620D01*
X146202Y-588572D01*
X147154Y-589524D01*
X148106Y-590000D01*
X150011D01*
X150963Y-589524D01*
X151915Y-588572D01*
X152391Y-587620D01*
X155200Y-580002D02*
Y-590000D01*
X161866Y-580002D02*
Y-590000D01*
X155200Y-584763D02*
X161866D01*
X164627Y-580002D02*
Y-590000D01*
X171292Y-580002D02*
X164627Y-586667D01*
X167007Y-584287D02*
X171292Y-590000D01*
X174006Y-583335D02*
X173530Y-583811D01*
X174006Y-584287D01*
X174482Y-583811D01*
X174006Y-583335D01*
Y-589048D02*
X173530Y-589524D01*
X174006Y-590000D01*
X174482Y-589524D01*
X174006Y-589048D01*
X152867Y-640000D02*
X149059Y-630002D01*
X145250Y-640000D01*
X146678Y-636667D02*
X151439D01*
X155200Y-635239D02*
X159485D01*
X160913Y-634763D01*
X161389Y-634287D01*
X161866Y-633335D01*
Y-631907D01*
X161389Y-630954D01*
X160913Y-630478D01*
X159485Y-630002D01*
X155200D01*
Y-640000D01*
X164103Y-630002D02*
X167912Y-640000D01*
X171721Y-630002D02*
X167912Y-640000D01*
X173006Y-630002D02*
Y-640000D01*
Y-630002D02*
X176339D01*
X177767Y-630478D01*
X178719Y-631430D01*
X179195Y-632383D01*
X179671Y-633811D01*
Y-636191D01*
X179195Y-637620D01*
X178719Y-638572D01*
X177767Y-639524D01*
X176339Y-640000D01*
X173006D01*
X182385Y-633335D02*
X181909Y-633811D01*
X182385Y-634287D01*
X182861Y-633811D01*
X182385Y-633335D01*
Y-639048D02*
X181909Y-639524D01*
X182385Y-640000D01*
X182861Y-639524D01*
X182385Y-639048D01*
X755250Y-680002D02*
Y-690000D01*
Y-680002D02*
X759535D01*
X760963Y-680478D01*
X761439Y-680954D01*
X761915Y-681907D01*
Y-682859D01*
X761439Y-683811D01*
X760963Y-684287D01*
X759535Y-684763D01*
X755250D01*
X758583D02*
X761915Y-690000D01*
X770342Y-680002D02*
X764153D01*
Y-690000D01*
X770342D01*
X764153Y-684763D02*
X767962D01*
X772008Y-680002D02*
X775817Y-690000D01*
X779626Y-680002D02*
X775817Y-690000D01*
X781387Y-683335D02*
X780911Y-683811D01*
X781387Y-684287D01*
X781863Y-683811D01*
X781387Y-683335D01*
Y-689048D02*
X780911Y-689524D01*
X781387Y-690000D01*
X781863Y-689524D01*
X781387Y-689048D01*
X395250Y-680002D02*
Y-690000D01*
Y-680002D02*
X398583D01*
X400011Y-680478D01*
X400963Y-681430D01*
X401439Y-682383D01*
X401915Y-683811D01*
Y-686191D01*
X401439Y-687620D01*
X400963Y-688572D01*
X400011Y-689524D01*
X398583Y-690000D01*
X395250D01*
X404153Y-680002D02*
X406533Y-690000D01*
X408914Y-680002D02*
X406533Y-690000D01*
X408914Y-680002D02*
X411294Y-690000D01*
X413675Y-680002D02*
X411294Y-690000D01*
X422816Y-682383D02*
X422339Y-681430D01*
X421387Y-680478D01*
X420435Y-680002D01*
X418531D01*
X417579Y-680478D01*
X416626Y-681430D01*
X416150Y-682383D01*
X415674Y-683811D01*
Y-686191D01*
X416150Y-687620D01*
X416626Y-688572D01*
X417579Y-689524D01*
X418531Y-690000D01*
X420435D01*
X421387Y-689524D01*
X422339Y-688572D01*
X422816Y-687620D01*
Y-686191D01*
X420435D02*
X422816D01*
X432956Y-680002D02*
Y-690000D01*
Y-680002D02*
X439621Y-690000D01*
Y-680002D02*
Y-690000D01*
X445239Y-680002D02*
X444287Y-680478D01*
X443335Y-681430D01*
X442859Y-682383D01*
X442383Y-683811D01*
Y-686191D01*
X442859Y-687620D01*
X443335Y-688572D01*
X444287Y-689524D01*
X445239Y-690000D01*
X447144D01*
X448096Y-689524D01*
X449048Y-688572D01*
X449524Y-687620D01*
X450000Y-686191D01*
Y-683811D01*
X449524Y-682383D01*
X449048Y-681430D01*
X448096Y-680478D01*
X447144Y-680002D01*
X445239D01*
X452809Y-683335D02*
X452333Y-683811D01*
X452809Y-684287D01*
X453285Y-683811D01*
X452809Y-683335D01*
Y-689048D02*
X452333Y-689524D01*
X452809Y-690000D01*
X453285Y-689524D01*
X452809Y-689048D01*
X200845Y-786668D02*
X204416Y-795000D01*
X207986Y-786668D02*
X204416Y-795000D01*
X203226Y-797380D01*
X202035Y-798571D01*
X200845Y-799166D01*
X200250D01*
X217211Y-786668D02*
Y-795000D01*
Y-788454D02*
X216020Y-787264D01*
X214830Y-786668D01*
X213045D01*
X211855Y-787264D01*
X210665Y-788454D01*
X210069Y-790239D01*
Y-791429D01*
X210665Y-793215D01*
X211855Y-794405D01*
X213045Y-795000D01*
X214830D01*
X216020Y-794405D01*
X217211Y-793215D01*
X220543Y-786668D02*
Y-795000D01*
Y-790239D02*
X221138Y-788454D01*
X222329Y-787264D01*
X223519Y-786668D01*
X225304D01*
X233576Y-782503D02*
Y-795000D01*
Y-788454D02*
X232386Y-787264D01*
X231196Y-786668D01*
X229410D01*
X228220Y-787264D01*
X227030Y-788454D01*
X226435Y-790239D01*
Y-791429D01*
X227030Y-793215D01*
X228220Y-794405D01*
X229410Y-795000D01*
X231196D01*
X232386Y-794405D01*
X233576Y-793215D01*
X236909Y-789644D02*
X247621D01*
X252501Y-782503D02*
X253096Y-783098D01*
X253691Y-782503D01*
X253096Y-781908D01*
X252501Y-782503D01*
X253096Y-786668D02*
Y-795000D01*
X263034Y-788454D02*
X261844Y-787264D01*
X260654Y-786668D01*
X258868D01*
X257678Y-787264D01*
X256488Y-788454D01*
X255893Y-790239D01*
Y-791429D01*
X256488Y-793215D01*
X257678Y-794405D01*
X258868Y-795000D01*
X260654D01*
X261844Y-794405D01*
X263034Y-793215D01*
X265712Y-790239D02*
X272854D01*
Y-789049D01*
X272258Y-787859D01*
X271663Y-787264D01*
X270473Y-786668D01*
X268688D01*
X267498Y-787264D01*
X266307Y-788454D01*
X265712Y-790239D01*
Y-791429D01*
X266307Y-793215D01*
X267498Y-794405D01*
X268688Y-795000D01*
X270473D01*
X271663Y-794405D01*
X272854Y-793215D01*
X276127Y-793810D02*
X275532Y-794405D01*
X276127Y-795000D01*
X276722Y-794405D01*
X276127Y-793810D01*
X279459Y-789049D02*
X284815D01*
X286601Y-788454D01*
X287196Y-787859D01*
X287791Y-786668D01*
Y-784883D01*
X287196Y-783693D01*
X286601Y-783098D01*
X284815Y-782503D01*
X279459D01*
Y-795000D01*
X297729Y-788454D02*
X296539Y-787264D01*
X295349Y-786668D01*
X293563D01*
X292373Y-787264D01*
X291183Y-788454D01*
X290588Y-790239D01*
Y-791429D01*
X291183Y-793215D01*
X292373Y-794405D01*
X293563Y-795000D01*
X295349D01*
X296539Y-794405D01*
X297729Y-793215D01*
X300407Y-782503D02*
Y-795000D01*
Y-788454D02*
X301597Y-787264D01*
X302788Y-786668D01*
X304573D01*
X305763Y-787264D01*
X306953Y-788454D01*
X307549Y-790239D01*
Y-791429D01*
X306953Y-793215D01*
X305763Y-794405D01*
X304573Y-795000D01*
X302788D01*
X301597Y-794405D01*
X300407Y-793215D01*
X310226Y-782503D02*
Y-795000D01*
Y-782503D02*
X314392D01*
X316178Y-783098D01*
X317368Y-784288D01*
X317963Y-785478D01*
X318558Y-787264D01*
Y-790239D01*
X317963Y-792025D01*
X317368Y-793215D01*
X316178Y-794405D01*
X314392Y-795000D01*
X310226D01*
X324331Y-786668D02*
X323140Y-787264D01*
X321950Y-788454D01*
X321355Y-790239D01*
Y-791429D01*
X321950Y-793215D01*
X323140Y-794405D01*
X324331Y-795000D01*
X326116D01*
X327306Y-794405D01*
X328496Y-793215D01*
X329091Y-791429D01*
Y-790239D01*
X328496Y-788454D01*
X327306Y-787264D01*
X326116Y-786668D01*
X324331D01*
X338970Y-788454D02*
X337780Y-787264D01*
X336590Y-786668D01*
X334805D01*
X333614Y-787264D01*
X332424Y-788454D01*
X331829Y-790239D01*
Y-791429D01*
X332424Y-793215D01*
X333614Y-794405D01*
X334805Y-795000D01*
X336590D01*
X337780Y-794405D01*
X338970Y-793215D01*
X395250Y-735239D02*
X399535D01*
X400963Y-734763D01*
X401439Y-734287D01*
X401915Y-733335D01*
Y-731907D01*
X401439Y-730954D01*
X400963Y-730478D01*
X399535Y-730002D01*
X395250D01*
Y-740000D01*
X411770D02*
X407962Y-730002D01*
X404153Y-740000D01*
X405581Y-736667D02*
X410342D01*
X414103Y-730002D02*
Y-740000D01*
Y-730002D02*
X418388D01*
X419816Y-730478D01*
X420292Y-730954D01*
X420768Y-731907D01*
Y-732859D01*
X420292Y-733811D01*
X419816Y-734287D01*
X418388Y-734763D01*
X414103D01*
X417436D02*
X420768Y-740000D01*
X426339Y-730002D02*
Y-740000D01*
X423006Y-730002D02*
X429671D01*
X438717D02*
Y-740000D01*
Y-730002D02*
X445382Y-740000D01*
Y-730002D02*
Y-740000D01*
X451000Y-730002D02*
X450048Y-730478D01*
X449096Y-731430D01*
X448619Y-732383D01*
X448143Y-733811D01*
Y-736191D01*
X448619Y-737620D01*
X449096Y-738572D01*
X450048Y-739524D01*
X451000Y-740000D01*
X452904D01*
X453857Y-739524D01*
X454809Y-738572D01*
X455285Y-737620D01*
X455761Y-736191D01*
Y-733811D01*
X455285Y-732383D01*
X454809Y-731430D01*
X453857Y-730478D01*
X452904Y-730002D01*
X451000D01*
X458570Y-733335D02*
X458094Y-733811D01*
X458570Y-734287D01*
X459046Y-733811D01*
X458570Y-733335D01*
Y-739048D02*
X458094Y-739524D01*
X458570Y-740000D01*
X459046Y-739524D01*
X458570Y-739048D01*
X398583Y-590002D02*
Y-600000D01*
X395250Y-590002D02*
X401915D01*
X403105D02*
Y-600000D01*
X408533Y-590002D02*
Y-600000D01*
X405200Y-590002D02*
X411866D01*
X413056D02*
Y-600000D01*
X418769D01*
X426053Y-590002D02*
X419864D01*
Y-600000D01*
X426053D01*
X419864Y-594763D02*
X423672D01*
X428195Y-593335D02*
X427719Y-593811D01*
X428195Y-594287D01*
X428671Y-593811D01*
X428195Y-593335D01*
Y-599048D02*
X427719Y-599524D01*
X428195Y-600000D01*
X428671Y-599524D01*
X428195Y-599048D01*
M02*
