%FSLAX44Y44*%
%MOMM*%
G71*
G01*
G75*
G04 Layer_Color=32896*
%ADD10R,0.9000X0.8500*%
%ADD11R,0.9000X0.9000*%
%ADD12O,1.8000X0.4000*%
%ADD13R,2.0000X2.4000*%
%ADD14R,1.4500X1.1500*%
%ADD15R,0.7000X2.0000*%
%ADD16R,1.1000X0.5500*%
%ADD17R,0.8000X1.2000*%
%ADD18R,1.4000X1.2000*%
%ADD19R,1.9000X1.3000*%
%ADD20R,3.6000X5.0000*%
%ADD21C,15.0000*%
%ADD22R,2.8000X2.4000*%
%ADD23O,2.2000X0.6000*%
%ADD24R,2.0500X3.6000*%
%ADD25R,8.1000X2.8000*%
%ADD26R,1.4000X2.0000*%
%ADD27R,1.4000X2.2000*%
%ADD28R,1.4000X1.0000*%
%ADD29R,1.8000X1.4000*%
%ADD30R,2.4000X1.8000*%
%ADD31O,0.2500X1.3500*%
%ADD32O,1.3500X0.2500*%
%ADD33O,0.2500X1.4000*%
%ADD34O,1.4000X0.2500*%
%ADD35R,4.0000X1.8000*%
%ADD36R,5.0000X0.6000*%
%ADD37R,5.0000X0.8000*%
%ADD38R,1.0000X0.6000*%
%ADD39R,2.6500X1.3500*%
%ADD40R,3.2000X1.2000*%
%ADD41R,5.6000X2.2000*%
%ADD42R,2.7000X1.4000*%
%ADD43R,1.0500X0.6000*%
%ADD44R,1.2000X1.0000*%
%ADD45C,0.2000*%
%ADD46C,0.1500*%
%ADD47C,0.2500*%
%ADD48C,0.3000*%
%ADD49C,0.9000*%
%ADD50C,0.8000*%
%ADD51C,0.6000*%
%ADD52C,0.7000*%
%ADD53C,0.7500*%
%ADD54C,1.0000*%
%ADD55C,1.4000*%
%ADD56C,1.2000*%
%ADD57C,0.5000*%
%ADD58C,0.4000*%
%ADD59C,1.4000*%
%ADD60C,2.7000*%
%ADD61R,1.8000X1.8000*%
%ADD62C,1.8000*%
%ADD63C,1.6000*%
%ADD64R,1.8000X1.8000*%
%ADD65C,0.7000*%
%ADD66C,2.0000*%
%ADD67C,0.1600*%
%ADD68R,1.1032X1.0532*%
%ADD69R,1.1032X1.1032*%
%ADD70O,2.0032X0.6032*%
%ADD71R,2.2032X2.6032*%
%ADD72R,1.6532X1.3532*%
%ADD73R,0.9032X2.2032*%
%ADD74R,1.3032X0.7532*%
%ADD75R,1.0032X1.4032*%
%ADD76R,1.6032X1.4032*%
%ADD77R,2.1032X1.5032*%
%ADD78R,3.8032X5.2032*%
%ADD79C,14.4000*%
%ADD80R,3.0032X2.6032*%
%ADD81O,2.4032X0.8032*%
%ADD82R,2.2532X3.8032*%
%ADD83R,8.3032X3.0032*%
%ADD84R,1.6032X2.2032*%
%ADD85R,1.6032X2.4032*%
%ADD86R,1.6032X1.2032*%
%ADD87R,2.0032X1.6032*%
%ADD88R,2.6032X2.0032*%
%ADD89O,0.4532X1.5532*%
%ADD90O,1.5532X0.4532*%
%ADD91O,0.4532X1.6032*%
%ADD92O,1.6032X0.4532*%
%ADD93R,4.2032X2.0032*%
%ADD94R,5.2032X0.8032*%
%ADD95R,5.2032X1.0032*%
%ADD96R,1.2032X0.8032*%
%ADD97R,2.8532X1.5532*%
%ADD98R,3.4032X1.4032*%
%ADD99R,5.8032X2.4032*%
%ADD100R,2.9032X1.6032*%
%ADD101R,1.2532X0.8032*%
%ADD102R,1.4032X1.2032*%
%ADD103C,1.6032*%
%ADD104C,2.9032*%
%ADD105R,2.0032X2.0032*%
%ADD106C,2.0032*%
%ADD107C,1.8032*%
%ADD108C,0.2032*%
%ADD109R,2.0032X2.0032*%
%ADD110C,0.9032*%
%ADD111C,0.1000*%
D111*
X-1050542Y308613D02*
G03*
X-1091381Y260634I7764J-47979D01*
G01*
X-554404Y346683D02*
G03*
X-1041794Y310028I14686J-3454001D01*
G01*
X-554404Y283916D02*
G03*
X-491150Y283916I31627J0D01*
G01*
X0Y304286D02*
G03*
X-491150Y346372I-539719J-3411605D01*
G01*
Y-346372D02*
G03*
X0Y-304286I-48569J3453691D01*
G01*
X-491150Y-283916D02*
G03*
X-554404Y-283916I-31627J0D01*
G01*
X-1041794Y-310028D02*
G03*
X-554404Y-346683I502076J3417347D01*
G01*
X-1091381Y-260634D02*
G03*
X-1050542Y-308613I48603J0D01*
G01*
X-256777Y282500D02*
G03*
X-256777Y282500I-16000J0D01*
G01*
X-756777D02*
G03*
X-756777Y282500I-16000J0D01*
G01*
Y-282500D02*
G03*
X-756777Y-282500I-16000J0D01*
G01*
X-256777D02*
G03*
X-256777Y-282500I-16000J0D01*
G01*
X-1050542Y308613D02*
X-1041794Y310028D01*
X-554404Y283916D02*
Y346683D01*
X-491150Y283916D02*
Y346372D01*
X0Y-304286D02*
Y304286D01*
X-491150Y-346372D02*
Y-283916D01*
X-554404Y-346683D02*
Y-283916D01*
X-1050542Y-308613D02*
X-1041794Y-310028D01*
X-1091381Y-260634D02*
Y260634D01*
M02*
