%FSLAX44Y44*%
%MOMM*%
G71*
G01*
G75*
G04 Layer_Color=2752767*
%ADD10R,0.9000X0.8500*%
%ADD11R,0.9000X0.9000*%
%ADD12O,1.8000X0.4000*%
%ADD13R,2.0000X2.4000*%
%ADD14R,1.4500X1.1500*%
%ADD15R,0.7000X2.0000*%
%ADD16R,1.1000X0.5500*%
%ADD17R,0.8000X1.2000*%
%ADD18R,1.4000X1.2000*%
%ADD19R,1.9000X1.3000*%
%ADD20R,3.6000X5.0000*%
%ADD21C,15.0000*%
%ADD22R,2.8000X2.4000*%
%ADD23O,2.2000X0.6000*%
%ADD24R,2.0500X3.6000*%
%ADD25R,8.1000X2.8000*%
%ADD26R,1.4000X2.0000*%
%ADD27R,1.4000X2.2000*%
%ADD28R,1.4000X1.0000*%
%ADD29R,1.8000X1.4000*%
%ADD30R,2.4000X1.8000*%
%ADD31O,0.2500X1.3500*%
%ADD32O,1.3500X0.2500*%
%ADD33O,0.2500X1.4000*%
%ADD34O,1.4000X0.2500*%
%ADD35R,4.0000X1.8000*%
%ADD36R,5.0000X0.6000*%
%ADD37R,5.0000X0.8000*%
%ADD38R,1.0000X0.6000*%
%ADD39R,2.6500X1.3500*%
%ADD40R,3.2000X1.2000*%
%ADD41R,5.6000X2.2000*%
%ADD42R,2.7000X1.4000*%
%ADD43R,1.0500X0.6000*%
%ADD44R,1.2000X1.0000*%
%ADD45C,0.2000*%
%ADD46C,0.1500*%
%ADD47C,0.2500*%
%ADD48C,0.3000*%
%ADD49C,0.9000*%
%ADD50C,0.8000*%
%ADD51C,0.6000*%
%ADD52C,0.7000*%
%ADD53C,0.7500*%
%ADD54C,1.0000*%
%ADD55C,1.4000*%
%ADD56C,1.2000*%
%ADD57C,0.5000*%
%ADD58C,0.4000*%
%ADD59C,1.4000*%
%ADD60C,2.7000*%
%ADD61R,1.8000X1.8000*%
%ADD62C,1.8000*%
%ADD63C,1.6000*%
%ADD64R,1.8000X1.8000*%
%ADD65C,0.7000*%
%ADD66C,2.0000*%
%ADD67C,0.1600*%
%ADD68R,1.1032X1.0532*%
%ADD69R,1.1032X1.1032*%
%ADD70O,2.0032X0.6032*%
%ADD71R,2.2032X2.6032*%
%ADD72R,1.6532X1.3532*%
%ADD73R,0.9032X2.2032*%
%ADD74R,1.3032X0.7532*%
%ADD75R,1.0032X1.4032*%
%ADD76R,1.6032X1.4032*%
%ADD77R,2.1032X1.5032*%
%ADD78R,3.8032X5.2032*%
%ADD79C,14.4000*%
%ADD80R,3.0032X2.6032*%
%ADD81O,2.4032X0.8032*%
%ADD82R,2.2532X3.8032*%
%ADD83R,8.3032X3.0032*%
%ADD84R,1.6032X2.2032*%
%ADD85R,1.6032X2.4032*%
%ADD86R,1.6032X1.2032*%
%ADD87R,2.0032X1.6032*%
%ADD88R,2.6032X2.0032*%
%ADD89O,0.4532X1.5532*%
%ADD90O,1.5532X0.4532*%
%ADD91O,0.4532X1.6032*%
%ADD92O,1.6032X0.4532*%
%ADD93R,4.2032X2.0032*%
%ADD94R,5.2032X0.8032*%
%ADD95R,5.2032X1.0032*%
%ADD96R,1.2032X0.8032*%
%ADD97R,2.8532X1.5532*%
%ADD98R,3.4032X1.4032*%
%ADD99R,5.8032X2.4032*%
%ADD100R,2.9032X1.6032*%
%ADD101R,1.2532X0.8032*%
%ADD102R,1.4032X1.2032*%
%ADD103C,1.6032*%
%ADD104C,2.9032*%
%ADD105R,2.0032X2.0032*%
%ADD106C,2.0032*%
%ADD107C,1.8032*%
%ADD108C,0.2032*%
%ADD109R,2.0032X2.0032*%
%ADD110C,0.9032*%
%ADD111C,0.1000*%
%ADD112C,0.1250*%
%ADD113C,0.1270*%
%ADD114C,0.1693*%
%ADD115C,0.1016*%
%ADD116C,0.2400*%
%ADD117C,0.1524*%
%ADD118C,0.0847*%
D46*
X244065Y207497D02*
X238114Y199166D01*
X247040D01*
X244065Y207497D02*
Y195000D01*
X249242Y205117D02*
X250432Y205712D01*
X252218Y207497D01*
Y195000D01*
X264358Y207497D02*
X258407Y199166D01*
X267334D01*
X264358Y207497D02*
Y195000D01*
X359935Y207497D02*
X358150Y206902D01*
X356959Y205117D01*
X356364Y202141D01*
Y200356D01*
X356959Y197380D01*
X358150Y195595D01*
X359935Y195000D01*
X361125D01*
X362911Y195595D01*
X364101Y197380D01*
X364696Y200356D01*
Y202141D01*
X364101Y205117D01*
X362911Y206902D01*
X361125Y207497D01*
X359935D01*
X368088Y196190D02*
X367493Y195595D01*
X368088Y195000D01*
X368683Y195595D01*
X368088Y196190D01*
X377372Y207497D02*
X371421Y199166D01*
X380347D01*
X377372Y207497D02*
Y195000D01*
X382549Y203332D02*
Y195000D01*
Y200951D02*
X384335Y202736D01*
X385525Y203332D01*
X387310D01*
X388500Y202736D01*
X389095Y200951D01*
Y195000D01*
Y200951D02*
X390881Y202736D01*
X392071Y203332D01*
X393856D01*
X395047Y202736D01*
X395642Y200951D01*
Y195000D01*
X399569Y203332D02*
Y195000D01*
Y200951D02*
X401355Y202736D01*
X402545Y203332D01*
X404330D01*
X405521Y202736D01*
X406116Y200951D01*
Y195000D01*
Y200951D02*
X407901Y202736D01*
X409091Y203332D01*
X410877D01*
X412067Y202736D01*
X412662Y200951D01*
Y195000D01*
X430575Y209878D02*
X429384Y208687D01*
X428194Y206902D01*
X427004Y204522D01*
X426409Y201546D01*
Y199166D01*
X427004Y196190D01*
X428194Y193810D01*
X429384Y192024D01*
X430575Y190834D01*
X429384Y208687D02*
X428194Y206307D01*
X427599Y204522D01*
X427004Y201546D01*
Y199166D01*
X427599Y196190D01*
X428194Y194405D01*
X429384Y192024D01*
X432955Y205117D02*
X434145Y205712D01*
X435931Y207497D01*
Y195000D01*
X449261Y207497D02*
X443310D01*
X442715Y202141D01*
X443310Y202736D01*
X445095Y203332D01*
X446881D01*
X448666Y202736D01*
X449856Y201546D01*
X450451Y199761D01*
Y198571D01*
X449856Y196785D01*
X448666Y195595D01*
X446881Y195000D01*
X445095D01*
X443310Y195595D01*
X442715Y196190D01*
X442120Y197380D01*
X453843Y196190D02*
X453248Y195595D01*
X453843Y195000D01*
X454439Y195595D01*
X453843Y196190D01*
X465508Y207497D02*
X459557Y195000D01*
X457176Y207497D02*
X465508D01*
X474256D02*
X468305Y199166D01*
X477231D01*
X474256Y207497D02*
Y195000D01*
X482409Y207497D02*
X480624Y206902D01*
X480028Y205712D01*
Y204522D01*
X480624Y203332D01*
X481814Y202736D01*
X484194Y202141D01*
X485979Y201546D01*
X487170Y200356D01*
X487765Y199166D01*
Y197380D01*
X487170Y196190D01*
X486575Y195595D01*
X484789Y195000D01*
X482409D01*
X480624Y195595D01*
X480028Y196190D01*
X479433Y197380D01*
Y199166D01*
X480028Y200356D01*
X481219Y201546D01*
X483004Y202141D01*
X485384Y202736D01*
X486575Y203332D01*
X487170Y204522D01*
Y205712D01*
X486575Y206902D01*
X484789Y207497D01*
X482409D01*
X490562Y203332D02*
Y195000D01*
Y200951D02*
X492347Y202736D01*
X493537Y203332D01*
X495323D01*
X496513Y202736D01*
X497108Y200951D01*
Y195000D01*
Y200951D02*
X498893Y202736D01*
X500084Y203332D01*
X501869D01*
X503059Y202736D01*
X503654Y200951D01*
Y195000D01*
X508772Y207497D02*
X509367Y206902D01*
X509963Y207497D01*
X509367Y208092D01*
X508772Y207497D01*
X509367Y203332D02*
Y195000D01*
X512164Y207497D02*
Y195000D01*
X514783Y209878D02*
X515973Y208687D01*
X517163Y206902D01*
X518354Y204522D01*
X518949Y201546D01*
Y199166D01*
X518354Y196190D01*
X517163Y193810D01*
X515973Y192024D01*
X514783Y190834D01*
X515973Y208687D02*
X517163Y206307D01*
X517758Y204522D01*
X518354Y201546D01*
Y199166D01*
X517758Y196190D01*
X517163Y194405D01*
X515973Y192024D01*
X563096Y200951D02*
X568452D01*
X570238Y201546D01*
X570833Y202141D01*
X571428Y203332D01*
Y205117D01*
X570833Y206307D01*
X570238Y206902D01*
X568452Y207497D01*
X563096D01*
Y195000D01*
X578391Y207497D02*
Y195000D01*
X574225Y207497D02*
X582556D01*
X584044D02*
Y195000D01*
X592376Y207497D02*
Y195000D01*
X584044Y201546D02*
X592376D01*
X642570Y207497D02*
Y195000D01*
Y207497D02*
X647926D01*
X649711Y206902D01*
X650306Y206307D01*
X650901Y205117D01*
Y203927D01*
X650306Y202736D01*
X649711Y202141D01*
X647926Y201546D01*
X642570D01*
X646735D02*
X650901Y195000D01*
X656674Y203332D02*
X655483Y202736D01*
X654293Y201546D01*
X653698Y199761D01*
Y198571D01*
X654293Y196785D01*
X655483Y195595D01*
X656674Y195000D01*
X658459D01*
X659649Y195595D01*
X660839Y196785D01*
X661435Y198571D01*
Y199761D01*
X660839Y201546D01*
X659649Y202736D01*
X658459Y203332D01*
X656674D01*
X664172D02*
Y197380D01*
X664767Y195595D01*
X665957Y195000D01*
X667743D01*
X668933Y195595D01*
X670718Y197380D01*
Y203332D02*
Y195000D01*
X673991Y203332D02*
Y195000D01*
Y200951D02*
X675777Y202736D01*
X676967Y203332D01*
X678752D01*
X679943Y202736D01*
X680538Y200951D01*
Y195000D01*
X690952Y207497D02*
Y195000D01*
Y201546D02*
X689762Y202736D01*
X688572Y203332D01*
X686786D01*
X685596Y202736D01*
X684406Y201546D01*
X683811Y199761D01*
Y198571D01*
X684406Y196785D01*
X685596Y195595D01*
X686786Y195000D01*
X688572D01*
X689762Y195595D01*
X690952Y196785D01*
X244065Y182497D02*
X238114Y174166D01*
X247040D01*
X244065Y182497D02*
Y170000D01*
X359935Y182497D02*
X358150Y181902D01*
X356959Y180117D01*
X356364Y177141D01*
Y175356D01*
X356959Y172380D01*
X358150Y170595D01*
X359935Y170000D01*
X361125D01*
X362911Y170595D01*
X364101Y172380D01*
X364696Y175356D01*
Y177141D01*
X364101Y180117D01*
X362911Y181902D01*
X361125Y182497D01*
X359935D01*
X368088Y171190D02*
X367493Y170595D01*
X368088Y170000D01*
X368683Y170595D01*
X368088Y171190D01*
X379157Y178332D02*
X378562Y176546D01*
X377372Y175356D01*
X375587Y174761D01*
X374991D01*
X373206Y175356D01*
X372016Y176546D01*
X371421Y178332D01*
Y178927D01*
X372016Y180712D01*
X373206Y181902D01*
X374991Y182497D01*
X375587D01*
X377372Y181902D01*
X378562Y180712D01*
X379157Y178332D01*
Y175356D01*
X378562Y172380D01*
X377372Y170595D01*
X375587Y170000D01*
X374396D01*
X372611Y170595D01*
X372016Y171785D01*
X382549Y178332D02*
Y170000D01*
Y175951D02*
X384335Y177736D01*
X385525Y178332D01*
X387310D01*
X388500Y177736D01*
X389095Y175951D01*
Y170000D01*
Y175951D02*
X390881Y177736D01*
X392071Y178332D01*
X393856D01*
X395047Y177736D01*
X395642Y175951D01*
Y170000D01*
X399569Y178332D02*
Y170000D01*
Y175951D02*
X401355Y177736D01*
X402545Y178332D01*
X404330D01*
X405521Y177736D01*
X406116Y175951D01*
Y170000D01*
Y175951D02*
X407901Y177736D01*
X409091Y178332D01*
X410877D01*
X412067Y177736D01*
X412662Y175951D01*
Y170000D01*
X430575Y184878D02*
X429384Y183687D01*
X428194Y181902D01*
X427004Y179522D01*
X426409Y176546D01*
Y174166D01*
X427004Y171190D01*
X428194Y168810D01*
X429384Y167024D01*
X430575Y165834D01*
X429384Y183687D02*
X428194Y181307D01*
X427599Y179522D01*
X427004Y176546D01*
Y174166D01*
X427599Y171190D01*
X428194Y169405D01*
X429384Y167024D01*
X434145Y182497D02*
X440692D01*
X437121Y177736D01*
X438906D01*
X440097Y177141D01*
X440692Y176546D01*
X441287Y174761D01*
Y173571D01*
X440692Y171785D01*
X439501Y170595D01*
X437716Y170000D01*
X435931D01*
X434145Y170595D01*
X433550Y171190D01*
X432955Y172380D01*
X451225Y182497D02*
X445274D01*
X444679Y177141D01*
X445274Y177736D01*
X447059Y178332D01*
X448845D01*
X450630Y177736D01*
X451820Y176546D01*
X452415Y174761D01*
Y173571D01*
X451820Y171785D01*
X450630Y170595D01*
X448845Y170000D01*
X447059D01*
X445274Y170595D01*
X444679Y171190D01*
X444084Y172380D01*
X455807Y171190D02*
X455212Y170595D01*
X455807Y170000D01*
X456403Y170595D01*
X455807Y171190D01*
X465091Y182497D02*
X459140Y174166D01*
X468067D01*
X465091Y182497D02*
Y170000D01*
X471459Y182497D02*
X478005D01*
X474434Y177736D01*
X476220D01*
X477410Y177141D01*
X478005Y176546D01*
X478600Y174761D01*
Y173571D01*
X478005Y171785D01*
X476815Y170595D01*
X475029Y170000D01*
X473244D01*
X471459Y170595D01*
X470864Y171190D01*
X470269Y172380D01*
X482587Y182497D02*
X489134D01*
X485563Y177736D01*
X487348D01*
X488539Y177141D01*
X489134Y176546D01*
X489729Y174761D01*
Y173571D01*
X489134Y171785D01*
X487943Y170595D01*
X486158Y170000D01*
X484373D01*
X482587Y170595D01*
X481992Y171190D01*
X481397Y172380D01*
X492526Y178332D02*
Y170000D01*
Y175951D02*
X494311Y177736D01*
X495501Y178332D01*
X497287D01*
X498477Y177736D01*
X499072Y175951D01*
Y170000D01*
Y175951D02*
X500857Y177736D01*
X502048Y178332D01*
X503833D01*
X505023Y177736D01*
X505618Y175951D01*
Y170000D01*
X510736Y182497D02*
X511331Y181902D01*
X511926Y182497D01*
X511331Y183092D01*
X510736Y182497D01*
X511331Y178332D02*
Y170000D01*
X514128Y182497D02*
Y170000D01*
X516747Y184878D02*
X517937Y183687D01*
X519127Y181902D01*
X520317Y179522D01*
X520913Y176546D01*
Y174166D01*
X520317Y171190D01*
X519127Y168810D01*
X517937Y167024D01*
X516747Y165834D01*
X517937Y183687D02*
X519127Y181307D01*
X519722Y179522D01*
X520317Y176546D01*
Y174166D01*
X519722Y171190D01*
X519127Y169405D01*
X517937Y167024D01*
X563096Y175951D02*
X568452D01*
X570238Y176546D01*
X570833Y177141D01*
X571428Y178332D01*
Y180117D01*
X570833Y181307D01*
X570238Y181902D01*
X568452Y182497D01*
X563096D01*
Y170000D01*
X578391Y182497D02*
Y170000D01*
X574225Y182497D02*
X582556D01*
X584044D02*
Y170000D01*
X592376Y182497D02*
Y170000D01*
X584044Y176546D02*
X592376D01*
X642570Y182497D02*
Y170000D01*
Y182497D02*
X647926D01*
X649711Y181902D01*
X650306Y181307D01*
X650901Y180117D01*
Y178927D01*
X650306Y177736D01*
X649711Y177141D01*
X647926Y176546D01*
X642570D01*
X646735D02*
X650901Y170000D01*
X656674Y178332D02*
X655483Y177736D01*
X654293Y176546D01*
X653698Y174761D01*
Y173571D01*
X654293Y171785D01*
X655483Y170595D01*
X656674Y170000D01*
X658459D01*
X659649Y170595D01*
X660839Y171785D01*
X661435Y173571D01*
Y174761D01*
X660839Y176546D01*
X659649Y177736D01*
X658459Y178332D01*
X656674D01*
X664172D02*
Y172380D01*
X664767Y170595D01*
X665957Y170000D01*
X667743D01*
X668933Y170595D01*
X670718Y172380D01*
Y178332D02*
Y170000D01*
X673991Y178332D02*
Y170000D01*
Y175951D02*
X675777Y177736D01*
X676967Y178332D01*
X678752D01*
X679943Y177736D01*
X680538Y175951D01*
Y170000D01*
X690952Y182497D02*
Y170000D01*
Y176546D02*
X689762Y177736D01*
X688572Y178332D01*
X686786D01*
X685596Y177736D01*
X684406Y176546D01*
X683811Y174761D01*
Y173571D01*
X684406Y171785D01*
X685596Y170595D01*
X686786Y170000D01*
X688572D01*
X689762Y170595D01*
X690952Y171785D01*
X239304Y157497D02*
X245850D01*
X242279Y152736D01*
X244065D01*
X245255Y152141D01*
X245850Y151546D01*
X246445Y149761D01*
Y148571D01*
X245850Y146785D01*
X244660Y145595D01*
X242874Y145000D01*
X241089D01*
X239304Y145595D01*
X238709Y146190D01*
X238114Y147380D01*
X256979Y153331D02*
X256383Y151546D01*
X255193Y150356D01*
X253408Y149761D01*
X252813D01*
X251028Y150356D01*
X249837Y151546D01*
X249242Y153331D01*
Y153927D01*
X249837Y155712D01*
X251028Y156902D01*
X252813Y157497D01*
X253408D01*
X255193Y156902D01*
X256383Y155712D01*
X256979Y153331D01*
Y150356D01*
X256383Y147380D01*
X255193Y145595D01*
X253408Y145000D01*
X252218D01*
X250432Y145595D01*
X249837Y146785D01*
X359935Y157497D02*
X358150Y156902D01*
X356959Y155117D01*
X356364Y152141D01*
Y150356D01*
X356959Y147380D01*
X358150Y145595D01*
X359935Y145000D01*
X361125D01*
X362911Y145595D01*
X364101Y147380D01*
X364696Y150356D01*
Y152141D01*
X364101Y155117D01*
X362911Y156902D01*
X361125Y157497D01*
X359935D01*
X368088Y146190D02*
X367493Y145595D01*
X368088Y145000D01*
X368683Y145595D01*
X368088Y146190D01*
X379157Y153331D02*
X378562Y151546D01*
X377372Y150356D01*
X375587Y149761D01*
X374991D01*
X373206Y150356D01*
X372016Y151546D01*
X371421Y153331D01*
Y153927D01*
X372016Y155712D01*
X373206Y156902D01*
X374991Y157497D01*
X375587D01*
X377372Y156902D01*
X378562Y155712D01*
X379157Y153331D01*
Y150356D01*
X378562Y147380D01*
X377372Y145595D01*
X375587Y145000D01*
X374396D01*
X372611Y145595D01*
X372016Y146785D01*
X389691Y157497D02*
X383740D01*
X383144Y152141D01*
X383740Y152736D01*
X385525Y153331D01*
X387310D01*
X389095Y152736D01*
X390286Y151546D01*
X390881Y149761D01*
Y148571D01*
X390286Y146785D01*
X389095Y145595D01*
X387310Y145000D01*
X385525D01*
X383740Y145595D01*
X383144Y146190D01*
X382549Y147380D01*
X393678Y153331D02*
Y145000D01*
Y150951D02*
X395463Y152736D01*
X396653Y153331D01*
X398439D01*
X399629Y152736D01*
X400224Y150951D01*
Y145000D01*
Y150951D02*
X402009Y152736D01*
X403200Y153331D01*
X404985D01*
X406175Y152736D01*
X406770Y150951D01*
Y145000D01*
X410698Y153331D02*
Y145000D01*
Y150951D02*
X412483Y152736D01*
X413674Y153331D01*
X415459D01*
X416649Y152736D01*
X417244Y150951D01*
Y145000D01*
Y150951D02*
X419030Y152736D01*
X420220Y153331D01*
X422005D01*
X423195Y152736D01*
X423790Y150951D01*
Y145000D01*
X441703Y159878D02*
X440513Y158687D01*
X439323Y156902D01*
X438133Y154522D01*
X437537Y151546D01*
Y149166D01*
X438133Y146190D01*
X439323Y143810D01*
X440513Y142024D01*
X441703Y140834D01*
X440513Y158687D02*
X439323Y156307D01*
X438728Y154522D01*
X438133Y151546D01*
Y149166D01*
X438728Y146190D01*
X439323Y144405D01*
X440513Y142024D01*
X445274Y157497D02*
X451820D01*
X448250Y152736D01*
X450035D01*
X451225Y152141D01*
X451820Y151546D01*
X452415Y149761D01*
Y148571D01*
X451820Y146785D01*
X450630Y145595D01*
X448845Y145000D01*
X447059D01*
X445274Y145595D01*
X444679Y146190D01*
X444084Y147380D01*
X463544Y157497D02*
X457593Y145000D01*
X455212Y157497D02*
X463544D01*
X466936Y146190D02*
X466341Y145595D01*
X466936Y145000D01*
X467531Y145595D01*
X466936Y146190D01*
X476220Y157497D02*
X470269Y149166D01*
X479195D01*
X476220Y157497D02*
Y145000D01*
X484968Y157497D02*
X483182Y156902D01*
X481992Y155117D01*
X481397Y152141D01*
Y150356D01*
X481992Y147380D01*
X483182Y145595D01*
X484968Y145000D01*
X486158D01*
X487943Y145595D01*
X489134Y147380D01*
X489729Y150356D01*
Y152141D01*
X489134Y155117D01*
X487943Y156902D01*
X486158Y157497D01*
X484968D01*
X493121Y154522D02*
Y155117D01*
X493716Y156307D01*
X494311Y156902D01*
X495501Y157497D01*
X497882D01*
X499072Y156902D01*
X499667Y156307D01*
X500262Y155117D01*
Y153927D01*
X499667Y152736D01*
X498477Y150951D01*
X492526Y145000D01*
X500857D01*
X503654Y153331D02*
Y145000D01*
Y150951D02*
X505440Y152736D01*
X506630Y153331D01*
X508415D01*
X509605Y152736D01*
X510201Y150951D01*
Y145000D01*
Y150951D02*
X511986Y152736D01*
X513176Y153331D01*
X514961D01*
X516152Y152736D01*
X516747Y150951D01*
Y145000D01*
X521865Y157497D02*
X522460Y156902D01*
X523055Y157497D01*
X522460Y158092D01*
X521865Y157497D01*
X522460Y153331D02*
Y145000D01*
X525257Y157497D02*
Y145000D01*
X527875Y159878D02*
X529066Y158687D01*
X530256Y156902D01*
X531446Y154522D01*
X532041Y151546D01*
Y149166D01*
X531446Y146190D01*
X530256Y143810D01*
X529066Y142024D01*
X527875Y140834D01*
X529066Y158687D02*
X530256Y156307D01*
X530851Y154522D01*
X531446Y151546D01*
Y149166D01*
X530851Y146190D01*
X530256Y144405D01*
X529066Y142024D01*
X563096Y150951D02*
X568452D01*
X570238Y151546D01*
X570833Y152141D01*
X571428Y153331D01*
Y155117D01*
X570833Y156307D01*
X570238Y156902D01*
X568452Y157497D01*
X563096D01*
Y145000D01*
X578391Y157497D02*
Y145000D01*
X574225Y157497D02*
X582556D01*
X584044D02*
Y145000D01*
X592376Y157497D02*
Y145000D01*
X584044Y151546D02*
X592376D01*
X642570Y157497D02*
Y145000D01*
Y157497D02*
X647926D01*
X649711Y156902D01*
X650306Y156307D01*
X650901Y155117D01*
Y153927D01*
X650306Y152736D01*
X649711Y152141D01*
X647926Y151546D01*
X642570D01*
X646735D02*
X650901Y145000D01*
X656674Y153331D02*
X655483Y152736D01*
X654293Y151546D01*
X653698Y149761D01*
Y148571D01*
X654293Y146785D01*
X655483Y145595D01*
X656674Y145000D01*
X658459D01*
X659649Y145595D01*
X660839Y146785D01*
X661435Y148571D01*
Y149761D01*
X660839Y151546D01*
X659649Y152736D01*
X658459Y153331D01*
X656674D01*
X664172D02*
Y147380D01*
X664767Y145595D01*
X665957Y145000D01*
X667743D01*
X668933Y145595D01*
X670718Y147380D01*
Y153331D02*
Y145000D01*
X673991Y153331D02*
Y145000D01*
Y150951D02*
X675777Y152736D01*
X676967Y153331D01*
X678752D01*
X679943Y152736D01*
X680538Y150951D01*
Y145000D01*
X690952Y157497D02*
Y145000D01*
Y151546D02*
X689762Y152736D01*
X688572Y153331D01*
X686786D01*
X685596Y152736D01*
X684406Y151546D01*
X683811Y149761D01*
Y148571D01*
X684406Y146785D01*
X685596Y145595D01*
X686786Y145000D01*
X688572D01*
X689762Y145595D01*
X690952Y146785D01*
X245255Y130712D02*
X244660Y131902D01*
X242874Y132497D01*
X241684D01*
X239899Y131902D01*
X238709Y130117D01*
X238114Y127141D01*
Y124166D01*
X238709Y121785D01*
X239899Y120595D01*
X241684Y120000D01*
X242279D01*
X244065Y120595D01*
X245255Y121785D01*
X245850Y123571D01*
Y124166D01*
X245255Y125951D01*
X244065Y127141D01*
X242279Y127736D01*
X241684D01*
X239899Y127141D01*
X238709Y125951D01*
X238114Y124166D01*
X356364Y130117D02*
X357555Y130712D01*
X359340Y132497D01*
Y120000D01*
X365529Y128331D02*
Y120000D01*
Y125951D02*
X367314Y127736D01*
X368505Y128331D01*
X370290D01*
X371480Y127736D01*
X372075Y125951D01*
Y120000D01*
Y125951D02*
X373861Y127736D01*
X375051Y128331D01*
X376836D01*
X378026Y127736D01*
X378621Y125951D01*
Y120000D01*
X382549Y128331D02*
Y120000D01*
Y125951D02*
X384335Y127736D01*
X385525Y128331D01*
X387310D01*
X388500Y127736D01*
X389095Y125951D01*
Y120000D01*
Y125951D02*
X390881Y127736D01*
X392071Y128331D01*
X393856D01*
X395047Y127736D01*
X395642Y125951D01*
Y120000D01*
X413554Y134878D02*
X412364Y133687D01*
X411174Y131902D01*
X409984Y129522D01*
X409389Y126546D01*
Y124166D01*
X409984Y121190D01*
X411174Y118810D01*
X412364Y117024D01*
X413554Y115834D01*
X412364Y133687D02*
X411174Y131307D01*
X410579Y129522D01*
X409984Y126546D01*
Y124166D01*
X410579Y121190D01*
X411174Y119405D01*
X412364Y117024D01*
X417125Y132497D02*
X423671D01*
X420101Y127736D01*
X421886D01*
X423076Y127141D01*
X423671Y126546D01*
X424267Y124761D01*
Y123571D01*
X423671Y121785D01*
X422481Y120595D01*
X420696Y120000D01*
X418910D01*
X417125Y120595D01*
X416530Y121190D01*
X415935Y122380D01*
X434800Y128331D02*
X434205Y126546D01*
X433015Y125356D01*
X431229Y124761D01*
X430634D01*
X428849Y125356D01*
X427659Y126546D01*
X427063Y128331D01*
Y128927D01*
X427659Y130712D01*
X428849Y131902D01*
X430634Y132497D01*
X431229D01*
X433015Y131902D01*
X434205Y130712D01*
X434800Y128331D01*
Y125356D01*
X434205Y122380D01*
X433015Y120595D01*
X431229Y120000D01*
X430039D01*
X428254Y120595D01*
X427659Y121785D01*
X438787Y121190D02*
X438192Y120595D01*
X438787Y120000D01*
X439382Y120595D01*
X438787Y121190D01*
X443310Y132497D02*
X449856D01*
X446286Y127736D01*
X448071D01*
X449261Y127141D01*
X449856Y126546D01*
X450451Y124761D01*
Y123571D01*
X449856Y121785D01*
X448666Y120595D01*
X446881Y120000D01*
X445095D01*
X443310Y120595D01*
X442715Y121190D01*
X442120Y122380D01*
X461580Y132497D02*
X455629Y120000D01*
X453248Y132497D02*
X461580D01*
X464377Y128331D02*
Y120000D01*
Y125951D02*
X466162Y127736D01*
X467353Y128331D01*
X469138D01*
X470328Y127736D01*
X470923Y125951D01*
Y120000D01*
Y125951D02*
X472709Y127736D01*
X473899Y128331D01*
X475684D01*
X476874Y127736D01*
X477469Y125951D01*
Y120000D01*
X482587Y132497D02*
X483182Y131902D01*
X483778Y132497D01*
X483182Y133092D01*
X482587Y132497D01*
X483182Y128331D02*
Y120000D01*
X485979Y132497D02*
Y120000D01*
X488598Y134878D02*
X489788Y133687D01*
X490978Y131902D01*
X492169Y129522D01*
X492764Y126546D01*
Y124166D01*
X492169Y121190D01*
X490978Y118810D01*
X489788Y117024D01*
X488598Y115834D01*
X489788Y133687D02*
X490978Y131307D01*
X491574Y129522D01*
X492169Y126546D01*
Y124166D01*
X491574Y121190D01*
X490978Y119405D01*
X489788Y117024D01*
X563096Y132497D02*
Y120000D01*
Y132497D02*
X571428Y120000D01*
Y132497D02*
Y120000D01*
X574879Y125951D02*
X580235D01*
X582021Y126546D01*
X582616Y127141D01*
X583211Y128331D01*
Y130117D01*
X582616Y131307D01*
X582021Y131902D01*
X580235Y132497D01*
X574879D01*
Y120000D01*
X590174Y132497D02*
Y120000D01*
X586008Y132497D02*
X594339D01*
X595827D02*
Y120000D01*
X604159Y132497D02*
Y120000D01*
X595827Y126546D02*
X604159D01*
X642570Y132497D02*
Y120000D01*
Y132497D02*
X647926D01*
X649711Y131902D01*
X650306Y131307D01*
X650901Y130117D01*
Y128927D01*
X650306Y127736D01*
X649711Y127141D01*
X647926Y126546D01*
X642570D01*
X646735D02*
X650901Y120000D01*
X656674Y128331D02*
X655483Y127736D01*
X654293Y126546D01*
X653698Y124761D01*
Y123571D01*
X654293Y121785D01*
X655483Y120595D01*
X656674Y120000D01*
X658459D01*
X659649Y120595D01*
X660839Y121785D01*
X661435Y123571D01*
Y124761D01*
X660839Y126546D01*
X659649Y127736D01*
X658459Y128331D01*
X656674D01*
X664172D02*
Y122380D01*
X664767Y120595D01*
X665957Y120000D01*
X667743D01*
X668933Y120595D01*
X670718Y122380D01*
Y128331D02*
Y120000D01*
X673991Y128331D02*
Y120000D01*
Y125951D02*
X675777Y127736D01*
X676967Y128331D01*
X678752D01*
X679943Y127736D01*
X680538Y125951D01*
Y120000D01*
X690952Y132497D02*
Y120000D01*
Y126546D02*
X689762Y127736D01*
X688572Y128331D01*
X686786D01*
X685596Y127736D01*
X684406Y126546D01*
X683811Y124761D01*
Y123571D01*
X684406Y121785D01*
X685596Y120595D01*
X686786Y120000D01*
X688572D01*
X689762Y120595D01*
X690952Y121785D01*
X238709Y104522D02*
Y105117D01*
X239304Y106307D01*
X239899Y106902D01*
X241089Y107497D01*
X243470D01*
X244660Y106902D01*
X245255Y106307D01*
X245850Y105117D01*
Y103927D01*
X245255Y102736D01*
X244065Y100951D01*
X238114Y95000D01*
X246445D01*
X356364Y105117D02*
X357555Y105712D01*
X359340Y107497D01*
Y95000D01*
X366124Y96190D02*
X365529Y95595D01*
X366124Y95000D01*
X366719Y95595D01*
X366124Y96190D01*
X369457Y105117D02*
X370647Y105712D01*
X372432Y107497D01*
Y95000D01*
X378621Y103331D02*
Y95000D01*
Y100951D02*
X380407Y102736D01*
X381597Y103331D01*
X383382D01*
X384573Y102736D01*
X385168Y100951D01*
Y95000D01*
Y100951D02*
X386953Y102736D01*
X388143Y103331D01*
X389929D01*
X391119Y102736D01*
X391714Y100951D01*
Y95000D01*
X395642Y103331D02*
Y95000D01*
Y100951D02*
X397427Y102736D01*
X398617Y103331D01*
X400403D01*
X401593Y102736D01*
X402188Y100951D01*
Y95000D01*
Y100951D02*
X403973Y102736D01*
X405163Y103331D01*
X406949D01*
X408139Y102736D01*
X408734Y100951D01*
Y95000D01*
X426647Y109878D02*
X425457Y108687D01*
X424267Y106902D01*
X423076Y104522D01*
X422481Y101546D01*
Y99166D01*
X423076Y96190D01*
X424267Y93810D01*
X425457Y92024D01*
X426647Y90834D01*
X425457Y108687D02*
X424267Y106307D01*
X423671Y104522D01*
X423076Y101546D01*
Y99166D01*
X423671Y96190D01*
X424267Y94405D01*
X425457Y92024D01*
X434978Y107497D02*
X429027Y99166D01*
X437954D01*
X434978Y107497D02*
Y95000D01*
X441346Y107497D02*
X447892D01*
X444322Y102736D01*
X446107D01*
X447297Y102141D01*
X447892Y101546D01*
X448488Y99761D01*
Y98571D01*
X447892Y96785D01*
X446702Y95595D01*
X444917Y95000D01*
X443131D01*
X441346Y95595D01*
X440751Y96190D01*
X440156Y97380D01*
X451880Y96190D02*
X451284Y95595D01*
X451880Y95000D01*
X452475Y95595D01*
X451880Y96190D01*
X456403Y107497D02*
X462949D01*
X459378Y102736D01*
X461163D01*
X462354Y102141D01*
X462949Y101546D01*
X463544Y99761D01*
Y98571D01*
X462949Y96785D01*
X461758Y95595D01*
X459973Y95000D01*
X458188D01*
X456403Y95595D01*
X455807Y96190D01*
X455212Y97380D01*
X469911Y107497D02*
X468126Y106902D01*
X466936Y105117D01*
X466341Y102141D01*
Y100356D01*
X466936Y97380D01*
X468126Y95595D01*
X469911Y95000D01*
X471102D01*
X472887Y95595D01*
X474077Y97380D01*
X474672Y100356D01*
Y102141D01*
X474077Y105117D01*
X472887Y106902D01*
X471102Y107497D01*
X469911D01*
X485801D02*
X479850Y95000D01*
X477469Y107497D02*
X485801D01*
X488598Y103331D02*
Y95000D01*
Y100951D02*
X490383Y102736D01*
X491574Y103331D01*
X493359D01*
X494549Y102736D01*
X495144Y100951D01*
Y95000D01*
Y100951D02*
X496930Y102736D01*
X498120Y103331D01*
X499905D01*
X501095Y102736D01*
X501690Y100951D01*
Y95000D01*
X506808Y107497D02*
X507403Y106902D01*
X507999Y107497D01*
X507403Y108092D01*
X506808Y107497D01*
X507403Y103331D02*
Y95000D01*
X510201Y107497D02*
Y95000D01*
X512819Y109878D02*
X514009Y108687D01*
X515200Y106902D01*
X516390Y104522D01*
X516985Y101546D01*
Y99166D01*
X516390Y96190D01*
X515200Y93810D01*
X514009Y92024D01*
X512819Y90834D01*
X514009Y108687D02*
X515200Y106307D01*
X515795Y104522D01*
X516390Y101546D01*
Y99166D01*
X515795Y96190D01*
X515200Y94405D01*
X514009Y92024D01*
X563096Y107497D02*
Y95000D01*
Y107497D02*
X571428Y95000D01*
Y107497D02*
Y95000D01*
X574879Y100951D02*
X580235D01*
X582021Y101546D01*
X582616Y102141D01*
X583211Y103331D01*
Y105117D01*
X582616Y106307D01*
X582021Y106902D01*
X580235Y107497D01*
X574879D01*
Y95000D01*
X590174Y107497D02*
Y95000D01*
X586008Y107497D02*
X594339D01*
X595827D02*
Y95000D01*
X604159Y107497D02*
Y95000D01*
X595827Y101546D02*
X604159D01*
X642570Y107497D02*
Y95000D01*
Y107497D02*
X647926D01*
X649711Y106902D01*
X650306Y106307D01*
X650901Y105117D01*
Y103927D01*
X650306Y102736D01*
X649711Y102141D01*
X647926Y101546D01*
X642570D01*
X646735D02*
X650901Y95000D01*
X656674Y103331D02*
X655483Y102736D01*
X654293Y101546D01*
X653698Y99761D01*
Y98571D01*
X654293Y96785D01*
X655483Y95595D01*
X656674Y95000D01*
X658459D01*
X659649Y95595D01*
X660839Y96785D01*
X661435Y98571D01*
Y99761D01*
X660839Y101546D01*
X659649Y102736D01*
X658459Y103331D01*
X656674D01*
X664172D02*
Y97380D01*
X664767Y95595D01*
X665957Y95000D01*
X667743D01*
X668933Y95595D01*
X670718Y97380D01*
Y103331D02*
Y95000D01*
X673991Y103331D02*
Y95000D01*
Y100951D02*
X675777Y102736D01*
X676967Y103331D01*
X678752D01*
X679943Y102736D01*
X680538Y100951D01*
Y95000D01*
X690952Y107497D02*
Y95000D01*
Y101546D02*
X689762Y102736D01*
X688572Y103331D01*
X686786D01*
X685596Y102736D01*
X684406Y101546D01*
X683811Y99761D01*
Y98571D01*
X684406Y96785D01*
X685596Y95595D01*
X686786Y95000D01*
X688572D01*
X689762Y95595D01*
X690952Y96785D01*
X238114Y80117D02*
X239304Y80712D01*
X241089Y82497D01*
Y70000D01*
X356364Y80117D02*
X357555Y80712D01*
X359340Y82497D01*
Y70000D01*
X366124Y71190D02*
X365529Y70595D01*
X366124Y70000D01*
X366719Y70595D01*
X366124Y71190D01*
X375408Y82497D02*
X369457Y74166D01*
X378383D01*
X375408Y82497D02*
Y70000D01*
X380585Y78331D02*
Y70000D01*
Y75951D02*
X382371Y77736D01*
X383561Y78331D01*
X385346D01*
X386536Y77736D01*
X387132Y75951D01*
Y70000D01*
Y75951D02*
X388917Y77736D01*
X390107Y78331D01*
X391893D01*
X393083Y77736D01*
X393678Y75951D01*
Y70000D01*
X397606Y78331D02*
Y70000D01*
Y75951D02*
X399391Y77736D01*
X400581Y78331D01*
X402366D01*
X403557Y77736D01*
X404152Y75951D01*
Y70000D01*
Y75951D02*
X405937Y77736D01*
X407127Y78331D01*
X408913D01*
X410103Y77736D01*
X410698Y75951D01*
Y70000D01*
X428611Y84878D02*
X427421Y83687D01*
X426230Y81902D01*
X425040Y79522D01*
X424445Y76546D01*
Y74166D01*
X425040Y71190D01*
X426230Y68810D01*
X427421Y67024D01*
X428611Y65834D01*
X427421Y83687D02*
X426230Y81307D01*
X425635Y79522D01*
X425040Y76546D01*
Y74166D01*
X425635Y71190D01*
X426230Y69405D01*
X427421Y67024D01*
X438133Y82497D02*
X432182D01*
X431586Y77141D01*
X432182Y77736D01*
X433967Y78331D01*
X435752D01*
X437537Y77736D01*
X438728Y76546D01*
X439323Y74761D01*
Y73571D01*
X438728Y71785D01*
X437537Y70595D01*
X435752Y70000D01*
X433967D01*
X432182Y70595D01*
X431586Y71190D01*
X430991Y72380D01*
X449261Y82497D02*
X443310D01*
X442715Y77141D01*
X443310Y77736D01*
X445095Y78331D01*
X446881D01*
X448666Y77736D01*
X449856Y76546D01*
X450451Y74761D01*
Y73571D01*
X449856Y71785D01*
X448666Y70595D01*
X446881Y70000D01*
X445095D01*
X443310Y70595D01*
X442715Y71190D01*
X442120Y72380D01*
X453843Y71190D02*
X453248Y70595D01*
X453843Y70000D01*
X454439Y70595D01*
X453843Y71190D01*
X457176Y80117D02*
X458366Y80712D01*
X460152Y82497D01*
Y70000D01*
X466341Y80117D02*
X467531Y80712D01*
X469316Y82497D01*
Y70000D01*
X478481Y82497D02*
X476696Y81902D01*
X476101Y80712D01*
Y79522D01*
X476696Y78331D01*
X477886Y77736D01*
X480266Y77141D01*
X482052Y76546D01*
X483242Y75356D01*
X483837Y74166D01*
Y72380D01*
X483242Y71190D01*
X482647Y70595D01*
X480862Y70000D01*
X478481D01*
X476696Y70595D01*
X476101Y71190D01*
X475506Y72380D01*
Y74166D01*
X476101Y75356D01*
X477291Y76546D01*
X479076Y77141D01*
X481457Y77736D01*
X482647Y78331D01*
X483242Y79522D01*
Y80712D01*
X482647Y81902D01*
X480862Y82497D01*
X478481D01*
X486634Y78331D02*
Y70000D01*
Y75951D02*
X488419Y77736D01*
X489610Y78331D01*
X491395D01*
X492585Y77736D01*
X493180Y75951D01*
Y70000D01*
Y75951D02*
X494966Y77736D01*
X496156Y78331D01*
X497941D01*
X499132Y77736D01*
X499727Y75951D01*
Y70000D01*
X504845Y82497D02*
X505440Y81902D01*
X506035Y82497D01*
X505440Y83092D01*
X504845Y82497D01*
X505440Y78331D02*
Y70000D01*
X508237Y82497D02*
Y70000D01*
X510855Y84878D02*
X512045Y83687D01*
X513236Y81902D01*
X514426Y79522D01*
X515021Y76546D01*
Y74166D01*
X514426Y71190D01*
X513236Y68810D01*
X512045Y67024D01*
X510855Y65834D01*
X512045Y83687D02*
X513236Y81307D01*
X513831Y79522D01*
X514426Y76546D01*
Y74166D01*
X513831Y71190D01*
X513236Y69405D01*
X512045Y67024D01*
X563096Y75951D02*
X568452D01*
X570238Y76546D01*
X570833Y77141D01*
X571428Y78331D01*
Y80117D01*
X570833Y81307D01*
X570238Y81902D01*
X568452Y82497D01*
X563096D01*
Y70000D01*
X578391Y82497D02*
Y70000D01*
X574225Y82497D02*
X582556D01*
X584044D02*
Y70000D01*
X592376Y82497D02*
Y70000D01*
X584044Y76546D02*
X592376D01*
X642570Y82497D02*
Y70000D01*
Y82497D02*
X647926D01*
X649711Y81902D01*
X650306Y81307D01*
X650901Y80117D01*
Y78927D01*
X650306Y77736D01*
X649711Y77141D01*
X647926Y76546D01*
X642570D01*
X646735D02*
X650901Y70000D01*
X656674Y78331D02*
X655483Y77736D01*
X654293Y76546D01*
X653698Y74761D01*
Y73571D01*
X654293Y71785D01*
X655483Y70595D01*
X656674Y70000D01*
X658459D01*
X659649Y70595D01*
X660839Y71785D01*
X661435Y73571D01*
Y74761D01*
X660839Y76546D01*
X659649Y77736D01*
X658459Y78331D01*
X656674D01*
X664172D02*
Y72380D01*
X664767Y70595D01*
X665957Y70000D01*
X667743D01*
X668933Y70595D01*
X670718Y72380D01*
Y78331D02*
Y70000D01*
X673991Y78331D02*
Y70000D01*
Y75951D02*
X675777Y77736D01*
X676967Y78331D01*
X678752D01*
X679943Y77736D01*
X680538Y75951D01*
Y70000D01*
X690952Y82497D02*
Y70000D01*
Y76546D02*
X689762Y77736D01*
X688572Y78331D01*
X686786D01*
X685596Y77736D01*
X684406Y76546D01*
X683811Y74761D01*
Y73571D01*
X684406Y71785D01*
X685596Y70595D01*
X686786Y70000D01*
X688572D01*
X689762Y70595D01*
X690952Y71785D01*
X238114Y55117D02*
X239304Y55712D01*
X241089Y57497D01*
Y45000D01*
X356364Y55117D02*
X357555Y55712D01*
X359340Y57497D01*
Y45000D01*
X366124Y46190D02*
X365529Y45595D01*
X366124Y45000D01*
X366719Y45595D01*
X366124Y46190D01*
X376598Y55712D02*
X376003Y56902D01*
X374218Y57497D01*
X373027D01*
X371242Y56902D01*
X370052Y55117D01*
X369457Y52141D01*
Y49166D01*
X370052Y46785D01*
X371242Y45595D01*
X373027Y45000D01*
X373623D01*
X375408Y45595D01*
X376598Y46785D01*
X377193Y48571D01*
Y49166D01*
X376598Y50951D01*
X375408Y52141D01*
X373623Y52736D01*
X373027D01*
X371242Y52141D01*
X370052Y50951D01*
X369457Y49166D01*
X379931Y53331D02*
Y45000D01*
Y50951D02*
X381716Y52736D01*
X382906Y53331D01*
X384692D01*
X385882Y52736D01*
X386477Y50951D01*
Y45000D01*
Y50951D02*
X388262Y52736D01*
X389453Y53331D01*
X391238D01*
X392428Y52736D01*
X393023Y50951D01*
Y45000D01*
X396951Y53331D02*
Y45000D01*
Y50951D02*
X398736Y52736D01*
X399926Y53331D01*
X401712D01*
X402902Y52736D01*
X403497Y50951D01*
Y45000D01*
Y50951D02*
X405283Y52736D01*
X406473Y53331D01*
X408258D01*
X409448Y52736D01*
X410043Y50951D01*
Y45000D01*
X427956Y59878D02*
X426766Y58688D01*
X425576Y56902D01*
X424385Y54522D01*
X423790Y51546D01*
Y49166D01*
X424385Y46190D01*
X425576Y43810D01*
X426766Y42024D01*
X427956Y40834D01*
X426766Y58688D02*
X425576Y56307D01*
X424981Y54522D01*
X424385Y51546D01*
Y49166D01*
X424981Y46190D01*
X425576Y44405D01*
X426766Y42024D01*
X437478Y55712D02*
X436883Y56902D01*
X435098Y57497D01*
X433907D01*
X432122Y56902D01*
X430932Y55117D01*
X430337Y52141D01*
Y49166D01*
X430932Y46785D01*
X432122Y45595D01*
X433907Y45000D01*
X434502D01*
X436288Y45595D01*
X437478Y46785D01*
X438073Y48571D01*
Y49166D01*
X437478Y50951D01*
X436288Y52141D01*
X434502Y52736D01*
X433907D01*
X432122Y52141D01*
X430932Y50951D01*
X430337Y49166D01*
X441406Y54522D02*
Y55117D01*
X442001Y56307D01*
X442596Y56902D01*
X443786Y57497D01*
X446167D01*
X447357Y56902D01*
X447952Y56307D01*
X448547Y55117D01*
Y53927D01*
X447952Y52736D01*
X446762Y50951D01*
X440811Y45000D01*
X449142D01*
X452534Y46190D02*
X451939Y45595D01*
X452534Y45000D01*
X453129Y45595D01*
X452534Y46190D01*
X463603Y53331D02*
X463008Y51546D01*
X461818Y50356D01*
X460033Y49761D01*
X459437D01*
X457652Y50356D01*
X456462Y51546D01*
X455867Y53331D01*
Y53927D01*
X456462Y55712D01*
X457652Y56902D01*
X459437Y57497D01*
X460033D01*
X461818Y56902D01*
X463008Y55712D01*
X463603Y53331D01*
Y50356D01*
X463008Y47380D01*
X461818Y45595D01*
X460033Y45000D01*
X458842D01*
X457057Y45595D01*
X456462Y46785D01*
X474732Y53331D02*
X474137Y51546D01*
X472947Y50356D01*
X471161Y49761D01*
X470566D01*
X468781Y50356D01*
X467591Y51546D01*
X466996Y53331D01*
Y53927D01*
X467591Y55712D01*
X468781Y56902D01*
X470566Y57497D01*
X471161D01*
X472947Y56902D01*
X474137Y55712D01*
X474732Y53331D01*
Y50356D01*
X474137Y47380D01*
X472947Y45595D01*
X471161Y45000D01*
X469971D01*
X468186Y45595D01*
X467591Y46785D01*
X478719Y54522D02*
Y55117D01*
X479314Y56307D01*
X479909Y56902D01*
X481100Y57497D01*
X483480D01*
X484670Y56902D01*
X485265Y56307D01*
X485860Y55117D01*
Y53927D01*
X485265Y52736D01*
X484075Y50951D01*
X478124Y45000D01*
X486456D01*
X489253Y53331D02*
Y45000D01*
Y50951D02*
X491038Y52736D01*
X492228Y53331D01*
X494013D01*
X495204Y52736D01*
X495799Y50951D01*
Y45000D01*
Y50951D02*
X497584Y52736D01*
X498774Y53331D01*
X500560D01*
X501750Y52736D01*
X502345Y50951D01*
Y45000D01*
X507463Y57497D02*
X508058Y56902D01*
X508653Y57497D01*
X508058Y58092D01*
X507463Y57497D01*
X508058Y53331D02*
Y45000D01*
X510855Y57497D02*
Y45000D01*
X513474Y59878D02*
X514664Y58688D01*
X515854Y56902D01*
X517044Y54522D01*
X517639Y51546D01*
Y49166D01*
X517044Y46190D01*
X515854Y43810D01*
X514664Y42024D01*
X513474Y40834D01*
X514664Y58688D02*
X515854Y56307D01*
X516449Y54522D01*
X517044Y51546D01*
Y49166D01*
X516449Y46190D01*
X515854Y44405D01*
X514664Y42024D01*
X563096Y57497D02*
Y45000D01*
Y57497D02*
X571428Y45000D01*
Y57497D02*
Y45000D01*
X574879Y50951D02*
X580235D01*
X582021Y51546D01*
X582616Y52141D01*
X583211Y53331D01*
Y55117D01*
X582616Y56307D01*
X582021Y56902D01*
X580235Y57497D01*
X574879D01*
Y45000D01*
X590174Y57497D02*
Y45000D01*
X586008Y57497D02*
X594339D01*
X595827D02*
Y45000D01*
X604159Y57497D02*
Y45000D01*
X595827Y51546D02*
X604159D01*
X642570Y57497D02*
Y45000D01*
Y57497D02*
X647926D01*
X649711Y56902D01*
X650306Y56307D01*
X650901Y55117D01*
Y53927D01*
X650306Y52736D01*
X649711Y52141D01*
X647926Y51546D01*
X642570D01*
X646735D02*
X650901Y45000D01*
X656674Y53331D02*
X655483Y52736D01*
X654293Y51546D01*
X653698Y49761D01*
Y48571D01*
X654293Y46785D01*
X655483Y45595D01*
X656674Y45000D01*
X658459D01*
X659649Y45595D01*
X660839Y46785D01*
X661435Y48571D01*
Y49761D01*
X660839Y51546D01*
X659649Y52736D01*
X658459Y53331D01*
X656674D01*
X664172D02*
Y47380D01*
X664767Y45595D01*
X665957Y45000D01*
X667743D01*
X668933Y45595D01*
X670718Y47380D01*
Y53331D02*
Y45000D01*
X673991Y53331D02*
Y45000D01*
Y50951D02*
X675777Y52736D01*
X676967Y53331D01*
X678752D01*
X679943Y52736D01*
X680538Y50951D01*
Y45000D01*
X690952Y57497D02*
Y45000D01*
Y51546D02*
X689762Y52736D01*
X688572Y53331D01*
X686786D01*
X685596Y52736D01*
X684406Y51546D01*
X683811Y49761D01*
Y48571D01*
X684406Y46785D01*
X685596Y45595D01*
X686786Y45000D01*
X688572D01*
X689762Y45595D01*
X690952Y46785D01*
X238114Y30117D02*
X239304Y30712D01*
X241089Y32497D01*
Y20000D01*
X356364Y30117D02*
X357555Y30712D01*
X359340Y32497D01*
Y20000D01*
X366124Y21190D02*
X365529Y20595D01*
X366124Y20000D01*
X366719Y20595D01*
X366124Y21190D01*
X372432Y32497D02*
X370647Y31902D01*
X370052Y30712D01*
Y29522D01*
X370647Y28331D01*
X371837Y27736D01*
X374218Y27141D01*
X376003Y26546D01*
X377193Y25356D01*
X377788Y24166D01*
Y22380D01*
X377193Y21190D01*
X376598Y20595D01*
X374813Y20000D01*
X372432D01*
X370647Y20595D01*
X370052Y21190D01*
X369457Y22380D01*
Y24166D01*
X370052Y25356D01*
X371242Y26546D01*
X373027Y27141D01*
X375408Y27736D01*
X376598Y28331D01*
X377193Y29522D01*
Y30712D01*
X376598Y31902D01*
X374813Y32497D01*
X372432D01*
X380585Y28331D02*
Y20000D01*
Y25951D02*
X382371Y27736D01*
X383561Y28331D01*
X385346D01*
X386536Y27736D01*
X387132Y25951D01*
Y20000D01*
Y25951D02*
X388917Y27736D01*
X390107Y28331D01*
X391893D01*
X393083Y27736D01*
X393678Y25951D01*
Y20000D01*
X397606Y28331D02*
Y20000D01*
Y25951D02*
X399391Y27736D01*
X400581Y28331D01*
X402366D01*
X403557Y27736D01*
X404152Y25951D01*
Y20000D01*
Y25951D02*
X405937Y27736D01*
X407127Y28331D01*
X408913D01*
X410103Y27736D01*
X410698Y25951D01*
Y20000D01*
X428611Y34878D02*
X427421Y33688D01*
X426230Y31902D01*
X425040Y29522D01*
X424445Y26546D01*
Y24166D01*
X425040Y21190D01*
X426230Y18810D01*
X427421Y17024D01*
X428611Y15834D01*
X427421Y33688D02*
X426230Y31307D01*
X425635Y29522D01*
X425040Y26546D01*
Y24166D01*
X425635Y21190D01*
X426230Y19405D01*
X427421Y17024D01*
X439323Y32497D02*
X433372Y20000D01*
X430991Y32497D02*
X439323D01*
X445690D02*
X443905Y31902D01*
X442715Y30117D01*
X442120Y27141D01*
Y25356D01*
X442715Y22380D01*
X443905Y20595D01*
X445690Y20000D01*
X446881D01*
X448666Y20595D01*
X449856Y22380D01*
X450451Y25356D01*
Y27141D01*
X449856Y30117D01*
X448666Y31902D01*
X446881Y32497D01*
X445690D01*
X453843Y21190D02*
X453248Y20595D01*
X453843Y20000D01*
X454439Y20595D01*
X453843Y21190D01*
X460152Y32497D02*
X458366Y31902D01*
X457771Y30712D01*
Y29522D01*
X458366Y28331D01*
X459557Y27736D01*
X461937Y27141D01*
X463722Y26546D01*
X464913Y25356D01*
X465508Y24166D01*
Y22380D01*
X464913Y21190D01*
X464318Y20595D01*
X462532Y20000D01*
X460152D01*
X458366Y20595D01*
X457771Y21190D01*
X457176Y22380D01*
Y24166D01*
X457771Y25356D01*
X458961Y26546D01*
X460747Y27141D01*
X463127Y27736D01*
X464318Y28331D01*
X464913Y29522D01*
Y30712D01*
X464318Y31902D01*
X462532Y32497D01*
X460152D01*
X475446Y30712D02*
X474851Y31902D01*
X473066Y32497D01*
X471875D01*
X470090Y31902D01*
X468900Y30117D01*
X468305Y27141D01*
Y24166D01*
X468900Y21785D01*
X470090Y20595D01*
X471875Y20000D01*
X472471D01*
X474256Y20595D01*
X475446Y21785D01*
X476041Y23571D01*
Y24166D01*
X475446Y25951D01*
X474256Y27141D01*
X472471Y27736D01*
X471875D01*
X470090Y27141D01*
X468900Y25951D01*
X468305Y24166D01*
X485920Y30712D02*
X485325Y31902D01*
X483540Y32497D01*
X482349D01*
X480564Y31902D01*
X479374Y30117D01*
X478779Y27141D01*
Y24166D01*
X479374Y21785D01*
X480564Y20595D01*
X482349Y20000D01*
X482944D01*
X484730Y20595D01*
X485920Y21785D01*
X486515Y23571D01*
Y24166D01*
X485920Y25951D01*
X484730Y27141D01*
X482944Y27736D01*
X482349D01*
X480564Y27141D01*
X479374Y25951D01*
X478779Y24166D01*
X489253Y28331D02*
Y20000D01*
Y25951D02*
X491038Y27736D01*
X492228Y28331D01*
X494013D01*
X495204Y27736D01*
X495799Y25951D01*
Y20000D01*
Y25951D02*
X497584Y27736D01*
X498774Y28331D01*
X500560D01*
X501750Y27736D01*
X502345Y25951D01*
Y20000D01*
X507463Y32497D02*
X508058Y31902D01*
X508653Y32497D01*
X508058Y33092D01*
X507463Y32497D01*
X508058Y28331D02*
Y20000D01*
X510855Y32497D02*
Y20000D01*
X513474Y34878D02*
X514664Y33688D01*
X515854Y31902D01*
X517044Y29522D01*
X517639Y26546D01*
Y24166D01*
X517044Y21190D01*
X515854Y18810D01*
X514664Y17024D01*
X513474Y15834D01*
X514664Y33688D02*
X515854Y31307D01*
X516449Y29522D01*
X517044Y26546D01*
Y24166D01*
X516449Y21190D01*
X515854Y19405D01*
X514664Y17024D01*
X563096Y32497D02*
Y20000D01*
Y32497D02*
X571428Y20000D01*
Y32497D02*
Y20000D01*
X574879Y25951D02*
X580235D01*
X582021Y26546D01*
X582616Y27141D01*
X583211Y28331D01*
Y30117D01*
X582616Y31307D01*
X582021Y31902D01*
X580235Y32497D01*
X574879D01*
Y20000D01*
X590174Y32497D02*
Y20000D01*
X586008Y32497D02*
X594339D01*
X595827D02*
Y20000D01*
X604159Y32497D02*
Y20000D01*
X595827Y26546D02*
X604159D01*
X642570Y32497D02*
Y20000D01*
Y32497D02*
X647926D01*
X649711Y31902D01*
X650306Y31307D01*
X650901Y30117D01*
Y28927D01*
X650306Y27736D01*
X649711Y27141D01*
X647926Y26546D01*
X642570D01*
X646735D02*
X650901Y20000D01*
X656674Y28331D02*
X655483Y27736D01*
X654293Y26546D01*
X653698Y24761D01*
Y23571D01*
X654293Y21785D01*
X655483Y20595D01*
X656674Y20000D01*
X658459D01*
X659649Y20595D01*
X660839Y21785D01*
X661435Y23571D01*
Y24761D01*
X660839Y26546D01*
X659649Y27736D01*
X658459Y28331D01*
X656674D01*
X664172D02*
Y22380D01*
X664767Y20595D01*
X665957Y20000D01*
X667743D01*
X668933Y20595D01*
X670718Y22380D01*
Y28331D02*
Y20000D01*
X673991Y28331D02*
Y20000D01*
Y25951D02*
X675777Y27736D01*
X676967Y28331D01*
X678752D01*
X679943Y27736D01*
X680538Y25951D01*
Y20000D01*
X690952Y32497D02*
Y20000D01*
Y26546D02*
X689762Y27736D01*
X688572Y28331D01*
X686786D01*
X685596Y27736D01*
X684406Y26546D01*
X683811Y24761D01*
Y23571D01*
X684406Y21785D01*
X685596Y20595D01*
X686786Y20000D01*
X688572D01*
X689762Y20595D01*
X690952Y21785D01*
X238709Y4522D02*
Y5117D01*
X239304Y6307D01*
X239899Y6902D01*
X241089Y7497D01*
X243470D01*
X244660Y6902D01*
X245255Y6307D01*
X245850Y5117D01*
Y3927D01*
X245255Y2736D01*
X244065Y951D01*
X238114Y-5000D01*
X246445D01*
X356959Y4522D02*
Y5117D01*
X357555Y6307D01*
X358150Y6902D01*
X359340Y7497D01*
X361720D01*
X362911Y6902D01*
X363506Y6307D01*
X364101Y5117D01*
Y3927D01*
X363506Y2736D01*
X362315Y951D01*
X356364Y-5000D01*
X364696D01*
X368088Y-3810D02*
X367493Y-4405D01*
X368088Y-5000D01*
X368683Y-4405D01*
X368088Y-3810D01*
X372016Y4522D02*
Y5117D01*
X372611Y6307D01*
X373206Y6902D01*
X374396Y7497D01*
X376777D01*
X377967Y6902D01*
X378562Y6307D01*
X379157Y5117D01*
Y3927D01*
X378562Y2736D01*
X377372Y951D01*
X371421Y-5000D01*
X379752D01*
X382549Y3331D02*
Y-5000D01*
Y951D02*
X384335Y2736D01*
X385525Y3331D01*
X387310D01*
X388500Y2736D01*
X389095Y951D01*
Y-5000D01*
Y951D02*
X390881Y2736D01*
X392071Y3331D01*
X393856D01*
X395047Y2736D01*
X395642Y951D01*
Y-5000D01*
X399569Y3331D02*
Y-5000D01*
Y951D02*
X401355Y2736D01*
X402545Y3331D01*
X404330D01*
X405521Y2736D01*
X406116Y951D01*
Y-5000D01*
Y951D02*
X407901Y2736D01*
X409091Y3331D01*
X410877D01*
X412067Y2736D01*
X412662Y951D01*
Y-5000D01*
X430575Y9878D02*
X429384Y8687D01*
X428194Y6902D01*
X427004Y4522D01*
X426409Y1546D01*
Y-834D01*
X427004Y-3810D01*
X428194Y-6190D01*
X429384Y-7976D01*
X430575Y-9166D01*
X429384Y8687D02*
X428194Y6307D01*
X427599Y4522D01*
X427004Y1546D01*
Y-834D01*
X427599Y-3810D01*
X428194Y-5595D01*
X429384Y-7976D01*
X435931Y7497D02*
X434145Y6902D01*
X433550Y5712D01*
Y4522D01*
X434145Y3331D01*
X435336Y2736D01*
X437716Y2141D01*
X439501Y1546D01*
X440692Y356D01*
X441287Y-834D01*
Y-2620D01*
X440692Y-3810D01*
X440097Y-4405D01*
X438311Y-5000D01*
X435931D01*
X434145Y-4405D01*
X433550Y-3810D01*
X432955Y-2620D01*
Y-834D01*
X433550Y356D01*
X434740Y1546D01*
X436526Y2141D01*
X438906Y2736D01*
X440097Y3331D01*
X440692Y4522D01*
Y5712D01*
X440097Y6902D01*
X438311Y7497D01*
X435931D01*
X451225Y5712D02*
X450630Y6902D01*
X448845Y7497D01*
X447654D01*
X445869Y6902D01*
X444679Y5117D01*
X444084Y2141D01*
Y-834D01*
X444679Y-3215D01*
X445869Y-4405D01*
X447654Y-5000D01*
X448250D01*
X450035Y-4405D01*
X451225Y-3215D01*
X451820Y-1429D01*
Y-834D01*
X451225Y951D01*
X450035Y2141D01*
X448250Y2736D01*
X447654D01*
X445869Y2141D01*
X444679Y951D01*
X444084Y-834D01*
X455153Y-3810D02*
X454558Y-4405D01*
X455153Y-5000D01*
X455748Y-4405D01*
X455153Y-3810D01*
X465627Y5712D02*
X465032Y6902D01*
X463246Y7497D01*
X462056D01*
X460271Y6902D01*
X459081Y5117D01*
X458485Y2141D01*
Y-834D01*
X459081Y-3215D01*
X460271Y-4405D01*
X462056Y-5000D01*
X462651D01*
X464436Y-4405D01*
X465627Y-3215D01*
X466222Y-1429D01*
Y-834D01*
X465627Y951D01*
X464436Y2141D01*
X462651Y2736D01*
X462056D01*
X460271Y2141D01*
X459081Y951D01*
X458485Y-834D01*
X468959Y5117D02*
X470150Y5712D01*
X471935Y7497D01*
Y-5000D01*
X484075Y7497D02*
X478124Y-834D01*
X487051D01*
X484075Y7497D02*
Y-5000D01*
X489253Y3331D02*
Y-5000D01*
Y951D02*
X491038Y2736D01*
X492228Y3331D01*
X494013D01*
X495204Y2736D01*
X495799Y951D01*
Y-5000D01*
Y951D02*
X497584Y2736D01*
X498774Y3331D01*
X500560D01*
X501750Y2736D01*
X502345Y951D01*
Y-5000D01*
X507463Y7497D02*
X508058Y6902D01*
X508653Y7497D01*
X508058Y8092D01*
X507463Y7497D01*
X508058Y3331D02*
Y-5000D01*
X510855Y7497D02*
Y-5000D01*
X513474Y9878D02*
X514664Y8687D01*
X515854Y6902D01*
X517044Y4522D01*
X517639Y1546D01*
Y-834D01*
X517044Y-3810D01*
X515854Y-6190D01*
X514664Y-7976D01*
X513474Y-9166D01*
X514664Y8687D02*
X515854Y6307D01*
X516449Y4522D01*
X517044Y1546D01*
Y-834D01*
X516449Y-3810D01*
X515854Y-5595D01*
X514664Y-7976D01*
X563096Y951D02*
X568452D01*
X570238Y1546D01*
X570833Y2141D01*
X571428Y3331D01*
Y5117D01*
X570833Y6307D01*
X570238Y6902D01*
X568452Y7497D01*
X563096D01*
Y-5000D01*
X578391Y7497D02*
Y-5000D01*
X574225Y7497D02*
X582556D01*
X584044D02*
Y-5000D01*
X592376Y7497D02*
Y-5000D01*
X584044Y1546D02*
X592376D01*
X642570Y7497D02*
Y-5000D01*
Y7497D02*
X647926D01*
X649711Y6902D01*
X650306Y6307D01*
X650901Y5117D01*
Y3927D01*
X650306Y2736D01*
X649711Y2141D01*
X647926Y1546D01*
X642570D01*
X646735D02*
X650901Y-5000D01*
X656674Y3331D02*
X655483Y2736D01*
X654293Y1546D01*
X653698Y-239D01*
Y-1429D01*
X654293Y-3215D01*
X655483Y-4405D01*
X656674Y-5000D01*
X658459D01*
X659649Y-4405D01*
X660839Y-3215D01*
X661435Y-1429D01*
Y-239D01*
X660839Y1546D01*
X659649Y2736D01*
X658459Y3331D01*
X656674D01*
X664172D02*
Y-2620D01*
X664767Y-4405D01*
X665957Y-5000D01*
X667743D01*
X668933Y-4405D01*
X670718Y-2620D01*
Y3331D02*
Y-5000D01*
X673991Y3331D02*
Y-5000D01*
Y951D02*
X675777Y2736D01*
X676967Y3331D01*
X678752D01*
X679943Y2736D01*
X680538Y951D01*
Y-5000D01*
X690952Y7497D02*
Y-5000D01*
Y1546D02*
X689762Y2736D01*
X688572Y3331D01*
X686786D01*
X685596Y2736D01*
X684406Y1546D01*
X683811Y-239D01*
Y-1429D01*
X684406Y-3215D01*
X685596Y-4405D01*
X686786Y-5000D01*
X688572D01*
X689762Y-4405D01*
X690952Y-3215D01*
X244065Y-17503D02*
X238114Y-25834D01*
X247040D01*
X244065Y-17503D02*
Y-30000D01*
X357555Y-17503D02*
X364101D01*
X360530Y-22264D01*
X362315D01*
X363506Y-22859D01*
X364101Y-23454D01*
X364696Y-25239D01*
Y-26429D01*
X364101Y-28215D01*
X362911Y-29405D01*
X361125Y-30000D01*
X359340D01*
X357555Y-29405D01*
X356959Y-28810D01*
X356364Y-27620D01*
X368088Y-28810D02*
X367493Y-29405D01*
X368088Y-30000D01*
X368683Y-29405D01*
X368088Y-28810D01*
X372016Y-20478D02*
Y-19883D01*
X372611Y-18693D01*
X373206Y-18098D01*
X374396Y-17503D01*
X376777D01*
X377967Y-18098D01*
X378562Y-18693D01*
X379157Y-19883D01*
Y-21073D01*
X378562Y-22264D01*
X377372Y-24049D01*
X371421Y-30000D01*
X379752D01*
X382549Y-21669D02*
Y-30000D01*
Y-24049D02*
X384335Y-22264D01*
X385525Y-21669D01*
X387310D01*
X388500Y-22264D01*
X389095Y-24049D01*
Y-30000D01*
Y-24049D02*
X390881Y-22264D01*
X392071Y-21669D01*
X393856D01*
X395047Y-22264D01*
X395642Y-24049D01*
Y-30000D01*
X399569Y-21669D02*
Y-30000D01*
Y-24049D02*
X401355Y-22264D01*
X402545Y-21669D01*
X404330D01*
X405521Y-22264D01*
X406116Y-24049D01*
Y-30000D01*
Y-24049D02*
X407901Y-22264D01*
X409091Y-21669D01*
X410877D01*
X412067Y-22264D01*
X412662Y-24049D01*
Y-30000D01*
X430575Y-15122D02*
X429384Y-16313D01*
X428194Y-18098D01*
X427004Y-20478D01*
X426409Y-23454D01*
Y-25834D01*
X427004Y-28810D01*
X428194Y-31190D01*
X429384Y-32976D01*
X430575Y-34166D01*
X429384Y-16313D02*
X428194Y-18693D01*
X427599Y-20478D01*
X427004Y-23454D01*
Y-25834D01*
X427599Y-28810D01*
X428194Y-30595D01*
X429384Y-32976D01*
X432955Y-19883D02*
X434145Y-19288D01*
X435931Y-17503D01*
Y-30000D01*
X442715Y-20478D02*
Y-19883D01*
X443310Y-18693D01*
X443905Y-18098D01*
X445095Y-17503D01*
X447476D01*
X448666Y-18098D01*
X449261Y-18693D01*
X449856Y-19883D01*
Y-21073D01*
X449261Y-22264D01*
X448071Y-24049D01*
X442120Y-30000D01*
X450451D01*
X460390Y-17503D02*
X454439D01*
X453843Y-22859D01*
X454439Y-22264D01*
X456224Y-21669D01*
X458009D01*
X459795Y-22264D01*
X460985Y-23454D01*
X461580Y-25239D01*
Y-26429D01*
X460985Y-28215D01*
X459795Y-29405D01*
X458009Y-30000D01*
X456224D01*
X454439Y-29405D01*
X453843Y-28810D01*
X453248Y-27620D01*
X464972Y-28810D02*
X464377Y-29405D01*
X464972Y-30000D01*
X465567Y-29405D01*
X464972Y-28810D01*
X476041Y-21669D02*
X475446Y-23454D01*
X474256Y-24644D01*
X472471Y-25239D01*
X471875D01*
X470090Y-24644D01*
X468900Y-23454D01*
X468305Y-21669D01*
Y-21073D01*
X468900Y-19288D01*
X470090Y-18098D01*
X471875Y-17503D01*
X472471D01*
X474256Y-18098D01*
X475446Y-19288D01*
X476041Y-21669D01*
Y-24644D01*
X475446Y-27620D01*
X474256Y-29405D01*
X472471Y-30000D01*
X471280D01*
X469495Y-29405D01*
X468900Y-28215D01*
X482409Y-17503D02*
X480624Y-18098D01*
X480028Y-19288D01*
Y-20478D01*
X480624Y-21669D01*
X481814Y-22264D01*
X484194Y-22859D01*
X485979Y-23454D01*
X487170Y-24644D01*
X487765Y-25834D01*
Y-27620D01*
X487170Y-28810D01*
X486575Y-29405D01*
X484789Y-30000D01*
X482409D01*
X480624Y-29405D01*
X480028Y-28810D01*
X479433Y-27620D01*
Y-25834D01*
X480028Y-24644D01*
X481219Y-23454D01*
X483004Y-22859D01*
X485384Y-22264D01*
X486575Y-21669D01*
X487170Y-20478D01*
Y-19288D01*
X486575Y-18098D01*
X484789Y-17503D01*
X482409D01*
X496513D02*
X490562Y-25834D01*
X499488D01*
X496513Y-17503D02*
Y-30000D01*
X501690Y-21669D02*
Y-30000D01*
Y-24049D02*
X503476Y-22264D01*
X504666Y-21669D01*
X506451D01*
X507642Y-22264D01*
X508237Y-24049D01*
Y-30000D01*
Y-24049D02*
X510022Y-22264D01*
X511212Y-21669D01*
X512998D01*
X514188Y-22264D01*
X514783Y-24049D01*
Y-30000D01*
X519901Y-17503D02*
X520496Y-18098D01*
X521091Y-17503D01*
X520496Y-16908D01*
X519901Y-17503D01*
X520496Y-21669D02*
Y-30000D01*
X523293Y-17503D02*
Y-30000D01*
X525911Y-15122D02*
X527102Y-16313D01*
X528292Y-18098D01*
X529482Y-20478D01*
X530077Y-23454D01*
Y-25834D01*
X529482Y-28810D01*
X528292Y-31190D01*
X527102Y-32976D01*
X525911Y-34166D01*
X527102Y-16313D02*
X528292Y-18693D01*
X528887Y-20478D01*
X529482Y-23454D01*
Y-25834D01*
X528887Y-28810D01*
X528292Y-30595D01*
X527102Y-32976D01*
X563096Y-17503D02*
Y-30000D01*
Y-17503D02*
X571428Y-30000D01*
Y-17503D02*
Y-30000D01*
X574879Y-24049D02*
X580235D01*
X582021Y-23454D01*
X582616Y-22859D01*
X583211Y-21669D01*
Y-19883D01*
X582616Y-18693D01*
X582021Y-18098D01*
X580235Y-17503D01*
X574879D01*
Y-30000D01*
X590174Y-17503D02*
Y-30000D01*
X586008Y-17503D02*
X594339D01*
X595827D02*
Y-30000D01*
X604159Y-17503D02*
Y-30000D01*
X595827Y-23454D02*
X604159D01*
X642570Y-17503D02*
Y-30000D01*
Y-17503D02*
X647926D01*
X649711Y-18098D01*
X650306Y-18693D01*
X650901Y-19883D01*
Y-21073D01*
X650306Y-22264D01*
X649711Y-22859D01*
X647926Y-23454D01*
X642570D01*
X646735D02*
X650901Y-30000D01*
X656674Y-21669D02*
X655483Y-22264D01*
X654293Y-23454D01*
X653698Y-25239D01*
Y-26429D01*
X654293Y-28215D01*
X655483Y-29405D01*
X656674Y-30000D01*
X658459D01*
X659649Y-29405D01*
X660839Y-28215D01*
X661435Y-26429D01*
Y-25239D01*
X660839Y-23454D01*
X659649Y-22264D01*
X658459Y-21669D01*
X656674D01*
X664172D02*
Y-27620D01*
X664767Y-29405D01*
X665957Y-30000D01*
X667743D01*
X668933Y-29405D01*
X670718Y-27620D01*
Y-21669D02*
Y-30000D01*
X673991Y-21669D02*
Y-30000D01*
Y-24049D02*
X675777Y-22264D01*
X676967Y-21669D01*
X678752D01*
X679943Y-22264D01*
X680538Y-24049D01*
Y-30000D01*
X690952Y-17503D02*
Y-30000D01*
Y-23454D02*
X689762Y-22264D01*
X688572Y-21669D01*
X686786D01*
X685596Y-22264D01*
X684406Y-23454D01*
X683811Y-25239D01*
Y-26429D01*
X684406Y-28215D01*
X685596Y-29405D01*
X686786Y-30000D01*
X688572D01*
X689762Y-29405D01*
X690952Y-28215D01*
X238709Y-45478D02*
Y-44883D01*
X239304Y-43693D01*
X239899Y-43098D01*
X241089Y-42503D01*
X243470D01*
X244660Y-43098D01*
X245255Y-43693D01*
X245850Y-44883D01*
Y-46073D01*
X245255Y-47264D01*
X244065Y-49049D01*
X238114Y-55000D01*
X246445D01*
X357555Y-42503D02*
X364101D01*
X360530Y-47264D01*
X362315D01*
X363506Y-47859D01*
X364101Y-48454D01*
X364696Y-50239D01*
Y-51429D01*
X364101Y-53215D01*
X362911Y-54405D01*
X361125Y-55000D01*
X359340D01*
X357555Y-54405D01*
X356959Y-53810D01*
X356364Y-52620D01*
X368088Y-53810D02*
X367493Y-54405D01*
X368088Y-55000D01*
X368683Y-54405D01*
X368088Y-53810D01*
X372016Y-45478D02*
Y-44883D01*
X372611Y-43693D01*
X373206Y-43098D01*
X374396Y-42503D01*
X376777D01*
X377967Y-43098D01*
X378562Y-43693D01*
X379157Y-44883D01*
Y-46073D01*
X378562Y-47264D01*
X377372Y-49049D01*
X371421Y-55000D01*
X379752D01*
X390881Y-42503D02*
X384930Y-55000D01*
X382549Y-42503D02*
X390881D01*
X393678Y-46669D02*
Y-55000D01*
Y-49049D02*
X395463Y-47264D01*
X396653Y-46669D01*
X398439D01*
X399629Y-47264D01*
X400224Y-49049D01*
Y-55000D01*
Y-49049D02*
X402009Y-47264D01*
X403200Y-46669D01*
X404985D01*
X406175Y-47264D01*
X406770Y-49049D01*
Y-55000D01*
X410698Y-46669D02*
Y-55000D01*
Y-49049D02*
X412483Y-47264D01*
X413674Y-46669D01*
X415459D01*
X416649Y-47264D01*
X417244Y-49049D01*
Y-55000D01*
Y-49049D02*
X419030Y-47264D01*
X420220Y-46669D01*
X422005D01*
X423195Y-47264D01*
X423790Y-49049D01*
Y-55000D01*
X441703Y-40122D02*
X440513Y-41312D01*
X439323Y-43098D01*
X438133Y-45478D01*
X437537Y-48454D01*
Y-50834D01*
X438133Y-53810D01*
X439323Y-56190D01*
X440513Y-57976D01*
X441703Y-59166D01*
X440513Y-41312D02*
X439323Y-43693D01*
X438728Y-45478D01*
X438133Y-48454D01*
Y-50834D01*
X438728Y-53810D01*
X439323Y-55595D01*
X440513Y-57976D01*
X444084Y-44883D02*
X445274Y-44288D01*
X447059Y-42503D01*
Y-55000D01*
X453843Y-45478D02*
Y-44883D01*
X454439Y-43693D01*
X455034Y-43098D01*
X456224Y-42503D01*
X458604D01*
X459795Y-43098D01*
X460390Y-43693D01*
X460985Y-44883D01*
Y-46073D01*
X460390Y-47264D01*
X459199Y-49049D01*
X453248Y-55000D01*
X461580D01*
X467353Y-42503D02*
X465567Y-43098D01*
X464972Y-44288D01*
Y-45478D01*
X465567Y-46669D01*
X466757Y-47264D01*
X469138Y-47859D01*
X470923Y-48454D01*
X472113Y-49644D01*
X472709Y-50834D01*
Y-52620D01*
X472113Y-53810D01*
X471518Y-54405D01*
X469733Y-55000D01*
X467353D01*
X465567Y-54405D01*
X464972Y-53810D01*
X464377Y-52620D01*
Y-50834D01*
X464972Y-49644D01*
X466162Y-48454D01*
X467948Y-47859D01*
X470328Y-47264D01*
X471518Y-46669D01*
X472113Y-45478D01*
Y-44288D01*
X471518Y-43098D01*
X469733Y-42503D01*
X467353D01*
X476101Y-53810D02*
X475506Y-54405D01*
X476101Y-55000D01*
X476696Y-54405D01*
X476101Y-53810D01*
X487765Y-42503D02*
X481814Y-55000D01*
X479433Y-42503D02*
X487765D01*
X496513D02*
X490562Y-50834D01*
X499488D01*
X496513Y-42503D02*
Y-55000D01*
X501690Y-46669D02*
Y-55000D01*
Y-49049D02*
X503476Y-47264D01*
X504666Y-46669D01*
X506451D01*
X507642Y-47264D01*
X508237Y-49049D01*
Y-55000D01*
Y-49049D02*
X510022Y-47264D01*
X511212Y-46669D01*
X512998D01*
X514188Y-47264D01*
X514783Y-49049D01*
Y-55000D01*
X519901Y-42503D02*
X520496Y-43098D01*
X521091Y-42503D01*
X520496Y-41908D01*
X519901Y-42503D01*
X520496Y-46669D02*
Y-55000D01*
X523293Y-42503D02*
Y-55000D01*
X525911Y-40122D02*
X527102Y-41312D01*
X528292Y-43098D01*
X529482Y-45478D01*
X530077Y-48454D01*
Y-50834D01*
X529482Y-53810D01*
X528292Y-56190D01*
X527102Y-57976D01*
X525911Y-59166D01*
X527102Y-41312D02*
X528292Y-43693D01*
X528887Y-45478D01*
X529482Y-48454D01*
Y-50834D01*
X528887Y-53810D01*
X528292Y-55595D01*
X527102Y-57976D01*
X563096Y-42503D02*
Y-55000D01*
Y-42503D02*
X571428Y-55000D01*
Y-42503D02*
Y-55000D01*
X574879Y-49049D02*
X580235D01*
X582021Y-48454D01*
X582616Y-47859D01*
X583211Y-46669D01*
Y-44883D01*
X582616Y-43693D01*
X582021Y-43098D01*
X580235Y-42503D01*
X574879D01*
Y-55000D01*
X590174Y-42503D02*
Y-55000D01*
X586008Y-42503D02*
X594339D01*
X595827D02*
Y-55000D01*
X604159Y-42503D02*
Y-55000D01*
X595827Y-48454D02*
X604159D01*
X642570Y-42503D02*
Y-55000D01*
Y-42503D02*
X647926D01*
X649711Y-43098D01*
X650306Y-43693D01*
X650901Y-44883D01*
Y-46073D01*
X650306Y-47264D01*
X649711Y-47859D01*
X647926Y-48454D01*
X642570D01*
X646735D02*
X650901Y-55000D01*
X656674Y-46669D02*
X655483Y-47264D01*
X654293Y-48454D01*
X653698Y-50239D01*
Y-51429D01*
X654293Y-53215D01*
X655483Y-54405D01*
X656674Y-55000D01*
X658459D01*
X659649Y-54405D01*
X660839Y-53215D01*
X661435Y-51429D01*
Y-50239D01*
X660839Y-48454D01*
X659649Y-47264D01*
X658459Y-46669D01*
X656674D01*
X664172D02*
Y-52620D01*
X664767Y-54405D01*
X665957Y-55000D01*
X667743D01*
X668933Y-54405D01*
X670718Y-52620D01*
Y-46669D02*
Y-55000D01*
X673991Y-46669D02*
Y-55000D01*
Y-49049D02*
X675777Y-47264D01*
X676967Y-46669D01*
X678752D01*
X679943Y-47264D01*
X680538Y-49049D01*
Y-55000D01*
X690952Y-42503D02*
Y-55000D01*
Y-48454D02*
X689762Y-47264D01*
X688572Y-46669D01*
X686786D01*
X685596Y-47264D01*
X684406Y-48454D01*
X683811Y-50239D01*
Y-51429D01*
X684406Y-53215D01*
X685596Y-54405D01*
X686786Y-55000D01*
X688572D01*
X689762Y-54405D01*
X690952Y-53215D01*
X244065Y-67503D02*
X238114Y-75834D01*
X247040D01*
X244065Y-67503D02*
Y-80000D01*
X257574Y-67503D02*
X251623Y-80000D01*
X249242Y-67503D02*
X257574D01*
X267512Y-69288D02*
X266917Y-68098D01*
X265132Y-67503D01*
X263941D01*
X262156Y-68098D01*
X260966Y-69883D01*
X260371Y-72859D01*
Y-75834D01*
X260966Y-78215D01*
X262156Y-79405D01*
X263941Y-80000D01*
X264536D01*
X266322Y-79405D01*
X267512Y-78215D01*
X268107Y-76429D01*
Y-75834D01*
X267512Y-74049D01*
X266322Y-72859D01*
X264536Y-72264D01*
X263941D01*
X262156Y-72859D01*
X260966Y-74049D01*
X260371Y-75834D01*
X292673Y-67503D02*
Y-80000D01*
X288507Y-67503D02*
X296839D01*
X301302Y-71669D02*
X300112Y-72264D01*
X298922Y-73454D01*
X298326Y-75239D01*
Y-76429D01*
X298922Y-78215D01*
X300112Y-79405D01*
X301302Y-80000D01*
X303087D01*
X304277Y-79405D01*
X305468Y-78215D01*
X306063Y-76429D01*
Y-75239D01*
X305468Y-73454D01*
X304277Y-72264D01*
X303087Y-71669D01*
X301302D01*
X310586Y-67503D02*
Y-77620D01*
X311181Y-79405D01*
X312371Y-80000D01*
X313561D01*
X308800Y-71669D02*
X312966D01*
X322488D02*
Y-80000D01*
Y-73454D02*
X321298Y-72264D01*
X320107Y-71669D01*
X318322D01*
X317132Y-72264D01*
X315942Y-73454D01*
X315347Y-75239D01*
Y-76429D01*
X315942Y-78215D01*
X317132Y-79405D01*
X318322Y-80000D01*
X320107D01*
X321298Y-79405D01*
X322488Y-78215D01*
X325821Y-67503D02*
Y-80000D01*
D113*
X-973780Y-12080D02*
Y-1920D01*
X-963620D01*
Y-12080D01*
X-973780D01*
Y-37080D02*
Y-26920D01*
X-963620D01*
Y-37080D01*
X-973780D01*
X-993780D02*
Y-26920D01*
X-983620D01*
Y-37080D01*
X-993780D01*
Y-12080D02*
Y-1920D01*
X-983620D01*
Y-12080D01*
X-993780D01*
X-470000Y277220D02*
X-475080Y287380D01*
X-464920D01*
X-470000Y277220D01*
Y302620D02*
X-475080Y312780D01*
X-464920D01*
X-470000Y302620D01*
X-1023250Y-201580D02*
X-1020710Y-199040D01*
X-1018170D01*
X-1020710Y-196500D01*
X-1018170Y-193960D01*
X-1020710D01*
X-1023250Y-191420D01*
X-1025790Y-193960D01*
X-1028330D01*
X-1025790Y-196500D01*
X-1028330Y-199040D01*
X-1025790D01*
X-1023250Y-201580D01*
X-1073330D02*
X-1070790Y-196500D01*
X-1073330Y-191420D01*
X-1068250Y-193960D01*
X-1063170Y-191420D01*
X-1065710Y-196500D01*
X-1063170Y-201580D01*
X-1068250Y-199040D01*
X-1073330Y-201580D01*
X-1067290Y223460D02*
Y220920D01*
X-1062210D01*
Y223460D01*
X-1059670D01*
Y228540D01*
X-1062210D01*
Y231080D01*
X-1067290D01*
Y228540D01*
X-1069830D01*
Y223460D01*
X-1067290D01*
Y96460D02*
Y93920D01*
X-1062210D01*
Y96460D01*
X-1059670D01*
Y101540D01*
X-1062210D01*
Y104080D01*
X-1067290D01*
Y101540D01*
X-1069830D01*
Y96460D01*
X-1067290D01*
X-777880Y277420D02*
X-775340D01*
X-772800Y279960D01*
X-770260Y277420D01*
X-767720D01*
Y279960D01*
X-770260Y282500D01*
X-767720Y285040D01*
Y287580D01*
X-770260D01*
X-772800Y285040D01*
X-775340Y287580D01*
X-777880D01*
Y285040D01*
X-775340Y282500D01*
X-777880Y279960D01*
Y277420D01*
Y-287580D02*
X-775340D01*
X-772800Y-285040D01*
X-770260Y-287580D01*
X-767720D01*
Y-285040D01*
X-770260Y-282500D01*
X-767720Y-279960D01*
Y-277420D01*
X-770260D01*
X-772800Y-279960D01*
X-775340Y-277420D01*
X-777880D01*
Y-279960D01*
X-775340Y-282500D01*
X-777880Y-285040D01*
Y-287580D01*
X-277880Y277420D02*
X-275340D01*
X-272800Y279960D01*
X-270260Y277420D01*
X-267720D01*
Y279960D01*
X-270260Y282500D01*
X-267720Y285040D01*
Y287580D01*
X-270260D01*
X-272800Y285040D01*
X-275340Y287580D01*
X-277880D01*
Y285040D01*
X-275340Y282500D01*
X-277880Y279960D01*
Y277420D01*
Y-287580D02*
X-275340D01*
X-272800Y-285040D01*
X-270260Y-287580D01*
X-267720D01*
Y-285040D01*
X-270260Y-282500D01*
X-267720Y-279960D01*
Y-277420D01*
X-270260D01*
X-272800Y-279960D01*
X-275340Y-277420D01*
X-277880D01*
Y-279960D01*
X-275340Y-282500D01*
X-277880Y-285040D01*
Y-287580D01*
X-102700Y-249380D02*
X-107780Y-239220D01*
X-97620D01*
X-102700Y-249380D01*
Y-223980D02*
X-107780Y-213820D01*
X-97620D01*
X-102700Y-223980D01*
Y-198580D02*
X-107780Y-188420D01*
X-97620D01*
X-102700Y-198580D01*
Y-173180D02*
X-107780Y-163020D01*
X-97620D01*
X-102700Y-173180D01*
Y-147780D02*
X-107780Y-137620D01*
X-97620D01*
X-102700Y-147780D01*
X-77300Y-249380D02*
X-82380Y-239220D01*
X-72220D01*
X-77300Y-249380D01*
Y-223980D02*
X-82380Y-213820D01*
X-72220D01*
X-77300Y-223980D01*
Y-147780D02*
X-82380Y-137620D01*
X-72220D01*
X-77300Y-147780D01*
Y-173180D02*
X-82380Y-163020D01*
X-72220D01*
X-77300Y-173180D01*
Y-198580D02*
X-82380Y-188420D01*
X-72220D01*
X-77300Y-198580D01*
Y-71580D02*
X-82380Y-61420D01*
X-72220D01*
X-77300Y-71580D01*
Y-46180D02*
X-82380Y-36020D01*
X-72220D01*
X-77300Y-46180D01*
Y-20780D02*
X-82380Y-10620D01*
X-72220D01*
X-77300Y-20780D01*
Y-96980D02*
X-82380Y-86820D01*
X-72220D01*
X-77300Y-96980D01*
Y-122380D02*
X-82380Y-112220D01*
X-72220D01*
X-77300Y-122380D01*
X-102700Y-20780D02*
X-107780Y-10620D01*
X-97620D01*
X-102700Y-20780D01*
Y-46180D02*
X-107780Y-36020D01*
X-97620D01*
X-102700Y-46180D01*
Y-71580D02*
X-107780Y-61420D01*
X-97620D01*
X-102700Y-71580D01*
Y-96980D02*
X-107780Y-86820D01*
X-97620D01*
X-102700Y-96980D01*
Y-122380D02*
X-107780Y-112220D01*
X-97620D01*
X-102700Y-122380D01*
X-22580Y71500D02*
X-17500Y76580D01*
X-12420Y71500D01*
X-17500Y66420D01*
X-22580Y71500D01*
Y268500D02*
X-17500Y273580D01*
X-12420Y268500D01*
X-17500Y263420D01*
X-22580Y268500D01*
X-315200Y277220D02*
X-320280Y287380D01*
X-310120D01*
X-315200Y277220D01*
X-340600D02*
X-345680Y287380D01*
X-335520D01*
X-340600Y277220D01*
X-366000D02*
X-371080Y287380D01*
X-360920D01*
X-366000Y277220D01*
X-391400D02*
X-396480Y287380D01*
X-386320D01*
X-391400Y277220D01*
X-416800D02*
X-421880Y287380D01*
X-411720D01*
X-416800Y277220D01*
X-315200Y302620D02*
X-320280Y312780D01*
X-310120D01*
X-315200Y302620D01*
X-340600D02*
X-345680Y312780D01*
X-335520D01*
X-340600Y302620D01*
X-416800D02*
X-421880Y312780D01*
X-411720D01*
X-416800Y302620D01*
X-391400D02*
X-396480Y312780D01*
X-386320D01*
X-391400Y302620D01*
X-366000D02*
X-371080Y312780D01*
X-360920D01*
X-366000Y302620D01*
X-651650Y302420D02*
X-656730Y312580D01*
X-646570D01*
X-651650Y302420D01*
X-677050D02*
X-682130Y312580D01*
X-671970D01*
X-677050Y302420D01*
X-626250D02*
X-631330Y312580D01*
X-621170D01*
X-626250Y302420D01*
X-600850D02*
X-605930Y312580D01*
X-595770D01*
X-600850Y302420D01*
X-575450D02*
X-580530Y312580D01*
X-570370D01*
X-575450Y302420D01*
X-906980Y-126230D02*
Y-116070D01*
X-896820D01*
Y-126230D01*
X-906980D01*
X-904948Y-124198D02*
Y-118102D01*
X-898852D01*
Y-124198D01*
X-904948D01*
X-869180Y-88430D02*
Y-78270D01*
X-859020D01*
Y-88430D01*
X-869180D01*
X-867148Y-86398D02*
Y-80302D01*
X-861052D01*
Y-86398D01*
X-867148D01*
X-565980Y-35980D02*
Y-25820D01*
X-555820D01*
Y-35980D01*
X-565980D01*
X-563948Y-33948D02*
Y-27852D01*
X-557852D01*
Y-33948D01*
X-563948D01*
X-528180Y1820D02*
Y11980D01*
X-518020D01*
Y1820D01*
X-528180D01*
X-526148Y3852D02*
Y9948D01*
X-520052D01*
Y3852D01*
X-526148D01*
X-510980Y-35980D02*
Y-25820D01*
X-500820D01*
Y-35980D01*
X-510980D01*
X-508948Y-33948D02*
Y-27852D01*
X-502852D01*
Y-33948D01*
X-508948D01*
X-473180Y1820D02*
Y11980D01*
X-463020D01*
Y1820D01*
X-473180D01*
X-471148Y3852D02*
Y9948D01*
X-465052D01*
Y3852D01*
X-471148D01*
X-436300Y-316080D02*
X-441380Y-305920D01*
X-431220D01*
X-436300Y-316080D01*
X-461700D02*
X-466780Y-305920D01*
X-456620D01*
X-461700Y-316080D01*
X-902000Y-244080D02*
X-907080Y-233920D01*
X-896920D01*
X-902000Y-244080D01*
Y-242048D02*
X-905048Y-235952D01*
X-898952D01*
X-902000Y-242048D01*
X146000Y171678D02*
Y180822D01*
X155144D01*
Y171678D01*
X146000D01*
X150572Y146678D02*
X146000Y155822D01*
X155144D01*
X150572Y146678D01*
X146000Y121678D02*
Y130822D01*
X155144D01*
Y121678D01*
X146000D01*
X148032Y123710D02*
Y128790D01*
X153112D01*
Y123710D01*
X148032D01*
X146000Y101250D02*
X150572Y105822D01*
X155144Y101250D01*
X150572Y96678D01*
X146000Y101250D01*
X150572Y71678D02*
X146000Y80822D01*
X155144D01*
X150572Y71678D01*
Y73710D02*
X148032Y78790D01*
X153112D01*
X150572Y73710D01*
X146000Y46678D02*
X148286Y51250D01*
X146000Y55822D01*
X150572Y53536D01*
X155144Y55822D01*
X152858Y51250D01*
X155144Y46678D01*
X150572Y48964D01*
X146000Y46678D01*
X150572Y21678D02*
X152858Y23964D01*
X155144D01*
X152858Y26250D01*
X155144Y28536D01*
X152858D01*
X150572Y30822D01*
X148286Y28536D01*
X146000D01*
X148286Y26250D01*
X146000Y23964D01*
X148286D01*
X150572Y21678D01*
X146000Y-28322D02*
X148286D01*
X150572Y-26036D01*
X152858Y-28322D01*
X155144D01*
Y-26036D01*
X152858Y-23750D01*
X155144Y-21464D01*
Y-19178D01*
X152858D01*
X150572Y-21464D01*
X148286Y-19178D01*
X146000D01*
Y-21464D01*
X148286Y-23750D01*
X146000Y-26036D01*
Y-28322D01*
X148286Y-51036D02*
Y-53322D01*
X152858D01*
Y-51036D01*
X155144D01*
Y-46464D01*
X152858D01*
Y-44178D01*
X148286D01*
Y-46464D01*
X146000D01*
Y-51036D01*
X148286D01*
D114*
X-1010720Y-79700D02*
G03*
X-1010720Y-79700I-5080J0D01*
G01*
Y40700D02*
G03*
X-1010720Y40700I-5080J0D01*
G01*
X-315920Y-159000D02*
G03*
X-315920Y-159000I-5080J0D01*
G01*
X-400920D02*
G03*
X-400920Y-159000I-5080J0D01*
G01*
X-424920Y-157000D02*
G03*
X-424920Y-157000I-5080J0D01*
G01*
X-373920Y-116000D02*
G03*
X-373920Y-116000I-5080J0D01*
G01*
X-310920Y-94000D02*
G03*
X-310920Y-94000I-5080J0D01*
G01*
X-414920Y-105000D02*
G03*
X-414920Y-105000I-5080J0D01*
G01*
X-432920Y-117000D02*
G03*
X-432920Y-117000I-5080J0D01*
G01*
X-310920Y-211000D02*
G03*
X-310920Y-211000I-5080J0D01*
G01*
X-432920Y-205000D02*
G03*
X-432920Y-205000I-5080J0D01*
G01*
X-246920Y-146000D02*
G03*
X-246920Y-146000I-5080J0D01*
G01*
X-564170Y-332000D02*
G03*
X-564170Y-332000I-5080J0D01*
G01*
X-551947Y228761D02*
G03*
X-551947Y228761I-5080J0D01*
G01*
X-474420Y214000D02*
G03*
X-474420Y214000I-5080J0D01*
G01*
X-521670D02*
G03*
X-521670Y214000I-5080J0D01*
G01*
X-489920D02*
G03*
X-489920Y214000I-5080J0D01*
G01*
X-458920Y231250D02*
G03*
X-458920Y231250I-5080J0D01*
G01*
X-544420Y223250D02*
G03*
X-544420Y223250I-5080J0D01*
G01*
X-432420Y231000D02*
G03*
X-432420Y231000I-5080J0D01*
G01*
X-422670Y217500D02*
G03*
X-422670Y217500I-5080J0D01*
G01*
X-94925Y133006D02*
G03*
X-94925Y133006I-5080J0D01*
G01*
X-737920Y-121500D02*
G03*
X-737920Y-121500I-5080J0D01*
G01*
X-729170D02*
G03*
X-729170Y-121500I-5080J0D01*
G01*
X-598420Y-138500D02*
G03*
X-598420Y-138500I-5080J0D01*
G01*
X-606170Y-130750D02*
G03*
X-606170Y-130750I-5080J0D01*
G01*
X-877920Y-71500D02*
G03*
X-877920Y-71500I-5080J0D01*
G01*
X-813670Y-91750D02*
G03*
X-813670Y-91750I-5080J0D01*
G01*
X-841670Y-84250D02*
G03*
X-841670Y-84250I-5080J0D01*
G01*
X-897670Y-37500D02*
G03*
X-897670Y-37500I-5080J0D01*
G01*
X-660670Y-58750D02*
G03*
X-660670Y-58750I-5080J0D01*
G01*
X-619420Y-74750D02*
G03*
X-619420Y-74750I-5080J0D01*
G01*
X-627420D02*
G03*
X-627420Y-74750I-5080J0D01*
G01*
Y-66750D02*
G03*
X-627420Y-66750I-5080J0D01*
G01*
X-660670D02*
G03*
X-660670Y-66750I-5080J0D01*
G01*
Y-143750D02*
G03*
X-660670Y-143750I-5080J0D01*
G01*
Y-74750D02*
G03*
X-660670Y-74750I-5080J0D01*
G01*
X-732420Y-132750D02*
G03*
X-732420Y-132750I-5080J0D01*
G01*
X-599670Y-84750D02*
G03*
X-599670Y-84750I-5080J0D01*
G01*
X-600795Y19875D02*
G03*
X-600795Y19875I-5080J0D01*
G01*
X-581420Y-61500D02*
G03*
X-581420Y-61500I-5080J0D01*
G01*
X-365197Y221250D02*
G03*
X-365197Y221250I-5080J0D01*
G01*
X-355420Y224875D02*
G03*
X-355420Y224875I-5080J0D01*
G01*
X-340670Y209750D02*
G03*
X-340670Y209750I-5080J0D01*
G01*
X-343670Y237250D02*
G03*
X-343670Y237250I-5080J0D01*
G01*
X-347920Y271500D02*
G03*
X-347920Y271500I-5080J0D01*
G01*
X-316170Y253400D02*
G03*
X-316170Y253400I-5080J0D01*
G01*
X-367420Y256500D02*
G03*
X-367420Y256500I-5080J0D01*
G01*
X-660920Y-329750D02*
G03*
X-660920Y-329750I-5080J0D01*
G01*
X-736670Y-326250D02*
G03*
X-736670Y-326250I-5080J0D01*
G01*
X-817920Y-320000D02*
G03*
X-817920Y-320000I-5080J0D01*
G01*
X-866420Y-315250D02*
G03*
X-866420Y-315250I-5080J0D01*
G01*
X-908420Y-312500D02*
G03*
X-908420Y-312500I-5080J0D01*
G01*
X-964170Y-305250D02*
G03*
X-964170Y-305250I-5080J0D01*
G01*
X-210920Y179000D02*
G03*
X-210920Y179000I-5080J0D01*
G01*
X-209920Y205000D02*
G03*
X-209920Y205000I-5080J0D01*
G01*
X-190920Y186000D02*
G03*
X-190920Y186000I-5080J0D01*
G01*
X-165920Y166000D02*
G03*
X-165920Y166000I-5080J0D01*
G01*
X-728920Y-59000D02*
G03*
X-728920Y-59000I-5080J0D01*
G01*
X-763920Y-69000D02*
G03*
X-763920Y-69000I-5080J0D01*
G01*
X-731920Y-78000D02*
G03*
X-731920Y-78000I-5080J0D01*
G01*
X-581420Y-106750D02*
G03*
X-581420Y-106750I-5080J0D01*
G01*
X-467920Y-110000D02*
G03*
X-467920Y-110000I-5080J0D01*
G01*
X-480920Y-123000D02*
G03*
X-480920Y-123000I-5080J0D01*
G01*
X-452920Y-47000D02*
G03*
X-452920Y-47000I-5080J0D01*
G01*
X-505920Y-48000D02*
G03*
X-505920Y-48000I-5080J0D01*
G01*
X-573920Y-41000D02*
G03*
X-573920Y-41000I-5080J0D01*
G01*
X-873920Y-185000D02*
G03*
X-873920Y-185000I-5080J0D01*
G01*
X-901920D02*
G03*
X-901920Y-185000I-5080J0D01*
G01*
X-824920Y-285000D02*
G03*
X-824920Y-285000I-5080J0D01*
G01*
Y-250000D02*
G03*
X-824920Y-250000I-5080J0D01*
G01*
X-790920D02*
G03*
X-790920Y-250000I-5080J0D01*
G01*
X-732920Y-160000D02*
G03*
X-732920Y-160000I-5080J0D01*
G01*
X-736420Y-177750D02*
G03*
X-736420Y-177750I-5080J0D01*
G01*
X-876420Y72250D02*
G03*
X-876420Y72250I-5080J0D01*
G01*
X-825670Y151250D02*
G03*
X-825670Y151250I-5080J0D01*
G01*
X-782420Y147750D02*
G03*
X-782420Y147750I-5080J0D01*
G01*
X-768170Y68250D02*
G03*
X-768170Y68250I-5080J0D01*
G01*
Y105500D02*
G03*
X-768170Y105500I-5080J0D01*
G01*
X-636920Y110500D02*
G03*
X-636920Y110500I-5080J0D01*
G01*
X-604295Y129625D02*
G03*
X-604295Y129625I-5080J0D01*
G01*
X-590920Y102750D02*
G03*
X-590920Y102750I-5080J0D01*
G01*
X-595920Y69500D02*
G03*
X-595920Y69500I-5080J0D01*
G01*
X-590420Y154500D02*
G03*
X-590420Y154500I-5080J0D01*
G01*
X-623701Y202510D02*
G03*
X-623701Y202510I-5080J0D01*
G01*
X-638701Y212260D02*
G03*
X-638701Y212260I-5080J0D01*
G01*
X-632670Y230750D02*
G03*
X-632670Y230750I-5080J0D01*
G01*
X-592420Y224250D02*
G03*
X-592420Y224250I-5080J0D01*
G01*
X-441170Y253400D02*
G03*
X-441170Y253400I-5080J0D01*
G01*
X-404420Y256500D02*
G03*
X-404420Y256500I-5080J0D01*
G01*
X-308420Y234500D02*
G03*
X-308420Y234500I-5080J0D01*
G01*
X-226920Y197250D02*
G03*
X-226920Y197250I-5080J0D01*
G01*
X-104170Y130250D02*
G03*
X-104170Y130250I-5080J0D01*
G01*
X-39920Y145000D02*
G03*
X-39920Y145000I-5080J0D01*
G01*
X-40170Y183000D02*
G03*
X-40170Y183000I-5080J0D01*
G01*
X-126420Y162500D02*
G03*
X-126420Y162500I-5080J0D01*
G01*
X-125670Y146250D02*
G03*
X-125670Y146250I-5080J0D01*
G01*
X-381939Y210010D02*
G03*
X-381939Y210010I-5080J0D01*
G01*
X-413670Y214000D02*
G03*
X-413670Y214000I-5080J0D01*
G01*
X-53920Y20500D02*
G03*
X-53920Y20500I-5080J0D01*
G01*
X-54170Y-9750D02*
G03*
X-54170Y-9750I-5080J0D01*
G01*
X-40420Y107500D02*
G03*
X-40420Y107500I-5080J0D01*
G01*
X-126170Y118000D02*
G03*
X-126170Y118000I-5080J0D01*
G01*
X-157670Y118250D02*
G03*
X-157670Y118250I-5080J0D01*
G01*
X-141670Y94250D02*
G03*
X-141670Y94250I-5080J0D01*
G01*
X-139170Y106500D02*
G03*
X-139170Y106500I-5080J0D01*
G01*
X-156670Y99250D02*
G03*
X-156670Y99250I-5080J0D01*
G01*
X-156620Y68700D02*
G03*
X-156620Y68700I-5080J0D01*
G01*
X-173170Y67000D02*
G03*
X-173170Y67000I-5080J0D01*
G01*
X-70670Y37000D02*
G03*
X-70670Y37000I-5080J0D01*
G01*
X-102670Y55750D02*
G03*
X-102670Y55750I-5080J0D01*
G01*
X-133170Y54500D02*
G03*
X-133170Y54500I-5080J0D01*
G01*
X-102670Y36000D02*
G03*
X-102670Y36000I-5080J0D01*
G01*
X-167420Y16250D02*
G03*
X-167420Y16250I-5080J0D01*
G01*
X-163920Y-9000D02*
G03*
X-163920Y-9000I-5080J0D01*
G01*
X-190670Y-54250D02*
G03*
X-190670Y-54250I-5080J0D01*
G01*
X-143420Y-50500D02*
G03*
X-143420Y-50500I-5080J0D01*
G01*
X-181170Y-49500D02*
G03*
X-181170Y-49500I-5080J0D01*
G01*
X-128670Y-50250D02*
G03*
X-128670Y-50250I-5080J0D01*
G01*
X-159420Y-50500D02*
G03*
X-159420Y-50500I-5080J0D01*
G01*
X-247182Y-38002D02*
G03*
X-247182Y-38002I-5080J0D01*
G01*
X-219420Y-38500D02*
G03*
X-219420Y-38500I-5080J0D01*
G01*
X-200670Y105000D02*
G03*
X-200670Y105000I-5080J0D01*
G01*
X-200170Y215500D02*
G03*
X-200170Y215500I-5080J0D01*
G01*
X-220420Y145500D02*
G03*
X-220420Y145500I-5080J0D01*
G01*
X-219420Y112500D02*
G03*
X-219420Y112500I-5080J0D01*
G01*
X-191170Y52000D02*
G03*
X-191170Y52000I-5080J0D01*
G01*
X-243432Y-126756D02*
G03*
X-243432Y-126756I-5080J0D01*
G01*
X-239920Y-135250D02*
G03*
X-239920Y-135250I-5080J0D01*
G01*
X-258920Y-136000D02*
G03*
X-258920Y-136000I-5080J0D01*
G01*
X-272670Y-132000D02*
G03*
X-272670Y-132000I-5080J0D01*
G01*
X-272420Y-115750D02*
G03*
X-272420Y-115750I-5080J0D01*
G01*
X-974920Y-215750D02*
G03*
X-974920Y-215750I-5080J0D01*
G01*
Y-180250D02*
G03*
X-974920Y-180250I-5080J0D01*
G01*
X-568420Y-129000D02*
G03*
X-568420Y-129000I-5080J0D01*
G01*
X-758020Y-174400D02*
G03*
X-758020Y-174400I-5080J0D01*
G01*
X-766120Y-180900D02*
G03*
X-766120Y-180900I-5080J0D01*
G01*
X-909920Y-145000D02*
G03*
X-909920Y-145000I-5080J0D01*
G01*
X-944920D02*
G03*
X-944920Y-145000I-5080J0D01*
G01*
X-974920D02*
G03*
X-974920Y-145000I-5080J0D01*
G01*
Y-252500D02*
G03*
X-974920Y-252500I-5080J0D01*
G01*
X-933920Y-301000D02*
G03*
X-933920Y-301000I-5080J0D01*
G01*
Y-288000D02*
G03*
X-933920Y-288000I-5080J0D01*
G01*
X-1007920Y-290000D02*
G03*
X-1007920Y-290000I-5080J0D01*
G01*
X-1041920Y-151000D02*
G03*
X-1041920Y-151000I-5080J0D01*
G01*
Y-166000D02*
G03*
X-1041920Y-166000I-5080J0D01*
G01*
X-994920Y-290000D02*
G03*
X-994920Y-290000I-5080J0D01*
G01*
X-945920Y-219950D02*
G03*
X-945920Y-219950I-5080J0D01*
G01*
X-851920Y-268000D02*
G03*
X-851920Y-268000I-5080J0D01*
G01*
X-838920D02*
G03*
X-838920Y-268000I-5080J0D01*
G01*
X-934670Y-81250D02*
G03*
X-934670Y-81250I-5080J0D01*
G01*
X-934920Y-128500D02*
G03*
X-934920Y-128500I-5080J0D01*
G01*
X-947670Y-68000D02*
G03*
X-947670Y-68000I-5080J0D01*
G01*
X-948170Y-43000D02*
G03*
X-948170Y-43000I-5080J0D01*
G01*
X-946420Y28750D02*
G03*
X-946420Y28750I-5080J0D01*
G01*
X-920420Y-29750D02*
G03*
X-920420Y-29750I-5080J0D01*
G01*
X-685170Y-150750D02*
G03*
X-685170Y-150750I-5080J0D01*
G01*
X-708170Y-167500D02*
G03*
X-708170Y-167500I-5080J0D01*
G01*
X-717920Y-99250D02*
G03*
X-717920Y-99250I-5080J0D01*
G01*
X-749920Y-44750D02*
G03*
X-749920Y-44750I-5080J0D01*
G01*
X-768920D02*
G03*
X-768920Y-44750I-5080J0D01*
G01*
X-728420Y-40000D02*
G03*
X-728420Y-40000I-5080J0D01*
G01*
X-600670Y37500D02*
G03*
X-600670Y37500I-5080J0D01*
G01*
X-624420Y63500D02*
G03*
X-624420Y63500I-5080J0D01*
G01*
X-572920Y21000D02*
G03*
X-572920Y21000I-5080J0D01*
G01*
X-659920Y8000D02*
G03*
X-659920Y8000I-5080J0D01*
G01*
X-674670Y9750D02*
G03*
X-674670Y9750I-5080J0D01*
G01*
X-494420Y8250D02*
G03*
X-494420Y8250I-5080J0D01*
G01*
X-549420D02*
G03*
X-549420Y8250I-5080J0D01*
G01*
X-451670Y2000D02*
G03*
X-451670Y2000I-5080J0D01*
G01*
X-429420Y28250D02*
G03*
X-429420Y28250I-5080J0D01*
G01*
X-433920Y-19500D02*
G03*
X-433920Y-19500I-5080J0D01*
G01*
X-409451Y-6000D02*
G03*
X-409451Y-6000I-5080J0D01*
G01*
X-417441Y-11000D02*
G03*
X-417441Y-11000I-5080J0D01*
G01*
X-672920Y26750D02*
G03*
X-672920Y26750I-5080J0D01*
G01*
X-679420Y-39500D02*
G03*
X-679420Y-39500I-5080J0D01*
G01*
X-741670Y-33500D02*
G03*
X-741670Y-33500I-5080J0D01*
G01*
X-670670Y58750D02*
G03*
X-670670Y58750I-5080J0D01*
G01*
X-746920Y253750D02*
G03*
X-746920Y253750I-5080J0D01*
G01*
X-701704Y253762D02*
G03*
X-701704Y253762I-5080J0D01*
G01*
X-622920Y253000D02*
G03*
X-622920Y253000I-5080J0D01*
G01*
X-591420Y244750D02*
G03*
X-591420Y244750I-5080J0D01*
G01*
X-590170Y194250D02*
G03*
X-590170Y194250I-5080J0D01*
G01*
X-564420Y216250D02*
G03*
X-564420Y216250I-5080J0D01*
G01*
X-553420Y183750D02*
G03*
X-553420Y183750I-5080J0D01*
G01*
X-489944Y185509D02*
G03*
X-489944Y185509I-5080J0D01*
G01*
X-402700Y215750D02*
G03*
X-402700Y215750I-5080J0D01*
G01*
X-292420Y229750D02*
G03*
X-292420Y229750I-5080J0D01*
G01*
X-266170Y234250D02*
G03*
X-266170Y234250I-5080J0D01*
G01*
X-338920Y71250D02*
G03*
X-338920Y71250I-5080J0D01*
G01*
X-327226Y77754D02*
G03*
X-327226Y77754I-5080J0D01*
G01*
X-512920Y-65000D02*
G03*
X-512920Y-65000I-5080J0D01*
G01*
X-446920D02*
G03*
X-446920Y-65000I-5080J0D01*
G01*
X-651670Y141000D02*
G03*
X-651670Y141000I-5080J0D01*
G01*
X-675670Y136250D02*
G03*
X-675670Y136250I-5080J0D01*
G01*
Y151750D02*
G03*
X-675670Y151750I-5080J0D01*
G01*
X-684670Y159000D02*
G03*
X-684670Y159000I-5080J0D01*
G01*
X-644920Y152000D02*
G03*
X-644920Y152000I-5080J0D01*
G01*
X-643452Y135507D02*
G03*
X-643452Y135507I-5080J0D01*
G01*
X-650920Y159000D02*
G03*
X-650920Y159000I-5080J0D01*
G01*
X-617420Y142750D02*
G03*
X-617420Y142750I-5080J0D01*
G01*
X-572170Y134250D02*
G03*
X-572170Y134250I-5080J0D01*
G01*
Y98000D02*
G03*
X-572170Y98000I-5080J0D01*
G01*
X-763920Y192500D02*
G03*
X-763920Y192500I-5080J0D01*
G01*
X-636951Y202510D02*
G03*
X-636951Y202510I-5080J0D01*
G01*
X-650920Y235250D02*
G03*
X-650920Y235250I-5080J0D01*
G01*
X-693170Y231750D02*
G03*
X-693170Y231750I-5080J0D01*
G01*
X-608170Y224250D02*
G03*
X-608170Y224250I-5080J0D01*
G01*
X-702170Y220500D02*
G03*
X-702170Y220500I-5080J0D01*
G01*
X-721170Y244500D02*
G03*
X-721170Y244500I-5080J0D01*
G01*
X-781170Y219000D02*
G03*
X-781170Y219000I-5080J0D01*
G01*
X-468193Y187759D02*
G03*
X-468193Y187759I-5080J0D01*
G01*
X-449670Y181500D02*
G03*
X-449670Y181500I-5080J0D01*
G01*
X-477193Y184759D02*
G03*
X-477193Y184759I-5080J0D01*
G01*
X-250920Y98000D02*
G03*
X-250920Y98000I-5080J0D01*
G01*
X-246920Y75000D02*
G03*
X-246920Y75000I-5080J0D01*
G01*
X-591920Y267000D02*
G03*
X-591920Y267000I-5080J0D01*
G01*
X-584920Y260000D02*
G03*
X-584920Y260000I-5080J0D01*
G01*
X-577920Y253000D02*
G03*
X-577920Y253000I-5080J0D01*
G01*
X-581420Y-90000D02*
G03*
X-581420Y-90000I-5080J0D01*
G01*
X-526170Y-189250D02*
G03*
X-526170Y-189250I-5080J0D01*
G01*
X-528420Y-165750D02*
G03*
X-528420Y-165750I-5080J0D01*
G01*
X-563170Y-188000D02*
G03*
X-563170Y-188000I-5080J0D01*
G01*
X-488170Y-166000D02*
G03*
X-488170Y-166000I-5080J0D01*
G01*
X-491170Y-189250D02*
G03*
X-491170Y-189250I-5080J0D01*
G01*
X-465420Y-166250D02*
G03*
X-465420Y-166250I-5080J0D01*
G01*
X-432170Y-144750D02*
G03*
X-432170Y-144750I-5080J0D01*
G01*
X-432670Y-189000D02*
G03*
X-432670Y-189000I-5080J0D01*
G01*
X-456170Y-225750D02*
G03*
X-456170Y-225750I-5080J0D01*
G01*
X-294170Y-84250D02*
G03*
X-294170Y-84250I-5080J0D01*
G01*
X-437670D02*
G03*
X-437670Y-84250I-5080J0D01*
G01*
X-225920Y-253000D02*
G03*
X-225920Y-253000I-5080J0D01*
G01*
X-292420Y-303750D02*
G03*
X-292420Y-303750I-5080J0D01*
G01*
X-422420Y-269500D02*
G03*
X-422420Y-269500I-5080J0D01*
G01*
X-340920Y-216000D02*
G03*
X-340920Y-216000I-5080J0D01*
G01*
X-513170Y-94000D02*
G03*
X-513170Y-94000I-5080J0D01*
G01*
X-343170D02*
G03*
X-343170Y-94000I-5080J0D01*
G01*
X-432670Y-163750D02*
G03*
X-432670Y-163750I-5080J0D01*
G01*
X-287670Y152500D02*
G03*
X-287670Y152500I-5080J0D01*
G01*
X-374670Y292750D02*
G03*
X-374670Y292750I-5080J0D01*
G01*
X-388670Y63500D02*
G03*
X-388670Y63500I-5080J0D01*
G01*
Y86250D02*
G03*
X-388670Y86250I-5080J0D01*
G01*
X-331436Y65990D02*
G03*
X-331436Y65990I-5080J0D01*
G01*
X-446670Y62003D02*
G03*
X-446670Y62003I-5080J0D01*
G01*
X-444192Y80754D02*
G03*
X-444192Y80754I-5080J0D01*
G01*
X-454920Y86000D02*
G03*
X-454920Y86000I-5080J0D01*
G01*
X-455670Y61250D02*
G03*
X-455670Y61250I-5080J0D01*
G01*
X-436670Y107500D02*
G03*
X-436670Y107500I-5080J0D01*
G01*
X-453670Y108500D02*
G03*
X-453670Y108500I-5080J0D01*
G01*
X-426420Y77250D02*
G03*
X-426420Y77250I-5080J0D01*
G01*
X-407940Y61003D02*
G03*
X-407940Y61003I-5080J0D01*
G01*
X-415440Y55503D02*
G03*
X-415440Y55503I-5080J0D01*
G01*
X-399170Y77250D02*
G03*
X-399170Y77250I-5080J0D01*
G01*
X-315420Y-115750D02*
G03*
X-315420Y-115750I-5080J0D01*
G01*
X-277670Y184500D02*
G03*
X-277670Y184500I-5080J0D01*
G01*
X-239920Y-166750D02*
G03*
X-239920Y-166750I-5080J0D01*
G01*
X-315670Y-138250D02*
G03*
X-315670Y-138250I-5080J0D01*
G01*
X-274420Y150000D02*
G03*
X-274420Y150000I-5080J0D01*
G01*
X-274434Y159008D02*
G03*
X-274434Y159008I-5080J0D01*
G01*
X-226681Y136507D02*
G03*
X-226681Y136507I-5080J0D01*
G01*
X-315920Y263750D02*
G03*
X-315920Y263750I-5080J0D01*
G01*
X-463943Y201760D02*
G03*
X-463943Y201760I-5080J0D01*
G01*
X-442192Y167758D02*
G03*
X-442192Y167758I-5080J0D01*
G01*
X-454692Y164008D02*
G03*
X-454692Y164008I-5080J0D01*
G01*
X-397670Y138750D02*
G03*
X-397670Y138750I-5080J0D01*
G01*
X-454692Y150007D02*
G03*
X-454692Y150007I-5080J0D01*
G01*
X-453920Y130250D02*
G03*
X-453920Y130250I-5080J0D01*
G01*
X-388670Y114750D02*
G03*
X-388670Y114750I-5080J0D01*
G01*
X-421920Y115000D02*
G03*
X-421920Y115000I-5080J0D01*
G01*
X-398920Y180250D02*
G03*
X-398920Y180250I-5080J0D01*
G01*
X-439170Y129277D02*
G03*
X-439170Y129277I-5080J0D01*
G01*
X-436191Y161008D02*
G03*
X-436191Y161008I-5080J0D01*
G01*
X-827920Y198250D02*
G03*
X-827920Y198250I-5080J0D01*
G01*
X-490920Y134250D02*
G03*
X-490920Y134250I-5080J0D01*
G01*
X-267183Y164508D02*
G03*
X-267183Y164508I-5080J0D01*
G01*
X-404670Y-133000D02*
G03*
X-404670Y-133000I-5080J0D01*
G01*
X-491170Y98250D02*
G03*
X-491170Y98250I-5080J0D01*
G01*
X-650018Y178878D02*
G03*
X-650018Y178878I-5080J0D01*
G01*
X-643420Y172500D02*
G03*
X-643420Y172500I-5080J0D01*
G01*
X-650670Y88250D02*
G03*
X-650670Y88250I-5080J0D01*
G01*
X-656920Y98250D02*
G03*
X-656920Y98250I-5080J0D01*
G01*
X-644170Y94500D02*
G03*
X-644170Y94500I-5080J0D01*
G01*
X-440192Y68253D02*
G03*
X-440192Y68253I-5080J0D01*
G01*
X-518670Y83250D02*
G03*
X-518670Y83250I-5080J0D01*
G01*
X-694420Y214750D02*
G03*
X-694420Y214750I-5080J0D01*
G01*
X-896920Y115000D02*
G03*
X-896920Y115000I-5080J0D01*
G01*
X-893920Y96250D02*
G03*
X-893920Y96250I-5080J0D01*
G01*
X-807170Y284500D02*
G03*
X-807170Y284500I-5080J0D01*
G01*
X-323920Y-10500D02*
G03*
X-323920Y-10500I-5080J0D01*
G01*
X-745920Y197250D02*
G03*
X-745920Y197250I-5080J0D01*
G01*
X-729920Y202750D02*
G03*
X-729920Y202750I-5080J0D01*
G01*
X-827420Y228500D02*
G03*
X-827420Y228500I-5080J0D01*
G01*
X-888670D02*
G03*
X-888670Y228500I-5080J0D01*
G01*
X-773670Y240250D02*
G03*
X-773670Y240250I-5080J0D01*
G01*
X-700170Y187750D02*
G03*
X-700170Y187750I-5080J0D01*
G01*
Y175000D02*
G03*
X-700170Y175000I-5080J0D01*
G01*
X-736920Y95250D02*
G03*
X-736920Y95250I-5080J0D01*
G01*
X-698420Y134500D02*
G03*
X-698420Y134500I-5080J0D01*
G01*
X-827920Y72250D02*
G03*
X-827920Y72250I-5080J0D01*
G01*
X-523670Y34000D02*
G03*
X-523670Y34000I-5080J0D01*
G01*
X-390920Y-23750D02*
G03*
X-390920Y-23750I-5080J0D01*
G01*
X-325920D02*
G03*
X-325920Y-23750I-5080J0D01*
G01*
X-410920D02*
G03*
X-410920Y-23750I-5080J0D01*
G01*
X-407670Y-65500D02*
G03*
X-407670Y-65500I-5080J0D01*
G01*
X-344170Y-23750D02*
G03*
X-344170Y-23750I-5080J0D01*
G01*
X-329186Y-66753D02*
G03*
X-329186Y-66753I-5080J0D01*
G01*
X-281670Y-156250D02*
G03*
X-281670Y-156250I-5080J0D01*
G01*
X-433692Y87000D02*
G03*
X-433692Y87000I-5080J0D01*
G01*
X-557170Y84250D02*
G03*
X-557170Y84250I-5080J0D01*
G01*
X-638920Y79750D02*
G03*
X-638920Y79750I-5080J0D01*
G01*
X-505920Y34000D02*
G03*
X-505920Y34000I-5080J0D01*
G01*
X-490920Y34250D02*
G03*
X-490920Y34250I-5080J0D01*
G01*
X-661702Y106255D02*
G03*
X-661702Y106255I-5080J0D01*
G01*
X-666769Y168878D02*
G03*
X-666769Y168878I-5080J0D01*
G01*
X-662953Y133006D02*
G03*
X-662953Y133006I-5080J0D01*
G01*
X-414170Y85000D02*
G03*
X-414170Y85000I-5080J0D01*
G01*
X-405920Y147000D02*
G03*
X-405920Y147000I-5080J0D01*
G01*
X-528170Y155000D02*
G03*
X-528170Y155000I-5080J0D01*
G01*
X-651202Y216261D02*
G03*
X-651202Y216261I-5080J0D01*
G01*
X-619450Y194009D02*
G03*
X-619450Y194009I-5080J0D01*
G01*
X-384689Y175259D02*
G03*
X-384689Y175259I-5080J0D01*
G01*
X-391439Y169008D02*
G03*
X-391439Y169008I-5080J0D01*
G01*
X-365438Y161000D02*
G03*
X-365438Y161000I-5080J0D01*
G01*
X-387670Y159250D02*
G03*
X-387670Y159250I-5080J0D01*
G01*
X-357170Y123750D02*
G03*
X-357170Y123750I-5080J0D01*
G01*
X-358188Y144507D02*
G03*
X-358188Y144507I-5080J0D01*
G01*
X-244682Y116256D02*
G03*
X-244682Y116256I-5080J0D01*
G01*
X-373938Y91255D02*
G03*
X-373938Y91255I-5080J0D01*
G01*
X-363670Y89750D02*
G03*
X-363670Y89750I-5080J0D01*
G01*
X-241432Y145757D02*
G03*
X-241432Y145757I-5080J0D01*
G01*
X-235420Y132250D02*
G03*
X-235420Y132250I-5080J0D01*
G01*
X-246932Y125256D02*
G03*
X-246932Y125256I-5080J0D01*
G01*
X-230187Y124506D02*
G03*
X-230187Y124506I-5080J0D01*
G01*
X-334920Y184000D02*
G03*
X-334920Y184000I-5080J0D01*
G01*
X-336687Y152507D02*
G03*
X-336687Y152507I-5080J0D01*
G01*
X-295435Y115256D02*
G03*
X-295435Y115256I-5080J0D01*
G01*
X-289420Y92250D02*
G03*
X-289420Y92250I-5080J0D01*
G01*
X-258170Y-192500D02*
G03*
X-258170Y-192500I-5080J0D01*
G01*
X-156620Y78700D02*
G03*
X-156620Y78700I-5080J0D01*
G01*
X-290670Y-37500D02*
G03*
X-290670Y-37500I-5080J0D01*
G01*
X-254178Y113750D02*
G03*
X-254178Y113750I-5080J0D01*
G01*
X-404940Y70003D02*
G03*
X-404940Y70003I-5080J0D01*
G01*
X-406920Y-244500D02*
G03*
X-406920Y-244500I-5080J0D01*
G01*
X-313920Y-254750D02*
G03*
X-313920Y-254750I-5080J0D01*
G01*
X-271170Y-219000D02*
G03*
X-271170Y-219000I-5080J0D01*
G01*
X-148420Y-253500D02*
G03*
X-148420Y-253500I-5080J0D01*
G01*
X-382920Y-284250D02*
G03*
X-382920Y-284250I-5080J0D01*
G01*
X-395920Y-216000D02*
G03*
X-395920Y-216000I-5080J0D01*
G01*
X-333420Y-94500D02*
G03*
X-333420Y-94500I-5080J0D01*
G01*
X-394920Y-94000D02*
G03*
X-394920Y-94000I-5080J0D01*
G01*
X-429670Y184500D02*
G03*
X-429670Y184500I-5080J0D01*
G01*
X-188670Y15500D02*
G03*
X-188670Y15500I-5080J0D01*
G01*
X-188170Y-2500D02*
G03*
X-188170Y-2500I-5080J0D01*
G01*
X-323170Y33250D02*
G03*
X-323170Y33250I-5080J0D01*
G01*
X-339170Y-11000D02*
G03*
X-339170Y-11000I-5080J0D01*
G01*
X-395670Y-13000D02*
G03*
X-395670Y-13000I-5080J0D01*
G01*
X-375164Y82254D02*
G03*
X-375164Y82254I-5080J0D01*
G01*
X-367420Y180750D02*
G03*
X-367420Y180750I-5080J0D01*
G01*
X-355688Y159758D02*
G03*
X-355688Y159758I-5080J0D01*
G01*
X-349187Y146757D02*
G03*
X-349187Y146757I-5080J0D01*
G01*
X-331186Y115006D02*
G03*
X-331186Y115006I-5080J0D01*
G01*
X-315170Y52250D02*
G03*
X-315170Y52250I-5080J0D01*
G01*
X-326936Y89004D02*
G03*
X-326936Y89004I-5080J0D01*
G01*
X-326920Y106500D02*
G03*
X-326920Y106500I-5080J0D01*
G01*
X-330920Y97750D02*
G03*
X-330920Y97750I-5080J0D01*
G01*
X-348192Y79750D02*
G03*
X-348192Y79750I-5080J0D01*
G01*
X-339920Y60000D02*
G03*
X-339920Y60000I-5080J0D01*
G01*
X-890670Y210250D02*
G03*
X-890670Y210250I-5080J0D01*
G01*
X-546420Y24500D02*
G03*
X-546420Y24500I-5080J0D01*
G01*
X-449670Y31750D02*
G03*
X-449670Y31750I-5080J0D01*
G01*
X-307420Y-173500D02*
G03*
X-307420Y-173500I-5080J0D01*
G01*
X-477920Y-181750D02*
G03*
X-477920Y-181750I-5080J0D01*
G01*
X-412170Y-163500D02*
G03*
X-412170Y-163500I-5080J0D01*
G01*
X-315936Y-187766D02*
G03*
X-315936Y-187766I-5080J0D01*
G01*
X-220420Y-156000D02*
G03*
X-220420Y-156000I-5080J0D01*
G01*
X-376439Y180009D02*
G03*
X-376439Y180009I-5080J0D01*
G01*
X-241670Y196250D02*
G03*
X-241670Y196250I-5080J0D01*
G01*
X-249682Y190759D02*
G03*
X-249682Y190759I-5080J0D01*
G01*
X-263670Y173750D02*
G03*
X-263670Y173750I-5080J0D01*
G01*
X-258170Y196250D02*
G03*
X-258170Y196250I-5080J0D01*
G01*
X-260183Y182759D02*
G03*
X-260183Y182759I-5080J0D01*
G01*
X-217420Y71750D02*
G03*
X-217420Y71750I-5080J0D01*
G01*
X-208920Y88250D02*
G03*
X-208920Y88250I-5080J0D01*
G01*
X-205420Y97250D02*
G03*
X-205420Y97250I-5080J0D01*
G01*
X-247182Y-114756D02*
G03*
X-247182Y-114756I-5080J0D01*
G01*
X-219420Y-108500D02*
G03*
X-219420Y-108500I-5080J0D01*
G01*
X-190920D02*
G03*
X-190920Y-108500I-5080J0D01*
G01*
X-190170Y-155750D02*
G03*
X-190170Y-155750I-5080J0D01*
G01*
X-67170Y50750D02*
G03*
X-67170Y50750I-5080J0D01*
G01*
X-31920Y89250D02*
G03*
X-31920Y89250I-5080J0D01*
G01*
X-191920Y257750D02*
G03*
X-191920Y257750I-5080J0D01*
G01*
X-347420Y32250D02*
G03*
X-347420Y32250I-5080J0D01*
G01*
X-390170Y27500D02*
G03*
X-390170Y27500I-5080J0D01*
G01*
X-356670Y84000D02*
G03*
X-356670Y84000I-5080J0D01*
G01*
X-349420Y70750D02*
G03*
X-349420Y70750I-5080J0D01*
G01*
X-360688Y57003D02*
G03*
X-360688Y57003I-5080J0D01*
G01*
X-336170Y-273250D02*
G03*
X-336170Y-273250I-5080J0D01*
G01*
X-356170Y-282750D02*
G03*
X-356170Y-282750I-5080J0D01*
G01*
X-513170Y-200000D02*
G03*
X-513170Y-200000I-5080J0D01*
G01*
X-473420Y-218500D02*
G03*
X-473420Y-218500I-5080J0D01*
G01*
X-521920Y-209750D02*
G03*
X-521920Y-209750I-5080J0D01*
G01*
X-576170D02*
G03*
X-576170Y-209750I-5080J0D01*
G01*
X-281670Y-131750D02*
G03*
X-281670Y-131750I-5080J0D01*
G01*
X-411420Y-139500D02*
G03*
X-411420Y-139500I-5080J0D01*
G01*
X-393439Y-139757D02*
G03*
X-393439Y-139757I-5080J0D01*
G01*
X-401690Y-123756D02*
G03*
X-401690Y-123756I-5080J0D01*
G01*
X-766220Y-166500D02*
G03*
X-766220Y-166500I-5080J0D01*
G01*
X-146820Y68700D02*
G03*
X-146820Y68700I-5080J0D01*
G01*
X-743220Y-171200D02*
G03*
X-743220Y-171200I-5080J0D01*
G01*
X-828170Y-19500D02*
G03*
X-828170Y-19500I-5080J0D01*
G01*
X-451420Y22500D02*
G03*
X-451420Y22500I-5080J0D01*
G01*
X-706955Y72003D02*
G03*
X-706955Y72003I-5080J0D01*
G01*
X-679170Y102250D02*
G03*
X-679170Y102250I-5080J0D01*
G01*
X-651420Y71750D02*
G03*
X-651420Y71750I-5080J0D01*
G01*
X-621170Y48000D02*
G03*
X-621170Y48000I-5080J0D01*
G01*
X-949920Y7000D02*
G03*
X-949920Y7000I-5080J0D01*
G01*
D115*
X-317952Y-159000D02*
G03*
X-317952Y-159000I-3048J0D01*
G01*
X-402952D02*
G03*
X-402952Y-159000I-3048J0D01*
G01*
X-426952Y-157000D02*
G03*
X-426952Y-157000I-3048J0D01*
G01*
X-375952Y-116000D02*
G03*
X-375952Y-116000I-3048J0D01*
G01*
X-312952Y-94000D02*
G03*
X-312952Y-94000I-3048J0D01*
G01*
X-416952Y-105000D02*
G03*
X-416952Y-105000I-3048J0D01*
G01*
X-434952Y-117000D02*
G03*
X-434952Y-117000I-3048J0D01*
G01*
X-312952Y-211000D02*
G03*
X-312952Y-211000I-3048J0D01*
G01*
X-434952Y-205000D02*
G03*
X-434952Y-205000I-3048J0D01*
G01*
X-248952Y-146000D02*
G03*
X-248952Y-146000I-3048J0D01*
G01*
X-566202Y-332000D02*
G03*
X-566202Y-332000I-3048J0D01*
G01*
X-553979Y228761D02*
G03*
X-553979Y228761I-3048J0D01*
G01*
X-476452Y214000D02*
G03*
X-476452Y214000I-3048J0D01*
G01*
X-523702D02*
G03*
X-523702Y214000I-3048J0D01*
G01*
X-491952D02*
G03*
X-491952Y214000I-3048J0D01*
G01*
X-460952Y231250D02*
G03*
X-460952Y231250I-3048J0D01*
G01*
X-546452Y223250D02*
G03*
X-546452Y223250I-3048J0D01*
G01*
X-434452Y231000D02*
G03*
X-434452Y231000I-3048J0D01*
G01*
X-424702Y217500D02*
G03*
X-424702Y217500I-3048J0D01*
G01*
X-96957Y133006D02*
G03*
X-96957Y133006I-3048J0D01*
G01*
X-739952Y-121500D02*
G03*
X-739952Y-121500I-3048J0D01*
G01*
X-731202D02*
G03*
X-731202Y-121500I-3048J0D01*
G01*
X-600452Y-138500D02*
G03*
X-600452Y-138500I-3048J0D01*
G01*
X-608202Y-130750D02*
G03*
X-608202Y-130750I-3048J0D01*
G01*
X-879952Y-71500D02*
G03*
X-879952Y-71500I-3048J0D01*
G01*
X-815702Y-91750D02*
G03*
X-815702Y-91750I-3048J0D01*
G01*
X-843702Y-84250D02*
G03*
X-843702Y-84250I-3048J0D01*
G01*
X-899702Y-37500D02*
G03*
X-899702Y-37500I-3048J0D01*
G01*
X-662702Y-58750D02*
G03*
X-662702Y-58750I-3048J0D01*
G01*
X-621452Y-74750D02*
G03*
X-621452Y-74750I-3048J0D01*
G01*
X-629452D02*
G03*
X-629452Y-74750I-3048J0D01*
G01*
Y-66750D02*
G03*
X-629452Y-66750I-3048J0D01*
G01*
X-662702D02*
G03*
X-662702Y-66750I-3048J0D01*
G01*
Y-143750D02*
G03*
X-662702Y-143750I-3048J0D01*
G01*
Y-74750D02*
G03*
X-662702Y-74750I-3048J0D01*
G01*
X-734452Y-132750D02*
G03*
X-734452Y-132750I-3048J0D01*
G01*
X-601702Y-84750D02*
G03*
X-601702Y-84750I-3048J0D01*
G01*
X-602827Y19875D02*
G03*
X-602827Y19875I-3048J0D01*
G01*
X-583452Y-61500D02*
G03*
X-583452Y-61500I-3048J0D01*
G01*
X-367229Y221250D02*
G03*
X-367229Y221250I-3048J0D01*
G01*
X-357452Y224875D02*
G03*
X-357452Y224875I-3048J0D01*
G01*
X-342702Y209750D02*
G03*
X-342702Y209750I-3048J0D01*
G01*
X-345702Y237250D02*
G03*
X-345702Y237250I-3048J0D01*
G01*
X-349952Y271500D02*
G03*
X-349952Y271500I-3048J0D01*
G01*
X-318202Y253400D02*
G03*
X-318202Y253400I-3048J0D01*
G01*
X-369452Y256500D02*
G03*
X-369452Y256500I-3048J0D01*
G01*
X-662952Y-329750D02*
G03*
X-662952Y-329750I-3048J0D01*
G01*
X-738702Y-326250D02*
G03*
X-738702Y-326250I-3048J0D01*
G01*
X-819952Y-320000D02*
G03*
X-819952Y-320000I-3048J0D01*
G01*
X-868452Y-315250D02*
G03*
X-868452Y-315250I-3048J0D01*
G01*
X-910452Y-312500D02*
G03*
X-910452Y-312500I-3048J0D01*
G01*
X-966202Y-305250D02*
G03*
X-966202Y-305250I-3048J0D01*
G01*
X-212952Y179000D02*
G03*
X-212952Y179000I-3048J0D01*
G01*
X-211952Y205000D02*
G03*
X-211952Y205000I-3048J0D01*
G01*
X-192952Y186000D02*
G03*
X-192952Y186000I-3048J0D01*
G01*
X-167952Y166000D02*
G03*
X-167952Y166000I-3048J0D01*
G01*
X-730952Y-59000D02*
G03*
X-730952Y-59000I-3048J0D01*
G01*
X-765952Y-69000D02*
G03*
X-765952Y-69000I-3048J0D01*
G01*
X-733952Y-78000D02*
G03*
X-733952Y-78000I-3048J0D01*
G01*
X-583452Y-106750D02*
G03*
X-583452Y-106750I-3048J0D01*
G01*
X-469952Y-110000D02*
G03*
X-469952Y-110000I-3048J0D01*
G01*
X-482952Y-123000D02*
G03*
X-482952Y-123000I-3048J0D01*
G01*
X-454952Y-47000D02*
G03*
X-454952Y-47000I-3048J0D01*
G01*
X-507952Y-48000D02*
G03*
X-507952Y-48000I-3048J0D01*
G01*
X-575952Y-41000D02*
G03*
X-575952Y-41000I-3048J0D01*
G01*
X-875952Y-185000D02*
G03*
X-875952Y-185000I-3048J0D01*
G01*
X-903952D02*
G03*
X-903952Y-185000I-3048J0D01*
G01*
X-826952Y-285000D02*
G03*
X-826952Y-285000I-3048J0D01*
G01*
Y-250000D02*
G03*
X-826952Y-250000I-3048J0D01*
G01*
X-792952D02*
G03*
X-792952Y-250000I-3048J0D01*
G01*
X-734952Y-160000D02*
G03*
X-734952Y-160000I-3048J0D01*
G01*
X-738452Y-177750D02*
G03*
X-738452Y-177750I-3048J0D01*
G01*
X-878452Y72250D02*
G03*
X-878452Y72250I-3048J0D01*
G01*
X-827702Y151250D02*
G03*
X-827702Y151250I-3048J0D01*
G01*
X-784452Y147750D02*
G03*
X-784452Y147750I-3048J0D01*
G01*
X-770202Y68250D02*
G03*
X-770202Y68250I-3048J0D01*
G01*
Y105500D02*
G03*
X-770202Y105500I-3048J0D01*
G01*
X-638952Y110500D02*
G03*
X-638952Y110500I-3048J0D01*
G01*
X-606327Y129625D02*
G03*
X-606327Y129625I-3048J0D01*
G01*
X-592952Y102750D02*
G03*
X-592952Y102750I-3048J0D01*
G01*
X-597952Y69500D02*
G03*
X-597952Y69500I-3048J0D01*
G01*
X-592452Y154500D02*
G03*
X-592452Y154500I-3048J0D01*
G01*
X-625733Y202510D02*
G03*
X-625733Y202510I-3048J0D01*
G01*
X-640733Y212260D02*
G03*
X-640733Y212260I-3048J0D01*
G01*
X-634702Y230750D02*
G03*
X-634702Y230750I-3048J0D01*
G01*
X-594452Y224250D02*
G03*
X-594452Y224250I-3048J0D01*
G01*
X-443202Y253400D02*
G03*
X-443202Y253400I-3048J0D01*
G01*
X-406452Y256500D02*
G03*
X-406452Y256500I-3048J0D01*
G01*
X-310452Y234500D02*
G03*
X-310452Y234500I-3048J0D01*
G01*
X-228952Y197250D02*
G03*
X-228952Y197250I-3048J0D01*
G01*
X-106202Y130250D02*
G03*
X-106202Y130250I-3048J0D01*
G01*
X-41952Y145000D02*
G03*
X-41952Y145000I-3048J0D01*
G01*
X-42202Y183000D02*
G03*
X-42202Y183000I-3048J0D01*
G01*
X-128452Y162500D02*
G03*
X-128452Y162500I-3048J0D01*
G01*
X-127702Y146250D02*
G03*
X-127702Y146250I-3048J0D01*
G01*
X-383971Y210010D02*
G03*
X-383971Y210010I-3048J0D01*
G01*
X-415702Y214000D02*
G03*
X-415702Y214000I-3048J0D01*
G01*
X-55952Y20500D02*
G03*
X-55952Y20500I-3048J0D01*
G01*
X-56202Y-9750D02*
G03*
X-56202Y-9750I-3048J0D01*
G01*
X-42452Y107500D02*
G03*
X-42452Y107500I-3048J0D01*
G01*
X-128202Y118000D02*
G03*
X-128202Y118000I-3048J0D01*
G01*
X-159702Y118250D02*
G03*
X-159702Y118250I-3048J0D01*
G01*
X-143702Y94250D02*
G03*
X-143702Y94250I-3048J0D01*
G01*
X-141202Y106500D02*
G03*
X-141202Y106500I-3048J0D01*
G01*
X-158702Y99250D02*
G03*
X-158702Y99250I-3048J0D01*
G01*
X-158652Y68700D02*
G03*
X-158652Y68700I-3048J0D01*
G01*
X-175202Y67000D02*
G03*
X-175202Y67000I-3048J0D01*
G01*
X-72702Y37000D02*
G03*
X-72702Y37000I-3048J0D01*
G01*
X-104702Y55750D02*
G03*
X-104702Y55750I-3048J0D01*
G01*
X-135202Y54500D02*
G03*
X-135202Y54500I-3048J0D01*
G01*
X-104702Y36000D02*
G03*
X-104702Y36000I-3048J0D01*
G01*
X-169452Y16250D02*
G03*
X-169452Y16250I-3048J0D01*
G01*
X-165952Y-9000D02*
G03*
X-165952Y-9000I-3048J0D01*
G01*
X-192702Y-54250D02*
G03*
X-192702Y-54250I-3048J0D01*
G01*
X-145452Y-50500D02*
G03*
X-145452Y-50500I-3048J0D01*
G01*
X-183202Y-49500D02*
G03*
X-183202Y-49500I-3048J0D01*
G01*
X-130702Y-50250D02*
G03*
X-130702Y-50250I-3048J0D01*
G01*
X-161452Y-50500D02*
G03*
X-161452Y-50500I-3048J0D01*
G01*
X-249214Y-38002D02*
G03*
X-249214Y-38002I-3048J0D01*
G01*
X-221452Y-38500D02*
G03*
X-221452Y-38500I-3048J0D01*
G01*
X-202702Y105000D02*
G03*
X-202702Y105000I-3048J0D01*
G01*
X-202202Y215500D02*
G03*
X-202202Y215500I-3048J0D01*
G01*
X-222452Y145500D02*
G03*
X-222452Y145500I-3048J0D01*
G01*
X-221452Y112500D02*
G03*
X-221452Y112500I-3048J0D01*
G01*
X-193202Y52000D02*
G03*
X-193202Y52000I-3048J0D01*
G01*
X-245464Y-126756D02*
G03*
X-245464Y-126756I-3048J0D01*
G01*
X-241952Y-135250D02*
G03*
X-241952Y-135250I-3048J0D01*
G01*
X-260952Y-136000D02*
G03*
X-260952Y-136000I-3048J0D01*
G01*
X-274702Y-132000D02*
G03*
X-274702Y-132000I-3048J0D01*
G01*
X-274452Y-115750D02*
G03*
X-274452Y-115750I-3048J0D01*
G01*
X-976952Y-215750D02*
G03*
X-976952Y-215750I-3048J0D01*
G01*
Y-180250D02*
G03*
X-976952Y-180250I-3048J0D01*
G01*
X-570452Y-129000D02*
G03*
X-570452Y-129000I-3048J0D01*
G01*
X-760052Y-174400D02*
G03*
X-760052Y-174400I-3048J0D01*
G01*
X-768152Y-180900D02*
G03*
X-768152Y-180900I-3048J0D01*
G01*
X-911952Y-145000D02*
G03*
X-911952Y-145000I-3048J0D01*
G01*
X-946952D02*
G03*
X-946952Y-145000I-3048J0D01*
G01*
X-976952D02*
G03*
X-976952Y-145000I-3048J0D01*
G01*
Y-252500D02*
G03*
X-976952Y-252500I-3048J0D01*
G01*
X-935952Y-301000D02*
G03*
X-935952Y-301000I-3048J0D01*
G01*
Y-288000D02*
G03*
X-935952Y-288000I-3048J0D01*
G01*
X-1009952Y-290000D02*
G03*
X-1009952Y-290000I-3048J0D01*
G01*
X-1043952Y-151000D02*
G03*
X-1043952Y-151000I-3048J0D01*
G01*
Y-166000D02*
G03*
X-1043952Y-166000I-3048J0D01*
G01*
X-996952Y-290000D02*
G03*
X-996952Y-290000I-3048J0D01*
G01*
X-947952Y-219950D02*
G03*
X-947952Y-219950I-3048J0D01*
G01*
X-853952Y-268000D02*
G03*
X-853952Y-268000I-3048J0D01*
G01*
X-840952D02*
G03*
X-840952Y-268000I-3048J0D01*
G01*
X-936702Y-81250D02*
G03*
X-936702Y-81250I-3048J0D01*
G01*
X-936952Y-128500D02*
G03*
X-936952Y-128500I-3048J0D01*
G01*
X-949702Y-68000D02*
G03*
X-949702Y-68000I-3048J0D01*
G01*
X-950202Y-43000D02*
G03*
X-950202Y-43000I-3048J0D01*
G01*
X-948452Y28750D02*
G03*
X-948452Y28750I-3048J0D01*
G01*
X-922452Y-29750D02*
G03*
X-922452Y-29750I-3048J0D01*
G01*
X-687202Y-150750D02*
G03*
X-687202Y-150750I-3048J0D01*
G01*
X-710202Y-167500D02*
G03*
X-710202Y-167500I-3048J0D01*
G01*
X-719952Y-99250D02*
G03*
X-719952Y-99250I-3048J0D01*
G01*
X-751952Y-44750D02*
G03*
X-751952Y-44750I-3048J0D01*
G01*
X-770952D02*
G03*
X-770952Y-44750I-3048J0D01*
G01*
X-730452Y-40000D02*
G03*
X-730452Y-40000I-3048J0D01*
G01*
X-602702Y37500D02*
G03*
X-602702Y37500I-3048J0D01*
G01*
X-626452Y63500D02*
G03*
X-626452Y63500I-3048J0D01*
G01*
X-574952Y21000D02*
G03*
X-574952Y21000I-3048J0D01*
G01*
X-661952Y8000D02*
G03*
X-661952Y8000I-3048J0D01*
G01*
X-676702Y9750D02*
G03*
X-676702Y9750I-3048J0D01*
G01*
X-496452Y8250D02*
G03*
X-496452Y8250I-3048J0D01*
G01*
X-551452D02*
G03*
X-551452Y8250I-3048J0D01*
G01*
X-453702Y2000D02*
G03*
X-453702Y2000I-3048J0D01*
G01*
X-431452Y28250D02*
G03*
X-431452Y28250I-3048J0D01*
G01*
X-435952Y-19500D02*
G03*
X-435952Y-19500I-3048J0D01*
G01*
X-411483Y-6000D02*
G03*
X-411483Y-6000I-3048J0D01*
G01*
X-419473Y-11000D02*
G03*
X-419473Y-11000I-3048J0D01*
G01*
X-674952Y26750D02*
G03*
X-674952Y26750I-3048J0D01*
G01*
X-681452Y-39500D02*
G03*
X-681452Y-39500I-3048J0D01*
G01*
X-743702Y-33500D02*
G03*
X-743702Y-33500I-3048J0D01*
G01*
X-672702Y58750D02*
G03*
X-672702Y58750I-3048J0D01*
G01*
X-748952Y253750D02*
G03*
X-748952Y253750I-3048J0D01*
G01*
X-703736Y253762D02*
G03*
X-703736Y253762I-3048J0D01*
G01*
X-624952Y253000D02*
G03*
X-624952Y253000I-3048J0D01*
G01*
X-593452Y244750D02*
G03*
X-593452Y244750I-3048J0D01*
G01*
X-592202Y194250D02*
G03*
X-592202Y194250I-3048J0D01*
G01*
X-566452Y216250D02*
G03*
X-566452Y216250I-3048J0D01*
G01*
X-555452Y183750D02*
G03*
X-555452Y183750I-3048J0D01*
G01*
X-491976Y185509D02*
G03*
X-491976Y185509I-3048J0D01*
G01*
X-404732Y215750D02*
G03*
X-404732Y215750I-3048J0D01*
G01*
X-294452Y229750D02*
G03*
X-294452Y229750I-3048J0D01*
G01*
X-268202Y234250D02*
G03*
X-268202Y234250I-3048J0D01*
G01*
X-340952Y71250D02*
G03*
X-340952Y71250I-3048J0D01*
G01*
X-329258Y77754D02*
G03*
X-329258Y77754I-3048J0D01*
G01*
X-514952Y-65000D02*
G03*
X-514952Y-65000I-3048J0D01*
G01*
X-448952D02*
G03*
X-448952Y-65000I-3048J0D01*
G01*
X-653702Y141000D02*
G03*
X-653702Y141000I-3048J0D01*
G01*
X-677702Y136250D02*
G03*
X-677702Y136250I-3048J0D01*
G01*
Y151750D02*
G03*
X-677702Y151750I-3048J0D01*
G01*
X-686702Y159000D02*
G03*
X-686702Y159000I-3048J0D01*
G01*
X-646952Y152000D02*
G03*
X-646952Y152000I-3048J0D01*
G01*
X-645484Y135507D02*
G03*
X-645484Y135507I-3048J0D01*
G01*
X-652952Y159000D02*
G03*
X-652952Y159000I-3048J0D01*
G01*
X-619452Y142750D02*
G03*
X-619452Y142750I-3048J0D01*
G01*
X-574202Y134250D02*
G03*
X-574202Y134250I-3048J0D01*
G01*
Y98000D02*
G03*
X-574202Y98000I-3048J0D01*
G01*
X-765952Y192500D02*
G03*
X-765952Y192500I-3048J0D01*
G01*
X-638983Y202510D02*
G03*
X-638983Y202510I-3048J0D01*
G01*
X-652952Y235250D02*
G03*
X-652952Y235250I-3048J0D01*
G01*
X-695202Y231750D02*
G03*
X-695202Y231750I-3048J0D01*
G01*
X-610202Y224250D02*
G03*
X-610202Y224250I-3048J0D01*
G01*
X-704202Y220500D02*
G03*
X-704202Y220500I-3048J0D01*
G01*
X-723202Y244500D02*
G03*
X-723202Y244500I-3048J0D01*
G01*
X-783202Y219000D02*
G03*
X-783202Y219000I-3048J0D01*
G01*
X-470225Y187759D02*
G03*
X-470225Y187759I-3048J0D01*
G01*
X-451702Y181500D02*
G03*
X-451702Y181500I-3048J0D01*
G01*
X-479226Y184759D02*
G03*
X-479226Y184759I-3048J0D01*
G01*
X-252952Y98000D02*
G03*
X-252952Y98000I-3048J0D01*
G01*
X-248952Y75000D02*
G03*
X-248952Y75000I-3048J0D01*
G01*
X-593952Y267000D02*
G03*
X-593952Y267000I-3048J0D01*
G01*
X-586952Y260000D02*
G03*
X-586952Y260000I-3048J0D01*
G01*
X-579952Y253000D02*
G03*
X-579952Y253000I-3048J0D01*
G01*
X-583452Y-90000D02*
G03*
X-583452Y-90000I-3048J0D01*
G01*
X-528202Y-189250D02*
G03*
X-528202Y-189250I-3048J0D01*
G01*
X-530452Y-165750D02*
G03*
X-530452Y-165750I-3048J0D01*
G01*
X-565202Y-188000D02*
G03*
X-565202Y-188000I-3048J0D01*
G01*
X-490202Y-166000D02*
G03*
X-490202Y-166000I-3048J0D01*
G01*
X-493202Y-189250D02*
G03*
X-493202Y-189250I-3048J0D01*
G01*
X-467452Y-166250D02*
G03*
X-467452Y-166250I-3048J0D01*
G01*
X-434202Y-144750D02*
G03*
X-434202Y-144750I-3048J0D01*
G01*
X-434702Y-189000D02*
G03*
X-434702Y-189000I-3048J0D01*
G01*
X-458202Y-225750D02*
G03*
X-458202Y-225750I-3048J0D01*
G01*
X-296202Y-84250D02*
G03*
X-296202Y-84250I-3048J0D01*
G01*
X-439702D02*
G03*
X-439702Y-84250I-3048J0D01*
G01*
X-227952Y-253000D02*
G03*
X-227952Y-253000I-3048J0D01*
G01*
X-294452Y-303750D02*
G03*
X-294452Y-303750I-3048J0D01*
G01*
X-424452Y-269500D02*
G03*
X-424452Y-269500I-3048J0D01*
G01*
X-342952Y-216000D02*
G03*
X-342952Y-216000I-3048J0D01*
G01*
X-515202Y-94000D02*
G03*
X-515202Y-94000I-3048J0D01*
G01*
X-345202D02*
G03*
X-345202Y-94000I-3048J0D01*
G01*
X-434702Y-163750D02*
G03*
X-434702Y-163750I-3048J0D01*
G01*
X-289702Y152500D02*
G03*
X-289702Y152500I-3048J0D01*
G01*
X-376702Y292750D02*
G03*
X-376702Y292750I-3048J0D01*
G01*
X-390702Y63500D02*
G03*
X-390702Y63500I-3048J0D01*
G01*
Y86250D02*
G03*
X-390702Y86250I-3048J0D01*
G01*
X-333468Y65990D02*
G03*
X-333468Y65990I-3048J0D01*
G01*
X-448702Y62003D02*
G03*
X-448702Y62003I-3048J0D01*
G01*
X-446224Y80754D02*
G03*
X-446224Y80754I-3048J0D01*
G01*
X-456952Y86000D02*
G03*
X-456952Y86000I-3048J0D01*
G01*
X-457702Y61250D02*
G03*
X-457702Y61250I-3048J0D01*
G01*
X-438702Y107500D02*
G03*
X-438702Y107500I-3048J0D01*
G01*
X-455702Y108500D02*
G03*
X-455702Y108500I-3048J0D01*
G01*
X-428452Y77250D02*
G03*
X-428452Y77250I-3048J0D01*
G01*
X-409972Y61003D02*
G03*
X-409972Y61003I-3048J0D01*
G01*
X-417472Y55503D02*
G03*
X-417472Y55503I-3048J0D01*
G01*
X-401202Y77250D02*
G03*
X-401202Y77250I-3048J0D01*
G01*
X-317452Y-115750D02*
G03*
X-317452Y-115750I-3048J0D01*
G01*
X-279702Y184500D02*
G03*
X-279702Y184500I-3048J0D01*
G01*
X-241952Y-166750D02*
G03*
X-241952Y-166750I-3048J0D01*
G01*
X-317702Y-138250D02*
G03*
X-317702Y-138250I-3048J0D01*
G01*
X-276452Y150000D02*
G03*
X-276452Y150000I-3048J0D01*
G01*
X-276466Y159008D02*
G03*
X-276466Y159008I-3048J0D01*
G01*
X-228713Y136507D02*
G03*
X-228713Y136507I-3048J0D01*
G01*
X-317952Y263750D02*
G03*
X-317952Y263750I-3048J0D01*
G01*
X-465975Y201760D02*
G03*
X-465975Y201760I-3048J0D01*
G01*
X-444224Y167758D02*
G03*
X-444224Y167758I-3048J0D01*
G01*
X-456724Y164008D02*
G03*
X-456724Y164008I-3048J0D01*
G01*
X-399702Y138750D02*
G03*
X-399702Y138750I-3048J0D01*
G01*
X-456724Y150007D02*
G03*
X-456724Y150007I-3048J0D01*
G01*
X-455952Y130250D02*
G03*
X-455952Y130250I-3048J0D01*
G01*
X-390702Y114750D02*
G03*
X-390702Y114750I-3048J0D01*
G01*
X-423952Y115000D02*
G03*
X-423952Y115000I-3048J0D01*
G01*
X-400952Y180250D02*
G03*
X-400952Y180250I-3048J0D01*
G01*
X-441202Y129277D02*
G03*
X-441202Y129277I-3048J0D01*
G01*
X-438223Y161008D02*
G03*
X-438223Y161008I-3048J0D01*
G01*
X-829952Y198250D02*
G03*
X-829952Y198250I-3048J0D01*
G01*
X-492952Y134250D02*
G03*
X-492952Y134250I-3048J0D01*
G01*
X-269215Y164508D02*
G03*
X-269215Y164508I-3048J0D01*
G01*
X-406702Y-133000D02*
G03*
X-406702Y-133000I-3048J0D01*
G01*
X-493202Y98250D02*
G03*
X-493202Y98250I-3048J0D01*
G01*
X-652050Y178878D02*
G03*
X-652050Y178878I-3048J0D01*
G01*
X-645452Y172500D02*
G03*
X-645452Y172500I-3048J0D01*
G01*
X-652702Y88250D02*
G03*
X-652702Y88250I-3048J0D01*
G01*
X-658952Y98250D02*
G03*
X-658952Y98250I-3048J0D01*
G01*
X-646202Y94500D02*
G03*
X-646202Y94500I-3048J0D01*
G01*
X-442224Y68253D02*
G03*
X-442224Y68253I-3048J0D01*
G01*
X-520702Y83250D02*
G03*
X-520702Y83250I-3048J0D01*
G01*
X-696452Y214750D02*
G03*
X-696452Y214750I-3048J0D01*
G01*
X-898952Y115000D02*
G03*
X-898952Y115000I-3048J0D01*
G01*
X-895952Y96250D02*
G03*
X-895952Y96250I-3048J0D01*
G01*
X-809202Y284500D02*
G03*
X-809202Y284500I-3048J0D01*
G01*
X-325952Y-10500D02*
G03*
X-325952Y-10500I-3048J0D01*
G01*
X-747952Y197250D02*
G03*
X-747952Y197250I-3048J0D01*
G01*
X-731952Y202750D02*
G03*
X-731952Y202750I-3048J0D01*
G01*
X-829452Y228500D02*
G03*
X-829452Y228500I-3048J0D01*
G01*
X-890702D02*
G03*
X-890702Y228500I-3048J0D01*
G01*
X-775702Y240250D02*
G03*
X-775702Y240250I-3048J0D01*
G01*
X-702202Y187750D02*
G03*
X-702202Y187750I-3048J0D01*
G01*
Y175000D02*
G03*
X-702202Y175000I-3048J0D01*
G01*
X-738952Y95250D02*
G03*
X-738952Y95250I-3048J0D01*
G01*
X-700452Y134500D02*
G03*
X-700452Y134500I-3048J0D01*
G01*
X-829952Y72250D02*
G03*
X-829952Y72250I-3048J0D01*
G01*
X-525702Y34000D02*
G03*
X-525702Y34000I-3048J0D01*
G01*
X-392952Y-23750D02*
G03*
X-392952Y-23750I-3048J0D01*
G01*
X-327952D02*
G03*
X-327952Y-23750I-3048J0D01*
G01*
X-412952D02*
G03*
X-412952Y-23750I-3048J0D01*
G01*
X-409702Y-65500D02*
G03*
X-409702Y-65500I-3048J0D01*
G01*
X-346202Y-23750D02*
G03*
X-346202Y-23750I-3048J0D01*
G01*
X-331218Y-66753D02*
G03*
X-331218Y-66753I-3048J0D01*
G01*
X-283702Y-156250D02*
G03*
X-283702Y-156250I-3048J0D01*
G01*
X-435724Y87000D02*
G03*
X-435724Y87000I-3048J0D01*
G01*
X-559202Y84250D02*
G03*
X-559202Y84250I-3048J0D01*
G01*
X-640952Y79750D02*
G03*
X-640952Y79750I-3048J0D01*
G01*
X-507952Y34000D02*
G03*
X-507952Y34000I-3048J0D01*
G01*
X-492952Y34250D02*
G03*
X-492952Y34250I-3048J0D01*
G01*
X-663735Y106255D02*
G03*
X-663735Y106255I-3048J0D01*
G01*
X-668801Y168878D02*
G03*
X-668801Y168878I-3048J0D01*
G01*
X-664985Y133006D02*
G03*
X-664985Y133006I-3048J0D01*
G01*
X-416202Y85000D02*
G03*
X-416202Y85000I-3048J0D01*
G01*
X-407952Y147000D02*
G03*
X-407952Y147000I-3048J0D01*
G01*
X-530202Y155000D02*
G03*
X-530202Y155000I-3048J0D01*
G01*
X-653234Y216261D02*
G03*
X-653234Y216261I-3048J0D01*
G01*
X-621483Y194009D02*
G03*
X-621483Y194009I-3048J0D01*
G01*
X-386721Y175259D02*
G03*
X-386721Y175259I-3048J0D01*
G01*
X-393471Y169008D02*
G03*
X-393471Y169008I-3048J0D01*
G01*
X-367470Y161000D02*
G03*
X-367470Y161000I-3048J0D01*
G01*
X-389702Y159250D02*
G03*
X-389702Y159250I-3048J0D01*
G01*
X-359202Y123750D02*
G03*
X-359202Y123750I-3048J0D01*
G01*
X-360220Y144507D02*
G03*
X-360220Y144507I-3048J0D01*
G01*
X-246714Y116256D02*
G03*
X-246714Y116256I-3048J0D01*
G01*
X-375970Y91255D02*
G03*
X-375970Y91255I-3048J0D01*
G01*
X-365702Y89750D02*
G03*
X-365702Y89750I-3048J0D01*
G01*
X-243464Y145757D02*
G03*
X-243464Y145757I-3048J0D01*
G01*
X-237452Y132250D02*
G03*
X-237452Y132250I-3048J0D01*
G01*
X-248964Y125256D02*
G03*
X-248964Y125256I-3048J0D01*
G01*
X-232219Y124506D02*
G03*
X-232219Y124506I-3048J0D01*
G01*
X-336952Y184000D02*
G03*
X-336952Y184000I-3048J0D01*
G01*
X-338719Y152507D02*
G03*
X-338719Y152507I-3048J0D01*
G01*
X-297467Y115256D02*
G03*
X-297467Y115256I-3048J0D01*
G01*
X-291452Y92250D02*
G03*
X-291452Y92250I-3048J0D01*
G01*
X-260202Y-192500D02*
G03*
X-260202Y-192500I-3048J0D01*
G01*
X-158652Y78700D02*
G03*
X-158652Y78700I-3048J0D01*
G01*
X-292702Y-37500D02*
G03*
X-292702Y-37500I-3048J0D01*
G01*
X-256210Y113750D02*
G03*
X-256210Y113750I-3048J0D01*
G01*
X-406972Y70003D02*
G03*
X-406972Y70003I-3048J0D01*
G01*
X-408952Y-244500D02*
G03*
X-408952Y-244500I-3048J0D01*
G01*
X-315952Y-254750D02*
G03*
X-315952Y-254750I-3048J0D01*
G01*
X-273202Y-219000D02*
G03*
X-273202Y-219000I-3048J0D01*
G01*
X-150452Y-253500D02*
G03*
X-150452Y-253500I-3048J0D01*
G01*
X-384952Y-284250D02*
G03*
X-384952Y-284250I-3048J0D01*
G01*
X-397952Y-216000D02*
G03*
X-397952Y-216000I-3048J0D01*
G01*
X-335452Y-94500D02*
G03*
X-335452Y-94500I-3048J0D01*
G01*
X-396952Y-94000D02*
G03*
X-396952Y-94000I-3048J0D01*
G01*
X-431702Y184500D02*
G03*
X-431702Y184500I-3048J0D01*
G01*
X-190702Y15500D02*
G03*
X-190702Y15500I-3048J0D01*
G01*
X-190202Y-2500D02*
G03*
X-190202Y-2500I-3048J0D01*
G01*
X-325202Y33250D02*
G03*
X-325202Y33250I-3048J0D01*
G01*
X-341202Y-11000D02*
G03*
X-341202Y-11000I-3048J0D01*
G01*
X-397702Y-13000D02*
G03*
X-397702Y-13000I-3048J0D01*
G01*
X-377196Y82254D02*
G03*
X-377196Y82254I-3048J0D01*
G01*
X-369452Y180750D02*
G03*
X-369452Y180750I-3048J0D01*
G01*
X-357720Y159758D02*
G03*
X-357720Y159758I-3048J0D01*
G01*
X-351219Y146757D02*
G03*
X-351219Y146757I-3048J0D01*
G01*
X-333218Y115006D02*
G03*
X-333218Y115006I-3048J0D01*
G01*
X-317202Y52250D02*
G03*
X-317202Y52250I-3048J0D01*
G01*
X-328968Y89004D02*
G03*
X-328968Y89004I-3048J0D01*
G01*
X-328952Y106500D02*
G03*
X-328952Y106500I-3048J0D01*
G01*
X-332952Y97750D02*
G03*
X-332952Y97750I-3048J0D01*
G01*
X-350224Y79750D02*
G03*
X-350224Y79750I-3048J0D01*
G01*
X-341952Y60000D02*
G03*
X-341952Y60000I-3048J0D01*
G01*
X-892702Y210250D02*
G03*
X-892702Y210250I-3048J0D01*
G01*
X-548452Y24500D02*
G03*
X-548452Y24500I-3048J0D01*
G01*
X-451702Y31750D02*
G03*
X-451702Y31750I-3048J0D01*
G01*
X-309452Y-173500D02*
G03*
X-309452Y-173500I-3048J0D01*
G01*
X-479952Y-181750D02*
G03*
X-479952Y-181750I-3048J0D01*
G01*
X-414202Y-163500D02*
G03*
X-414202Y-163500I-3048J0D01*
G01*
X-317968Y-187766D02*
G03*
X-317968Y-187766I-3048J0D01*
G01*
X-222452Y-156000D02*
G03*
X-222452Y-156000I-3048J0D01*
G01*
X-378471Y180009D02*
G03*
X-378471Y180009I-3048J0D01*
G01*
X-243702Y196250D02*
G03*
X-243702Y196250I-3048J0D01*
G01*
X-251714Y190759D02*
G03*
X-251714Y190759I-3048J0D01*
G01*
X-265702Y173750D02*
G03*
X-265702Y173750I-3048J0D01*
G01*
X-260202Y196250D02*
G03*
X-260202Y196250I-3048J0D01*
G01*
X-262215Y182759D02*
G03*
X-262215Y182759I-3048J0D01*
G01*
X-219452Y71750D02*
G03*
X-219452Y71750I-3048J0D01*
G01*
X-210952Y88250D02*
G03*
X-210952Y88250I-3048J0D01*
G01*
X-207452Y97250D02*
G03*
X-207452Y97250I-3048J0D01*
G01*
X-249214Y-114756D02*
G03*
X-249214Y-114756I-3048J0D01*
G01*
X-221452Y-108500D02*
G03*
X-221452Y-108500I-3048J0D01*
G01*
X-192952D02*
G03*
X-192952Y-108500I-3048J0D01*
G01*
X-192202Y-155750D02*
G03*
X-192202Y-155750I-3048J0D01*
G01*
X-69202Y50750D02*
G03*
X-69202Y50750I-3048J0D01*
G01*
X-33952Y89250D02*
G03*
X-33952Y89250I-3048J0D01*
G01*
X-193952Y257750D02*
G03*
X-193952Y257750I-3048J0D01*
G01*
X-349452Y32250D02*
G03*
X-349452Y32250I-3048J0D01*
G01*
X-392202Y27500D02*
G03*
X-392202Y27500I-3048J0D01*
G01*
X-358702Y84000D02*
G03*
X-358702Y84000I-3048J0D01*
G01*
X-351452Y70750D02*
G03*
X-351452Y70750I-3048J0D01*
G01*
X-362720Y57003D02*
G03*
X-362720Y57003I-3048J0D01*
G01*
X-338202Y-273250D02*
G03*
X-338202Y-273250I-3048J0D01*
G01*
X-358202Y-282750D02*
G03*
X-358202Y-282750I-3048J0D01*
G01*
X-515202Y-200000D02*
G03*
X-515202Y-200000I-3048J0D01*
G01*
X-475452Y-218500D02*
G03*
X-475452Y-218500I-3048J0D01*
G01*
X-523952Y-209750D02*
G03*
X-523952Y-209750I-3048J0D01*
G01*
X-578202D02*
G03*
X-578202Y-209750I-3048J0D01*
G01*
X-283702Y-131750D02*
G03*
X-283702Y-131750I-3048J0D01*
G01*
X-413452Y-139500D02*
G03*
X-413452Y-139500I-3048J0D01*
G01*
X-395471Y-139757D02*
G03*
X-395471Y-139757I-3048J0D01*
G01*
X-403722Y-123756D02*
G03*
X-403722Y-123756I-3048J0D01*
G01*
X-768252Y-166500D02*
G03*
X-768252Y-166500I-3048J0D01*
G01*
X-148852Y68700D02*
G03*
X-148852Y68700I-3048J0D01*
G01*
X-745252Y-171200D02*
G03*
X-745252Y-171200I-3048J0D01*
G01*
X-830202Y-19500D02*
G03*
X-830202Y-19500I-3048J0D01*
G01*
X-453452Y22500D02*
G03*
X-453452Y22500I-3048J0D01*
G01*
X-708987Y72003D02*
G03*
X-708987Y72003I-3048J0D01*
G01*
X-681202Y102250D02*
G03*
X-681202Y102250I-3048J0D01*
G01*
X-653452Y71750D02*
G03*
X-653452Y71750I-3048J0D01*
G01*
X-623202Y48000D02*
G03*
X-623202Y48000I-3048J0D01*
G01*
X-951952Y7000D02*
G03*
X-951952Y7000I-3048J0D01*
G01*
D116*
X155998Y237854D02*
X154570Y239283D01*
X152427Y239997D01*
X149571D01*
X147428Y239283D01*
X146000Y237854D01*
Y236426D01*
X146714Y234998D01*
X147428Y234284D01*
X148856Y233570D01*
X153141Y232141D01*
X154570Y231427D01*
X155284Y230713D01*
X155998Y229285D01*
Y227142D01*
X154570Y225714D01*
X152427Y225000D01*
X149571D01*
X147428Y225714D01*
X146000Y227142D01*
X160068Y234998D02*
X164353Y225000D01*
X168638Y234998D02*
X164353Y225000D01*
X162925Y222143D01*
X161497Y220715D01*
X160068Y220001D01*
X159354D01*
X171138Y234998D02*
Y225000D01*
Y232141D02*
X173280Y234284D01*
X174708Y234998D01*
X176850D01*
X178279Y234284D01*
X178993Y232141D01*
Y225000D01*
Y232141D02*
X181135Y234284D01*
X182564Y234998D01*
X184706D01*
X186134Y234284D01*
X186848Y232141D01*
Y225000D01*
X191562Y239997D02*
Y225000D01*
Y232855D02*
X192990Y234284D01*
X194418Y234998D01*
X196561D01*
X197989Y234284D01*
X199417Y232855D01*
X200131Y230713D01*
Y229285D01*
X199417Y227142D01*
X197989Y225714D01*
X196561Y225000D01*
X194418D01*
X192990Y225714D01*
X191562Y227142D01*
X206915Y234998D02*
X205487Y234284D01*
X204059Y232855D01*
X203345Y230713D01*
Y229285D01*
X204059Y227142D01*
X205487Y225714D01*
X206915Y225000D01*
X209058D01*
X210486Y225714D01*
X211914Y227142D01*
X212629Y229285D01*
Y230713D01*
X211914Y232855D01*
X210486Y234284D01*
X209058Y234998D01*
X206915D01*
X215914Y239997D02*
Y225000D01*
X238114Y239997D02*
Y225000D01*
X248111Y239997D02*
Y225000D01*
X238114Y232855D02*
X248111D01*
X253682Y239997D02*
X254396Y239283D01*
X255110Y239997D01*
X254396Y240711D01*
X253682Y239997D01*
X254396Y234998D02*
Y225000D01*
X259895Y239997D02*
Y227857D01*
X260609Y225714D01*
X262037Y225000D01*
X263465D01*
X257752Y234998D02*
X262751D01*
X288103Y236426D02*
X287389Y237854D01*
X285960Y239283D01*
X284532Y239997D01*
X281676D01*
X280247Y239283D01*
X278819Y237854D01*
X278105Y236426D01*
X277391Y234284D01*
Y230713D01*
X278105Y228571D01*
X278819Y227142D01*
X280247Y225714D01*
X281676Y225000D01*
X284532D01*
X285960Y225714D01*
X287389Y227142D01*
X288103Y228571D01*
X295887Y234998D02*
X294459Y234284D01*
X293030Y232855D01*
X292316Y230713D01*
Y229285D01*
X293030Y227142D01*
X294459Y225714D01*
X295887Y225000D01*
X298029D01*
X299458Y225714D01*
X300886Y227142D01*
X301600Y229285D01*
Y230713D01*
X300886Y232855D01*
X299458Y234284D01*
X298029Y234998D01*
X295887D01*
X304885D02*
Y227857D01*
X305599Y225714D01*
X307027Y225000D01*
X309170D01*
X310598Y225714D01*
X312740Y227857D01*
Y234998D02*
Y225000D01*
X316668Y234998D02*
Y225000D01*
Y232141D02*
X318811Y234284D01*
X320239Y234998D01*
X322381D01*
X323810Y234284D01*
X324524Y232141D01*
Y225000D01*
X330594Y239997D02*
Y227857D01*
X331308Y225714D01*
X332736Y225000D01*
X334164D01*
X328451Y234998D02*
X333450D01*
X356364Y239997D02*
Y225000D01*
Y239997D02*
X365648D01*
X356364Y232855D02*
X362077D01*
X368790Y239997D02*
X369504Y239283D01*
X370219Y239997D01*
X369504Y240711D01*
X368790Y239997D01*
X369504Y234998D02*
Y225000D01*
X372861Y234998D02*
Y225000D01*
Y232141D02*
X375003Y234284D01*
X376432Y234998D01*
X378574D01*
X380002Y234284D01*
X380716Y232141D01*
Y225000D01*
X386072Y239997D02*
X386786Y239283D01*
X387501Y239997D01*
X386786Y240711D01*
X386072Y239997D01*
X386786Y234998D02*
Y225000D01*
X397998Y232855D02*
X397284Y234284D01*
X395142Y234998D01*
X392999D01*
X390857Y234284D01*
X390143Y232855D01*
X390857Y231427D01*
X392285Y230713D01*
X395856Y229999D01*
X397284Y229285D01*
X397998Y227857D01*
Y227142D01*
X397284Y225714D01*
X395142Y225000D01*
X392999D01*
X390857Y225714D01*
X390143Y227142D01*
X401141Y239997D02*
Y225000D01*
Y232141D02*
X403283Y234284D01*
X404711Y234998D01*
X406854D01*
X408282Y234284D01*
X408996Y232141D01*
Y225000D01*
X412924Y230713D02*
X421493D01*
Y232141D01*
X420779Y233570D01*
X420065Y234284D01*
X418637Y234998D01*
X416494D01*
X415066Y234284D01*
X413638Y232855D01*
X412924Y230713D01*
Y229285D01*
X413638Y227142D01*
X415066Y225714D01*
X416494Y225000D01*
X418637D01*
X420065Y225714D01*
X421493Y227142D01*
X433276Y239997D02*
Y225000D01*
Y232855D02*
X431848Y234284D01*
X430420Y234998D01*
X428278D01*
X426849Y234284D01*
X425421Y232855D01*
X424707Y230713D01*
Y229285D01*
X425421Y227142D01*
X426849Y225714D01*
X428278Y225000D01*
X430420D01*
X431848Y225714D01*
X433276Y227142D01*
X449059Y239997D02*
Y225000D01*
X459057Y239997D02*
Y225000D01*
X449059Y232855D02*
X459057D01*
X466769Y234998D02*
X465341Y234284D01*
X463913Y232855D01*
X463199Y230713D01*
Y229285D01*
X463913Y227142D01*
X465341Y225714D01*
X466769Y225000D01*
X468912D01*
X470340Y225714D01*
X471768Y227142D01*
X472482Y229285D01*
Y230713D01*
X471768Y232855D01*
X470340Y234284D01*
X468912Y234998D01*
X466769D01*
X475767Y239997D02*
Y225000D01*
X478909Y230713D02*
X487479D01*
Y232141D01*
X486765Y233570D01*
X486051Y234284D01*
X484623Y234998D01*
X482480D01*
X481052Y234284D01*
X479624Y232855D01*
X478909Y230713D01*
Y229285D01*
X479624Y227142D01*
X481052Y225714D01*
X482480Y225000D01*
X484623D01*
X486051Y225714D01*
X487479Y227142D01*
X512474Y237854D02*
X511045Y239283D01*
X508903Y239997D01*
X506047D01*
X503904Y239283D01*
X502476Y237854D01*
Y236426D01*
X503190Y234998D01*
X503904Y234284D01*
X505332Y233570D01*
X509617Y232141D01*
X511045Y231427D01*
X511760Y230713D01*
X512474Y229285D01*
Y227142D01*
X511045Y225714D01*
X508903Y225000D01*
X506047D01*
X503904Y225714D01*
X502476Y227142D01*
X517258Y239997D02*
X517973Y239283D01*
X518687Y239997D01*
X517973Y240711D01*
X517258Y239997D01*
X517973Y234998D02*
Y225000D01*
X529184Y234998D02*
X521329Y225000D01*
Y234998D02*
X529184D01*
X521329Y225000D02*
X529184D01*
X532327Y230713D02*
X540896D01*
Y232141D01*
X540182Y233570D01*
X539468Y234284D01*
X538040Y234998D01*
X535897D01*
X534469Y234284D01*
X533041Y232855D01*
X532327Y230713D01*
Y229285D01*
X533041Y227142D01*
X534469Y225714D01*
X535897Y225000D01*
X538040D01*
X539468Y225714D01*
X540896Y227142D01*
X563096Y232141D02*
X569523D01*
X571666Y232855D01*
X572380Y233570D01*
X573094Y234998D01*
Y237140D01*
X572380Y238568D01*
X571666Y239283D01*
X569523Y239997D01*
X563096D01*
Y225000D01*
X576451Y239997D02*
Y225000D01*
X588162Y234998D02*
Y225000D01*
Y232855D02*
X586734Y234284D01*
X585306Y234998D01*
X583163D01*
X581735Y234284D01*
X580307Y232855D01*
X579593Y230713D01*
Y229285D01*
X580307Y227142D01*
X581735Y225714D01*
X583163Y225000D01*
X585306D01*
X586734Y225714D01*
X588162Y227142D01*
X594304Y239997D02*
Y227857D01*
X595018Y225714D01*
X596446Y225000D01*
X597874D01*
X592161Y234998D02*
X597160D01*
X600017Y230713D02*
X608586D01*
Y232141D01*
X607872Y233570D01*
X607158Y234284D01*
X605730Y234998D01*
X603587D01*
X602159Y234284D01*
X600731Y232855D01*
X600017Y230713D01*
Y229285D01*
X600731Y227142D01*
X602159Y225714D01*
X603587Y225000D01*
X605730D01*
X607158Y225714D01*
X608586Y227142D01*
X620370Y239997D02*
Y225000D01*
Y232855D02*
X618941Y234284D01*
X617513Y234998D01*
X615371D01*
X613942Y234284D01*
X612514Y232855D01*
X611800Y230713D01*
Y229285D01*
X612514Y227142D01*
X613942Y225714D01*
X615371Y225000D01*
X617513D01*
X618941Y225714D01*
X620370Y227142D01*
X642570Y239997D02*
Y225000D01*
X652568Y239997D02*
Y225000D01*
X642570Y232855D02*
X652568D01*
X660280Y234998D02*
X658852Y234284D01*
X657424Y232855D01*
X656709Y230713D01*
Y229285D01*
X657424Y227142D01*
X658852Y225714D01*
X660280Y225000D01*
X662422D01*
X663851Y225714D01*
X665279Y227142D01*
X665993Y229285D01*
Y230713D01*
X665279Y232855D01*
X663851Y234284D01*
X662422Y234998D01*
X660280D01*
X669278Y239997D02*
Y225000D01*
X672420Y230713D02*
X680990D01*
Y232141D01*
X680276Y233570D01*
X679562Y234284D01*
X678133Y234998D01*
X675991D01*
X674563Y234284D01*
X673135Y232855D01*
X672420Y230713D01*
Y229285D01*
X673135Y227142D01*
X674563Y225714D01*
X675991Y225000D01*
X678133D01*
X679562Y225714D01*
X680990Y227142D01*
X700986Y239997D02*
Y225000D01*
X695987Y239997D02*
X705985D01*
X708484Y234998D02*
X712769Y225000D01*
X717054Y234998D02*
X712769Y225000D01*
X711341Y222143D01*
X709912Y220715D01*
X708484Y220001D01*
X707770D01*
X719553Y234998D02*
Y220001D01*
Y232855D02*
X720981Y234284D01*
X722410Y234998D01*
X724552D01*
X725980Y234284D01*
X727409Y232855D01*
X728123Y230713D01*
Y229285D01*
X727409Y227142D01*
X725980Y225714D01*
X724552Y225000D01*
X722410D01*
X720981Y225714D01*
X719553Y227142D01*
X731336Y230713D02*
X739906D01*
Y232141D01*
X739192Y233570D01*
X738478Y234284D01*
X737049Y234998D01*
X734907D01*
X733479Y234284D01*
X732050Y232855D01*
X731336Y230713D01*
Y229285D01*
X732050Y227142D01*
X733479Y225714D01*
X734907Y225000D01*
X737049D01*
X738478Y225714D01*
X739906Y227142D01*
X128600Y247500D02*
X762106D01*
X128600Y213750D02*
X762106D01*
X128600Y247500D02*
Y-86250D01*
X762106Y247500D02*
Y-86250D01*
X229414Y247500D02*
Y-86250D01*
X347664Y247500D02*
Y-86250D01*
X554396Y247500D02*
Y-86250D01*
X633870Y247500D02*
Y-86250D01*
X128600Y-61250D02*
X762106D01*
X128600Y-86250D02*
X762106D01*
D117*
X155144Y201250D02*
G03*
X155144Y201250I-4572J0D01*
G01*
Y1250D02*
G03*
X155144Y1250I-4572J0D01*
G01*
D118*
X153112Y201250D02*
G03*
X153112Y201250I-2540J0D01*
G01*
M02*
