M48
;Layer_Color=9474304
;FILE_FORMAT=4:4
METRIC,LZ
;TYPE=PLATED
T1F00S00C0.4000
T2F00S00C0.9000
T3F00S00C0.9500
T4F00S00C1.4000
T5F00S00C2.2000
;TYPE=NON_PLATED
T6F00S00C1.0000
T7F00S00C1.1000
T8F00S00C1.6000
T9F00S00C1.8000
T11F00S00C3.2000
T12F00S00C3.2700
%
T01
X-01013Y-0029
X-01
X-01047Y-00166
Y-00151
X-0098Y-00145
X-0095
X-0094Y-001285
X-00915Y-00145
X-00907Y-00185
X-00879
X-00857Y-00268
X-00844
X-0083Y-00285
Y-0025
X-00796
X-007712Y-001809
X-007713Y-001665
X-007631Y-001744
X-007483Y-001712
X-007415Y-0017775
X-00738Y-0016
X-007375Y-0013275
X-0073425Y-001215
X-00743
X-00723Y-0009925
X-00737Y-00078
X-00734Y-00059
X-007335Y-0004
X-0074675Y-000335
X-00755Y-0004475
X-00774
X-00769Y-00069
X-0081875Y-0009175
X-0084675Y-0008425
X-00883Y-000715
X-0090275Y-000375
X-009255Y-0002975
X-0095325Y-00043
X-0095275Y-00068
X-0093975Y-0008125
X-00955Y00007
X-0083325Y-000195
X-006845Y-000395
X-0066575Y-0005875
Y-0006675
Y-0007475
X-006325Y-0007475
X-006245
X-006325Y-0006675
X-0060475Y-0008475
X-0061125Y-0013075
X-006035Y-001385
X-0066575Y-0014375
X-0069025Y-0015075
X-0071325Y-001675
X-0074175Y-0032625
X-00666Y-0032975
X-00823Y-0032
X-008715Y-0031525
X-009135Y-003125
X-00939Y-00301
Y-00288
X-0096925Y-0030525
X-0098Y-002525
Y-0021575
X-00951Y-0021995
X-0098Y-0018025
X-0067975Y0000975
X-00665Y00008
X-00678Y0002675
X-00605875Y00019875
X-00578Y00021
X-005515Y000245
X-005545Y0000825
X-004995
X-0045675Y00002
X-004565Y000225
X-004345Y0002825
X-0039525Y000275
X-0040075Y-00013
X-00396Y-0002375
X-00416
X-00414531Y-00006
X-00422521Y-00011
X-00439Y-000195
X-00458Y-00047
X-00452Y-00065
X-0044275Y-0008425
X-00438Y-00117
X-0043725Y-0014475
X-0043Y-00157
X-0043775Y-0016375
X-0041725Y-001635
X-00406Y-00159
X-00398519Y-00139757
X-0040975Y-00133
X-0040677Y-00123756
X-004165Y-001395
X-0042Y-00105
X-004Y-00094
X-0041275Y-000655
X-00334266Y-00066753
X-003385Y-000945
X-0034825Y-00094
X-00316
X-003205Y-0011575
X-0032075Y-0013825
X-00321Y-00159
X-003125Y-001735
X-00321016Y-00187766
X-00316Y-00211
X-00346Y-00216
X-00401
X-00412Y-002445
X-004275Y-002695
X-00388Y-0028425
X-0036125Y-0028275
X-0034125Y-0027325
X-00319Y-0025475
X-002975Y-0030375
X-0027625Y-00219
X-0026325Y-001925
X-00245Y-0016675
X-00252Y-00146
X-00245Y-0013525
X-00248512Y-00126756
X-00252262Y-00114756
X-002775Y-0011575
X-0027775Y-00132
X-0028675Y-0013175
Y-0015625
X-00264Y-00136
X-002255Y-00156
X-002245Y-001085
Y-000385
X-00252262Y-00038002
X-0029575Y-000375
X-00331Y-0002375
X-00329Y-000105
X-0034425Y-00011
X-0034925Y-0002375
X-0029925Y-0008425
X-00379Y-00116
X-00473Y-0011
X-00486Y-00123
X-0049325Y-00166
X-004705Y-0016625
X-00483Y-0018175
X-0049625Y-0018925
X-0051825Y-002
X-00527Y-0020975
X-0053125Y-0018925
X-005335Y-0016575
X-0056825Y-00188
X-0058125Y-0020975
X-005735Y-00129
X-005865Y-0010675
X-005865Y-0009
X-005865Y-000615
X-00579Y-00041
X-00511Y-00048
X-00518Y-00065
X-0051825Y-00094
X-004785Y-002185
X-0046125Y-0022575
X-00438Y-00205
X-0043775Y-00189
X-00231Y-00253
X-0056925Y-00332
X-001535Y-002535
X-0019525Y-0015575
X-00196Y-001085
X-0019575Y-0005425
X-0018625Y-000495
X-001645Y-000505
X-001485
X-0013375Y-0005025
X-00169Y-00009
X-001725Y0001625
X-0019375Y000155
X-0019325Y-000025
X-0005925Y-0000975
X-00059Y000205
X-0007575Y00037
X-0007225Y0005075
X-0010775Y0005575
Y00036
X-0013825Y000545
X-001519Y000687
X-001617
Y000787
X-0016175Y0009925
X-0014675Y0009425
X-0014425Y001065
X-0013125Y00118
X-0013075Y0014625
X-001315Y001625
X-00171Y00166
X-00196Y00186
X-00197Y0025775
X-0016275Y0011825
X-0010925Y0013025
X-00100005Y00133006
X-00045Y00145
X-000455Y001075
X-00037Y0008925
X-0004525Y00183
X-0017825Y00067
X-0019625Y00052
X-002225Y0007175
X-00214Y0008825
X-002105Y0009725
X-0020575Y00105
X-002245Y001125
X-00235267Y00124506
X-002405Y0013225
X-00231761Y00136507
X-002255Y001455
X-00246512Y00145757
X-00252012Y00125256
X-00249762Y00116256
X-00259258Y0011375
X-00256Y00098
X-00252Y00075
X-002945Y0009225
X-00300515Y00115256
X-00336266Y00115006
X-00332Y001065
X-00336Y0009775
X-00332016Y00089004
X-00332306Y00077754
X-00336516Y0006599
X-00344Y0007125
X-003545Y0007075
X-00353272Y0007975
X-0036175Y00084
X-0036875Y0008975
X-00379019Y00091255
X-00380244Y00082254
X-0039375Y0008625
X-0040425Y0007725
X-0041002Y00070003
X-0041302Y00061003
X-00420521Y00055503
X-0041925Y00085
X-004315Y0007725
X-00438772Y00087
X-00449272Y00080754
X-0046Y00086
X-0045875Y001085
X-0044175Y001075
X-00427Y00115
X-0044425Y00129277
X-00459Y0013025
X-00459772Y00150007
Y00164008
X-00447272Y00167758
X-00441272Y00161008
X-0043475Y001845
X-0045475Y001815
X-00473273Y00187759
X-00482273Y00184759
X-00495024Y00185509
X-00495Y00214
X-004795
X-00469023Y0020176
X-00464Y0023125
X-004375Y00231
X-0042775Y002175
X-0041875Y00214
X-0040778Y0021575
X-00387019Y0021001
X-00370277Y0022125
X-003605Y00224875
X-0034875Y0023725
X-0034575Y0020975
X-0034Y00184
X-00341767Y00152507
X-00354267Y00146757
X-00363268Y00144507
X-00360768Y00159758
X-00370518Y00161
X-003725Y0018075
X-00381519Y00180009
X-00389769Y00175259
X-00396519Y00169008
X-0039275Y0015925
X-00411Y00147
X-0040275Y0013875
X-0039375Y0011475
X-0036225Y0012375
X-00365768Y00057003
X-00345Y0006
X-0032025Y0005225
X-0032825Y0003325
X-003525Y0003225
X-0039375Y000635
X-00445272Y00068253
X-0045175Y00062003
X-0046075Y0006125
X-0045475Y0003175
X-00496Y0003425
X-00511Y00034
X-0052875
X-0052375Y0008325
X-0056225Y0008425
X-0057725Y00098
X-00596Y0010275
X-0057725Y0013425
X-005955Y001545
X-0059525Y0019425
X-005585Y0018375
X-005695Y0021625
X-00557027Y00228761
X-005495Y0022325
X-0052675Y00214
X-0053325Y00155
X-00496Y0013425
X-0049625Y0009825
X-00404Y0018025
X-004095Y002565
X-003725
X-00353Y002715
X-00321Y0026375
X-0032125Y002534
X-003135Y002345
X-002975Y0022975
X-0027125Y0023425
X-0026325Y0019625
X-00254762Y00190759
X-0024675Y0019625
X-00232Y0019725
X-00215Y00205
X-0020525Y002155
X-00216Y00179
X-00265263Y00182759
X-0026875Y0017375
X-00272263Y00164508
X-00279514Y00159008
X-002795Y0015
X-0029275Y001525
X-0028275Y001845
X-0037975Y0029275
X-0044625Y002534
X-00583Y00253
X-0059Y0026
X-00597Y00267
X-005965Y0024475
X-005975Y0022425
X-0061325
X-0063775Y0023075
X-00656Y0023525
X-00656282Y00216261
X-00643781Y0021226
X-00642031Y0020251
X-00628781
X-0062453Y00194009
X-006485Y001725
X-00655098Y00178878
X-00656Y00159
X-0065Y00152
X-0065675Y00141
X-00648532Y00135507
X-00668033Y00133006
X-0068075Y0013625
Y0015175
X-0068975Y00159
X-00671849Y00168878
X-0070525Y00175
Y0018775
X-006995Y0021475
X-0070725Y002205
X-0069825Y0023175
X-00706785Y00253762
X-0072625Y002445
X-00752Y0025375
X-0077875Y0024025
X-0078625Y00219
X-00769Y001925
X-00751Y0019725
X-00735Y0020275
X-007035Y001345
X-0068425Y0010225
X-00666783Y00106255
X-00662Y0009825
X-0065575Y0008825
X-0064925Y000945
X-00644Y0007975
X-006565Y0007175
X-0067575Y0005875
X-00712035Y00072003
X-00742Y0009525
X-0077325Y001055
Y0006825
X-00833Y0007225
X-008815
X-00899Y0009625
X-00902Y00115
X-0089575Y0021025
X-0089375Y002285
X-008325
X-00833Y0019825
X-0083075Y0015125
X-007875Y0014775
X-0081225Y002845
X-00628Y00253
X-006225Y0014275
X-00609375Y00129625
X-00642Y001105
X-006295Y000635
X-0062625Y00048
X-0060575Y000375
X-00601Y000695
X-009515Y0002875
T02
X-009887Y-00032
X-009687
Y-00007
X-009887
T03
X-004617Y-00311
X-004363
X-001027Y-002443
Y-002189
Y-001935
Y-001681
Y-001427
X-000773
Y-001681
Y-001935
Y-002189
Y-002443
Y-001173
Y-000919
Y-000665
Y-000411
Y-000157
X-001027
Y-000411
Y-000665
Y-000919
Y-001173
X-003152Y002823
X-003406
X-00366
X-003914
X-004168
Y003077
X-003914
X-00366
X-003406
X-003152
X-0047
Y002823
X-0057545Y003075
X-0060085
X-0062625
X-0065165
X-0067705
T04
X-00902Y-00239
T05
X-010158Y-000797
Y000407
T06
X-009019Y-0012115
X-008641Y-0008335
X-005609Y-000309
X-005059
X-005231Y000069
X-004681
T07
X-000175Y000715
Y002685
T08
X-0106825Y-001965
T09
X-0102325Y-001965
T11
X-007728Y-002825
X-002728
Y002825
X-007728
T12
X-0106475Y00099
Y00226
M30
