M48
;Layer_Color=9474304
;FILE_FORMAT=4:4
METRIC,LZ
T10F00S00C3.0000
%
G90
G05
T10
G00X-01052882Y-00323429
M15
G01X-01044083Y-00324854
G01X-01012102Y-00329528
G01X-00953356Y-00337092
G01X-00894489Y-00343653
G01X-00835519Y-00349207
G01X-00776462Y-00353753
G01X-00717337Y-0035729
G01X-0065816Y-00359818
G01X-00598948Y-00361335
G01X-00539719Y-0036184
G01X-00539404Y-00361838
G01X-00539404Y-00361714
G01X-00539485Y-00283916
G01X-00539164Y-00280656
G01X-00538213Y-00277522
G01X-00536669Y-00274634
G01X-00534591Y-00272102
G01X-0053206Y-00270024
G01X-00529171Y-0026848
G01X-00526037Y-00267529
G01X-00522777Y-00267208
G01X-00519518Y-00267529
G01X-00516384Y-0026848
G01X-00513495Y-00270024
G01X-00510963Y-00272102
G01X-00508885Y-00274634
G01X-00507341Y-00277522
G01X-00506391Y-00280656
G01X-0050607Y-00283916
G01X-0050615Y-00283916
G01X-0050615Y-00361554
G01X-00480489Y-00361335
G01X-00421278Y-00359818
G01X-003621Y-0035729
G01X-00302975Y-00353753
G01X-00243918Y-00349207
G01X-00184948Y-00343653
G01X-00126081Y-00337092
G01X-00067335Y-00329528
G01X-00008726Y-00320962
G01X00015001Y-0031708
G01X00015Y-00317075
G01X00015001Y0031708
G01X-00008726Y00320962
G01X-00067335Y00329528
G01X-00126081Y00337092
G01X-00184948Y00343653
G01X-00243918Y00349207
G01X-00302975Y00353753
G01X-003621Y0035729
G01X-00421278Y00359818
G01X-00480489Y00361335
G01X-0050615Y00361554
G01X-0050615Y00361552
G01X-0050607Y00283916
G01X-00506391Y00280656
G01X-00507341Y00277522
G01X-00508885Y00274634
G01X-00510963Y00272102
G01X-00513495Y00270024
G01X-00516384Y0026848
G01X-00519518Y00267529
G01X-00522777Y00267208
G01X-00526037Y00267529
G01X-00529171Y0026848
G01X-0053206Y00270024
G01X-00534591Y00272102
G01X-00536669Y00274634
G01X-00538213Y00277522
G01X-00539164Y00280656
G01X-00539485Y00283916
G01X-00539404Y00283916
G01X-00539404Y00361838
G01X-00539719Y0036184
G01X-00598948Y00361335
G01X-0065816Y00359818
G01X-00717337Y0035729
G01X-00776462Y00353753
G01X-00835519Y00349207
G01X-00894489Y00343653
G01X-00953356Y00337092
G01X-01012102Y00329528
G01X-01056799Y00322996
G01X-01056794Y00322961
G01X-01056794Y00322796
G01X-01052944Y00323421
G01X-01056953Y0032274
G01X-01063818Y00320762
G01X-01070417Y00318029
G01X-0107667Y00314573
G01X-01082496Y00310439
G01X-01087823Y00305679
G01X-01092583Y00300352
G01X-01096717Y00294526
G01X-01100172Y00288274
G01X-01102906Y00281674
G01X-01104884Y00274809
G01X-0110608Y00267766
G01X-01106481Y00260634
G01X-0110608Y00253501
G01X-01104884Y00246458
G01X-01104642Y0024562
G01X-01104587Y00245634
G01X-01106381Y00245634
G01X-01106381Y-00245634
G01X-01104642Y-0024562
G01X-01104884Y-00246458
G01X-0110608Y-00253501
G01X-01106481Y-00260634
G01X-0110608Y-00267766
G01X-01104884Y-00274809
G01X-01102906Y-00281674
G01X-01100172Y-00288274
G01X-01096717Y-00294526
G01X-01092583Y-00300352
G01X-01087823Y-00305679
G01X-01082496Y-00310439
G01X-0107667Y-00314573
G01X-01070417Y-00318029
G01X-01063818Y-00320762
G01X-01056953Y-0032274
G01X-01052883Y-00323432
G01X-01052882Y-00323429
M16
M17
M30
